<svg width="1920" height="1466" fill="none" xmlns="http://www.w3.org/2000/svg"><mask id="a" maskUnits="userSpaceOnUse" x="0" y="0" width="1920" height="1466"><path fill="#C4C4C4" d="M0 0h1920v1466H0z"/></mask><g mask="url(#a)" fill="#FA5652"><path opacity=".1" d="M2082.13 1133.63c-6-.25-11.23 4.35-12.78 10.73-9.29.62-19.91.74-31.55-.15-6.48-.5-12.63-1.26-18.38-2.18.04-1.12.07-2.25.09-3.38.06-5.51-.27-10.93-.94-16.24 2.97-2.24 6.67-4.58 11.15-6.58a57.51 57.51 0 0120.55-4.98c2.66 6.32 8.88 10.06 14.9 8.54 6.79-1.71 10.77-9.41 8.85-17.21-1.9-7.8-8.93-12.74-15.72-11.03-6.18 1.56-10.02 8.1-9.22 15.15-4.9 2.75-12.18 5.7-21.16 5.81-4.42.07-8.29-.58-11.42-1.4-1.9-8.24-4.66-16.16-8.22-23.63 3.9-3.49 8.51-7.19 13.91-10.74 7.8-5.17 15.32-8.84 21.91-11.46 4.22 5.13 11.01 6.9 16.32 3.87 6.09-3.46 7.88-11.97 4.03-18.98-3.86-7-11.95-9.86-18.04-6.39-5.29 3.02-7.35 9.83-5.26 16.16-5.69 4.36-12.67 8.96-21.04 13.03-5.69 2.79-11.12 4.89-16.04 6.48-3.93-6.85-8.53-13.25-13.72-19.11 2.12-7.43 5.64-16.09 11.57-24.74a83.307 83.307 0 0116.92-18.1c5.64 3.64 12.8 3.17 16.92-1.48 4.7-5.28 3.75-13.91-2.14-19.29-5.85-5.391-14.41-5.487-19.09-.211-4.12 4.661-3.89 11.911.27 17.261a81.56 81.56 0 01-16.02 18.93c-8.26 7.19-16.52 11.46-22.81 13.97a113.34 113.34 0 00-22.99-14.22 51.68 51.68 0 015.01-10.08c1.71-2.64 3.54-4.95 5.39-6.97 6.27 2.69 13.36.9 16.61-4.52 3.65-6.06 1.13-14.369-5.62-18.555-6.75-4.188-15.16-2.676-18.81 3.389-3.2 5.326-1.64 12.396 3.37 16.876-1.09 2.82-2.4 5.74-3.97 8.71a84.937 84.937 0 01-5.74 9.49c-.84-.36-1.67-.7-2.51-1.01-9.82-3.87-20.31-6.37-31.26-7.31-1.74-4.95-3.24-10.43-4.27-16.45a100.162 100.162 0 01-.4-30.91c6.46-1.176 11.34-6.257 11.42-12.418.09-7.1-6.24-12.933-14.14-13.03-7.92-.097-14.41 5.579-14.49 12.679-.08 6.266 4.85 11.539 11.45 12.759a91.025 91.025 0 01-.22 31.73 90.821 90.821 0 01-4.32 15.36c-10.53.48-20.66 2.41-30.24 5.62-1.3-2.16-2.47-4.43-3.51-7.1-2.04-5.28-2.89-10.22-3.2-14.32 6.21-3.19 9.47-10.011 7.38-16.101-2.32-6.698-10.24-9.969-17.71-7.303-7.46 2.666-11.64 10.255-9.31 16.955 2 5.779 8.18 8.999 14.62 8.059 1.84 3.95 3.58 8.5 4.92 13.66.74 2.73 1.26 5.4 1.66 8.01-8.71 3.38-16.89 7.83-24.42 13.18-3.89-2.94-7.88-6.34-11.8-10.31-9.04-9.16-15.02-18.51-18.94-25.99 4.5-4.93 5.37-12.064 1.71-17.03-4.19-5.682-12.72-6.381-19.05-1.562-6.32 4.821-8.05 13.332-3.88 19.012 3.73 5.02 10.8 6.14 16.78 3.01 5.71 5.34 13.13 13.73 18.79 25.74 2.6 5.5 4.38 10.83 5.63 15.8-1.21 1.1-2.44 2.24-3.61 3.4-5.9 5.87-11.2 12.39-15.76 19.45-2.62-.8-5.34-1.77-8.12-2.95-9.04-3.82-16.02-8.65-21.07-12.84 2.24-6.39.21-13.34-5.15-16.41-6.07-3.49-14.15-.64-18.04 6.36-3.9 7-2.12 15.5 3.98 18.98 5.35 3.07 12.23 1.24 16.46-4a86.453 86.453 0 0121.75 11.66 92.88 92.88 0 016.51 5.33 115.73 115.73 0 00-13.27 37.69c-5.45.4-11.32.56-17.62.28-9-.39-17.11-1.56-24.2-3.04-.07-7.09-4.66-13.07-10.97-13.83-6.95-.82-13.33 4.98-14.26 12.96-.91 7.98 3.97 15.11 10.9 15.94 6.19.73 11.89-3.78 13.75-10.41 7.27.24 15.44 1 24.28 2.66 6.13 1.15 11.78 2.58 17.01 4.17-.29 3.07-.44 6.18-.48 9.33-.09 7.47.5 14.78 1.76 21.88-6.09 3.98-14.44 8.47-25.06 11.57a92.577 92.577 0 01-24.33 3.7c-2.32-6.32-8.21-10.33-14.24-9.22-6.86 1.26-11.31 8.69-9.91 16.6 1.41 7.91 8.13 13.29 14.99 12.03 5.95-1.09 10.06-6.79 10.16-13.43 6.84-2.16 14.91-4.18 24.07-5.44 10.52-1.45 19.96-1.56 27.9-1.12 3.06 9.82 7.42 19.05 12.82 27.53a73.546 73.546 0 01-8.84 5.97c-6.28 3.62-12.3 5.84-17.52 7.26-3.44-5.74-9.98-8.5-15.69-6.24-6.5 2.58-9.46 10.75-6.58 18.22 1.81 4.7 5.49 8.02 9.59 9.19 2.42.7 4.99.65 7.41-.31.71-.28 1.4-.64 2.03-1.07 4.76-3.12 6.85-9.7 4.94-16.01 4.94-2.52 10.72-5 17.35-7.03 4.28-1.29 8.35-2.23 12.17-2.92a112.467 112.467 0 0012.41 14.09c-2.86 6.26-7.13 13.87-13.53 21.55-6.27 7.52-12.75 12.97-18.21 16.81-5.37-3.97-12.47-3.97-16.88.35-5.04 4.92-4.67 13.61.83 19.4 5.47 5.77 14.02 6.47 19.04 1.54 4.38-4.28 4.68-11.39 1.07-16.97 4.32-5.58 9.93-11.85 17.08-18.03a125.41 125.41 0 0121.85-15.1c8.57 6.36 18.07 11.53 28.23 15.28-.45 3.9-1.19 8.1-2.38 12.51a89.025 89.025 0 01-9.74 22.93c-6.55-1.42-13.07 1.55-15.36 7.35-2.58 6.58 1.27 14.35 8.6 17.34s15.38.07 17.99-6.53c2.26-5.73-.34-12.34-5.9-15.93 1.67-6.83 4.27-14.9 8.34-23.56 2-4.22 4.1-8.06 6.25-11.56 7.84 2.25 16.02 3.68 24.47 4.15 1.29 6.74 2.32 14.27 2.76 22.5.66 12.24-.12 23.06-1.38 31.98-6.44 1.19-11.3 6.27-11.38 12.42-.09 7.09 6.24 12.93 14.18 13.02 7.9.1 14.37-5.57 14.46-12.67.07-6.13-4.64-11.32-11.01-12.68-.95-9.15-1.4-19.96-.64-32.02.51-8.13 1.51-15.63 2.75-22.41 8.84-.24 17.43-1.51 25.65-3.71.69 1.23 1.36 2.52 2.01 3.84a88.766 88.766 0 017.86 23.33c-5.74 3.29-8.73 9.79-6.74 15.64 2.25 6.71 10.16 10.04 17.64 7.44 7.47-2.6 11.72-10.16 9.45-16.88-2-5.95-8.46-9.24-15.11-8.1a62.47 62.47 0 01-7.53-23.73 48.82 48.82 0 01-.29-3.75c9.15-3.1 17.79-7.37 25.76-12.62 5.04 4.27 10.34 9.36 15.6 15.39a145.78 145.78 0 0118.16 26.14c-4.43 4.92-5.27 12-1.64 16.94 4.21 5.68 12.72 6.37 19.06 1.55 6.31-4.81 8.04-13.32 3.87-19.01-3.63-4.9-10.5-6.1-16.37-3.21a173.755 173.755 0 01-19.68-24.99c-4.26-6.56-7.78-12.92-10.66-18.89 3.21-2.57 6.28-5.3 9.22-8.21 4.78-4.75 9.17-9.92 13.07-15.46 7.05 2.09 15.17 5.13 23.76 9.64 8.3 4.34 15.2 9.08 20.75 13.49-2.2 6.27-.27 13.11 4.96 16.22 6.02 3.6 14.15.89 18.16-6.03 4.01-6.93 2.36-15.46-3.66-19.06-5.27-3.14-12.17-1.47-16.48 3.65a98.691 98.691 0 01-21.57-11.98 99.55 99.55 0 01-18.61-17.73c3.09-5.72 5.72-11.74 7.84-18.01 3.38.16 6.97.51 10.66 1.12a92.163 92.163 0 0123.57 7.23c-.61 6.72 3.05 12.92 8.95 14.54 6.75 1.85 13.9-2.93 15.97-10.69 2.06-7.76-1.72-15.55-8.49-17.4-5.91-1.63-12.17 1.88-15 8.04a84.894 84.894 0 01-23.89-5.87 84.682 84.682 0 01-9.49-4.6 115.32 115.32 0 003.22-17.96c5.89-.41 12.16-.64 18.75-.58 11.62.11 22.17 1.09 31.43 2.45 1.04 6.49 5.88 11.48 11.86 11.75 6.99.28 12.93-5.99 13.23-14.02.32-8.03-5.07-14.77-12.04-15.06zm-344.69-185.555c-2.41-.1-4.52 1.748-5.14 4.317a89.38 89.38 0 01-12.69-.061 92.98 92.98 0 01-7.4-.878c.02-.451.03-.906.04-1.361.03-2.216-.11-4.395-.38-6.529 1.2-.902 2.68-1.846 4.49-2.65a23.042 23.042 0 018.26-2c1.07 2.541 3.58 4.043 6 3.432 2.73-.687 4.33-3.785 3.56-6.921-.77-3.137-3.59-5.126-6.32-4.439-2.49.629-4.04 3.258-3.71 6.095-1.98 1.105-4.91 2.293-8.52 2.339-1.77.026-3.33-.235-4.59-.563a45.494 45.494 0 00-3.31-9.507 48.14 48.14 0 015.6-4.321 48.4 48.4 0 018.81-4.608c1.7 2.061 4.43 2.773 6.56 1.556 2.46-1.394 3.18-4.815 1.63-7.634-1.56-2.818-4.81-3.968-7.26-2.57-2.13 1.212-2.96 3.954-2.12 6.498a48.937 48.937 0 01-8.46 5.244 48.98 48.98 0 01-6.45 2.606 46.147 46.147 0 00-5.52-7.688 34.23 34.23 0 014.65-9.955 33.901 33.901 0 016.81-7.28c2.27 1.466 5.15 1.278 6.81-.595 1.89-2.122 1.51-5.595-.86-7.758-2.36-2.169-5.8-2.208-7.68-.085-1.66 1.873-1.57 4.792.11 6.942a33.008 33.008 0 01-6.45 7.618 32.235 32.235 0 01-9.17 5.619 45.813 45.813 0 00-9.25-5.722c.5-1.356 1.16-2.719 2.01-4.055.69-1.06 1.43-1.99 2.17-2.802 2.52 1.079 5.38.36 6.68-1.821 1.47-2.435.46-5.778-2.26-7.462-2.71-1.685-6.1-1.077-7.57 1.363-1.28 2.144-.65 4.988 1.36 6.788a33.835 33.835 0 01-1.6 3.505 34.473 34.473 0 01-2.3 3.815c-.34-.141-.68-.278-1.01-.405a44.57 44.57 0 00-12.58-2.94c-.7-1.992-1.3-4.197-1.72-6.616a40.147 40.147 0 01-.16-12.435c2.6-.473 4.57-2.517 4.6-4.996.03-2.856-2.52-5.202-5.69-5.241-3.19-.039-5.8 2.244-5.83 5.1-.03 2.521 1.95 4.642 4.6 5.133.54 3.18.87 7.625-.08 12.763a37.326 37.326 0 01-1.74 6.18c-4.24.191-8.31.97-12.17 2.259-.52-.869-.99-1.781-1.41-2.854a20.38 20.38 0 01-1.29-5.763c2.5-1.284 3.82-4.026 2.97-6.475-.93-2.695-4.12-4.01-7.12-2.938-3 1.072-4.68 4.125-3.75 6.82.81 2.325 3.29 3.619 5.89 3.242a33.028 33.028 0 011.98 5.493c.29 1.099.5 2.173.66 3.223a45.29 45.29 0 00-9.82 5.303 42.92 42.92 0 01-4.75-4.149 43.726 43.726 0 01-7.61-10.452c1.81-1.985 2.16-4.854.68-6.852-1.68-2.286-5.12-2.566-7.66-.628-2.54 1.939-3.24 5.363-1.56 7.648 1.5 2.02 4.34 2.471 6.75 1.211a34.196 34.196 0 017.56 10.356 34.612 34.612 0 012.26 6.352c-.48.444-.98.903-1.45 1.371a46.42 46.42 0 00-6.34 7.822 33.445 33.445 0 01-3.27-1.185 34.084 34.084 0 01-8.47-5.165c.9-2.571.08-5.367-2.08-6.602-2.44-1.403-5.69-.258-7.25 2.558-1.57 2.814-.85 6.234 1.6 7.636 2.15 1.234 4.92.497 6.62-1.612 2.48.906 5.57 2.349 8.75 4.694.95.7 1.81 1.42 2.62 2.142a46.435 46.435 0 00-5.34 15.16c-2.19.163-4.55.226-7.09.115a60.211 60.211 0 01-9.73-1.225c-.03-2.85-1.88-5.258-4.42-5.56-2.79-.333-5.36 2-5.73 5.21-.37 3.21 1.6 6.081 4.38 6.413 2.49.296 4.79-1.521 5.53-4.186a64.303 64.303 0 0116.61 2.745 51.515 51.515 0 00-.19 3.752c-.04 3.006.2 5.948.71 8.804a37.71 37.71 0 01-10.08 4.654 37.457 37.457 0 01-9.79 1.49c-.93-2.546-3.3-4.156-5.73-3.711-2.76.508-4.55 3.497-3.98 6.677.56 3.181 3.27 5.348 6.03 4.84 2.39-.439 4.04-2.733 4.08-5.401a58.069 58.069 0 0120.91-2.639 45.868 45.868 0 005.16 11.072 29.785 29.785 0 01-10.61 5.325c-1.38-2.313-4.01-3.423-6.31-2.513-2.61 1.041-3.8 4.324-2.65 7.332.73 1.888 2.21 3.225 3.86 3.696.98.282 2.01.262 2.98-.124.29-.116.57-.26.82-.432 1.92-1.257 2.76-3.9 1.99-6.442a43.038 43.038 0 016.98-2.825c1.72-.522 3.35-.898 4.89-1.174a45.845 45.845 0 004.53 5.215c.15.154.31.307.46.451a38.677 38.677 0 01-5.44 8.669 37.872 37.872 0 01-7.33 6.762c-2.15-1.598-5.01-1.599-6.78.14-2.03 1.985-1.88 5.475.33 7.805 2.2 2.32 5.64 2.6 7.66.62 1.76-1.72 1.88-4.58.43-6.83a50.27 50.27 0 016.87-7.249 50.528 50.528 0 018.79-6.075 45.624 45.624 0 0011.35 6.146 34.056 34.056 0 01-.95 5.033 35.922 35.922 0 01-3.92 9.225c-2.63-.57-5.26.62-6.18 2.95-1.04 2.65.51 5.78 3.46 6.98 2.95 1.2 6.19.03 7.24-2.63.91-2.3-.14-4.96-2.38-6.4.67-2.75 1.72-6 3.36-9.48.8-1.698 1.65-3.244 2.51-4.652 3.16.907 6.45 1.479 9.85 1.668.52 2.711.93 5.744 1.11 9.054.26 4.92-.05 9.27-.56 12.86-2.59.48-4.55 2.52-4.58 5-.03 2.85 2.52 5.2 5.71 5.24 3.17.04 5.78-2.25 5.81-5.1.03-2.46-1.86-4.55-4.42-5.1-.39-3.68-.57-8.03-.26-12.88.2-3.27.61-6.29 1.1-9.017 3.56-.094 7.02-.607 10.32-1.492.28.497.55 1.013.81 1.543a35.645 35.645 0 013.16 9.386c-2.31 1.32-3.51 3.94-2.71 6.29.9 2.7 4.09 4.04 7.1 3 3-1.05 4.71-4.09 3.8-6.79-.81-2.4-3.4-3.72-6.08-3.26a25.125 25.125 0 01-3.03-9.547c-.06-.514-.1-1.017-.12-1.511a44.965 44.965 0 0010.37-5.078 58.781 58.781 0 0113.58 16.706c-1.79 1.98-2.12 4.83-.66 6.82 1.69 2.28 5.12 2.56 7.66.62s3.24-5.36 1.56-7.65c-1.46-1.97-4.22-2.45-6.59-1.29a70.245 70.245 0 01-7.91-10.049 68.64 68.64 0 01-4.29-7.602 47.472 47.472 0 003.71-3.3 46.973 46.973 0 005.26-6.222 53.109 53.109 0 0117.9 9.306c-.88 2.523-.11 5.275 2 6.524 2.42 1.449 5.69.36 7.3-2.425 1.62-2.788.95-6.218-1.47-7.667-2.12-1.263-4.89-.59-6.63 1.467a39.741 39.741 0 01-8.68-4.819 39.933 39.933 0 01-7.48-7.133c1.24-2.3 2.3-4.721 3.15-7.245a37.033 37.033 0 0113.77 3.362c-.24 2.702 1.23 5.197 3.6 5.848 2.72.745 5.59-1.18 6.43-4.301.82-3.121-.7-6.253-3.42-6.998-2.38-.656-4.89.756-6.03 3.233-2.62-.25-5.97-.875-9.61-2.362a34.302 34.302 0 01-3.82-1.85 46.37 46.37 0 001.29-7.225c2.38-.165 4.89-.258 7.55-.23 4.67.043 8.92.437 12.64.985.42 2.611 2.36 4.618 4.77 4.724 2.81.114 5.2-2.409 5.32-5.639.13-3.229-2.04-5.941-4.84-6.057z"/></g></svg>