<svg width="1920" height="959" fill="none" xmlns="http://www.w3.org/2000/svg"><g opacity=".67"><path d="M1184.06 512.954l-18.14 6.045 17.8-11.187c-.15-1.707-.33-3.428-.54-5.162l-9.58 1.842 9.06-5.61c-2.07-13.368-6.69-30.146-13.02-47.271l-35.29 13.624 33.73-17.785c-8.86-23.009-20.7-46.186-33.54-62.17l-18.97 13.391 15.13-17.929c-11.69-12.998-24.03-19.615-35.61-14.5-14.07 6.217-18.1 36.36-13.77 72.708l9.5-.169-9.29 1.859c2 15.907 5.58 32.932 10.6 49.627l36.24-12.231-34.6 17.513c7.66 23.861 18.26 46.695 31.41 64.193l14.28-14.287-11.6 17.735c11.07 13.757 23.82 23.731 38.06 27.494 0 0 20.14-33.853 18.14-77.73z" fill="#03673D"/><path d="M1168 590.684s20.14-33.853 18.13-77.73l-18.13 6.045 17.79-11.187c-.14-1.707-.32-3.428-.54-5.162l-9.57 1.842 9.06-5.61c-2.07-13.368-6.69-30.146-13.02-47.269l-35.3 13.622 33.73-17.783c-8.86-23.011-20.69-46.188-33.53-62.172l-18.97 13.393 15.12-17.931c-11.68-12.998-24.03-19.615-35.61-14.5 0 0 52.68 125.573 69.81 224.143.34.096.68.208 1.03.299z" fill="#04AD66"/><path d="M1156.67 618.274l-13.42 3.132 12.25-6.64a127.2 127.2 0 00-4.57-11.282c-3.73-8.073-9.06-17.31-15.24-26.242l-12.07 9.174 8.5-14.173c-18.72-25.381-43.33-45.902-55.44-25.935-4.97 8.205-5.3 21.268-1.86 35.953l27.46-.964-26.48 4.854c2.75 10.021 7.15 20.639 12.95 30.891l9.27-4.17-7.99 6.389c6.12 10.381 13.66 20.3 22.37 28.737l18.9-20.617-16.29 23.074c11.45 10.428 24.75 18.254 39.33 21.301 0 0 13.27-18.616 2.33-53.482z" fill="#10794D"/><path d="M1153.26 671.506c.36.082.72.174 1.08.249 0 0 13.28-18.616 2.33-53.48l-13.42 3.131 12.26-6.64a127.268 127.268 0 00-4.58-11.281c-3.73-8.073-9.06-17.31-15.24-26.244l-12.07 9.176 8.51-14.173c-17.65-23.927-40.53-43.517-53.24-28.964 10.18 13.721 53.05 73.158 74.37 128.226z" fill="#04AD66"/><path d="M1115.34 656.605c-7.49-7.077-20.86-15.765-36.38-23.751-6.73 9.944-14.24 21.174-15.53 23.634-.19.439-.26.59-.17.364.03-.084.09-.208.17-.364 1.09-2.579 6.35-15.564 10.62-26.101-9.31-4.569-19.22-8.813-29-12.275l-5.32 25.249 2.45-26.244c-30.49-10.343-58.917-12.577-62.537 7.45-1.001 5.535.94 11.685 5.099 18.122 11.687-.684 28.588-1.781 28.588-1.781l-24.642 7.162c9.039 11.138 23.892 22.844 41.102 33.541l14.79-28.707-12.09 30.36c18.14 11.002 38.61 20.817 57.54 27.68 1.61-7.08 2.78-12.21 2.78-12.21l.24 13.281c3.65 1.273 7.22 2.427 10.71 3.456l1.56-6.123 1.03 6.868c17.34 4.863 32.08 6.379 40.53 2.853 0 0 6.72-26.324-31.54-62.464z" fill="#007248"/><path d="M1220.36 467.595c18.27-45.005 43.26-54.4 53.47-53.472 16.93-2.227 17.82 27.293 16.15 42.332h-25.62l25.62 5.013c-.45 24.063-6.87 49.759-10.03 59.599l-31.74-6.127 31.74 10.583c-8.02 30.301-20.05 58.3-25.06 68.511l-32.31-15.039 30.64 18.381-3.9 6.684-8.91-1.671 7.8 3.899c-13.82 28.073-39.55 39.547-50.69 41.775-9.36-11.14-12.07-32.491-12.26-41.775l16.71-3.899h-16.71c-1.78-16.041 3.72-43.817 6.69-55.7l12.81 5.57-12.25-8.355 1.67-5.57 27.29 8.355-25.07-15.596c2.68-15.596 15.6-46.231 21.73-59.599l17.26 2.228-15.03-6.127z" fill="#096B42"/><path d="M1248.47 607.233c-14.1 27.788-39.74 39.574-50.8 41.994 16.59-114.473 60.48-204.269 80.36-234.857 13.68 2.489 13.99 29.724 12.44 43.031l-25.41-1.037 25.41 4.666c-1.66 27.374-6.91 51.845-9.33 60.659l-34.22-7.259 32.66 10.888c-7.88 34.01-19.87 60.14-24.88 68.953l-31.63-15.553 30.59 18.664-4.15 7.258-8.81-2.073 7.77 4.666z" fill="#0EA867"/><path fill-rule="evenodd" clip-rule="evenodd" d="M1180.61 809.193c0 .002 0 .003-.67-.042l.67.045a.675.675 0 01-.67.622.664.664 0 01-.66-.627c-2.57-43.076-19.56-76.042-41.62-101.097-21.72-23.589-47.34-40.957-72.63-53.72.03-.046.05-.093.08-.14-16.77-8.34-31.18-13.583-39.51-16.614v-.001c-1.91-.693-3.49-1.271-4.72-1.744a368.951 368.951 0 00-40.55-10.911c.013-.104.023-.209.033-.314.016-.17.031-.34.062-.507 3.588-19.311 31.885-17.131 62.235-7.129l-2.36 24.726c.03.008.05.017.07.026l5.15-23.791c9.74 3.349 19.6 7.451 28.88 11.864-3.45 8.257-7.55 18.062-9.54 22.782.32.16.65.32.97.482 2.83-4.406 8.73-13.012 14.12-20.821 15.65 7.886 29.13 16.462 36.68 23.447 38.58 35.669 31.82 61.626 31.82 61.626-.37.153-.76.294-1.16.424 16.34 21.65 28.71 48.47 32.47 81.546.24-5.832.49-14.113.62-24.412.25-21.5-.1-51.793-2.48-86.96-4.77-70.344-17.7-160.142-50.32-238.071a.669.669 0 01.36-.872c.34-.142.73.018.87.357 32.71 78.125 45.65 168.09 50.42 238.496 2.39 35.208 2.73 65.537 2.48 87.065-.13 10.764-.4 19.329-.65 25.203-.12 2.938-.23 5.202-.32 6.734-.04.765-.07 1.347-.1 1.739 0 .131-.01.24-.02.328v.114l-.01.112v.035z" fill="#128E5A"/><path d="M1106.55 582.15s73.39 102.406 73.39 227.001c11.1-217.613 67.5-336.196 67.5-336.196" stroke="#014D2D" stroke-miterlimit="10" stroke-linecap="round" stroke-linejoin="round"/><path d="M1203.91 774.692h-58.87s-15.85 125.484 35.1 140.049c50.94 14.565 23.77-140.049 23.77-140.049z" fill="#F52D29"/><path d="M1214.26 774.692h-55.19s-12.49 125.484 27.65 140.049c63.83 7.19 27.54-140.049 27.54-140.049z" fill="#F80700"/></g><g opacity=".76"><path d="M1226.78 187.178h-19.04V262.1h19.04v-74.922z" fill="#FF1F55"/><path d="M1249.35 187.178h-19.04V262.1h19.04v-74.922z" fill="#FFC702"/><path d="M1263.42 188.519l-16.13 10.124 39.88 63.458 16.13-10.123-39.88-63.459z" fill="#3D99EE"/><path d="M1411.98 278.616h-205.46A16.522 16.522 0 011190 262.1h238.5c0 4.38-1.74 8.58-4.84 11.678a16.53 16.53 0 01-11.68 4.838z" fill="#6F2A1A"/><path d="M1415.88 189.953h-90.95v72.146h90.95v-72.146z" fill="#BDD8F5"/><path d="M1409.8 197.04h-78.79v57.958h78.79V197.04z" fill="#FB4C47"/><path d="M1370.41 244.616c10.27 0 18.6-8.323 18.6-18.59s-8.33-18.59-18.6-18.59c-10.28 0-18.6 8.323-18.6 18.59s8.32 18.59 18.6 18.59z" fill="#FFC700"/><path d="M1392.86 254.998h-61.85v-27.752c10.68-.404 26.45.894 41.35 9.455a66.73 66.73 0 0120.5 18.297z" fill="#1DB776"/><path d="M1409.8 216.881v38.118h-49.58a79.21 79.21 0 0112.13-18.298c8.47-9.514 20.54-17.71 37.45-19.82z" fill="#11915B"/><path d="M1238.23 292.954h-14.82l2.05-30.855h10.73l2.04 30.855zm156.86 0h-14.82l2.05-30.855h10.73l2.04 30.855z" fill="#592A3C"/><path d="M1706.91 245.912h-211.43V147h211.43v98.912zm-202.36-9.06h193.3v-80.79h-193.3v80.79z" fill="#925C50"/><path d="M1697.85 156.062h-193.3v80.791h193.3v-80.791z" fill="#fff"/><path d="M1547.53 215.818c16.29-3.814 26.4-20.105 22.58-36.385-3.81-16.281-20.11-26.387-36.4-22.573-16.29 3.815-26.4 20.105-22.58 36.386 3.81 16.281 20.11 26.387 36.4 22.572z" fill="#FFC700"/><path d="M1504.55 211.346l57.46-25.649a27.545 27.545 0 0114.6-2.185c4.98.614 9.69 2.575 13.64 5.671l60.72 47.669h-146.42v-25.506z" fill="#11915B"/><path d="M1604.88 200.669l43.28-14.303a27.543 27.543 0 0114.35-.794 27.54 27.54 0 0112.8 6.54l22.54 20.437v24.309h-46.88l-46.09-36.189z" fill="#1DB776"/></g><path opacity=".89" d="M1391.97 385.419c-1.97-.057-3.67 1.462-4.15 3.55a73.512 73.512 0 01-16.45-.561c.01-.366.02-.735.02-1.104 0-1.796-.13-3.561-.37-5.288a18.75 18.75 0 013.64-2.193 19.024 19.024 0 016.74-1.704c.9 2.051 2.96 3.242 4.94 2.724 2.23-.585 3.5-3.112 2.84-5.647-.65-2.534-2.99-4.119-5.21-3.534-2.03.534-3.27 2.681-2.98 4.977-1.6.915-3.98 1.907-6.93 1.981-1.46.038-2.74-.158-3.77-.412a37.44 37.44 0 00-2.8-7.673 39.245 39.245 0 014.53-3.558 39.759 39.759 0 017.17-3.823c1.4 1.654 3.65 2.204 5.38 1.196 1.99-1.154 2.55-3.935 1.25-6.203-1.3-2.27-3.97-3.17-5.96-2.012-1.73 1.004-2.38 3.235-1.67 5.288a40.436 40.436 0 01-12.12 6.512 36.99 36.99 0 00-4.59-6.177c.67-2.431 1.79-5.27 3.71-8.115a27.21 27.21 0 015.5-5.97c1.87 1.166 4.22.985 5.56-.55 1.52-1.738 1.17-4.55-.79-6.281-1.95-1.734-4.76-1.73-6.28.008-1.34 1.535-1.23 3.9.16 5.627a26.75 26.75 0 01-5.2 6.238 26.397 26.397 0 01-7.44 4.647 37.144 37.144 0 00-7.62-4.546c.39-1.104.92-2.216 1.6-3.308.55-.865 1.15-1.627 1.75-2.292 2.08.85 4.4.238 5.44-1.543 1.18-1.988.32-4.688-1.92-6.027-2.23-1.338-5-.811-6.17 1.181-1.03 1.75-.49 4.05 1.17 5.488-.34.923-.77 1.882-1.26 2.858a28.658 28.658 0 01-1.86 3.116c-.27-.112-.55-.22-.83-.319a36.819 36.819 0 00-10.31-2.258 32.3 32.3 0 01-1.73-15.425c2.12-.409 3.71-2.085 3.71-4.095 0-2.315-2.11-4.192-4.71-4.192s-4.71 1.877-4.71 4.192c0 2.044 1.65 3.744 3.82 4.116.47 2.571.78 6.172.05 10.346-.33 1.837-.8 3.512-1.36 5.027-3.45.197-6.78.869-9.92 1.951-.44-.699-.83-1.432-1.18-2.298-.7-1.714-1-3.321-1.12-4.659 2.03-1.065 3.08-3.301 2.36-5.279-.78-2.175-3.41-3.209-5.85-2.31-2.44.899-3.79 3.39-3 5.565.68 1.877 2.73 2.901 4.85 2.57.62 1.28 1.21 2.757 1.68 4.433.24.888.43 1.756.57 2.606a36.942 36.942 0 00-7.98 4.396 33.966 33.966 0 01-3.92-3.316 35.587 35.587 0 01-6.34-8.397c1.46-1.627 1.72-3.956.49-5.561-1.4-1.835-4.21-2.029-6.27-.432-2.06 1.596-2.6 4.379-1.19 6.214 1.23 1.623 3.57 1.96 5.52.915a27.776 27.776 0 016.29 8.319c.87 1.78 1.49 3.512 1.91 5.127-.39.365-.79.741-1.17 1.125a38.418 38.418 0 00-5.11 6.404 28.31 28.31 0 01-2.68-.928 28 28 0 01-6.99-4.102c.72-2.093.02-4.352-1.75-5.331-2.02-1.113-4.66-.153-5.92 2.144-1.25 2.298-.63 5.063 1.39 6.175 1.77.979 4.03.353 5.4-1.373a28.538 28.538 0 019.37 5.429 37.428 37.428 0 00-4.22 12.341 49.39 49.39 0 01-5.8.164 49.668 49.668 0 01-7.96-.896c-.06-2.31-1.59-4.244-3.68-4.464-2.28-.241-4.36 1.675-4.62 4.281-.28 2.605 1.36 4.913 3.64 5.155 2.04.215 3.9-1.281 4.48-3.449a53.093 53.093 0 0113.61 2.061 38.253 38.253 0 00-.12 3.043c0 2.437.23 4.82.67 7.129a30.808 30.808 0 01-16.19 5.177c-.78-2.054-2.74-3.335-4.72-2.95-2.25.439-3.69 2.88-3.19 5.452.49 2.573 2.72 4.302 4.98 3.863 1.95-.379 3.28-2.255 3.29-4.419a48.163 48.163 0 017.89-1.872c3.46-.515 6.57-.588 9.18-.474a37.485 37.485 0 004.32 8.924c-.85.681-1.81 1.354-2.87 1.983a24.622 24.622 0 01-5.74 2.438c-1.16-1.861-3.32-2.734-5.19-1.974-2.13.869-3.07 3.542-2.09 5.969.61 1.523 1.84 2.592 3.19 2.958.8.219 1.64.192 2.44-.131.23-.096.46-.215.66-.358 1.56-1.038 2.22-3.189 1.56-5.241a35.319 35.319 0 015.69-2.359c1.39-.441 2.73-.761 3.99-1.001a36.43 36.43 0 004.13 4.544 31.126 31.126 0 01-4.36 7.081 31.252 31.252 0 01-5.92 5.553c-1.79-1.273-4.12-1.246-5.56.181-1.63 1.627-1.48 4.458.35 6.323 1.83 1.862 4.64 2.054 6.28.427 1.41-1.411 1.48-3.734.27-5.539a41.055 41.055 0 0112.68-10.957c2.85 2.038 6 3.688 9.36 4.869a29.316 29.316 0 01-.74 4.088 28.488 28.488 0 01-3.12 7.516c-2.15-.435-4.28.557-5.01 2.457-.83 2.158.46 4.674 2.89 5.62 2.43.947 5.07-.038 5.89-2.2.73-1.877-.16-4.023-2-5.169a40.109 40.109 0 014.66-11.512c2.59.704 5.29 1.135 8.06 1.254.46 2.192.83 4.646 1 7.327.27 3.988.05 7.519-.32 10.435-2.12.413-3.69 2.089-3.69 4.092 0 2.314 2.11 4.192 4.71 4.192s4.71-1.878 4.71-4.192c0-1.996-1.57-3.669-3.67-4.089-.35-2.981-.55-6.503-.35-10.438.14-2.654.44-5.104.82-7.319a36.56 36.56 0 008.42-1.312 29.13 29.13 0 013.36 8.82c-1.88 1.095-2.83 3.226-2.16 5.126.78 2.181 3.39 3.235 5.84 2.358 2.45-.881 3.81-3.362 3.04-5.543-.68-1.934-2.82-2.98-5.01-2.58a20.42 20.42 0 01-2.68-8.931c3-1.046 5.83-2.473 8.42-4.219a47.864 47.864 0 015.21 4.958 48.022 48.022 0 016.07 8.449c-1.44 1.624-1.69 3.935-.47 5.531 1.41 1.835 4.21 2.027 6.27.431 2.07-1.596 2.61-4.377 1.2-6.216-1.21-1.584-3.47-1.945-5.39-.98a56.985 56.985 0 01-6.58-8.069 55.507 55.507 0 01-3.58-6.119c1.04-.85 2.04-1.754 2.99-2.712a36.628 36.628 0 004.24-5.096c2.33.654 5.01 1.611 7.86 3.05 2.75 1.381 5.03 2.9 6.88 4.315-.7 2.054-.03 4.277 1.69 5.269 2 1.151 4.66.235 5.96-2.038 1.29-2.277.71-5.05-1.28-6.2-1.75-1.004-4.01-.431-5.41 1.254a32.197 32.197 0 01-7.14-3.819 32.677 32.677 0 01-6.2-5.708c1-1.877 1.84-3.85 2.51-5.904 1.11.039 2.29.139 3.52.323a30.44 30.44 0 017.77 2.266c-.17 2.192 1.06 4.2 3.01 4.703 2.23.577 4.56-1.011 5.21-3.55.64-2.538-.64-5.061-2.86-5.638-1.96-.508-4 .662-4.91 2.681a27.91 27.91 0 01-7.87-1.82c-1.15-.445-2.2-.942-3.15-1.461.47-1.904.81-3.862.98-5.869 1.94-.158 4-.258 6.17-.262 3.83-.011 7.3.265 10.35.673.37 2.112 1.98 3.72 3.95 3.781 2.3.065 4.23-2.004 4.3-4.623.07-2.619-1.73-4.796-4.03-4.862z" fill="#FA5752" fill-opacity=".82"/><path opacity=".93" d="M1045.81 281.743c-3.03-.089-5.64 2.257-6.39 5.481-4.69.369-10.06.493-15.94.119-3.29-.213-6.4-.558-9.32-.986.02-.564.03-1.134.03-1.704 0-2.773-.2-5.499-.57-8.165a28.938 28.938 0 015.58-3.386 29.24 29.24 0 0110.37-2.63c1.38 3.166 4.54 5.006 7.59 4.205 3.42-.903 5.37-4.805 4.36-8.718-1-3.913-4.59-6.36-8.01-5.457-3.12.825-5.02 4.139-4.57 7.684-2.46 1.413-6.12 2.945-10.66 3.058-2.24.06-4.2-.244-5.79-.636a57.41 57.41 0 00-4.3-11.847 59.928 59.928 0 016.97-5.493 60.833 60.833 0 0111-5.902c2.16 2.553 5.62 3.402 8.27 1.846 3.06-1.781 3.92-6.075 1.93-9.578-2-3.504-6.11-4.894-9.16-3.107-2.67 1.551-3.66 4.996-2.56 8.166a62.304 62.304 0 01-10.55 6.693 61.647 61.647 0 01-8.08 3.361 57.493 57.493 0 00-7.049-9.537c1.023-3.753 2.749-8.136 5.699-12.53a41.822 41.822 0 018.44-9.217c2.88 1.8 6.49 1.52 8.55-.849 2.34-2.684 1.8-7.025-1.2-9.698-3-2.678-7.33-2.672-9.66.012-2.07 2.37-1.89 6.022.24 8.688a40.918 40.918 0 01-7.98 9.632 40.638 40.638 0 01-11.445 7.174 57.031 57.031 0 00-11.706-7.019 26.437 26.437 0 012.469-5.107 26.36 26.36 0 012.679-3.539c3.195 1.312 6.761.367 8.369-2.382 1.812-3.07.491-7.239-2.95-9.306-3.435-2.066-7.685-1.253-9.492 1.824-1.582 2.702-.746 6.253 1.807 8.473a42.652 42.652 0 01-1.948 4.413 42.853 42.853 0 01-2.845 4.81 37.028 37.028 0 00-1.274-.492 56.357 56.357 0 00-15.851-3.487 50.253 50.253 0 01-2.658-23.815c3.258-.631 5.702-3.22 5.702-6.322 0-3.575-3.242-6.473-7.242-6.473-3.994 0-7.236 2.898-7.236 6.473 0 3.156 2.532 5.78 5.868 6.353a45.477 45.477 0 01.079 15.975 45.094 45.094 0 01-2.084 7.762 56.39 56.39 0 00-15.25 3.013 22.22 22.22 0 01-1.812-3.549 25.035 25.035 0 01-1.718-7.193c3.122-1.645 4.736-5.097 3.629-8.15-1.206-3.359-5.237-4.956-8.991-3.568-3.754 1.388-5.816 5.235-4.605 8.593 1.044 2.898 4.188 4.479 7.445 3.968a41.32 41.32 0 012.58 6.845c.376 1.371.663 2.711.882 4.023a56.94 56.94 0 00-12.269 6.787 53.3 53.3 0 01-6.026-5.12 54.904 54.904 0 01-9.732-12.965c2.245-2.512 2.637-6.107.757-8.585-2.156-2.834-6.468-3.134-9.638-.668-3.169 2.465-3.994 6.762-1.837 9.595 1.9 2.505 5.492 3.026 8.484 1.413a42.586 42.586 0 019.669 12.844 42.602 42.602 0 012.934 7.916 61.155 61.155 0 00-1.796 1.737 58.396 58.396 0 00-7.847 9.888 41.995 41.995 0 01-4.119-1.433 42.852 42.852 0 01-10.74-6.333c1.096-3.233.031-6.72-2.699-8.232-3.096-1.718-7.164-.235-9.085 3.311-1.921 3.548-.971 7.817 2.13 9.534 2.726 1.512 6.192.546 8.302-2.119a43.792 43.792 0 0114.389 8.382 58.093 58.093 0 00-6.474 19.055 76.124 76.124 0 01-8.913.253 76.076 76.076 0 01-12.243-1.384c-.083-3.566-2.443-6.552-5.644-6.892-3.508-.373-6.698 2.585-7.111 6.609-.423 4.022 2.094 7.586 5.602 7.959 3.128.332 5.989-1.977 6.876-5.324 3.686.076 7.822.408 12.301 1.188a81.419 81.419 0 018.62 1.993 58.392 58.392 0 00-.188 4.699c0 3.762.35 7.442 1.029 11.008a47.35 47.35 0 01-12.599 5.978 47.133 47.133 0 01-12.274 2.015c-1.206-3.172-4.209-5.15-7.252-4.556-3.467.679-5.67 4.447-4.908 8.419.757 3.972 4.182 6.642 7.654 5.964 2.997-.586 5.038-3.482 5.049-6.822a73.784 73.784 0 0112.133-2.891 73.447 73.447 0 0114.097-.732 57.97 57.97 0 006.652 13.778 38.078 38.078 0 01-4.422 3.062 37.554 37.554 0 01-8.813 3.764c-1.786-2.872-5.107-4.221-7.973-3.048-3.274 1.343-4.72 5.47-3.211 9.217.94 2.352 2.819 4.002 4.897 4.567 1.227.338 2.527.297 3.744-.203a5.091 5.091 0 001.018-.552c2.396-1.602 3.409-4.923 2.396-8.093a54.122 54.122 0 018.74-3.642 53.636 53.636 0 016.13-1.545 56.495 56.495 0 005.769 6.458c.199.189.392.379.59.557a48.02 48.02 0 01-15.809 19.508c-2.741-1.965-6.328-1.924-8.537.279-2.511 2.513-2.271 6.883.543 9.763 2.804 2.874 7.127 3.171 9.639.659 2.177-2.179 2.286-5.766.428-8.551a62.983 62.983 0 0119.479-16.918 57.334 57.334 0 0014.374 7.518 44.303 44.303 0 01-5.921 17.916c-3.31-.671-6.583.86-7.706 3.794-1.274 3.332.715 7.216 4.443 8.676 3.728 1.463 7.785-.058 9.059-3.396 1.112-2.898-.251-6.212-3.076-7.981a62.683 62.683 0 014.062-11.913 59.227 59.227 0 013.097-5.862 56.037 56.037 0 0012.389 1.937 82.415 82.415 0 011.535 11.312 83.246 83.246 0 01-.501 16.112c-3.248.637-5.67 3.226-5.67 6.318 0 3.573 3.242 6.473 7.241 6.473 4 0 7.237-2.9 7.237-6.473 0-3.081-2.412-5.665-5.639-6.313a96.033 96.033 0 01-.532-16.117c.214-4.097.673-7.88 1.258-11.3a56.06 56.06 0 0012.938-2.025c.355.617.71 1.258 1.044 1.917a44.943 44.943 0 014.114 11.7c-2.882 1.692-4.344 4.981-3.315 7.915 1.19 3.367 5.2 4.995 8.975 3.641 3.764-1.36 5.852-5.191 4.667-8.558-1.049-2.986-4.333-4.602-7.69-3.984a31.411 31.411 0 01-3.953-11.902c-.078-.64-.135-1.27-.172-1.887a56.397 56.397 0 0012.943-6.515 73.353 73.353 0 017.993 7.655 73.144 73.144 0 019.332 13.046c-2.2 2.507-2.59 6.075-.72 8.54 2.16 2.832 6.47 3.13 9.64.665 3.17-2.465 4-6.758 1.84-9.597-1.86-2.446-5.34-3.004-8.29-1.514a87.757 87.757 0 01-10.105-12.459 86.855 86.855 0 01-5.508-9.448 57.57 57.57 0 004.605-4.186 57.318 57.318 0 006.518-7.868 66.576 66.576 0 0112.07 4.708 66.038 66.038 0 0110.57 6.663c-1.07 3.171-.05 6.604 2.61 8.136 3.07 1.776 7.16.362 9.14-3.147 1.99-3.516 1.11-7.798-1.96-9.573-2.69-1.55-6.15-.665-8.31 1.936-3.16-1.218-7-3.064-10.98-5.897a50.41 50.41 0 01-9.52-8.813 57.681 57.681 0 003.85-9.115c1.72.059 3.52.214 5.41.498 4.83.737 8.85 2.121 11.95 3.499-.27 3.384 1.62 6.484 4.63 7.262 3.41.89 7-1.562 7.99-5.481 1-3.92-.97-7.815-4.39-8.706-3.01-.784-6.15 1.022-7.54 4.139a42.783 42.783 0 01-16.94-5.065c.73-2.94 1.25-5.963 1.52-9.062 2.97-.244 6.14-.398 9.47-.404 5.88-.018 11.22.409 15.91 1.039.56 3.261 3.04 5.742 6.07 5.838 3.53.1 6.49-3.095 6.6-7.139.11-4.044-2.66-7.405-6.19-7.506z" fill="#FA5752" fill-opacity=".9"/><path d="M1909.3 209.616c-1.81-.054-3.38 1.368-3.82 3.323-2.81.223-6.01.299-9.53.072a67.984 67.984 0 01-5.57-.598c.01-.342.01-.687.01-1.033 0-1.681-.11-3.333-.34-4.95.89-.694 2-1.425 3.34-2.052a17.282 17.282 0 016.2-1.595c.82 1.919 2.72 3.035 4.54 2.549 2.04-.547 3.21-2.912 2.61-5.285-.61-2.372-2.75-3.855-4.8-3.308-1.86.5-3 2.509-2.73 4.658-1.47.857-3.66 1.786-6.37 1.855-1.34.035-2.51-.148-3.46-.386a35.241 35.241 0 00-2.57-7.182 37.005 37.005 0 014.16-3.33 36.294 36.294 0 016.58-3.578c1.29 1.548 3.36 2.063 4.95 1.119 1.82-1.08 2.34-3.683 1.15-5.806-1.2-2.125-3.65-2.967-5.48-1.883-1.59.939-2.18 3.028-1.53 4.95a37.064 37.064 0 01-6.31 4.057 36.543 36.543 0 01-4.82 2.037 35.004 35.004 0 00-4.22-5.781 25.944 25.944 0 013.4-7.596 25.277 25.277 0 015.06-5.588c1.71 1.092 3.87.922 5.1-.514 1.4-1.627 1.08-4.259-.72-5.879-1.79-1.623-4.38-1.62-5.77.007-1.23 1.437-1.13 3.651.15 5.267a24.994 24.994 0 01-4.78 5.839 24.228 24.228 0 01-6.84 4.349 33.995 33.995 0 00-7-4.255c.37-1.033.85-2.074 1.48-3.096.5-.81 1.05-1.523 1.6-2.145 1.91.795 4.04.222 5-1.444 1.09-1.862.3-4.389-1.76-5.642-2.05-1.252-4.59-.759-5.68 1.106-.94 1.638-.44 3.79 1.09 5.137-.32.864-.71 1.76-1.17 2.674-.52 1.052-1.1 2.02-1.7 2.917-.25-.105-.51-.205-.76-.299a33.343 33.343 0 00-9.48-2.113 31.137 31.137 0 01-1.35-5.004 30.87 30.87 0 01-.24-9.434c1.95-.382 3.41-1.952 3.41-3.832 0-2.167-1.94-3.924-4.33-3.924s-4.33 1.757-4.33 3.924c0 1.913 1.52 3.504 3.51 3.851.44 2.407.72 5.778.05 9.684-.3 1.72-.73 3.288-1.25 4.706-3.17.184-6.23.813-9.11 1.827a12.92 12.92 0 01-1.09-2.152 15.33 15.33 0 01-1.02-4.361c1.86-.997 2.83-3.089 2.17-4.94-.73-2.036-3.14-3.004-5.38-2.163-2.24.841-3.48 3.173-2.75 5.209.62 1.757 2.5 2.715 4.45 2.405.57 1.199 1.11 2.58 1.54 4.15.23.831.4 1.644.53 2.439a34 34 0 00-7.34 4.114 32.137 32.137 0 01-3.6-3.103 33.32 33.32 0 01-5.82-7.86c1.34-1.523 1.58-3.702.45-5.204-1.29-1.719-3.86-1.9-5.76-.406-1.89 1.495-2.39 4.099-1.1 5.817 1.14 1.519 3.29 1.835 5.08.857a25.788 25.788 0 015.78 7.786c.8 1.667 1.36 3.287 1.75 4.799a35.042 35.042 0 00-5.76 7.047c-.8-.236-1.62-.52-2.47-.868a25.534 25.534 0 01-6.42-3.84c.66-1.959.02-4.074-1.61-4.99-1.85-1.042-4.29-.143-5.43 2.007-1.15 2.151-.58 4.739 1.27 5.78 1.63.916 3.7.331 4.96-1.285 1.88.664 4.2 1.73 6.61 3.48.72.522 1.38 1.06 2 1.601a35.647 35.647 0 00-3.88 11.552c-1.64.144-3.42.213-5.32.153a44.751 44.751 0 01-7.32-.839c-.05-2.162-1.46-3.972-3.38-4.178-2.1-.226-4 1.568-4.25 4.007-.25 2.438 1.25 4.599 3.35 4.825 1.87.201 3.58-1.199 4.11-3.228 2.2.046 4.68.248 7.36.72 1.85.327 3.57.745 5.15 1.208a33.57 33.57 0 00-.11 2.849c0 2.281.21 4.511.61 6.673a28.034 28.034 0 01-7.53 3.624c-2.8.865-5.33 1.159-7.34 1.222-.72-1.923-2.52-3.122-4.34-2.762-2.07.411-3.39 2.696-2.93 5.103.45 2.408 2.5 4.027 4.58 3.616 1.79-.355 3.01-2.111 3.01-4.136a43.886 43.886 0 017.26-1.752c3.18-.482 6.03-.551 8.43-.444a35.278 35.278 0 003.97 8.353c-.78.637-1.66 1.267-2.64 1.856a22.347 22.347 0 01-5.27 2.282c-1.07-1.741-3.05-2.559-4.77-1.848-1.95.814-2.82 3.316-1.91 5.588.56 1.425 1.68 2.426 2.92 2.768.74.205 1.51.18 2.24-.123.22-.089.42-.201.61-.334 1.43-.972 2.04-2.985 1.43-4.907a32.042 32.042 0 015.23-2.207 31.53 31.53 0 013.66-.937 35.226 35.226 0 003.45 3.915c.12.114.24.23.36.338a29.21 29.21 0 01-4.02 6.627 28.388 28.388 0 01-5.44 5.199c-1.64-1.192-3.78-1.167-5.1.169-1.5 1.523-1.36 4.172.32 5.918 1.68 1.743 4.26 1.923 5.77.4 1.3-1.321 1.36-3.496.25-5.184a37.836 37.836 0 015.11-5.566 37.286 37.286 0 016.54-4.69 34.11 34.11 0 008.59 4.557 26.557 26.557 0 01-.67 3.827 27.126 27.126 0 01-2.87 7.034c-1.98-.406-3.93.522-4.6 2.3-.77 2.02.42 4.375 2.65 5.26 2.23.887 4.66-.035 5.42-2.059.66-1.757-.15-3.766-1.84-4.838a38.413 38.413 0 012.43-7.222 34.543 34.543 0 011.85-3.553 33.02 33.02 0 007.41 1.173c.41 2.052.75 4.349.91 6.859.25 3.733.05 7.037-.3 9.767-1.94.386-3.39 1.955-3.39 3.83 0 2.166 1.94 3.924 4.33 3.924 2.4 0 4.33-1.758 4.33-3.924 0-1.868-1.44-3.435-3.37-3.827-.33-2.79-.5-6.088-.32-9.77.13-2.485.4-4.777.75-6.851 2.67-.105 5.26-.526 7.74-1.228.21.374.42.763.62 1.163a27.075 27.075 0 012.46 7.092c-1.72 1.026-2.59 3.02-1.98 4.798.71 2.042 3.11 3.029 5.37 2.207 2.25-.824 3.5-3.146 2.79-5.188-.63-1.81-2.59-2.789-4.6-2.415a19.206 19.206 0 01-2.36-7.214c-.05-.389-.09-.771-.11-1.145a33.425 33.425 0 007.74-3.949 44.01 44.01 0 0110.36 12.549c-1.32 1.52-1.55 3.683-.43 5.177 1.29 1.717 3.87 1.898 5.76.403 1.9-1.494 2.39-4.096 1.11-5.817-1.12-1.483-3.2-1.822-4.96-.918a53.193 53.193 0 01-6.05-7.553 54.159 54.159 0 01-3.29-5.728c.96-.795 1.88-1.641 2.75-2.537a33.858 33.858 0 003.9-4.77 39.25 39.25 0 017.22 2.854 39.93 39.93 0 016.32 4.039c-.64 1.923-.03 4.004 1.56 4.932 1.83 1.077 4.28.22 5.47-1.907 1.18-2.131.65-4.727-1.18-5.804-1.61-.939-3.68-.403-4.97 1.174a29.637 29.637 0 01-6.56-3.575 30.188 30.188 0 01-5.69-5.343 36.072 36.072 0 002.3-5.525c1.02.036 2.1.129 3.23.302 2.89.447 5.3 1.286 7.15 2.121-.16 2.051.97 3.931 2.76 4.402 2.04.54 4.19-.947 4.78-3.323.6-2.376-.58-4.737-2.62-5.277-1.8-.475-3.68.62-4.51 2.509a25.229 25.229 0 01-10.13-3.071c.44-1.782.75-3.614.91-5.493 1.78-.148 3.67-.241 5.66-.245 3.52-.011 6.71.248 9.51.63.34 1.977 1.82 3.481 3.63 3.539 2.11.061 3.88-1.876 3.95-4.328.07-2.451-1.59-4.489-3.7-4.55z" fill="#FA5752" fill-opacity=".75"/><path d="M2031.66 564.493c-4.1-.122-7.63 3.087-8.63 7.498-6.34.503-13.58.674-21.52.162-4.42-.293-8.63-.764-12.56-1.348a82.222 82.222 0 00-.74-13.501c2-1.568 4.51-3.217 7.55-4.63a38.89 38.89 0 0113.98-3.598c1.86 4.329 6.14 6.848 10.23 5.751 4.62-1.234 7.26-6.572 5.89-11.925-1.36-5.353-6.19-8.7-10.81-7.466-4.2 1.13-6.77 5.662-6.16 10.512-3.32 1.934-8.27 4.029-14.39 4.183-3.01.082-5.66-.333-7.8-.868a78.807 78.807 0 00-5.81-16.206 82.365 82.365 0 019.4-7.515 81.917 81.917 0 0114.85-8.074c2.92 3.494 7.57 4.656 11.16 2.528 4.13-2.439 5.28-8.312 2.59-13.104-2.69-4.792-8.23-6.693-12.35-4.248-3.59 2.12-4.94 6.831-3.46 11.169a83.32 83.32 0 01-14.24 9.155 81.717 81.717 0 01-10.89 4.597 78.793 78.793 0 00-9.51-13.046c1.38-5.133 3.71-11.128 7.69-17.139a57.337 57.337 0 0111.38-12.607c3.88 2.461 8.76 2.079 11.54-1.162 3.15-3.671 2.43-9.609-1.63-13.264-4.04-3.663-9.87-3.657-13.02.016-2.78 3.241-2.56 8.237.33 11.883a56.456 56.456 0 01-10.77 13.177c-5.58 5.019-11.17 8.025-15.44 9.812a77.254 77.254 0 00-15.8-9.601 36.228 36.228 0 013.33-6.986 37.528 37.528 0 013.62-4.842c4.3 1.795 9.12.504 11.29-3.257 2.44-4.199.65-9.903-3.99-12.728-4.64-2.827-10.36-1.715-12.8 2.493-2.14 3.697-1.01 8.553 2.44 11.591a56.101 56.101 0 01-2.64 6.035 58.123 58.123 0 01-3.83 6.58c-.58-.235-1.14-.462-1.72-.673a74.944 74.944 0 00-21.38-4.769 69.548 69.548 0 01-3.05-11.291c-1.53-8.433-1.24-15.772-.54-21.285 4.4-.864 7.69-4.405 7.69-8.648 0-4.89-4.37-8.854-9.76-8.854-5.4 0-9.77 3.964-9.77 8.854 0 4.316 3.41 7.906 7.91 8.69.98 5.433 1.63 13.037.12 21.852a62.163 62.163 0 01-2.82 10.618 75.046 75.046 0 00-20.58 4.121 31.787 31.787 0 01-2.45-4.855c-1.43-3.621-2.05-7.015-2.3-9.839 4.21-2.251 6.38-6.973 4.9-11.149-1.64-4.593-7.07-6.779-12.14-4.88s-7.86 7.161-6.21 11.755c1.41 3.963 5.65 6.127 10.04 5.426a56.19 56.19 0 013.47 9.364c.52 1.875.9 3.709 1.2 5.503a76.463 76.463 0 00-16.55 9.285 73.408 73.408 0 01-8.13-7.003c-6.24-6.229-10.4-12.618-13.14-17.735 3.03-3.436 3.56-8.355 1.03-11.744-2.91-3.878-8.73-4.287-13.01-.915-4.27 3.374-5.38 9.25-2.49 13.127 2.58 3.426 7.42 4.138 11.47 1.931a58.184 58.184 0 0113.03 17.57 59.76 59.76 0 013.98 10.828 76.87 76.87 0 00-2.44 2.376 80.084 80.084 0 00-10.59 13.524 57.2 57.2 0 01-5.56-1.959c-6.2-2.559-11-5.821-14.48-8.664 1.48-4.421.03-9.19-3.65-11.259-4.17-2.351-9.66-.323-12.25 4.531-2.6 4.851-1.32 10.69 2.88 13.04 3.67 2.066 8.35.746 11.19-2.9a59 59 0 0114.93 7.853 60.477 60.477 0 014.48 3.612 80.309 80.309 0 00-8.73 26.066c-3.71.325-7.72.482-12.02.345a101.31 101.31 0 01-16.53-1.892c-.11-4.879-3.29-8.962-7.6-9.427-4.74-.511-9.05 3.536-9.61 9.04-.56 5.503 2.83 10.377 7.57 10.887 4.22.454 8.07-2.705 9.28-7.283 4.97.103 10.54.559 16.59 1.625 4.19.739 8.05 1.68 11.64 2.727a75.919 75.919 0 00-.26 6.428c0 5.146.47 10.177 1.39 15.056a63.592 63.592 0 01-17 8.18 62.827 62.827 0 01-16.56 2.755c-1.63-4.338-5.68-7.044-9.79-6.232-4.67.927-7.64 6.082-6.62 11.514 1.03 5.434 5.65 9.087 10.32 8.16 4.05-.802 6.81-4.764 6.82-9.332a98.368 98.368 0 0116.38-3.953 97.495 97.495 0 0119.02-1.003 78.82 78.82 0 008.97 18.846 50.798 50.798 0 01-5.98 4.189 50.205 50.205 0 01-11.89 5.15c-2.39-3.931-6.88-5.776-10.76-4.17-4.41 1.837-6.35 7.482-4.33 12.607 1.27 3.217 3.81 5.476 6.62 6.247 1.66.463 3.41.407 5.05-.275a7.19 7.19 0 001.37-.757c3.23-2.191 4.6-6.735 3.24-11.07a72.425 72.425 0 0111.78-4.982c2.91-.93 5.67-1.609 8.27-2.114a77.845 77.845 0 007.79 8.833c.26.26.53.521.79.763a65.785 65.785 0 01-9.04 14.955c-4.22 5.232-8.59 9.041-12.29 11.731-3.69-2.69-8.53-2.632-11.5.381-3.4 3.436-3.08 9.415.72 13.354 3.78 3.931 9.62 4.339 13.01.902 2.95-2.982 3.09-7.887.58-11.697a86.058 86.058 0 0111.5-12.559 85.067 85.067 0 0114.78-10.584 76.953 76.953 0 0019.38 10.284 58.232 58.232 0 01-1.52 8.635 61.6 61.6 0 01-6.45 15.873c-4.48-.919-8.9 1.177-10.41 5.19-1.71 4.557.98 9.87 6.01 11.868 5.02 1.998 10.48-.082 12.21-4.647 1.5-3.964-.33-8.496-4.15-10.918a86.277 86.277 0 015.48-16.295 85.778 85.778 0 014.17-8.016 74.812 74.812 0 0016.73 2.648c.93 4.631 1.7 9.812 2.07 15.474.55 8.423.11 15.881-.68 22.038-4.38.87-7.65 4.411-7.65 8.644 0 4.89 4.36 8.853 9.77 8.853 5.39 0 9.76-3.963 9.76-8.853 0-4.217-3.26-7.751-7.61-8.636a134.291 134.291 0 01-.71-22.046c.28-5.606.91-10.78 1.69-15.458a74.516 74.516 0 0017.46-2.771c.48.845.95 1.723 1.41 2.625a61.311 61.311 0 015.55 16.002c-3.89 2.315-5.87 6.815-4.46 10.829 1.59 4.605 7.01 6.831 12.09 4.978 5.08-1.86 7.91-7.099 6.31-11.705-1.42-4.085-5.85-6.296-10.38-5.45a43.366 43.366 0 01-5.33-16.279c-.11-.878-.19-1.738-.23-2.583a75.939 75.939 0 0017.46-8.911 99.288 99.288 0 0110.77 10.47 100.28 100.28 0 0112.61 17.847c-2.98 3.428-3.5 8.31-.98 11.681 2.92 3.874 8.73 4.281 13.01.909 4.27-3.37 5.38-9.243 2.48-13.125-2.51-3.348-7.2-4.112-11.19-2.072a119.767 119.767 0 01-13.63-17.043 119.966 119.966 0 01-7.43-12.924 80.443 80.443 0 006.22-5.727 80.235 80.235 0 008.79-10.763 89.651 89.651 0 0116.29 6.442 89.202 89.202 0 0114.26 9.114c-1.45 4.338-.08 9.033 3.52 11.128 4.13 2.43 9.65.496 12.33-4.304 2.68-4.809 1.48-10.666-2.65-13.096-3.62-2.119-8.31-.908-11.21 2.65a66.872 66.872 0 01-14.82-8.067 68.046 68.046 0 01-12.83-12.055c2.05-3.963 3.8-8.13 5.19-12.469 2.31.082 4.76.293 7.28.683a62.362 62.362 0 0116.14 4.784c-.36 4.631 2.19 8.871 6.23 9.935 4.61 1.219 9.45-2.137 10.8-7.497 1.34-5.361-1.31-10.69-5.94-11.909-4.05-1.073-8.28 1.397-10.16 5.661a57.35 57.35 0 01-16.35-3.841 58.138 58.138 0 01-6.51-3.088c.99-4.02 1.69-8.156 2.05-12.396a158.3 158.3 0 0112.78-.553c7.93-.023 15.14.561 21.46 1.422.76 4.46 4.11 7.856 8.19 7.987 4.77.137 8.76-4.234 8.91-9.765.15-5.531-3.59-10.13-8.34-10.268z" fill="#FA5752" fill-opacity=".92"/><path d="M1753.35 433.798v412.105" stroke="#925D51" stroke-width="5.81" stroke-miterlimit="10"/><path d="M1672.96 432.333s70.14 29.735 160.06-3.499l-48.56-110.194-71.93-1.75-39.57 115.443z" fill="#AC6352"/><path d="M1803.49 361.839c-28.26 32.008-74.16 45.486-122.32 46.526l-8.21 23.968s70.14 29.735 160.06-3.499l-29.53-66.995z" fill="#984B39"/><rect x="1129.7" y="909.272" width="726.385" height="16.939" rx="8.47" fill="#925D51"/><path fill-rule="evenodd" clip-rule="evenodd" d="M1493.53 540.656a15.98 15.98 0 00-2.46-.187h-184.76c-12.76-.001-23.07-.001-23.07 46.835v251.053c0-6.31 3.26-4.542 8.39-1.763 4.02 2.183 9.19 4.99 14.84 4.99h184.6c1.77 0 3.49-.276 5.15-.722h180.86c7.84 0 15.03-2.798 20.63-4.975 7.11-2.77 11.65-4.534 11.65 1.757V587.35c0-46.696-14.34-46.695-32.06-46.694h-183.77z" fill="#F5C827"/><path d="M1298.08 671.238v166.66c0-11.978 9.34 3.431 20.86 3.431h165.76c8.39 0 15.62-8.17 18.93-7.976v4.545c0-2.279.33-3.562.95-4.153.63.591.97 1.874.97 4.153v-4.547c3.29-.162 10.44 7.978 18.73 7.978h164.2c11.41 0 20.66-15.409 20.66-3.431V571.073c0-2.669-.04-5.167-.09-7.559l-410.97 107.724z" fill="#DCB21D" opacity=".7"/><path d="M1316.51 795.111c0 16.915-9.67 30.626-21.6 30.626h-47.51c-11.93 0-21.6-13.711-21.6-30.626V684.856c0-16.915 9.67-30.627 21.6-30.627h47.51c11.93 0 21.6 13.712 21.6 30.627v110.255z" fill="#EBAFB2"/><path d="M1336.27 807.326c0 18.397-14.03 33.311-31.34 33.311h-68.94c-17.31 0-31.34-14.914-31.34-33.311V687.408c0-18.398 14.03-33.311 31.34-33.311h68.94c17.31 0 31.34 14.913 31.34 33.311v119.918zm483.83.285c0 18.455-13.83 33.415-30.9 33.415h-67.99c-17.07 0-30.9-14.96-30.9-33.415V687.318c0-18.455 13.83-33.415 30.9-33.415h67.99c17.07 0 30.9 14.96 30.9 33.415v120.293z" fill="#CAA41E"/><path d="M1255.78 948.411c0 5.847-3.82 10.589-8.52 10.589-4.71 0-8.52-4.742-8.52-10.589v-36.584c0-5.847 3.81-10.588 8.52-10.588 4.7 0 8.52 4.741 8.52 10.588v36.584zm529.32-1.894c0 5.847-3.82 10.589-8.53 10.589-4.7 0-8.52-4.742-8.52-10.589v-36.584c0-5.847 3.82-10.588 8.52-10.588 4.71 0 8.53 4.741 8.53 10.588v36.584z" fill="#925D51"/><path d="M1799.36 654.097h-23.9c-12 0-21.72 13.719-21.72 30.642v153.207h-485.53V684.739c0-16.923-9.73-30.642-21.73-30.642h-23.89c-12 0-21.73 13.719-21.73 30.642v209.893c0 8.857 2.68 16.812 6.94 22.407 3.97 5.995 9.6 9.766 15.87 9.766l575.69-1.531c12 0 21.72-13.719 21.72-30.642V684.739c0-16.923-9.72-30.642-21.72-30.642z" fill="#F5C827"/><path d="M1391.95 670.195h-88.41c-3.37 0-6.09 3.181-6.09 7.105v103.151c0 3.925 2.72 7.106 6.09 7.106h88.41c3.37 0 6.09-3.181 6.09-7.106V677.3c0-3.924-2.72-7.105-6.09-7.105zm342.15 11.211l-80.4-14.032c-3.06-.534-6.09 2.173-6.77 6.047l-17.79 101.826c-.68 3.874 1.26 7.447 4.31 7.981l80.41 14.033c3.06.534 6.08-2.174 6.76-6.048l17.79-101.826c.68-3.874-1.25-7.447-4.31-7.981z" fill="#fff"/><path fill-rule="evenodd" clip-rule="evenodd" d="M1724.96 861.351c16.33 0 29.56-14.767 29.56-32.985v-29.685c0-18.218-13.23-32.985-29.56-32.985h-228.29a13.838 13.838 0 00-5.13-.997h-202.9c-11.61 0-21.02 14.922-21.02 33.329v29.995c0 18.407 9.41 33.328 21.02 33.328h436.32z" fill="#FFE792"/><path d="M1440.74 491.017a12.214 12.214 0 01-7.93-3.848c-5.41-5.81-13.17-19.321-2.06-43.316 20.68-44.686 96.33-37.982 114.37-5.512 12.84 23.1 25.61 27.683 18.72 34.633-6.65 6.708-85.43 21.084-123.1 18.043z" fill="#FF504A"/><path d="M1574.07 759.483l-.26.034c-16.36 2.383-32.95 4.572-49.58 5.858-.96.07-1.91.145-2.87.203-17.6 1.252-35.25 1.44-52.73-.279a207.902 207.902 0 01-17.09-2.375c-12.65-2.309-21.17-14.257-19.12-26.94 1.93-11.908 3.19-23.189 4.02-33.794.12-1.577.24-3.134.34-4.677.84-12.379 1.11-23.779 1.2-34.134 0-.881.01-1.752.01-2.613 0-.39.01-.778.01-1.159.01-.591.01-1.177.01-1.755v-1.166c0-.808.01-1.595 0-2.383.01-2.421.01-4.773.01-7.056v-.606c.01-7.903.04-14.977.36-21.179.01-.284.02-.559.04-.837.07-1.288.14-2.566.2-3.825.06-1.221.12-2.43.16-3.627.13-3.358.22-6.595.28-9.686.03-2.6.03-5.091-.01-7.455-.05-2.623-.15-5.08-.29-7.356-.06-.753-.11-1.531-.17-2.33-.1-1.21-.2-2.465-.3-3.754-.06-.784-.13-1.573-.21-2.376-.03-.35-.06-.705-.1-1.065 0-.089-.01-.175-.02-.256-.04-.497-.09-.991-.13-1.495l-.15-1.472c-.08-.862-.16-1.741-.26-2.627-.41-4.134-.88-8.474-1.36-12.923-.16-1.394-.31-2.809-.47-4.226-.25-2.195-.5-4.414-.74-6.622-.17-1.426-.33-2.853-.49-4.277-2.44-21.451-4.74-41.989-3.92-48.507 1.41-11.286 56.07-41.074 56.07-41.074l32.81-1.031s46.05 18.551 54.55 29.749c.05.055.08.112.13.163 1.92 2.638 3.14 6.303 3.83 10.833.62 3.983.84 8.629.8 13.84-.02 3.709-.19 7.706-.43 11.945-.25 4.495-.59 9.264-.97 14.259-.11 1.453-.22 2.925-.34 4.414-.12 1.514-.23 3.041-.34 4.587-.08.999-.15 2.007-.23 3.018-.2 2.669-.39 5.386-.57 8.14l-.18 2.686c-.03.566-.07 1.143-.1 1.713-.03.584-.07 1.166-.1 1.754v.011l-.09 1.613c-.04.586-.07 1.173-.09 1.763-.06 1.08-.12 2.162-.16 3.254-.05.9-.08 1.809-.12 2.716-.01.16-.02.329-.02.492a51.84 51.84 0 00-.06 1.756l-.01.306-.01.146c-.02.767-.05 1.547-.07 2.319-.03.928-.05 1.854-.08 2.777-.01.426-.01.865-.02 1.298-.01.383-.01.778-.02 1.166v.59c-.02.534-.02 1.069-.03 1.618-.01.911-.01 1.834-.01 2.779v1.495c0 2.615.03 5.348.08 8.191.02 1.174.05 2.364.08 3.572.02 1.28.06 2.573.09 3.883.08 2.754.17 5.567.29 8.431.01.419.02.833.04 1.255.01.172.01.341.02.512.03.934.07 1.871.11 2.82l.18 4.12c.06 1.491.16 3.071.3 4.737.16 2.085.36 4.295.62 6.63.05.546.11 1.099.18 1.655.1.896.2 1.808.33 2.735l.21 1.751.15 1.124c.18 1.404.38 2.847.58 4.316.03.163.05.325.07.488.11.744.22 1.491.33 2.252.21 1.449.44 2.929.67 4.428.06.42.13.848.19 1.272.4 2.552.83 5.169 1.28 7.845.08.466.17.945.25 1.423.17 1.053.36 2.115.54 3.183.65 3.724 1.33 7.534 2.05 11.404a1341.188 1341.188 0 004.88 24.977 2310.81 2310.81 0 005.54 26.308c2.89 13.328-6.08 26.362-19.57 28.33z" fill="#fff"/><path d="M1577.83 499.387c-23.97 5.136-46.2 6.603-63.77 6.603-3.19 0-6.22-.048-9.09-.13-27.13-.793-44.78-4.726-45.52-4.889l1.28-5.649 1.27-5.646c.35.078 17.66 3.887 43.62 4.619 17.53.493 41.75-.384 68.25-5.905.05.055.09.11.13.164 1.92 2.637 3.14 6.302 3.83 10.833zm.8 13.839c-.03 3.709-.19 7.706-.43 11.945-23.44 4.983-45.3 6.452-62.89 6.452-4.36 0-8.45-.09-12.25-.24-27.11-1.061-44.72-5.169-45.45-5.344l2.66-11.271c.18.042 17.48 4.061 43.55 5.054 18.95.726 45.73-.075 74.81-6.596zm-1.4 26.204c-.11 1.453-.22 2.925-.34 4.414-.11 1.514-.23 3.041-.34 4.587-.08.998-.15 2.006-.23 3.018-22.08 4.464-42.74 5.831-59.74 5.831-5.56 0-10.72-.144-15.42-.372-27.09-1.334-44.65-5.619-45.39-5.797l2.78-11.244c.17.04 17.44 4.232 43.49 5.487 19 .915 45.92.376 75.19-5.924zm-1.86 26.311v.012l-.09 1.613-.09 1.763a334.494 334.494 0 00-.27 5.97c-.01.159-.02.329-.02.492-.03.586-.05 1.174-.07 1.755l-.01.307c-20.9 4.037-40.51 5.319-56.98 5.319-6.76 0-13-.213-18.58-.546-27.08-1.601-44.59-6.063-45.32-6.249l2.89-11.213c.16.041 4.53 1.143 12.11 2.424 7.57 1.282 18.35 2.743 31.31 3.498 18.97 1.105 45.84.837 75.12-5.145zm-120.27 24.321l-1.5 5.592 1.51-5.592h-.01zm119.57 9.97c-.05-2.844-.08-5.577-.09-8.192-29.7 5.871-56.95 5.887-76.11 4.576-25.92-1.767-43.05-6.272-43.36-6.354l-1.51 5.592-1.5 5.591c.73.194 18.2 4.831 45.26 6.702 6.44.449 13.75.75 21.75.75 16.27 0 35.36-1.25 55.63-5.094-.03-1.207-.05-2.398-.07-3.571zm1.1 29.329c-20.08 3.821-39.06 5.092-55.4 5.092-9.25 0-17.65-.407-24.92-.982-27.04-2.149-44.46-6.957-45.19-7.158l1.56-5.576 1.56-5.577c.28.078 17.37 4.759 43.3 6.792 19.64 1.538 47.82 1.769 78.5-4.268.03.936.07 1.873.11 2.82.06 1.364.13 2.743.18 4.122.07 1.489.17 3.069.3 4.735zm3.14 25.379c-20.67 4.123-40.31 5.498-57.3 5.498-10.49 0-19.97-.527-28.06-1.247-27.02-2.418-44.4-7.4-45.12-7.61l3.22-11.12v-.004c.17.05 17.25 4.928 43.24 7.226 20.44 1.81 50.15 2.293 82.37-4.226.18 1.405.38 2.847.59 4.315.02.164.04.325.07.489.1.743.22 1.491.32 2.252.21 1.451.44 2.928.67 4.427zm4.31 25.127c-21.69 4.643-42.42 6.185-60.38 6.185-11.75 0-22.31-.66-31.2-1.542-27-2.689-44.33-7.843-45.05-8.064l3.34-11.086c.16.048 17.2 5.099 43.16 7.657 21.62 2.13 53.63 2.879 88.08-4.553.65 3.724 1.33 7.533 2.05 11.403zm4.88 24.979c-22.92 5.3-44.94 7.056-64.04 7.056-13.01 0-24.66-.814-34.32-1.876-26.98-2.959-44.27-8.288-44.99-8.512l1.73-5.529 1.72-5.527v.004c.27.08 17.24 5.276 43.1 8.089 22.93 2.489 57.57 3.543 94.52-5.069.74 3.773 1.51 7.568 2.28 11.364z" fill="#1DB776" fill-opacity=".56"/><path d="M1499.87 743.906c1.1-47.742-7.07-103.293-7-151.049.06-42.818 3.19-85.328 3.16-128.146-10.22.768-14.61 2.512-14.61 2.512s-9.76 8.334-41.55 18.691c-29.97 9.766-24.4 120.465-22.58 182.424 1.82 61.96 1.1 101.243 60.02 108.772 5.53.708 10.97 1.332 16.29 1.855.09-14.169 5.94-20.856 6.27-35.059z" fill="#FB4C47"/><path d="M1435.95 618.021c-.64 0-1.21-.443-1.34-1.09-.16-.74.31-1.47 1.05-1.63.75-.162 18.44-4.188 24.54-25.363.2-.73.97-1.149 1.7-.941.72.209 1.15.971.94 1.7-6.57 22.811-25.79 27.12-26.61 27.293-.09.021-.19.031-.28.031zm51.43 116.48a1.08 1.08 0 01-1.08-1.023c-4.74-85.49-8.52-169.058-2.67-251.541.05-.597.57-1.044 1.16-1.004.6.042 1.05.561 1.01 1.158-5.85 82.356-2.07 165.849 2.67 251.265a1.09 1.09 0 01-1.03 1.143c-.02.002-.04.002-.06.002z" fill="#B63A37"/><path d="M1602.13 529.275c1.43-44.106-19.82-55.747-62.21-62.105-.17-.025-.33-.049-.5-.072-.68 7.286-.43 14.686.05 21.96.76 11.634 2.11 23.201 2.58 34.854 1.96 48.626 6.71 81.654 2.81 145.476-2.94 47.968 4.73 73.145 6.07 109.493 24.07-3.676 43.01-13.471 54.67-33.347 21.88-37.289-4.88-172.153-3.47-216.259z" fill="#FB4C47"/><path d="M1597.16 616.533c-.11 0-.21-.009-.31-.034-.29-.065-28.47-6.982-33.24-47.976a1.383 1.383 0 011.21-1.522 1.36 1.36 0 011.52 1.206c4.55 39.087 30.86 45.553 31.12 45.612.74.17 1.2.907 1.03 1.647a1.367 1.367 0 01-1.33 1.067zm-42.99 110.125c-.53 0-.99-.377-1.07-.909-1.99-12.07-1.23-44.45-.49-75.762.56-23.821 1.09-46.32.47-59.874-2.09-45.888-8.36-109.977-8.42-110.618-.06-.595.37-1.126.97-1.185.59-.057 1.13.377 1.18.972.07.643 6.34 64.785 8.44 110.73.62 13.63.09 36.165-.47 60.026-.74 31.213-1.5 63.489.46 75.359a1.096 1.096 0 01-1.07 1.261z" fill="#B63A37"/><path d="M1515.62 366.014l-20.84 7.571s-6.26 8.623-14.46 6.845c-3.28-.715-6.89-3.102-10.52-8.383-12.71-18.463 17.94-44.043 36.36-39.745 9.04 2.107 11.49 10.262 11.64 18.024.15 8.058-2.18 15.688-2.18 15.688z" fill="#002014"/><path d="M1515.62 366.014l-20.85 7.571s-6.25 8.623-14.45 6.845c0-9.562 13.42-27.046 37.47-30.104.16 8.058-2.17 15.688-2.17 15.688z" fill="#FFD339"/><path d="M1515.27 329.13c-.37 0-.78.044-1.22.132-1.08.216-1.78.741-2.2 1.652-1.88 4.055 2.07 13.713 4.89 19.418 1.75-6.329 3.84-16.909.89-20.243-.57-.641-1.35-.959-2.36-.959zm1.8 25.964c-.47 0-.91-.252-1.14-.671-1-1.79-9.65-17.683-6.46-24.604.77-1.664 2.18-2.744 4.06-3.121 3.22-.641 5.07.548 6.05 1.656 5.13 5.794-.59 23.808-1.26 25.843a1.318 1.318 0 01-1.25.897z" fill="#FFD339"/><path d="M1532.9 335.562c-.12 0-.25.008-.37.027-4.42.587-9.76 9.958-12.58 15.886 5.87-2.471 15.17-7.189 16.41-11.48.27-.966.09-1.82-.59-2.691-.91-1.169-1.85-1.742-2.87-1.742zm-15.46 19.616a1.307 1.307 0 01-1.21-1.811c.83-1.976 8.28-19.347 15.95-20.371 1.47-.195 3.64.113 5.66 2.703 1.18 1.521 1.54 3.258 1.03 5.019-2.11 7.324-19.06 13.68-20.98 14.382-.15.053-.3.078-.45.078z" fill="#FFD339"/><path d="M1478.75 383.145c-4.56-.681-9.68-3.108-12.89-9.812-7.59-15.825 10.56-29.18 10.75-29.313a.821.821 0 011.15.186c.27.371.19.89-.18 1.158-.18.126-17.21 12.68-10.23 27.252 6.24 13.001 19.97 8.427 20.55 8.223a.828.828 0 01.54 1.568c-.08.028-4.52 1.51-9.69.738zm60.39 1.955s8.14 34.163-3.16 56.276c-11.3 22.113-22.65 28.136-6.43 35.005 16.23 6.868 34.69-6.215 47.08.59 14.96 8.214-1.81-60.728-9.29-89.904-7.65-29.854-43.98-33.195-43.98-33.195l15.78 31.228z" fill="#002014"/><path d="M1560.65 409.648s14.54-33.296-12.72-48.969c-27.26-15.673-54.79-3.836-62.13 14.209-7.33 18.044 3.9 29.914 3.9 29.914l70.95 4.846z" fill="#002014"/><path d="M1513.93 479.95c7.87 2.185 11.02-1.303 13.43-3.897l1.63-14.106.95-8.227.2-1.212-3.62-.401-26.69-7.699-3.61 16.948-1.71 8.035c3.43 3.239 7.99 7.383 19.42 10.559z" fill="#FBB990"/><path d="M1528.99 461.947c-8.27 3.729-24.58 2.035-32.77-.592-.03-.003-.05-.013-.08-.023l3.69-16.924 26.69 7.699 3.62.401-.2 1.211-.95 8.228z" fill="#181818"/><path d="M1550.78 409.853s15.85-4.606 12.74 9.395c-3.42 15.417-16.04 11.04-18.21 10.042l5.47-19.437z" fill="#FB9476"/><path d="M1539.4 435.459c-.88 5.866 3.18 11.351 9.04 12.227 5.87.877 11.35-3.181 12.23-9.049.75-5.003-2.1-9.72-6.59-11.546a.18.18 0 00-.03.038c-.75.198-.91.78-.98 1.413 3.98 1.417 6.55 5.506 5.9 9.842-.74 4.924-5.34 8.336-10.27 7.6-4.93-.736-8.34-5.346-7.6-10.27a8.967 8.967 0 013.03-5.498c.42-.35.86-.666 1.32-.94-.41-.374-.81-.81-1.15-1.308a9.46 9.46 0 00-1.23.9 10.611 10.611 0 00-3.67 6.591z" fill="#fff"/><path d="M1552.55 424.713a.857.857 0 01-.7-1.069c1.76-6.795 6.76-9.15 6.97-9.247a.871.871 0 011.15.427.87.87 0 01-.43 1.139c-.19.087-4.48 2.147-6.03 8.115a.86.86 0 01-.96.635z" fill="#FA7764"/><path d="M1558.22 421.853a.853.853 0 01-.6-.401c-.03-.038-1.09-1.72-2.6-1.739a.85.85 0 01-.85-.869c0-.475.39-.856.87-.85 2.47.025 3.98 2.457 4.05 2.56.24.407.11.936-.29 1.183a.875.875 0 01-.58.116z" fill="#FA7764"/><path d="M1559.47 407.933c-.98 5.568-2.5 10.979-4.39 16.053a87.511 87.511 0 01-2.78 6.668c-6.98 15.093-17.02 25.968-25.04 26.909-12.69 1.493-27.1-4.709-34.17-21.264-1.15-2.705-2.36-5.972-2.94-9.822-.08-.534-.15-1.082-.22-1.641-2.07-17.2 2.29-41.721 2.29-41.721 10.41-15.534 32.78-11.394 45.76-9.258 12.98 2.14 26.01 8.593 21.49 34.076z" fill="#FFC29C"/><path d="M1523.75 448.674c-2.75-.411-4.38-1.66-4.45-1.714a.857.857 0 01-.15-1.207.853.853 0 011.2-.152c.03.021 1.49 1.108 3.92 1.407 2.48.302 4.14-.27 4.16-.276a.863.863 0 011.1.521.857.857 0 01-.52 1.098c-.08.03-2.03.72-4.95.365-.1-.012-.2-.027-.31-.042z" fill="#FB9476"/><path d="M1475.43 613.759c-.55 0-1.06-.352-1.24-.906-1.87-5.757-3.16-12.251-3.21-12.525-.14-.71.32-1.396 1.03-1.537.7-.139 1.39.321 1.53 1.031.01.066 1.32 6.618 3.14 12.225a1.316 1.316 0 01-1.25 1.712zm6.99-2.343a1.3 1.3 0 01-1.24-.888c-1.95-5.731-3.32-12.205-3.38-12.477-.15-.707.3-1.401 1.01-1.55.7-.15 1.4.303 1.55 1.008.01.067 1.4 6.598 3.29 12.178a1.3 1.3 0 01-1.23 1.729zm6.98-2.343c-.54 0-1.04-.335-1.23-.872-2.02-5.703-3.48-12.156-3.54-12.428-.16-.704.28-1.404.99-1.562.7-.157 1.4.284 1.56.989.01.065 1.49 6.575 3.45 12.129.25.68-.11 1.426-.79 1.667-.15.052-.29.077-.44.077zm6.98-2.343a1.32 1.32 0 01-1.23-.855c-2.09-5.675-3.64-12.108-3.7-12.379a1.3 1.3 0 01.97-1.575c.7-.168 1.4.266 1.57.968.02.064 1.58 6.554 3.62 12.08a1.309 1.309 0 01-1.23 1.761zm6.99-2.342c-.53 0-1.03-.32-1.23-.839-2.17-5.649-3.8-12.06-3.86-12.33a1.3 1.3 0 01.94-1.588 1.31 1.31 0 011.59.947c.02.063 1.66 6.533 3.77 12.033a1.3 1.3 0 01-.75 1.689c-.15.059-.31.088-.46.088zm6.97-2.342c-.51 0-1.01-.312-1.21-.824-2.24-5.62-3.96-12.012-4.03-12.282-.19-.696.23-1.413.92-1.599.7-.187 1.42.228 1.6.926.02.064 1.75 6.514 3.94 11.985a1.307 1.307 0 01-1.22 1.794zm6.99-2.343c-.52 0-1-.305-1.21-.807-2.32-5.593-4.12-11.964-4.2-12.232a1.308 1.308 0 012.52-.708c.02.065 1.83 6.493 4.09 11.938a1.307 1.307 0 01-1.2 1.809z" fill="#108A57"/><path d="M1554.95 460.328c-.27 3.41-.9 6.815-2.06 9.996-.3.814-.63 1.611-1 2.391v.004c-1.88 3.963-4.71 7.455-8.88 10.009 0 0-20.31 8.633-44.23-1.962h-.01a70.788 70.788 0 01-4.11-2.003 67.565 67.565 0 01-3.63-2.073c-10.39-6.366-14.51-14.945-15.64-23.115-.1-.729-.17-1.449-.23-2.174-.44-5.761.49-11.189 1.6-15.325.08-.274.15-.544.23-.805 1.2-4.214 2.52-6.896 2.52-6.896s5.38-2.337 12.43-3.41c2.69-.407 5.61-.631 8.58-.473 3.37.175 6.79.844 9.97 2.293 22.68 10.35 34.17 14.972 40.75 6.088 0 0 1.15 3.306 2.19 8.285.15.707.29 1.443.43 2.212.39 2.111.73 4.44.96 6.896.29 3.216.4 6.637.13 10.062z" fill="#0CAD69"/><path d="M1553.86 443.369c-.3.468-.64.942-1.01 1.413-2.88 3.631-8.46 7.811-18.94 7.811-.64 0-1.3-.015-1.98-.049-10.17-.485-18.09-4.681-25.75-8.737-9.15-4.84-17.79-9.416-29.26-7.001l-.16-.73-.15-.731c.13-.024.26-.051.38-.074 11.8-2.352 20.59 2.298 29.89 7.218 7.52 3.977 15.29 8.094 25.12 8.56 8.91.43 15.51-1.974 19.63-7.138.74-.926 1.33-1.863 1.8-2.754.15.706.29 1.444.43 2.212zm-.98 26.955c-.29.814-.62 1.611-1 2.391v.003c-3.8 2.182-8.35 3.677-13.62 4.468-2.99.453-6.21.675-9.65.675-4.48 0-9.33-.38-14.5-1.141-15.51-2.294-28.77-7.299-28.9-7.353l.53-1.396c.13.052 13.26 5.008 28.62 7.273 12.21 1.795 28.04 2.174 38.52-4.92z" fill="#108E59"/><path d="M1517.02 589.994l-45.98 15.017s-.61-2.68-1.55-7.237c-.21-1.015-.44-2.128-.68-3.324-.65-3.235-1.4-7.094-2.19-11.4-.19-1.092-.39-2.208-.59-3.355-.64-3.602-1.3-7.455-1.93-11.483-.18-1.117-.35-2.244-.53-3.387-.57-3.766-1.12-7.65-1.62-11.592-.15-1.143-.29-2.29-.43-3.442-.48-3.901-.89-7.834-1.24-11.735-.11-1.168-.21-2.333-.29-3.495-.32-4.065-.55-8.072-.67-11.946-.03-1.192-.06-2.372-.07-3.537-.06-4.34.05-8.479.36-12.3.1-1.253.23-2.466.37-3.642.1-.852.22-1.685.35-2.495.6-3.785 1.43-7.217 2.44-10.333.42-1.308.87-2.558 1.35-3.754 8.51-21.381 25.23-25.595 25.23-25.595 12.38 1.229 17.82 14.46 17.82 14.46-2.59 2.474-4.47 5.873-5.75 9.95a35.817 35.817 0 00-.88 3.304c-.69 3.062-1.11 6.424-1.3 10.002a74.76 74.76 0 00-.12 3.389c-.06 3.343.06 6.839.31 10.431.08 1.122.17 2.25.28 3.386.32 3.459.76 6.989 1.29 10.532.16 1.13.34 2.254.52 3.382.58 3.526 1.23 7.055 1.94 10.538.22 1.12.46 2.232.7 3.343.76 3.581 1.57 7.096 2.41 10.489.27 1.105.54 2.195.82 3.271a435.48 435.48 0 003.68 13.585c1.12 3.87 2.17 7.303 3.06 10.15.37 1.174.71 2.244 1.02 3.208a255.75 255.75 0 001.87 5.615z" fill="#0CAD69"/><path d="M1501.41 485.37a43.335 43.335 0 00-.88 3.301c-8.14-1.004-22.92-1.938-37.77 1.638.42-1.309.87-2.56 1.35-3.754 7.38-1.596 14.47-2.127 20.31-2.186 6.91-.074 12.85.463 16.99 1.001zm-2.18 13.305c-.06 1.109-.1 2.241-.12 3.388-9.71-.417-24.97-.025-39.5 4.714.1-1.251.22-2.464.37-3.642 9.63-2.961 19.24-4.087 26.78-4.441 4.7-.22 8.94-.173 12.47-.019zm.48 17.205c-10.37.175-25.94 1.472-40.39 6.737-.04-1.193-.06-2.374-.08-3.54 10.64-3.727 21.51-5.363 29.85-6.057 3.79-.318 7.28-.468 10.34-.523.08 1.12.17 2.248.28 3.383zm1.81 13.915c-10.71.721-26.65 2.737-41.24 8.262-.11-1.17-.2-2.334-.29-3.496 14.67-5.435 30.32-7.429 41.01-8.147.16 1.127.34 2.253.52 3.381zm2.63 13.88c-10.88 1.233-27.31 3.895-42.21 9.559-.14-1.143-.29-2.29-.43-3.444 14.97-5.599 31.09-8.233 41.95-9.458.22 1.122.46 2.234.69 3.343zm3.24 13.762c-10.92 1.721-27.93 5.053-43.29 10.775-.18-1.116-.35-2.244-.53-3.387 15.31-5.622 32.08-8.925 43-10.662.27 1.107.54 2.197.82 3.274zm3.69 13.585c-10.79 2.196-28.49 6.261-44.45 12.027-.2-1.09-.4-2.206-.6-3.353 15.89-5.69 33.33-9.709 44.13-11.917.31 1.109.62 2.193.92 3.243zm4.07 13.357c-10.45 2.63-28.95 7.562-45.66 13.395-.21-1.016-.44-2.128-.68-3.325 16.61-5.774 34.86-10.64 45.32-13.278.37 1.173.71 2.244 1.02 3.208z" fill="#108E59"/><path d="M1498.78 480.766h-.01a7.906 7.906 0 01-1.05-.128c-1.1-.209-2.12-.865-3.06-1.875-7.91-8.528-9.94-42.183-9.94-42.183s2.96-7.324 7.22-11.613c2.68-.407 5.61-.631 8.58-.473.61 6.32 2.74 26.468 5.21 32.012 2.85 6.367 2.48 24.764-6.95 24.26z" fill="#128E5A"/><path d="M1554.95 460.328c-11.56 8.966-36.77 3.804-59.79-2.98-7.87-2.318-14.42-3.4-19.77-3.771-.09-.729-.17-1.451-.23-2.174 10.01.626 23.42 3.438 40.03 7.212 24.63 5.593 35.85-3.848 39.63-8.347.3 3.216.4 6.639.13 10.06z" fill="#108E59"/><path d="M1538.25 414.722c-.38 2.43.41 4.574 1.76 4.787 1.36.215 2.78-1.586 3.16-4.019a7.19 7.19 0 00-.06-2.636c2.41.483 3.45-.905 3.45-.905-1.6-.025-3.65-.69-4.61-1.037-.34-.127-.55-.209-.55-.209-1.36-.215-2.76 1.583-3.15 4.019z" fill="#181818"/><path d="M1541.4 410.702s.21.082.55.21a1.43 1.43 0 00-.55-.21z" fill="#181818"/><path d="M1555.08 423.986a91.725 91.725 0 01-2.77 6.668c-1.09.009-2.27-.067-3.47-.238-5.4-.763-9.52-3.125-9.22-5.274.31-2.147 4.93-3.267 10.32-2.506 1.92.272 3.69.747 5.14 1.35zm-39.6-3.061c-.31 2.172-4.97 3.304-10.42 2.532-5.45-.774-9.62-3.159-9.31-5.331.3-2.17 4.97-3.304 10.42-2.532 5.45.774 9.62 3.159 9.31 5.331z" fill="#FD9B7E"/><path d="M1492.98 407.194a5.577 5.577 0 00-2.26-5.315c-4.15-3.026-9.72-4.74-12.48.76-5.13 10.21 4.18 23.891 12.23 22.089l2.51-17.534z" fill="#FBB990"/><path d="M1494.67 424.057c-.16.145-.31.284-.47.411a9.43 9.43 0 01-1.41.978c-.88.5-1.78.825-2.63 1.033a28.32 28.32 0 01-.22-1.644 8.46 8.46 0 001.86-.673 7.717 7.717 0 002.05-1.398c.31-.293.74-.228.96.137.22.358.17.883-.14 1.156zm-7.79-6.427a.852.852 0 01-.73-.871c.16-6.892-4.21-10.572-4.25-10.608a.858.858 0 01-.12-1.21.858.858 0 011.21-.123c.2.169 5.06 4.216 4.88 11.981a.866.866 0 01-.99.831z" fill="#FB9476"/><path d="M1481.38 412.802a.858.858 0 01-.43-1.5c.1-.088 2.52-2.147 5.23-1.429.46.122.73.594.61 1.054a.866.866 0 01-1.05.611c-1.83-.483-3.65 1.051-3.67 1.067a.864.864 0 01-.69.197zm50.58 11.123h.01-.01zm-4.31 4.344a.864.864 0 01-.73-.719c-.07-.38.15-.753.5-.921 2.12-1.004 4.16-2.295 4.52-2.841-.3-1.569-1.46-7.803-1.88-10.085a.86.86 0 011.69-.316c.44 2.358 1.66 8.921 1.91 10.22.08.449.34 1.813-5.52 4.588a.846.846 0 01-.49.074z" fill="#FB9476"/><path d="M1516.72 411.505c-.35 2.436-1.73 4.255-3.09 4.064-1.36-.192-2.18-2.328-1.83-4.766.13-.958.43-1.82.82-2.503-2.45-.243-3.04-1.875-3.04-1.875 1.54.445 3.7.407 4.72.358.36-.023.58-.042.58-.042 1.36.192 2.19 2.322 1.84 4.764z" fill="#181818"/><path d="M1514.89 406.741s-.22.019-.59.04c.2-.051.39-.07.59-.04z" fill="#181818"/><path d="M1550.68 410.833c-.49-1.018-1.14-2.032-1.83-2.944-.71-.919-1.5-1.754-2.35-2.488a12.909 12.909 0 00-2.72-1.845c-.94-.521-1.97-.806-2.97-1.063l-.1-.025a2.018 2.018 0 01-1.45-2.461 2.018 2.018 0 012.82-1.323c1.26.597 2.48 1.253 3.52 2.128a16.23 16.23 0 012.78 2.841c.8 1.035 1.47 2.132 2.03 3.275.56 1.151 1.01 2.305 1.33 3.562a.55.55 0 01-.4.677.556.556 0 01-.64-.296l-.02-.038zm-46.35-7.379a21.408 21.408 0 012.9-3.188 21.773 21.773 0 013.51-2.586 18.01 18.01 0 014.1-1.809c1.45-.483 3-.66 4.56-.761a2.016 2.016 0 012.14 1.885 2.018 2.018 0 01-2.21 2.14l-.13-.014c-1.19-.123-2.42-.224-3.66-.036-1.23.145-2.48.436-3.68.904a19.702 19.702 0 00-3.52 1.738c-1.11.702-2.21 1.529-3.14 2.429l-.04.028a.549.549 0 01-.78-.017.564.564 0 01-.05-.713z" fill="#111"/><path d="M1503.35 381.183s15.96 21.778 53.24 20.713c20.06-.572 2.64-31.892-27.26-33.653-29.9-1.759-25.98 12.94-25.98 12.94z" fill="#002014"/><path d="M1556.69 398.488s2.24 16.608-1.61 25.498c0 0 7.21-14.867 4.96-24.264-2.24-9.397-3.35-1.234-3.35-1.234z" fill="#181818"/><path d="M1513.35 381.248s-17.77 30.291-13.42 54.743c4.34 24.45 10.69 43.916-6.84 45.741-17.34 1.809-28.84-5.003-44.38 1.138-.16.066-.32.129-.49.198-.4.167-.77.268-1.1.313-2.69.346-3.21-3.164-2.2-9.155.36-2.119.9-4.542 1.61-7.218 3.27-12.39 10-30.117 17.31-47.154 5.74-13.38 11.84-26.335 16.91-35.943 1.84-3.5 3.56-6.55 5.06-9.024 16.04-26.312 51.76-18.893 51.76-18.893l-24.22 25.254z" fill="#002014"/><path d="M1481.81 385.062c-.16.299-9.21 16.94-17.97 34.791-7.16 14.564-14.12 29.939-15.92 37.907-.78 3.433-1.21 6.514-1.4 9.249-.58 8.745 1.31 13.954 2.19 15.86-.16.066-.33.131-.49.197-.41.17-.77.27-1.11.314-.7-1.542-1.78-4.564-2.19-9.155-.39-4.243-.21-9.831 1.38-16.832 4.06-17.959 32.84-70.882 34.06-73.126a.847.847 0 01.38-.355.828.828 0 011.07 1.15z" fill="#002014"/><path opacity=".4" d="M1534.44 401.942s-19.36-5.879-24.87 15.403c-5.52 21.279 13.57 30.834 25.67 28.495 12.1-2.341 20.07-40.289-.8-43.898z" fill="#FFC29C"/><path d="M1515.13 399.681c-7.24 0-13.12 5.891-13.12 13.131 0 7.238 5.88 13.128 13.12 13.128 7.24 0 13.13-5.89 13.13-13.128 0-7.24-5.89-13.131-13.13-13.131zm0 28.066c-8.23 0-14.93-6.7-14.93-14.935 0-8.237 6.7-14.937 14.93-14.937 8.24 0 14.94 6.7 14.94 14.937 0 8.235-6.7 14.935-14.94 14.935zm33.09-21.355c-7.24 0-13.12 5.89-13.12 13.128 0 7.241 5.88 13.131 13.12 13.131 7.24 0 13.13-5.89 13.13-13.131 0-7.238-5.89-13.128-13.13-13.128zm0 28.066c-8.23 0-14.93-6.701-14.93-14.938 0-8.235 6.7-14.935 14.93-14.935 8.24 0 14.94 6.7 14.94 14.935 0 8.237-6.7 14.938-14.94 14.938z" fill="#fff"/><path d="M1534.14 415.642c-1.59-2.453-4.53-1.415-4.65-1.369l-.62-1.697c1.52-.555 4.89-.835 6.78 2.081l-1.51.985z" fill="#fff"/><path d="M1557.89 758.712c-4.18 2.999-9.87 11.961-19.76 15.106C1481.95 791.694 1429.52 757 1429.52 757c-3.11-15.386-1.18-32.867 4-39.267-1.63-2.273-.55-4.991-.55-4.991l-24.74-45.863c.6.377 38.81 24.53 67.12 41.641h.01c8.16 4.928 15.49 9.272 20.87 12.29 8.2 4.605 18.67 5.055 28.93 3.642 19.99-2.763 39.18-12.615 39.18-12.615s47.84-28.21 59.91-27.236c9.39.753-24.58 52.517-66.36 74.111z" fill="#108E59"/><path d="M1452.08 805.116s-3.02.567-7.94 1.575a737.155 737.155 0 00-16.52 3.57c-19.69 4.486-45.77 11.31-56.28 17.982-.73.467-1.45.931-2.13 1.397-16 10.759-19.28 20.05-22.25 18.165-3.09-1.963-3.79-10.019 1.27-15.316 3.5-3.67 5.95-9.024 10.64-14.811a53.517 53.517 0 014.37-4.768c7.35-7.083 19.12-14.403 25.69-20.03.42-.362.82-.719 1.2-1.067 5.41-4.987 7.52-15.249 17.38-18.368 4.82-1.522 10.6-.929 16.18.542.99.26 1.97.551 2.94.859 1.45.464 2.87.974 4.24 1.501a89.92 89.92 0 015.31 2.28c1.57.73 2.99 1.446 4.22 2.088 2.97 1.554 4.8 2.709 4.8 2.709l6.88 21.692z" fill="#fff"/><path d="M1423.68 773.987c-5.83 7.632-19.26 22.221-34.76 18.894.42-.363.83-.719 1.2-1.068 5.41-4.987 7.52-15.249 17.39-18.369 4.82-1.521 10.6-.926 16.17.543zm-54.47 55.652c-16.01 10.759-19.28 20.05-22.25 18.167-3.1-1.963-3.79-10.021 1.27-15.318 3.5-3.67 5.95-9.022 10.64-14.809 3.96 2.809 8.17 6.791 10.34 11.96zm74.93-22.948c-1.4.285-2.95.605-4.63.96-2.91-5.321-4.38-11.81-4.29-19.212.05-3.741.48-7.14.96-9.812 1.56.731 2.99 1.446 4.22 2.088-.35 2.25-.63 4.928-.66 7.813-.07 5.833.89 12.513 4.4 18.163zm-13.28-30.344a75.064 75.064 0 00-4.23-1.501 60.436 60.436 0 00-2.9 12.752c-.99 8.775.35 16.481 3.89 22.662 1.58-.359 3.12-.705 4.61-1.034-7.48-11.466-3.37-27.004-1.37-32.879z" fill="#80D7B2"/><path d="M1688.23 721.855c-21.09 25.756-68.5 52.103-119.22 67.39-17.61 5.308-32.73 9.292-45.63 12.278-10.16 2.356-18.95 4.087-26.49 5.352-29.13 4.886-39.84 2.851-39.84 2.851s-17.97-5.78-10.27-34.977c0 0 34.08-7.832 60.48-20.882 5.38-2.659 10.45-5.539 14.84-8.614a155.87 155.87 0 003.06-2.197c24.54-17.974 45.52-42.388 100.82-64.457 0 0 28.92-17.564 52.17-9.688 3.47 1.171 6.75 2.864 9.71 5.2 16.85 13.255 14.61 30.366.37 47.744z" fill="#0CAD69"/><path d="M1584.95 781.354l-11 1.51-66.68-28.997c5.38-2.661 10.44-5.538 14.84-8.614 1.02-.721 2.05-1.453 3.06-2.196l59.78 38.297zm-61.56 20.168c-10.16 2.357-18.95 4.087-26.5 5.352-21.22-5.763-46.63-16.516-46.63-16.516l1.66-13.179 71.47 24.343zm164.84-79.666c-17.4-23.394-13.95-42.983-10.08-52.945 3.47 1.173 6.75 2.864 9.72 5.2 16.84 13.255 14.6 30.366.36 47.745z" fill="#108E59"/><path d="M1449.68 783.457c17.74-3.473 54.21-18.359 97.57-39.821 32.42-16.052 69.91-36.736 75.6-44.22 3.08-4.042 3.95-7.419 2.6-10.036-2.01-3.916-8.28-4.578-11.14-4.671a1.275 1.275 0 10-.09 2.546c2.81.101 7.68.791 8.97 3.292 1.07 2.079-.7 5.132-2.37 7.326-4.59 6.037-36 24.321-74.7 43.479-33.33 16.496-76.29 35.564-96.93 39.606l.49 2.499z" fill="#108E59"/><path d="M1453.51 771.111c1.32 15.576 4.74 29.831 13.03 41.002 0 0-7.72 5.078-14.4.915-5.11-3.18-14.16-27.807-9.76-40.561 4.47-2.202 8.28-2.875 11.13-1.356z" fill="#108E59"/><path d="M1575.63 811.405s2.98.761 7.82 2.09a681.547 681.547 0 0111.72 3.309c1.46.426 2.98.871 4.53 1.333 19.36 5.767 44.94 14.283 54.98 21.624a92.74 92.74 0 012.05 1.537c15.26 11.782 17.92 21.265 21 19.581 3.23-1.755 4.44-9.75-.25-15.366-3.26-3.892-5.35-9.394-9.66-15.478a53.178 53.178 0 00-4.05-5.042c-6.87-7.55-18.13-15.621-24.32-21.667-.39-.388-.77-.771-1.13-1.145-5.07-5.329-6.5-15.706-16.14-19.466-4.71-1.833-10.52-1.62-16.17-.517-1.01.196-2.02.42-3 .666-1.48.369-2.93.783-4.33 1.221a93.434 93.434 0 00-5.45 1.926c-1.61.628-3.08 1.248-4.35 1.811-3.06 1.354-4.96 2.385-4.96 2.385l-8.29 21.198z" fill="#fff"/><path d="M1606.01 782.197c5.32 8 17.76 23.433 33.45 21.128-.4-.388-.78-.77-1.14-1.143-5.06-5.331-6.5-15.707-16.14-19.467-4.71-1.832-10.51-1.619-16.17-.518zm50.71 59.101c15.27 11.782 17.93 21.266 21.01 19.581 3.22-1.755 4.44-9.751-.26-15.367-3.25-3.891-5.34-9.393-9.65-15.477-4.14 2.545-8.6 6.246-11.1 11.263zm-73.27-27.804c1.38.377 2.91.799 4.56 1.261 3.25-5.118 5.14-11.498 5.53-18.891.2-3.735 0-7.155-.31-9.852-1.61.626-3.08 1.246-4.35 1.809.21 2.267.31 4.956.15 7.84-.31 5.823-1.71 12.424-5.58 17.833zm11.72 3.31c1.46.426 2.98.871 4.53 1.333 3.94-5.936 5.78-13.537 5.37-22.36-.26-5.441-1.3-10.124-2.06-12.914-1.48.369-2.93.784-4.33 1.221 1.62 5.991 4.71 21.765-3.51 32.72z" fill="#80D7B2"/><path d="M1581.28 781.856c5.77 29.642-12.54 34.231-12.54 34.231s-27.28 3.357-110.37-27.759c-47.91-17.939-92.08-45.974-112.49-72.261-14.99-19.3-17.16-37.666 1.42-50.403 4.27-2.935 9.07-4.616 14.06-5.399 22.99-3.608 50.16 11.865 50.16 11.865 55.95 26.698 41.94 35.873 88.61 65.597 26.68 16.999 81.15 44.129 81.15 44.129z" fill="#0CAD69"/><path d="M1361.36 660.265c.89 10.022 2.42 43.535-15.48 55.802-14.99-19.3-17.16-37.666 1.42-50.403 4.28-2.935 9.07-4.616 14.06-5.399zm216.46 130.091c-17.47-4.625-52.89-21.865-94.75-46.117-31.31-18.138-67.36-41.231-72.55-49.07-2.8-4.236-3.46-7.663-1.94-10.184 2.27-3.778 8.56-4.027 11.42-3.934.74.025 1.3.662 1.23 1.396a1.268 1.268 0 01-1.3 1.153c-2.81-.084-7.72.285-9.17 2.699-1.2 2.002.36 5.163 1.88 7.464 4.19 6.322 34.34 26.624 71.71 48.273 32.17 18.64 73.8 40.477 94.12 45.858l-.65 2.462z" fill="#108E59"/><path d="M1574.8 777.786c-2.34 15.459-6.68 29.456-15.68 40.061 0 0 7.37 5.572 14.31 1.856 5.3-2.837 15.94-26.82 12.39-39.834-4.32-2.491-8.07-3.41-11.02-2.083z" fill="#108E59"/><path d="M1658.58 659.719c-6.21 7.938-14.76 12.379-21.56 16.92-16.34 10.926-49.49 17.834-47-19.804 2.5-37.633 30.97-22.383 10.02-88.483-8.94-28.203-15.1-86.338-15.1-86.338s46.8 32.784 74.49 113.639c2.16 6.299 3.79 12.048 4.97 17.303 5.35 23.872 1.32 37.63-5.82 46.763z" fill="#FB4C47"/><path d="M1658.57 659.719c-10.15-18.127-1.73-36.046 5.83-46.763 5.35 23.872 1.32 37.63-5.83 46.763zm-68.66 3.853c-.51 0-.98-.36-1.09-.887-.07-.321-1.64-7.98 1.48-18.162 2.87-9.348 10.43-22.648 30.17-32.919a1.118 1.118 0 111.03 1.987c-18.98 9.884-26.26 22.569-29.02 31.472-2.99 9.652-1.48 17.082-1.47 17.156a1.12 1.12 0 01-1.1 1.353z" fill="#B63A37"/><path d="M1606.92 622.561a1.113 1.113 0 01-1.17-1.472c3.63-10.814 5.96-15.443 6.05-15.635.28-.552.96-.772 1.51-.491.55.28.77.953.49 1.505-.02.045-2.36 4.705-5.93 15.334a1.13 1.13 0 01-.95.759z" fill="#B63A37"/><path d="M1608.18 617.636c-.61 0-1.12-.502-1.12-1.12 0-22.03-29.43-71.907-29.73-72.41a1.119 1.119 0 01.39-1.536 1.128 1.128 0 011.54.392c1.22 2.069 30.04 50.914 30.04 73.554 0 .618-.5 1.12-1.12 1.12z" fill="#B63A37"/><path d="M1587.35 561.025c-.24 0-.47-.072-.67-.223-3.81-2.847-13.45-5.365-13.55-5.389-.6-.155-.96-.767-.8-1.364a1.11 1.11 0 011.36-.805c.41.107 10.16 2.652 14.33 5.763.49.371.59 1.073.22 1.569-.22.293-.55.449-.89.449z" fill="#B63A37"/><path d="M1573.63 718.348c.18 1.99.35 4.068.59 5.746.46 3.17 1.18 4.905 2.76 1.89.35-.679.63-1.546.87-2.543 1.35-5.815.91-16.051 1.54-18.282.7-2.535 3.66-9.745 3.92-10.152-.13.3-1.47 4.709-1.62 7.429-.15 2.55 0 5.65 0 11.93 0 2.738.1 5.57.45 7.63v.006c.44 2.662 1.3 4.018 2.9 2.172.78-.909 1.29-2.505 1.61-4.394.86-4.905.55-11.831 1.01-14.098.6-3.039 3.07-7.95 3.23-8.258-.94 3.127-.94 2.819-1.46 6.927-.36 2.87-1.03 10.505-.32 13.927.3 1.476.86 2.172 1.82 1.364 1.49-1.261 2.52-3.11 3.25-5.225.82-2.373 1.26-5.087 1.53-7.687.52-4.922 2.51-7.956 2.51-7.956-1.1 5.331-1.7 10.487-1.38 13.15.23 1.883.92 2.518 2.22 1.086 2.54-2.788 5.1-12.007 5.98-15.474.04-.106.06-.213.08-.313.04-.107.06-.2.08-.29.12-.464.18-.728.18-.728l.01-.006c.74-2.889 1.4-5.777 2.37-8.364 1.45-3.844 3.6-7.027 7.73-8.558 9.37-3.486 6.49-21.318-6.65-22.389-3.83-.312-7.62.957-10.62 3.349a461.747 461.747 0 01-7.34 5.738l-.01.006c-.26.335-8.81 10.92-11.48 17.514-2.72 6.694-5.03 17.269-5.55 20.302-.53 3.034-.73 8.792-.21 14.551z" fill="#FAB893"/><path d="M1367.05 668.514c6.24 8.139 14.85 12.694 21.68 17.351 16.44 11.204 49.8 18.285 47.29-20.309-2.51-38.589-31.15-22.95-10.08-90.732 9-28.919 10.08-86.552 10.08-86.552s-41.97 31.636-69.83 114.548c-2.17 6.457-3.82 12.352-5 17.743-5.39 24.479-1.33 38.586 5.86 47.951z" fill="#FB4C47"/><path d="M1367.3 670.099c10.16-18.129 1.74-36.046-5.82-46.763-5.35 23.872-1.32 37.63 5.82 46.763zm68.66 3.853c.52 0 .99-.36 1.1-.887.07-.321 1.64-7.98-1.49-18.162-2.86-9.348-10.43-22.647-30.16-32.921a1.118 1.118 0 00-1.51.477c-.29.548-.07 1.225.48 1.512 18.98 9.882 26.25 22.569 29.02 31.472 2.99 9.65 1.48 17.082 1.47 17.156a1.113 1.113 0 001.09 1.353z" fill="#B63A37"/><path d="M1418.96 632.94a1.127 1.127 0 001.18-1.472c-3.64-10.813-5.96-15.443-6.06-15.635a1.12 1.12 0 10-2 1.016c.02.044 2.36 4.703 5.93 15.333.15.431.53.717.95.758z" fill="#B63A37"/><path d="M1417.7 628.015c.62 0 1.12-.502 1.12-1.12 0-22.029 29.44-71.907 29.73-72.409a1.12 1.12 0 00-.39-1.537 1.113 1.113 0 00-1.53.394c-1.23 2.067-30.05 50.912-30.05 73.552 0 .618.5 1.12 1.12 1.12z" fill="#B63A37"/><path d="M1438.53 571.405c.24 0 .47-.072.67-.224 3.81-2.847 13.45-5.363 13.55-5.388.6-.154.96-.767.8-1.366a1.118 1.118 0 00-1.36-.804c-.42.106-10.17 2.653-14.33 5.764a1.136 1.136 0 00-.23 1.569c.22.293.56.449.9.449z" fill="#B63A37"/><path d="M1452.25 728.727c-.18 1.991-.35 4.07-.59 5.745-.46 3.17-1.18 4.907-2.76 1.892-.35-.68-.63-1.546-.87-2.544-1.35-5.816-.91-16.052-1.53-18.281-.71-2.537-3.67-9.745-3.93-10.152.13.301 1.47 4.709 1.62 7.429.15 2.548 0 5.65 0 11.93 0 2.739-.1 5.571-.45 7.63v.006c-.44 2.663-1.3 4.019-2.9 2.172-.78-.909-1.28-2.505-1.61-4.395-.86-4.905-.55-11.832-1-14.099-.61-3.039-3.08-7.949-3.24-8.256.94 3.127.94 2.819 1.46 6.927.36 2.868 1.03 10.504.32 13.927-.3 1.476-.86 2.172-1.82 1.364-1.48-1.263-2.52-3.11-3.25-5.225-.82-2.373-1.25-5.087-1.53-7.687-.52-4.924-2.51-7.957-2.51-7.957 1.1 5.333 1.71 10.488 1.38 13.149-.23 1.885-.92 2.518-2.22 1.086-2.54-2.786-5.1-12.006-5.98-15.471-.04-.107-.06-.215-.08-.314-.04-.109-.05-.202-.08-.289-.12-.464-.18-.729-.18-.729l-.01-.007c-.73-2.887-1.4-5.776-2.37-8.363-1.45-3.843-3.59-7.027-7.73-8.56-9.37-3.484-6.49-21.316 6.65-22.389 3.83-.311 7.62.957 10.62 3.35 1.92 1.525 4.61 3.653 7.34 5.739l.01.006c.26.333 8.81 10.92 11.49 17.514 2.71 6.695 5.02 17.269 5.54 20.302.53 3.032.73 8.793.21 14.55z" fill="#FAB893"/><path fill-rule="evenodd" clip-rule="evenodd" d="M-59.832 211.743a590.39 590.39 0 0013.957 3.379v-.855L12.5 224.821l11-106.443-11-116.58h-58.375v-42.943h523C472.132-69.29 462.562-89.857 460.563-94H-148v277.313c30.077 11.456 57.318 20.268 82.013 26.828l-.013.487 6.168 1.115z" fill="url(#paint0_linear)"/><defs><linearGradient id="paint0_linear" x1="410.861" y1="-71.583" x2="-90.666" y2="162.315" gradientUnits="userSpaceOnUse"><stop stop-color="#FFF1F4"/><stop offset="1" stop-color="#fff"/></linearGradient></defs></svg>