<svg xmlns="http://www.w3.org/2000/svg" width="997" height="570"><path fill="#f44a45" d="M799.622 497.263s-2.354 0 0-11.779c2.354-11.782 2.354-29.845 7.066-35.343 4.712-5.494 20.42-11.778 32.2-18.059 11.782-6.284 18.848-14.136 23.56-14.136s3.14 7.066 9.425 0c6.284-7.07 7.066-.786 13.35 0l6.284.782s-1.572 6.284 0 10.21c1.569 3.927 3.926 4.713 9.421 3.144 5.498-1.572 12.568-16.073 14.922-17.46 2.358-1.388 5.499 14.316 7.07 19.815 1.569 5.498 12.565 19.634 16.491 27.486 3.926 7.853-25.132 43.978-31.413 45.55-6.284 1.569-25.133-1.572-28.273 0-3.14 1.569-10.108-14.136-10.55-15.708-.443-1.568-4.372.786-4.372.786s-9.421-7.067-15.705-6.284c-6.284.786-18.063 7.07-21.99 7.856-3.925.786-14.136 0-14.136 0l-5.498 4.712zm82.2 32.461s1.572-6.284 2.095-9.424c.522-3.14 6.284-4.19 6.284-4.19s1.568 6.285 0 9.425c-1.572 3.144-8.38 4.19-8.38 4.19z"/><path fill="#167c51" d="M942.552 539.672s1.046-8.376 5.758-9.947c4.712-1.572 21.466-13.091 25.655-13.614 4.19-.523 0 9.424 0 9.424s-16.23 11.52-20.417 14.137c-4.19 2.617-11.582 2.754-10.996 0zm41.36-23.58s4.19-7.835 4.713-12.02c.522-4.19 4.189-7.33 4.189-7.33s1.568 8.88 2.095 9.673c.522.797 2.09 2.368 2.09 5.509 0 3.14-12.041 8.901-13.087 8.375-1.045-.523-1.554-1.077 0-4.207zM876.584 374.229s3.404 8.901 4.713 9.424c1.308.523 13.35 3.14 16.754 5.758 3.403 2.617 1.571 6.284 0 7.856-1.572 1.568 1.308 4.186 3.663 3.926 2.357-.263 4.975 1.046 5.76 2.618.787 1.568 5.236 3.403 6.545 2.354 1.308-1.046 2.88-5.235 4.712-5.758 1.831-.523 7.852-1.572 8.375 0 .526 1.569 4.19 4.804 5.761 6.067 1.568 1.263 5.498 1.094 8.375 0 2.88-1.095-1.308-2.14-2.877-3.186-1.572-1.05-3.93-2.621-5.238-6.807-1.309-4.19.526-5.498-2.877-7.33-3.404-1.835-18.063-11.782-21.99-12.827-3.929-1.05-17.28 2.094-21.206.786-3.926-1.31-3.926-3.667-4.972-4.19-1.049-.523-7.33-3.13-5.498 1.309z"/><path fill="#035755" d="M938.103 388.103s4.19-.046 6.284 1.417c2.091 1.463 4.186 1.986 2.354 2.509-1.831.523-7.066 2.358-8.638.786s-2.372-4.874 0-4.712zm-89.961 11.541s3.273-3.056 5.894-3.056 5.895 1.526 5.895 1.526-4.803 2.621-6.986 3.278c-2.182.652-6.371-.495-4.803-1.748zm-12.662-.561s2.62-2.933 5.02-3.368c2.404-.439 6.113.87 6.113.87s-2.618 1.284-5.565 2.498c-2.947 1.214-6.607 1.028-5.568 0zm-1.093 2.497s2.62.407 3.712 0c1.091-.407.656 2.649-.874 2.649s-3.93-.15-2.838-2.65zm-9.418-3.538s2.417-1.284 4.631-1.743c2.218-.46 5.51-.78 4.87 0-.638.778-1.645 2.526-3.459 2.803-1.81.277-7.986-.168-6.042-1.06z"/><path fill="#0c6c44" d="M794.27 389.52s2.738-2.052 6.962-1.424c4.228.631 9.698 1.656 13.179 2.67 3.48 1.017 8.705 4.99 10.94 4.86 2.238-.13 3.73 1.14.996 1.487-2.737.348-11.203.565-15.298-.526-4.098-1.091-8.585-3.653-11.813-3.902-3.225-.245-6.691-2.28-4.965-3.165zm43.61-1.544s-2.948-8.2-3.33-11.695c-.383-3.49 4.312-11.789 4.86-13.206.543-1.421 10.806-1.204 13.424-2.186 2.62-.983-.874 4.477-3.383 4.477-2.512 0-6.838.544-8.494 1.309-1.66.765-.786 3.056-.456 3.056.326 0 5.456.109 6.112.765.656.656-2.534 2.62-2.467 3.164.067.548 3.014 5.786 3.123 7.425.109 1.638-.765 6.22-1.312 5.786-.544-.435-3.165-2.074-3.492-3.383-.33-1.312-1.312-3.494-2.62-3.712-1.31-.221-.657 3.712-.657 5.13 0 1.417-.86 4.354-1.308 3.07z"/><path fill="#035755" d="M852.834 372.352s2.513.327 3.274 1.53c.765 1.2-.997 1.527-2.246 1.418-1.245-.109-2.993-2.73-1.028-2.948z"/><path fill="#0c6c44" d="M861.569 368.423s-.109-3.274 0-5.021c.108-1.748.326-3.821 1.2-3.821.873 0 2.947 3.603 2.62 4.42-.326.818-1.105 3.765-1.919 4.422-.81.656-1.866 1.533-1.901 0z"/><path fill="#035755" d="M867.028 373.225s2.291.021 3.274.61c.982.59 1.53 1.176.982 1.485-.544.305-2.947.126-3.6 0-.656-.13-2.06-2.196-.656-2.095z"/><path fill="#167c51" d="M804.146 360.772c.323-.116 4.478-1.737 7.204-1.737 2.73 0 5.35-6.877 8.515-7.315 3.165-.435 5.544-6.547 7.958-7.53 2.414-.982 8.056 1.853 7.474 2.726-.586.874-2.769 3.278-3.643 4.912-.873 1.64-.217 6.225.44 7.751.652 1.53 2.834 3.604 2.455 4.042-.382.435-5.866 11.35-6.726 13.098-.86 1.747-2.716 3.165-5.01 3.274-2.291.112-9.912-.653-11.997-1.635-2.084-.983-3.613-5.27-4.157-6.674-.548-1.407-1.856-3.263-1.965-5.116-.112-1.856-1.291-5.53-.548-5.796z"/><path fill="#0c6c44" d="M762.232 345.717s7.203 2.513 8.733 3.713c1.53 1.2 5.785 6.877 8.406 9.715 2.618 2.839 6.986 5.895 7.313 7.204.326 1.312 6.834 11.136 7.13 12.336.294 1.2 1.343 6.442 0 6.55-1.345.11-8.33-1.747-9.53-3.385-1.204-1.635-7.207-7.095-7.425-9.498-.217-2.4-2.73-9.842-4.038-11.579-1.309-1.737-3.93-1.628-4.804-2.828-.873-1.203-3.164-6.66-4.694-7.098-1.527-.435-2.074-5.48-1.091-5.13z"/><path fill="#035755" d="M792.14 371.37s0 3.204 1.2 3.951c1.2.744 1.856 1.726 2.294 1.4.435-.33.762-1.621.435-2.884-.326-1.267-4.028-3.804-3.93-2.467z"/><path fill="#0c6c44" d="M714.525 330.98v7.533c0 1.635 4.772 5.049 5.007 5.47.231.425 1.544-6.782 1.544-8.091 0-1.309-6.551-7.203-6.551-4.912z"/><path fill="#035755" d="M542.1 231.831s2.211.572 2.948.818c.737.245 3.684 1.473 3.358 1.803-.33.326-3.684.491-4.014.491-.326 0-2.372.653-2.782 0-.41-.656-1.965-3.358-1.639-3.112.33.246 1.13-.263 2.13 0zm-32.09-10.398s3.028 1.639 4.01 1.885c.983.245 2.05 2.045 2.541 2.782.491.737-2.049-.08-2.54-.41-.491-.327-2.702-.492-3.439-1.064-.737-.572-1.344-3.6-.572-3.193zm-12.447-9.905s1.393 1.309 1.8 1.8c.41.491-.572 3.277 0 4.175.575.902-.797 3.032-.85 2.54-.048-.49-1.687-2.375-2.343-3.522-.653-1.144-.818-1.8-.653-2.948.162-1.143 1.253-2.806 2.046-2.045zm-1.637-7.124s-1.063 1.639 0 2.291c1.064.656 2.867 1.639 2.867 1.639s.161-.902 0-1.965c-.165-1.063-2.396-3.354-2.867-1.965zm-14.326 9.988s.736 1.19 1.228 1.334c.49.14 1.638-.576 2.045-.667.41-.095-1.635-1.077-1.635-1.323s-1.638.656-1.638.656zm-6.305 2.293s.41-.53 1.554-.961c1.147-.432 2.54-.348 2.947-.432.41-.08.085.737-.652 1.393s-1.72 1.554-3.193 1.72c-1.474.164-1.72.817-1.474.164.246-.656-.144-1.19.818-1.884z"/><path fill="#167c51" d="M455.155 171.274s.547-1.965 1.53-3.604c.982-1.635.543-6.33.87-7.094.33-.765 3.277-5.021 3.385-5.35.11-.327-7.203-7.095-7.533-8.078-.326-.982.218-3.93.656-5.02.435-1.092 3.165-6.443 3.713-6.66.543-.218 2.182 0 2.182 0s.656 2.073 1.53 2.62c.87.545 2.947 1.31 3.49 1.857.548.544 1.092 7.75 1.31 8.403.22.656 4.042 8.624 4.477 8.845.438.218 4.912 3.71 5.02 4.148.11.435-.982 7.203-1.526 7.533-.547.326-5.568 1.744-6.115 1.852-.544.113-1.635 1.204-2.839 1.421-1.2.218-10.15-.873-10.15-.873zm-14.85-10.371s1.418-5.13 2.291-6.22c.874-1.095 3.495-3.06 4.477-3.495.983-.435 6.351-1.53 6.232-.982-.12.547-.555 4.147-.555 4.694 0 .544 1.31 3.165 1.2 3.93-.108.765-2.73 5.238-3.712 5.894-.982.657-7.968 2.292-8.186 1.639-.217-.656-.547-2.839-.547-2.839s-.765-.873-1.2-1.203c-.435-.326 0-1.418 0-1.418z"/><path fill="#035755" d="M453.305 134.812s-1.867 1.898-2.193 2.477c-.326.58-.983 2.874-.656 2.761.33-.108 1.42-.76 2.186-1.2.761-.435 1.105-2.182 1.315-2.62.21-.436-.652-1.418-.652-1.418zm14.184-9.824s-1.965 2.074-2.291 2.839c-.33.765-1.295 2.29-.65 2.4.65.112 2.832-1.31 2.94-1.418.11-.109.327-.214.874-1.196.544-.986-.873-2.625-.873-2.625z"/><path fill="#41294a" d="M602.744 85.799s.874-1.639 1.309-1.965c.438-.327 2.403-1.092 2.73-1.092.33 0 .873 2.73 0 3.057-.874.326-3.383 1.747-3.383 1.747s-.958-1.207-.656-1.747z"/><path fill="#0c6c44" d="M609.182 69.752s1.2-4.913 2.4-6.334c1.204-1.417 8.846-11.789 9.607-12.006.765-.218 3.603-1.639 5.025-2.183 1.417-.547 0 5.456 0 5.456s.435.113 1.417-.109c.982-.217 2.947-.543 2.947.11v3.385s-8.733 6.33-8.842 6.986c-.108.656-.438 6.442-.438 6.442.438 1.526 2.077 5.02 2.077 5.568 0 .544-.109 2.726-.109 2.726s-4.477-1.2-5.46-1.635c-.982-.438-3.93-4.912-4.476-5.133-.544-.217-2.4-1.309-2.948-1.744-.544-.438-1.2-1.53-1.2-1.53zm21.398-21.397s-1.2 1.2-1.638 2.074c-.435.873 1.639 1.856 2.621 2.512.983.653 2.839.544 3.604 0 .765-.547 4.038-3.747 4.038-3.747-.109-.73-2.947-1.93-3.93-1.93-.982 0-4.694 1.091-4.694 1.091zm14.532-4.039s-5.487.982-5.894 1.638c-.407.653 3.863 2.4 4.877 2.4 1.017 0 2.442.33 3.66 0 1.22-.326 3.252-2.947 3.252-2.947s-3.077-1.67-5.895-1.091"/><path fill="#167c51" d="M618.733 407.284s-2.291 5.569-2.947 6.06c-.657.491-6.551 6.056-8.025 7.038-1.473.986-3.112 2.13-3.603 3.277-.491 1.148-2.618 4.421-2.291 5.077.326.653 1.8 2.456 1.8 3.274 0 .818-2.127 4.256-2.618 6.06-.491 1.8-1.474 9.168-.982 10.15.49.982 2.126 6.386 3.93 7.042 1.8.656 10.15-11.79 11.132-14.084.983-2.291.165-3.274 1.474-4.256 1.312-.982 2.786-13.428 3.277-14.901.491-1.474 2.126-2.291 2.291-2.948.165-.656-1.308-11.297-1.638-11.789-.327-.491-.162-1.308-1.8 0zm-17.519-83.51s.492.49 2.456 1.639c1.965 1.144 4.421-.983 6.55-.821 2.127.165 10.973-2.456 12.609-2.456 1.637 0 2.294.52 1.637 3.617-.656 3.099-3.93 16.527-5.237 18.983-1.314 2.456-16.155 16.536-19.295 19.648-3.14 3.112-10.183 11.79-10.344 12.607-.164.82.492 13.592 1.144 15.227.656 1.639 1.965 5.407 2.13 7.533.165 2.13-.657 17.032-1.309 18.996-.656 1.965-15.884 14.572-16.54 16.375-.656 1.8-1.638 4.748-.982 5.404.656.652 2.621 1.473 1.965 3.93-.656 2.456-1.74 4.582-2.183 5.568-.438.982-3.712.982-5.02 2.617-1.313 1.639-.984 5.568-1.965 8.35-.983 2.787-3.77 5.734-5.243 8.19-1.473 2.456-5.894 6.056-7.04 8.512-1.145 2.46-2.949 4.425-3.6 5.407-.657.983-12.773 1.965-15.229 2.947-2.456.983-3.603 3.11-5.403 3.274-1.804.165-6.06 0-6.06 0s-3.112-4.421-3.438-6.06c-.33-1.635-2.13-4.256-1.639-6.877.491-2.62-6.55-19.974-7.533-22.104-.982-2.13-1.309-15.393-1.474-18.34-.161-2.947-6.105-7.695-5.508-9.66.596-1.964.761-9.171 1.087-10.81.33-1.635 3.113-7.785 3.93-9.705.821-1.919.983-4.866.983-6.505 0-1.635-1.474-3.438-1.474-5.238 0-1.804.165-4.751.165-5.242 0-.491-9.99-15.72-10.972-17.028-.982-1.309-1.147-2.62-.982-4.747.165-2.13.544-4.916-.056-5.733-.6-.818-.544-8.351 0-9.824.547-1.474-2.892-5.404-2.892-5.404l-7.859-.983s-3.93-5.076-4.747-5.237c-.821-.166-3.769-.658-4.586-.166-.818.49-4.095 1.474-5.077 1.474h-6.06s-1.8 2.782-3.438 3.112c-1.635.326-3.6.653-3.6.653l-2.621-1.636s-4.421-.82-6.06-.49c-1.635.326-3.764 1.634-4.42 1.634-.653 0-2.948 0-3.439-.161-.491-.164-15.719-14.41-17.028-16.375-1.312-1.965-6.224-8.841-6.385-9.663-.165-.817-.821-8.021-.821-8.021l-2.292-1.968s.492-4.09.818-5.404c.326-1.308 3.438-6.385 3.93-7.203.49-.817-.818-2.456-.653-3.273.161-.821 1.8-3.277 1.8-3.277s-1.639-5.404-1.474-7.04c.165-1.638-.326-1.967.656-4.26.983-2.29.327-9.823.818-10.806.491-.981 11.79-10.48 13.428-10.806 1.635-.326 2.947-2.782 2.947-2.782s-.165-4.094.161-6.06c.33-1.965 7.698-11.206 9.007-12.073 1.312-.863 3.769-4.301 4.421-4.301h15.558c1.473 0 4.42-3.114 5.564-3.114 1.148 0 27.182.33 27.838 0 .656-.325 1.148 10.155 2.13 10.316.982.166 5.077 2.456 5.403 3.112.327.656 1.085 1.475 1.278 1.639.196.161 6.543 1.31 6.971 1.8.428.492 4.523 6.221 4.523 6.221s6.386 0 6.877-.326c.491-.327 2.947-5.568 3.438-6.222.492-.656 1.965-.656 3.604-.656 1.638 0 5.894 1.8 6.55 1.8.653 0 .983 4.587 1.31 5.078.326.492 2.29-2.291 2.782-2.291.491 0 9.989 2.29 11.137 2.783 1.146.49 11.684 11.04 13.59 12.093 1.907 1.05 7.04 15.415 7.696 16.561.654 1.148.818 4.586.818 4.586s2.782 1.965 3.273 3.604c.492 1.634 1.748 4.965 2.404 6.277.656 1.308 1.69 5.02 3.33 6.33 1.638 1.309 2.291 6.385 2.947 7.367.656.983.818 4.75 1.474 4.912.656.166 3.273 1.314 4.256 2.13.982.818 2.621 2.948 3.604 3.765.981.821.981 5.077.981 5.077z"/><path fill="#0c6c44" d="M278.527 567.755s-3.93-1.965-6.333-3.056c-2.4-1.091-5.021-3.056-5.021-3.056s-1.309-2.403-2.183-2.62c-.873-.218-4.803 2.399-4.803 2.399l2.839 6.333s5.238 1.747 6.333 2.183c1.09.438 9.168-2.183 9.168-2.183z"/><path fill="#167c51" d="M266.302 553.127l-1.748-5.238s5.895-5.895 6.55-8.08c.657-2.183.875-8.734.875-8.734l-2.621-3.273s6.768-10.042 7.206-11.79c.436-1.747 0-5.894 0-5.894s.436-1.091 1.965-1.53c1.527-.435 3.709-5.456 4.804-6.768 1.09-1.309 11.789-5.456 12.224-6.33.439-.873.874-3.93.874-3.93s-3.057-6.989-1.965-7.641c1.09-.656 6.112 0 6.112 0s10.698-10.92 15.284-16.375c4.586-5.46 4.147-14.628 5.46-17.905 1.308-3.274 18.992-11.568 20.521-14.19 1.527-2.62 5.677-19.43 5.677-19.43s1.744-12.88 2.4-14.846c.656-1.965 7.643-4.802 8.077-6.99.44-2.182 1.095-16.374 1.095-16.374s-11.572-3.056-12.01-4.582c-.435-1.53-.435-3.495-1.526-4.586-1.095-1.092-13.32-2.621-14.193-2.838-.874-.218-6.333-7.2-6.333-7.2s-9.793.88-11.337 0c-1.544-.878-1.87-2.843-1.87-2.843s.109-6.332 0-7.859c-.109-1.53-8.842-8.954-11.245-10.48-2.4-1.53-12.663-5.46-14.41-6.986-1.744-1.53-3.492-7.642-4.148-8.515-.652-.875-19.866-3.056-20.522-3.495-.656-.436-6.768-3.492-6.768-3.492s-3.056 3.492-4.147 2.839c-1.092-.656-1.965-5.024-2.839-5.024-.874 0-6.333 3.277-6.333 3.277s-4.582 1.09-5.674 2.182c-1.094 1.092-3.277 6.113-4.368 6.55-1.091.436-3.93 1.092-3.93 1.092s-1.308 3.712-.873 4.586c.438.873 2.62 5.02 2.62 5.02s-.438 8.734-1.09 9.39c-.657.652-9.607 12.674-9.825 13.758-.22 1.088 0 4.8 0 4.8s3.491 3.056 2.618 5.238c-.874 2.183-4.148 5.459-4.148 6.768 0 1.31 4.586 7.86 5.677 8.516 1.092.652 1.31 9.386 1.965 10.259.656.873 10.042 13.975 11.133 14.85 1.092.873 14.85 12.44 15.284 14.845.439 2.399 2.621 12.88 1.53 19.648-1.091 6.768-2.404 15.501-3.277 18.122-.874 2.618-.218 25.8-.653 27.747-.438 1.944-.873 5.003-1.53 5.656-.656.656.218 16.813.657 19.43.435 2.622 1.308 10.264 0 12.664-1.313 2.403-2.186 6.768-1.965 8.08.217 1.309 2.4 7.421 2.617 8.295.221.873.439 4.585.439 4.585l3.93 3.057.873 5.02s4.365 1.092 5.456 1.31c1.091.22 1.312-2.183 1.312-2.183s1.965 1.091 4.365.438c2.404-.656 1.748-2.62 1.748-2.62z"/><path fill="#0c6c44" d="M212.155 273.34s10.642-.49 11.79 0c1.147.492 11.627 7.204 12.61 7.695.982.491 6.386 2.947 6.386 2.947s-1.474 1.148-2.621 1.474c-1.148.33-9.169 0-9.169 0s-1.473-3.93-2.294-4.42c-.818-.492-5.73-3.11-6.877-3.44-1.148-.326-8.186 1.766-8.186 1.766s-2.947-1.927-3.439-2.583c-.49-.656 1.8-3.438 1.8-3.438zm17.52 16.212s3.604.656 4.912.982c1.309.326 2.783 2.291 2.783 2.291s-3.274-.326-3.846 0c-.575.33-3.849 0-3.849 0s-1.077-3.473 0-3.273zm13.264-.009s1.639.811 2.782 0c1.148-.81 2.786-2.449 3.769-2.449.982 0 4.912-.326 5.73 0 .817.33 3.276 1.295 2.62 2.45-.656 1.154-3.438 4.427-4.586 4.427-1.147 0-4.094.657-4.585 0-.492-.652-1.8-1-1.8-1s-2.291-.635-2.948-.8c-.656-.164-2.898-2.957-.982-2.628z"/><path fill="#f44a45" d="M297.957 175.094s11.625-10.315 12.607-9.498c.982.821 0 5.733 0 5.733s1.505 1.144 3.13 1.309c1.62.165 2.438 5.077 2.768 5.73.326.656 0 6.385-1.147 6.385-1.148 0-3.604-1.8-3.604-1.8l-7.533-1.147-2.456-.982s-4.747-.818-4.582-1.474c.161-.653.817-4.256.817-4.256zm-66.644-70.41s3.112-6.22 4.42-7.042c1.31-.817 5.895-1.308 5.895-1.308s2.621 5.403 3.277 5.568c.653.161 4.583 2.782 4.583 2.782l-1.144.983h-6.716s-4.256 3.765-4.912 3.93c-.656.164-6.045-3.674-5.403-4.913zm7.696 6.058s-.818 2.456 0 2.62c.817.162 3.765-1.312 4.095-2.62l.326-1.31s-4.13.155-4.421 1.31zm15.721-4.257l-1.473 3.116s-.491.323 1.474-.169c1.964-.49 3.438-2.947 3.438-2.947s-1.638-1.309-3.438 0zm2.456-3.518s8.516 1.716 9.66 1.716c1.147 0 3.438 4.42 4.75 4.75 1.31.327 6.06.502 7.695 1.969 1.639 1.47 5.242 6.544 6.06 6.382.817-.165 0-2.62 0-2.62l-2.457-7.359s6.06 5.91 6.712 5.569c.657-.34 1.639-10.407 1.639-10.407s-4.586-6.144-4.747-6.635c-.165-.491.491-1.474 1.635-1.638 1.147-.162 5.568 4.424 7.207 4.26 1.635-.166 8.515-7.699 8.515-7.699S286.99 80.94 288.298 80.448c1.308-.49 1.8-.652 1.8-1.308 0-.657 1.147-3.93 1.147-3.93s-7.695-9.007-8.842-9.007h-5.238s-.165-.165-2.456-1.8c-2.295-1.639-16.54-2.456-16.54-2.456s-2.948-4.586-3.439-4.912c-.491-.33-6.386 0-6.386 0s-3.603 8.02-4.094 7.368c-.491-.656 0-3.768 0-3.768l1.638-5.239-5.512.983s-6.768 7.203-6.607 8.024c.165.818.656 8.677.656 8.677s4.878 2.456 6.614 2.786c1.737.326 10.47.326 12.161.326 1.695 0 6.442-.656 6.442-.656l2.456-1.473 1.31 3.438s2.129 4.421 2.785 4.586c.653.165 6.22 1.965 6.22 1.965s-.49 6.22-.49 6.712c0 .491-4.912 4.916-5.73 5.568-.82.656-6.06 3.93-6.716 3.93-.652 0-3.508 2.463-2.29 2.705z"/><path fill="#f44a45" d="M266.682 84.214s-3.93 2.292-3.93 3.113c0 .817-.818 4.747 0 4.582.817-.162 3.438-3.27 3.93-3.846.49-.575 0-3.849 0-3.849zm-6.551-6.384s-2.13 0-2.947 1.147a37.596 37.596 0 00-1.502 2.29s2.32.327 3.302 0c.982-.325 1.965-1.645 1.965-1.645s.014-1.873-.818-1.793M139.015 60.8s1.53 1.418 1.639 1.748c.109.326 0 3.273 0 3.273s10.15.656 10.589 0c.435-.652 1.417-4.038 2.182-4.365.765-.33 4.039-3.386 4.039-3.386s.656 4.004 0 4.022c-.656.017-.656 1.656-.656 1.656l.947 5.35s11.824.544 11.607.87c-.218.33-2.839 1.204-2.839 1.204s-7.968 1.091-8.186 1.526c-.217.439-.438 2.512-.438 2.512s7.75 3.713 8.954 4.365c1.2.656 5.239 1.204 5.895 1.091.652-.108 4.038-2.29 4.038-2.29s8.733.438 9.716.438c.982 0 4.256.852 5.02.807.765-.046 3.822 0 3.822 0s1.747-4.41 2.29-4.628c.548-.221 1.966-1.421 1.966-1.421s.108-1.418 0-2.074c-.11-.656-7.53-8.842-8.077-9.824-.548-.982-1.418-4.586-1.418-4.586h-3.168s-1.309 2.295-1.856 2.404c-.544.108-1.635-1.53-1.635-1.53l-3.93 1.42s-8.954-.438-9.498-.873c-.547-.439-3.165-2.403-3.165-2.403l-1.965.765-1.312-1.474s.874-.709 1.091-1.365c.221-.656-.109-2.182-.109-2.182s-6.985.217-7.312 0c-.33-.218-1.965-1.2-2.403-1.313-.435-.108-9.824 0-9.824 0s-2.839 4.695-2.948 5.46c-.109.765-3.056 4.803-3.056 4.803zm15.257-21.397s.245-1.09.79-1.53c.546-.434 9.062-4.911 9.606-5.129.547-.218 8.407 0 8.407 0s-1.639 2.961-2.295 3.28c-.653.323-5.347 2.506-5.347 2.506s-1.555 3.056-1.762 3.165c-.203.108-1.624-1.635-1.624-1.635s-7.954-.088-7.775-.657zm13.781 4.041s5.13-4.803 5.677-5.02c.544-.218 5.569 3.175 6.112 3.28.548.102.439 2.067.439 2.723 0 .656-2.947 3.273-2.947 3.712 0 .435-1.53.982-1.53.982s-.863-1.53-1.632-1.747c-.768-.217-5.792-.656-6.119-.765-.326-.109-.923-2.309 0-3.165zm23.688 10.806s1.091-.983 1.856-1.091c.765-.109 1.856 0 1.856 0s.765 2.508 0 2.838c-.765.327-2.403.874-2.403.874s-1.091-1.856-1.309-2.621zm9.719 5.349s.873-.435 1.855-.656c.983-.218 3.495 0 3.495 0s.435-1.091 0-1.635c-.439-.548-1.204-1.092-1.204-1.092v-1.228s5.895-.519 6.116-.957c.218-.436 1.2-.86 1.526-.92.327-.063 2.948 0 2.948 0s-1.418 2.776-1.857 2.776c-.435 0-1.856.982-1.856.982s.765.765 1.204 1.091c.435.33.982.983 1.091 1.639.109.656-.656 3.603-.656 3.603s-3.165 3.6-3.712 3.6c-.544 0-2.4.765-2.839 0-.435-.761-1.091-2.835-1.091-2.835s-3.274-.765-3.82-.986c-.545-.217-1.2-3.382-1.2-3.382z"/><path fill="#fa5652" d="M193.767 46.248s-.526-.922-1.263-1.333c-.737-.41-2.947-1.884-3.193-1.965-.245-.08-2.291-.617-2.372-1.249-.084-.635-.245-3.582.407-3.99.656-.41 2.54-1.066 2.54-1.066s.818 2.05 1.144 2.21c.33.166 1.54 1.229 2.737 1.229s3.162.82 3.162.82-1.474 1.31-1.804 1.31c-.326 0-.572 1.964-.572 1.964l1.239.902s-1.727 1.607-2.025 1.168z"/><path fill="#f44a45" d="M180.29 31.98s-.474-1.392.754-1.719c1.228-.326 1.965-1.473 1.965-1.473s2.049-2.376 2.456-2.456c.41-.081 4.996 0 4.996 0s-2.049 2.42-2.049 2.807c0 .386.33 2.35.33 2.35s-1.067 2.046-1.474 2.13c-.41.08-5.157.572-5.322.491-.165-.084-1.656-2.13-1.656-2.13z"/><path fill="#fa5652" d="M179.08 28.46s-2.702.572-2.702 1.148c0 .572-1.965 2.291-1.639 2.372.33.084 2.151 0 2.151 0s1.698-1.063 2.19-1.39c.49-.33 1.473-2.53 0-2.13z"/><path fill="#f44a45" d="M197.828 45.454s1.72-.618 2.376-.618h2.372s-.327 1.8-1.636 2.21c-1.312.408-3.112.408-3.112.408s-1.452-1.547 0-2z"/><path fill="#fa5652" d="M219.77 56.378s2.537-1.147 3.603-.982c1.063.165 3.354-.407 3.354-.407s1.639-1.477 3.439-1.477h3.6s-1.39 2.786-1.88 3.358c-.492.572-2.864 1.308-2.864 1.308H225.5s-1.554 2.376-2.045 2.54c-.491.162-1.884 1.31-2.291 1.31h-2.867s.218-5.151 1.474-5.65z"/><path fill="#fa5652" d="M221.57 53.083s1.8-1.126 3.358-1.126h3.93s-1.312 2.13-2.375 2.295c-1.063.161-5.239.326-5.484.407-.246.084.572-1.576.572-1.576z"/><path fill="#f44a45" d="M219.768 47.046s1.393-2.046 1.72-2.21c.326-.166 1.754-.552 3.417-.646 1.66-.092 3.95 0 3.95 0s-.245 3.673-1.227 3.919c-.983.245-4.586 1.228-5.895 1.558-1.309.326-1.965-2.621-1.965-2.621zm-13.589-3.28s1.775.414 2.645 1.07c.874.652 2.758 1.39 3.004 1.309.246-.081 2.537.115 3.028.182.491.063 1.803-4.056 1.803-4.056s1.39-1.856 1.635-2.186c.246-.326-.49-1.674-.49-1.674h-5.074s-1.067-.452-1.393-.372c-.327.081-2.513 2.292-2.513 2.292zm-4.72-3.598l1.937-2.137s1.066.151 1.965 0c.901-.154.82 1.727.82 1.727s-1.638 1.901-1.884 1.73c-.245-.172-2.045 0-2.045 0s-1.705-.313-.793-1.32m-3.139-8.151s.614 1.354 1.33 1.6c.715.245 1.54.901 1.54.901l1.386.491s-.326-2.628-.572-2.992c-.246-.365-4.028-.622-3.684 0zm13.944-7.842s-2.618-1.473-3.274-1.747c-.652-.274-2.81 0-2.81 0l-.79 1.747-2.568 2.12s-1.846 1.754-1.632 1.81c.214.056 3.604.326 4.993.491 1.39.165 5.646-.273 5.646-.273l1.473 1.884s1.639.628 2.13.628c.491 0 2.347-.274 2.347-.274s-.547-2.891-.873-3.22c-.326-.327-2.73-1.366-2.73-1.366s-1.365-1.494-1.912-1.8m13.973 7.805s-3.274-.49-3.712-1.146c-.435-.653-1.144-1.418-1.144-1.418l-2.077-2.238s4.203-1.31 5.242-1.474c1.035-.165 3 1.691 3.165 1.909.165.22.49 1.53.49 1.53l.657 1.2 1.309 1.298s-3.151.477-3.93.34z"/><path fill="#fa5652" d="M228.31 32.254s1.857-.165 2.565 0c.71.165 1.365 1.073 1.365 1.073l.274 1.056s-2.73.162-3.056 0c-.33-.164-1.204-.382-1.639-.656-.435-.273.492-1.473.492-1.473zm-6.222 4.202s5.295-.109 6.113 0c.82.109 2.294.817 2.294.817l2.018.755s-2.291 1.101-2.73 1.21c-.435.109-3.165-.052-3.382 0-.218.056-2.088-.709-2.088-.709s-1.46.057-2.225-.052c-.765-.112-1.473-.93-1.473-.93s.656-1.365 1.473-1.091"/><path fill="#f44a45" d="M176.568 48.791s4.912-2.105 6.112-1.873c1.204.235 7.098 0 7.098 0l4.639-.772-3.958-4.446-2.975-1.94-5.786 1.94-3.916-1.158-1.214 4.291zm45.521-10.315s3.954 2.02 3.944 2.02c-.014 0 2.715 1.836 3.698 1.681.982-.154 1.638 2.656 1.638 2.656l2.397 3.958 1.533.898s5.347-1.554 6.547-.898c1.204.656 4.151 2.088 4.586 1.698.439-.389 5.568-1.319 7.75-.8 2.183.523 6.769.867 6.769.867l3.695-1.765s-3.477-3.33-4.13-3.958c-.656-.628-8.516-1.389-8.516-1.389s-9.933.109-10.262-.109c-.327-.22-2.73-3.66-3.057-3.575-.326.08-4.915-1.284-4.915-1.284h-2.2zm37.553 16.92s1.239 2.62 2.747 3.112c1.509.491 6.421.982 6.421.982h4.095s-2.46-3.93-4.095-4.094c-1.635-.165-9.168 0-9.168 0zm10.643-14.573s-1.8-1.614-2.621-1.544c-.818.07-2.127-.803-2.127-.803l-3.147 2.347s-2.94-1.614-4.074-1.543c-1.13.07-5.88 0-5.88 0l-3.93.48-5.894-.109-2.456-1.62s3.603-3.229 4.094-3.576c.491-.344 1.635-2.238 2.126-2.274.492-.035 2.786-.456 3.278 0 .49.457 2.126 1.144 2.126 1.144l.82-1.144-1.146-1.964-2.13-1.369 1.147-.435-1.147-1.842-2.948 1.842h-3.764l-7.86-.853-2.947-7.206-2.947-1.31s-.983-3.111 0-3.111c.982 0 3.656-3.109 3.656-3.109s3.056-4.421 3.712-4.421c.656 0 5.73 1.474 5.73 1.474s10.806 10.642 10.971 11.133c.165.491 1.309 4.782 1.965 4.684.656-.098 4.75.6 4.75.6s-.848-3.344-1.326-3.986c-.477-.642-2.631-3.428-2.631-3.428l1.663-.817s1.639-.165 3.604.982l1.964 1.147-.526-4.26-4.074-1.308-4.571-.491-4.393-1.474s-2.484-1.639-3.628-2.782c-1.148-1.148-1.312-3.113-1.312-3.113l4.94-2.13L255.685 3l2.631.817L262.39 3s4.288-1.474 6.421-1.965c2.13-.491 4.912.817 9.168 0 4.26-.821 5.568-1.05 7.207-.116 1.639.933 3.438.933 3.438.933l3.604-1.54s3.109.102 7.53 0c4.42-.098 6.385 0 6.385 0L310.073 3l5.077 1.473s3.768.162 4.26.653c.49.491-2.948 3.112-2.948 3.112l-9.498.983s-1.147 5.894-1.964 5.894c-.822 0-4.421 1.309-4.421 1.309s-6.551 2.62-7.86 2.947c-1.312.33-11.136 1.176-11.136 1.176s-.818 5.54-1.31 5.866c-.49.33-2.455 2.435-2.455 2.435l.652 1.495-8.512 6.066s2.292 1.327 1.309 2.87z"/><path fill="#167c51" d="M285.677 30.014s1.638-2.29 2.62-2.62c.983-.327 5.895-1.31 5.895-1.31s6.877-2.455 8.186-2.782c1.312-.33 4.912-2.758 4.912-2.758s-3.273-.189-3.438-1.336c-.162-1.148.82-2.456.82-2.456s1.474-2.948 2.618-3.278c1.148-.326 6.404-1.964 6.404-1.964l2.438-2.127S327.27 6.106 329.07 5.29c1.803-.818 14.41.49 18.175 0 3.768-.491 6.059-.983 6.059-.983s1.965-1.308 4.586-1.965c2.62-.656 12.28-1.308 16.375-.817 4.091.491 7.038-1.256 7.038-1.256s22.761-.6 24.726 0c1.965.6 9.007 1.747 9.498 1.747.491 0 3.93 3.439 3.112 3.274-.817-.165-4.586.982-4.586.982s-16.701.818-17.518 1.309c-.822.491-.983 2.13-.492 2.13.492 0 20.466-.983 20.958-.818.49.162-2.127 4.091-1.309 4.091.817 0 4.747-1.965 5.238-1.965.492 0 18.288.492 19.378.492 1.092 0-1.038 2.786-1.038 2.786s-5.73 1.8-7.368 2.456c-1.639.656-1.8 3.764-2.622 3.764-.817 0-5.237 1.965-5.237 1.965s-1.148 4.586-1.8 6.06c-.656 1.473-2.787 3.273-2.787 3.273s1.312 2.786 1.804 3.604c.491.817 3.108 3.424 3.108 5.48v2.053s-5.403-1.653-5.894-2.053c-.491-.403-.491 2.053-.491 2.053l1.804 1.473s.49 10.807 0 11.79c-.492.982-1.804 3.93-1.804 3.93l-8.186-3.274s-.656 3.273 0 3.273c.653 0 3.93 2.621 3.93 2.621l.656 3.93s-4.424-1.638-5.733-2.456c-1.309-.821-1.474.653-1.474.653l.983.982 4.912 2.621s1.474 3.604 1.638 4.912c.165 1.312-.326 2.295-.326 2.295h-4.424l-2.291-2.13-3.439-.33-3.112.821-3.109.492-.491 2.13 4.912.817s5.239-.656 7.038 0c1.804.656-2.456 3.93-2.947 4.586-.491.652-6.056 4.582-6.712 4.582-.656 0-2.13-.326-7.694 0-5.569.33-8.846 1.312-8.846 1.312l-2.291 3.274s-3.274 2.947-3.765 3.438c-.491.492-4.26 1.148-4.26 1.148h-5.729s-.818 3.273-1.639 3.765c-.817.49-6.712 7.368-6.712 7.368s-3.277 8.024-4.42 9.989c-1.148 1.965-1.965 4.747-2.948 5.568-.982.818-3.438 3.274-3.438 3.274h-4.421l-9.663-7.042-3.439-11.133s-1.308-.165-1.473-1.309c-.162-1.147-3.113-10.971-3.113-10.971l.165-8.758 3.93-3.032 1.803-.982.162-4.912-1.144-.821-2.62 1.965h-2.622l1.147-4.748 2.292-1.964 4.26-.33-3.604-2.783-4.751-1.147s-.982-12.442-1.8-13.424c-.818-.983-3.72-3.86-3.72-3.86l-3.648-6.038-5.077-2.056-4.912-1.562-3.6-.077-3.604.077h-4.912l-3.603-2.424-2.621-.926 2.294-1.313 2.948-1.965 3.108-.817-.982-1.147h-5.239l-1.638-1.144zM408.65 96.169h4.094v2.13h2.456l4.912-2.13 8.842-.983 2.621 1.555 2.127 3.849-3.765 7.368-5.077 1.965-5.239 1.965-2.62-2.291-5.73-1.148-2.621-5.568v-.818l-1.148-2.456-2.782-.982 1.474-1.965z"/><path fill="#fa5652" d="M100.155 161.83l3.112 2.13 3.274 3.11 1.147 2.947v1.803l-3.768-2.456-3.109-2.54-.656-3.355z"/><path fill="#da5c5d" d="M88.365 131.538v6.877l-3.439-3.438v-4.747s2.13-.33 3.439 1.308z"/><path fill="#ff5476" d="M92.949 138.416l2.62 4.095v3.6l-2.62-2.291-2.456-2.457z"/><path fill="#da5c5d" d="M32.527 134.309l3.273-3.263 3.113-2.456 1.308 1.61-2.126 2.81-1.72 2.457h-3.03z"/><path fill="#f44a45" d="M861.463 253.632v-8.288l1.656-3.645 2.986 2.652v9.281zm4.641-14.917l3.645-4.972h6.298l2.737-3.348 2.569-4.277s.663 3.646 2.652-1.989l1.986-5.635v-3.979h5.305l3.646 1.99v13.89l-1.99 6-3.975 2.32-10.193 4.642s1.572 3.645-1.74 1.656l-3.316-1.99-4.642-1.326h-2.982zm18.894-28.838v-4.31l2.983-4.308v-4.972h5.305l3.645 1.986 3.646 1.99-3.646 5.968-5.301 3.646h-2.986zm1.66-17.571L885 179.71v-1.99l-4.477-5.964v-12.93h3.067l1.41 7.955 4.972 10.94 2.818 1.656v12.929z"/><path fill="#0c6c44" d="M800.36 296.503l4.421-3.757h4.197v3.757l-4.309 3.095h-.909zm34.396-13.26l1.846-5.747 1.99-2.65 2.21-1.104 2.652 4.75-4.35 4.751v2.21l-4.348.885zm1.846 13.923v7.954l-1.846 4.863 3.172 3.758 3.979 2.873 1.544-5.526v-13.922l-4.348-.993zm9.06 15.689l.884 3.758v1.326l3.095 2.428 1.105-3.754v-3.758l-1.547-1.105zm6.729 7.515v2.21l-1.646 3.98-2.543 1.101v3.316h1.217l2.972-1.326s2.55-2.432 3.656-3.976l1.105-1.547v-2.432zm-13.285-3.758l5.385 1.769v1.989l-2.69.884-2.695-.884-.734-1.439zm-9.576 14.365l2.431-5.305 2.793-2.428h2.509l1.105 1.323-1.105 3.978-2.509 2.432-.803 3.979h-4.421zm14.961 7.513l6.253-3.536 1.933-3.975h2.709l1.403 1.322.365 2.432v3.758l-.365 4.42-2.561.867-3.484-1.736v-1.783l-5.08 1.783h-1.173z"/><path fill="#167c51" d="M974.772 99.662c-1.31-1.308-27.508-12.88-28.383-13.101-.873-.218-14.192-3.056-14.845-2.182-.656.874-1.095 4.586-1.964 4.368-.875-.217-2.404-.873-2.404-.873l-1.747-1.965s-12.445.435-13.755.435c-1.308 0-3.93 2.62-5.021 2.62-1.09 0-7.641-8.076-8.732-8.298-1.092-.217-19.705-.87-19.895-1.09-.193-.218-.845-2.84-2.376-3.274-1.53-.439-16.157-5.895-17.682-5.895h-14.85c-1.526 0-3.49 4.586-3.49 4.586s-14.194.436-15.502.653c-1.31.217-1.965 1.09-3.056 1.09-1.092 0-8.081-10.477-9.606-10.915-1.531-.435-9.172-1.308-11.138-1.09-1.965.216-3.708 1.964-5.238 1.747-1.53-.219-6.112.435-7.424-.439-1.31-.874-3.056-.722-4.366-1.344-1.308-.62-11.788-.838-12.88-1.056-1.09-.217-2.838-2.404-4.15-2.182-1.31.217-6.768 3.273-7.642 3.056-.87-.218 3.059-3.074 3.059-3.074s6.768-4.568 7.204-6.316c.439-1.746-2.621-3.929-3.712-5.456-1.092-1.529-3.492-2.838-4.804-3.06-1.308-.217-7.859-.873-10.041-1.744-2.183-.873-3.712-3.276-5.46-3.712-1.747-.438-3.93-.217-5.895 0-1.965.218-6.33 5.24-7.421 5.456-1.095.222-14.41 1.314-15.283 1.314-.875 0-6.55 4.364-8.299 4.581-1.744.221-5.894 1.748-7.202 3.06-1.31 1.31-2.622 6.112-4.37 6.112-1.742 0-6.985-.439-8.076.873-1.092 1.31-3.712 2.183-2.4 3.056 1.308.875 8.734 6.112 7.638 6.551-1.091.436-4.863-1.312-8-2.185-3.132-.87-5.754-1.09-6.406-.654-.657.436-1.748 3.714-3.06 3.492-1.31-.217-2.182-5.673-3.056-5.894-.873-.218-3.492.873-3.492 3.712 0 2.838 1.966 7.424 3.275 10.48 1.308 3.056 5.241 5.238 7.207 5.894 1.964.656 3.273 3.056 2.182 3.495-1.092.436-5.021-.221-5.677.217-.656.436-3.495 6.551-5.46 7.422-1.965.873-5.677 1.53-5.239.873.436-.652 3.712-6.112 3.495-9.607-.221-3.49-2.256-8.294-3.53-10.914-1.273-2.622.4-6.112 0-8.734-.403-2.617-7.389-2.617-9.571-1.748-2.183.875-4.586 4.37-5.02 6.551-.44 2.183 2.62 7.643 4.802 9.825 2.183 2.182.874 4.368-.217 4.368-1.095 0-7.863-5.677-11.793-7.642-3.93-1.964-9.168-1.747-11.132-1.53-1.966.222-2.84 3.495-1.31 3.278 1.527-.222 5.239 3.056 5.239 3.708 0 .656-13.972 1.094-15.936 1.53-1.965.44-4.37-.874-5.025-1.092-.652-.217-16.592 10.482-17.466 10.263-.87-.22-1.092-5.897-1.31-6.768-.216-.873-3.711-2.185-4.364-2.403-.656-.217-.874 3.495-1.091 5.02-.221 1.531-3.933 5.022-3.933 5.022l-6.112 5.242s1.748 3.491 0 3.491c-1.747 0-6.551-2.835-8.077-2.835-1.53 0 .435 4.663 0 4.951-.439.287-2.621 0-2.621 0s-7.204-10.628-6.33-11.501c.874-.875 6.547-.656 7.638.873 1.095 1.527-.217 1.964 1.095 1.527 1.31-.436 6.33-1.092 6.33-1.092s3.055-3.274 3.055-4.147c0-.875-21.395-14.628-22.704-15.067-1.309-.434-.438.44-3.273.44-2.839 0-3.934-.218-3.934-.218s-.87.217 0-1.748c.874-1.964-5.238-4.803-5.894-5.02-.653-.222-5.239 1.964-5.895 1.964-.652 0-3.93-.656-3.93-.656l-7.887 3.93s-5.21.874-6.084 1.747c-.874.873-5.021 1.09-5.677 1.747-.656.653-7.203 5.674-5.677 6.33 1.53.656 1.091 4.368 1.091 4.368s-13.972 15.72-15.937 17.467c-1.964 1.743-9.606 8.512-9.824 9.603-.217 1.094-2.182 4.15-1.091 4.804 1.091.656 3.056 1.964 3.056 2.837 0 .875.874 8.955 1.747 9.172.874.217 4.148.436 4.148.436s4.586-2.839 5.238-2.839c.656 0 3.828 7.642 4.533 8.732.71 1.092.927 5.46.927 5.46l3.494 1.527s5.895-1.31 7.421-2.183c1.53-.873 1.312-7.64 1.312-8.733 0-1.09 6.33-6.985 6.548-8.077.22-1.09-2.618-8.297-2.839-9.388-.218-1.092.874-6.114 1.965-7.204 1.095-1.09 3.277-1.09 4.368-2.404 1.091-1.308 5.677-7.637 6.769-8.512 1.09-.873 5.238-1.312 5.238-1.312s1.965 2.839.656 3.495c-1.309.655-7.207 4.803-7.642 5.894-.435 1.092-4.147 11.79-2.838 13.099 1.308 1.312 5.242 4.368 7.424 4.803 2.182.438 9.168-1.966 11.35-1.527 2.186.436 4.804 2.4 4.804 2.4s-8.077 1.092-9.607 1.748c-1.526.656-4.147 1.308-4.147 1.308s-.653 8.081-1.747 8.081c-1.092 0-5.456 1.744-5.456 1.744s-3.93 9.39-5.021 9.827c-1.092.436-24.017 1.092-25.982.436l-1.091-11.355s-3.277 1.966-3.93 2.839c-.656.873-1.091 9.39-1.965 10.045-.874.654-8.736 5.239-9.063 6.112-.326.874-10.589 14.194-12.333 13.972-1.747-.217-6.99-1.09-7.424.222-.435 1.308-.874 3.49-2.183 4.146-1.312.654-7.424 1.966-7.424 1.966s1.309 1.746 2.182 1.964c.874.218 2.839 0 2.839 0s3.712 6.112 4.586 6.768c.873.656-.218 8.516-.435 9.169-.221.656-4.586 0-5.895 0-1.312 0-5.46-1.092-5.46-1.092s-8.515 2.621-9.606 2.839c-1.091.217-3.056 2.182-2.183 3.274.874 1.094 2.183 3.059 2.183 3.059l-1.309 4.803-2.838 6.113s3.93 6.112 5.238 7.42c1.309 1.313 16.593-.435 17.466 0 .874.439 6.769-5.673 7.425-6.547.652-.873 0-7.207 0-7.207s8.515-4.582 9.606-6.112c1.092-1.53 1.092-5.02 1.092-5.02s10.042.434 11.35.217c1.312-.218 6.768-.874 6.768-.874s6.551 7.642 8.08 9.172c1.527 1.526 10.699 6.547 10.699 6.547s2.182 5.677 2.617 4.803c.439-.873.439-5.894.439-5.894s.435.217 1.747-.218c1.31-.435-11.789-8.95-12.662-11.354-.874-2.4-2.404-6.33-2.404-6.33s15.284 7.421 16.593 9.607c1.312 2.183 1.09 10.042 2.185 10.477 1.092.439 4.148 4.151 4.583 5.242.438 1.091 2.182 5.46 3.277 5.677 1.091.218 3.491 1.527 3.491 1.527s5.02-5.239 5.02-5.895c0-.653-3.49-4.803-3.929-5.895-.435-1.09 7.207-4.364 8.954-4.585 1.744-.218 5.239 1.312 5.239 1.312s-5.895 4.586-4.586 5.894c1.312 1.31 3.93 10.26 5.677 10.48 1.747.218 18.775-1.311 20.088 0 1.308 1.31 1.964 2.948 1.964 2.948s-.983 16.045-4.912 16.045c-3.93 0-11.79.33-10.154.983 1.638.656 6.19 7.649 12.228 10.807 3.711 1.943 13.249 18.413 13.578 21.36.327 2.948 13.821 33.003 16.441 34.315 2.619 1.309 30.456-11.136 33.403-12.445 2.948-1.309 13.428-16.375 13.428-18.014 0-1.635-7.203-14.08-7.859-15.062-.656-.983-11.79 5.238-13.754 4.586-1.964-.657-12.12-18.996-10.807-19.653 1.31-.652 6.548 2.295 6.548 2.295s4.912 9.168 6.55 9.494c1.638.33 11.463-1.964 12.771-1.634 1.312.326 1.966 5.894 3.93 5.894 1.13 0 7.885.33 13.674.765l12.066-13.761v-27.61l10.606-5.354 7.959-7.547 4.417-7.52v-29.76l8.842-4.716 9.245-1.287 3.273-10.017v-15.499l6.927-9.996h14.144v4.39l9.721 9.326h5.306l7.838 5.056h11.607l10.607 6.723 8.189.961 8.224 5.21h10.456l8.804-5.21 4.972-7.684 4.979-5.056v-3.72l-4.98-12.62-8.82-2.064-.884-7.757 4.733-6.147h4.972l4.979-9.576h9.533l5.385 5.899h7.46l11.522 9.824 8.028 2.621h10.32l2.54 7.852c5.189-.484 11.705-.845 12.252-.435.87.656 2.4 3.274 4.582 3.495 2.186.217 7.642-3.853 9.172-3.673 1.526.179-2.186-3.533-2.186-3.533s3.712-5.24 5.242-5.24c1.526 0 3.712 1.965 5.238 2.622 1.53.652 9.172-5.895 9.172-5.895s1.309 1.526 1.309 2.182c0 .653-8.299 13.537-10.043 14.628-1.746 1.092-4.368 3.712-4.368 3.712s-1.746 10.042-.873 11.79c.873 1.747 8.516 20.956 9.607 19.212 1.09-1.746 7.206-12.445 7.64-13.974.44-1.527-1.307-3.49 0-5.456 1.31-1.966 4.37-3.93 4.37-5.242 0-1.309-1.748-5.677-1.965-7.42-.221-1.749-2.621-3.06-2.621-3.06s.656-4.584 2.838-5.02c2.183-.437 2.622-2.184 6.55-2.4 3.93-.22 5.896-.44 5.896-.44s3.273 1.53 4.148 1.53c.873 0 5.456-9.172 6.768-8.95 1.308.216 4.585.872 5.456.434.873-.435 3.712-1.526 3.712-1.526s3.494-.874 3.494-2.186c0-1.308-3.277-7.859-4.368-8.295-1.092-.439-2.617-1.964-2.617-1.964s1.743-1.965 2.617-2.404c.874-.435 1.312-3.712 1.312-3.712s1.527-1.527 3.056 0c1.527 1.53 12.88 9.39 15.936 9.828l3.056.435v-5.46c0-1.09 1.748-4.147 1.748-4.147s-14.41-6.55-15.718-7.86"/><path fill="#f44a45" d="M871.5 130.234l-8.027-2.624-11.523-9.822h-7.46l-5.385-5.9h-9.534l-4.978 9.578h-4.972l-4.734 6.144.884 7.761 8.822 2.063 4.978 12.621v3.719l-4.978 5.052-4.972 7.688-8.803 5.206h-10.46l-8.22-5.206-8.19-.962-10.606-6.726h-11.607l-7.839-5.052h-5.305l-9.722-9.327v-4.392h-14.144l-6.926 10v15.497l-3.273 10.014-9.25 1.292-8.838 4.714v29.762l-4.42 7.518-7.955 7.548-10.607 5.354v27.607l-12.066 13.76c4.284.323 8.038.702 8.596 1.046 1.31.81 11.463 10.635 11.463 10.635l-2.62 1.965s3.603 4.26 5.241 4.586c1.635.33 7.86-2.292 7.86-2.292s1.964 14.41 2.29 15.72c.327 1.308 9.499 29.802 12.446 29.472 2.947-.326 5.895-5.894 7.533-9.824 1.635-3.93.653-12.772 2.291-15.063 1.639-2.294 6.551-2.294 7.204-4.26.656-1.964 3.603-8.841 3.603-8.841s8.19-.983 8.516-2.291c.326-1.31 1.638-5.239 1.638-5.239l9.168-3.933s2.292 7.533 3.93 7.863c1.639.326 8.19 6.547 8.19 6.547s-1.64 9.172-.657 9.498c.983.326 9.825-.656 9.825-.656s2.73 11.354.873 13.21c0 0 1.639 13.428 2.839 16.266 1.2 2.839 6.877 8.077 7.75 10.369.874 2.294 0 6.768 1.748 8.733 1.744 1.965 7.42 6.007 8.842 6.66 1.417.655.761-4.148.982-5.457.218-1.312-1.638-.765-1.638-4.15 0-3.383-.11-3.93-.657-5.457-.543-1.53-9.287-10.045-10.54-11.027-1.249-.983-2.996-3.165-3.322-4.365-.327-1.2-.218-6.986-.218-8.186 0-1.203 3.372-5.46 3.54-5.46.172 0 6.393 7.425 7.702 8.407 1.312.983 4.26 8.295 5.677 8.733 1.42.435 10.48-9.936 11.572-12.01 1.09-2.073 2.073-11.35 0-13.427-2.074-2.074-7.204-4.913-7.75-7.313-.545-2.403-2.292-6.55-1.201-8.189 1.09-1.635 5.13-4.691 6.003-4.912.874-.218 4.26 2.186 5.35 2.074 1.092-.11 3.6-.983 4.914-1.2 1.308-.218 12.88-5.895 15.28-8.733 2.402-2.839 12.228-17.902 11.901-20.305 0 0-2.899-4.365-2.215-5.677.686-1.309 2.222-4.583 2.222-4.583l-9.07-12.771s8.13-7.207 6.848-8.516c-1.28-1.309-16.398-1.965-15.718-3.604.684-1.638 7.234-10.48 8.217-10.48.983 0 2.617 6.878 2.617 6.878s8.19-1.966 9.499-.983c1.312.983 1.312 6.224 2.29 8.19.987 1.964 4.917 11.462 6.551 11.132 1.64-.326 2.948-4.912 6.551-5.238 3.604-.326 0-7.204 0-10.155 0-2.946-4.912-3.929-4.256-7.529.653-3.604 3.6-10.155 8.187-10.807 4.585-.656 10.48-5.568 13.426-9.498 2.948-3.93 6.551-17.683 4.912-22.926-1.637-5.238-1.964-12.772-1.964-12.772l-6.985-1.746s-5.021.656-5.021 0c0-.652-3.278-4.366-3.278-4.366s16.106-17.248 17.66-17.904c.582-.245 3.22-.582 6.332-.873l-2.54-7.853zm42.759 18.739l7.992 2.502 2.506 5.003 6.347 1.039v5.46l-6.347 15.967-10.498-14.985-.4-6.221zM804.151 360.772l3.491 1.902h4.418l3.87.68 3.695-2.582 3.93-5.172 3.754-3.866.519-2.54 3.238-2.32 2.01-1.842s-3.389-1.92-4.55-1.256c-1.165.663-3.095 1.923-3.095 1.923l-6.817 6.522-2.575 1.274-4.2 4.979-3.425.554s-4.028 1.27-4.263 1.744z"/><path fill="#167c51" d="M184.342 237.621h-10.606l-14.586 3.4-4.877-3.4-8.382-2.28-10.607 2.28-20.603-1.4c.53 2.72 1.042 6.183 2.337 7.155 1.965 1.473 2.786 9.006 3.112 9.989.326.982.982 3.273 2.621 3.93 1.635.656 3.765 6.715 4.256 8.35.491 1.639 5.238 5.404 6.386 5.733 1.147.327 1.638-2.62 1.638-2.62s-3.93-5.239-4.26-6.551c-.325-1.309-1.8-5.404-1.964-5.895-.161-.491-3.6-11.789-2.947-11.789.656 0 1.473.326 1.473.326s4.586 10.807 5.242 12.28c.653 1.474 8.516 10.32 9.498 11.302.983.983 3.109 14.245 3.6 14.737.491.49 10.154 9.168 11.137 9.989.982.817 7.203 4.42 8.677 5.238 1.473.818 4.75.983 5.242.983.491 0 10.806.165 11.133.817.326.656 5.73 6.225 6.06 7.042.326.818 8.841.818 9.988 1.147 1.144.327 3.11 4.748 3.439 6.056.326 1.313 10.15 12.12 11.298 13.267 1.144 1.144 6.877 1.309 7.694 1.144.818-.162 2.783-1.144 3.439-1.8.656-.656.656-2.948.656-2.948s-1.638-1.8-2.456-1.8h-3.93s-5.894-3.933-6.386-5.077c-.49-1.147 1.144-16.54.818-17.192-.326-.656-11.954-2.621-12.445-3.604-.491-.982 0-4.094 0-4.094s3.603-8.186 3.603-9.168c0-.983-3.82-3.769-3.82-3.769s-13.537 7.86-14.355 8.35c-.82.492-12.936-.817-13.593-1.8-.652-.981.492-23.577.822-25.542.326-1.965 6.22-8.19 8.841-8.842 2.618-.656 16.375-.33 17.52-.821 1.147-.491 5.403-2.618 5.403-2.618l-8.183-7.105z"/><path fill="#f44a45" d="M305.162 152.66l-7.694-9.659s-2.295-12.445-2.786-13.102c-.492-.656-4.256-4.585-4.256-4.585s-2.786 3.112-3.277 3.604l-1.965 1.964-6.22-.656s-1.639-10.478-2.292-10.968c-.656-.491-10.48-7.207-11.627-7.698-1.148-.492-8.677 1.147-9.333 1.147-.656 0-3.275 13.755-3.275 13.755s-1.803 2.456-2.13 2.946c-.326.491-.165 3.93.818 4.257.983.33.983 4.912.983 4.912l-2.456 6.06s-4.256 2.946-4.912 3.438c-.654.49-1.966 9.824-1.966 10.48 0 .656-1.322 4.912-2.628 4.256-1.3-.652-1.953-5.073-1.953-5.073l-3.113-1.64s-.981-5.567-1.473-7.041c-.491-1.474-8.516-5.894-8.516-5.894s-8.676-6.221-9.332-6.386c-.656-.165-6.551-2.292-6.551-2.292l-.817-2.786s-2.458-.817-2.787-1.308c-.327-.492-.49-4.748.49-5.895.983-1.148 12.285-16.21 13.267-16.701.983-.49 5.239-.983 5.239-.983s10.316-10.972 11.624-11.789c1.312-.821 6.39-1.964 6.39-1.964s6.711-2.13 7.367-2.621c.654-.492 1.8-10.972 1.144-11.79-.652-.821-7.038-1.638-7.694-1.312-.656.33-.818 3.768-2.62 4.424-1.8.654-6.712 5.239-6.712 5.239s-.658-7.533-1.148-7.533c-.491 0-4.586-.166-4.586-.166s-1.31-3.508-1.8-3.146c-.492.365-2.292-.024-2.292-.024s-.164-6.488-.82-8.288c-.653-1.804-4.256-3.439-4.256-3.439s-5.077 6.877-5.238 7.368c-.166.492 1.634 2.617 1.634 2.617l4.75 1.804s-1.803 2.783-1.964 3.6c-.164.822-3.438 1.803-3.438 1.803l-1.474-2.785-5.403-3.439s-4.916 2.948-4.587 3.93c.327.982 2.127 1.638 2.127 1.638l-1.635 1.804s-8.35.652-10.316.652c-1.964 0-11.136-2.456-12.118-2.29-.983.16-2.291 3.438-2.291 3.438s-5.733.327-6.387.165c-.656-.165-12.936-1.313-12.772-1.804.163-.49 1.8-2.129 1.8-2.129l-.656-1.475-12.445-1.473s-1.473-1.635-3.108-2.617c-1.639-.983-12.446-.983-12.446-.983s-1.308-1.803-2.62-2.13c-1.31-.326-15.393.657-15.393.657s-6.386 4.256-7.369 4.421c-.982.161-10.641-.821-10.641-.821s-5.895-4.091-7.533-4.256c-1.639-.166-13.428-1.31-14.41-1.639-.983-.327-4.583-1.8-4.583-1.8s-2.786.983-3.277.983c-.491 0-2.456-1.639-3.765-2.456-1.312-.818-16.701-1.966-18.013-1.31l-4.913 2.456s-8.024 2.783-8.676 2.783c-.657 0-1.965 4.256-3.439 4.748-1.474.49-7.368.82-7.533 1.473-.165.656-.983 3.112-.983 3.112s4.748 2.786 5.077 3.44c.327.655-.49 3.111.653 3.602 1.147.492-2.782 1.474-3.6 1.31-.82-.162-5.733 1.638-5.733 1.638s-3.109 3.438-3.274 4.094c-.165.652 0 1.964 0 1.964s10.48-.164 10.48.82c0 .98-.49 3.763-.49 3.763s-6.716 2.456-7.042 3.439c-.327.982-6.716 5.898-7.042 6.716-.327.817-.165 9.333.817 9.99.986.651 2.295 1.472 2.295 1.472s0 2.783.165 3.44c.161.651 11.298 1.472 11.298 1.472s.491 4.422-.491 4.748c-.983.326-8.351 3.438-10.48 3.93-2.13.49-12.281 9.006-12.281 9.006s-1.148.983 0 1.148c1.144.161 10.15-4.913 10.642-4.913.49 0 6.877-.33 9.171-.49 2.292-.166 9.168-5.895 10.151-6.881.982-.983 3.274-5.074 3.274-5.074s4.26-1.639 5.403-2.13c1.147-.49 2.456-3.273 2.456-3.273l6.716-9.007s3.273 1.147 2.782 1.64c-.491.49-7.203 6.22-6.712 6.546.491.33-1.474 3.112-.491 2.785.982-.33 7.368-3.768 8.677-3.768 1.312 0 3.112-.327 3.112-.327s1.965-3.273 2.62-3.273c.653 0 3.274 2.948 3.93 3.11.653.163 14.902-.327 16.376.163 1.473.492 4.42 3.604 4.42 3.604s5.239.327 6.548.327c1.312 0 3.277 2.62 3.277 2.62s4.747 11.955 5.894 13.59c1.148 1.638 2.783 17.684 3.274 18.34.491.656 2.786 1.147 3.768 1.965.983.817 2.127 5.077 2.783 5.403.656.33 2.782 3.768 2.782 3.768s-3.438 3.439-4.091 3.93c-.656.491-.165 15.88-.982 17.028-.821 1.147-3.93 4.094-3.93 5.077 0 .982-.821 13.427-.33 16.375.491 2.947 6.06 18.01 7.698 18.175 1.635.165 2.947-.327 4.091 1.308.39.558.667 1.762.94 3.162l20.6 1.4 10.606-2.28 8.383 2.28 4.877 3.4 14.586-3.4h10.61l11.934 3.4 8.18 7.105s8.517 0 9.66.817c1.148.818 4.42 12.12 5.242 13.102.818.982 4.748 4.256 5.074 3.6.33-.653 2.13-4.583 2.13-4.583s-1.638-10.971-1.638-11.628c0-.656.656-4.747.329-5.73-.33-.982 10.316-9.171 11.79-10.153 1.472-.983 3.603-3.6 3.603-3.6s2.617-9.663 3.437-10.154c.82-.492 8.187-10.48 9.17-10.807.981-.326 6.058-3.112 7.041-3.765.983-.656 1.31-3.438 1.965-4.42.652-.983 6.22-5.078 6.22-5.078s5.243.491 6.06 0c.818-.491 4.422 0 4.422 0l9.168-5.733s-7.368-6.547-8.35-6.386c-.984.165-1.145-5.894-.654-6.712.492-.818 1.965-3.439 1.965-3.439s-.165-2.782.49-3.112c.654-.326 8.022-1.144 8.022-1.144s3.933 1.144 4.916 1.144c.983 0 14.08-9.498 14.08-9.498s-.327-5.565 0-6.056c.327-.49-3.439-2.13-3.439-2.13zm168.436 22.423l6.178 1.772 3.232-.884s2.54.695 4.02 0l1.482-.698v-4.074l-2.327-2.67-5.171-1.944s-6.035 6.95-7.414 8.498z"/></svg>