<svg width="1920" height="904" fill="none" xmlns="http://www.w3.org/2000/svg"><mask id="a" maskUnits="userSpaceOnUse" x="0" y="0" width="1920" height="904"><path fill="#C4C4C4" d="M0 0h1920v904H0z"/></mask><g mask="url(#a)"><path d="M1841.69 792.818c-1.74 1.183-2.24 3.587-1.33 5.731a76.872 76.872 0 01-8.92 6.554 78.113 78.113 0 01-5.64 3.22c-.22-.329-.45-.658-.69-.983a41.692 41.692 0 00-3.69-4.433c.36-1.259.9-2.702 1.74-4.208a19.999 19.999 0 014.74-5.716c2.08 1.248 4.63 1.01 6-.682 1.55-1.906 1.04-4.933-1.15-6.756-2.18-1.826-5.2-1.767-6.76.14-1.41 1.738-1.11 4.406.61 6.248-.8 1.808-2.23 4.173-4.73 6.081a14.871 14.871 0 01-3.51 1.99 40.86 40.86 0 00-7.32-5.02c.36-1.812.88-3.829 1.65-5.97a41.739 41.739 0 013.75-7.848c2.27.58 4.56-.336 5.41-2.308.99-2.262-.31-5.063-2.88-6.254-2.56-1.191-5.45-.315-6.43 1.95-.85 1.965.01 4.339 1.94 5.705a43.494 43.494 0 01-3.17 8.116 43.233 43.233 0 01-3.15 5.201 40.859 40.859 0 00-7.91-2.582 30.433 30.433 0 01-1.97-9.475c-.14-3.473.34-6.434.94-8.698 2.36-.14 4.27-1.769 4.45-3.96.21-2.485-1.89-4.749-4.68-5.051-2.79-.313-5.22 1.448-5.42 3.93-.18 2.191 1.42 4.212 3.72 4.866a28.55 28.55 0 01-.51 8.748 27.914 27.914 0 01-3.47 8.752c-3.17-.128-6.35.116-9.48.75-.36-1.22-.62-2.529-.72-3.922-.08-1.108-.05-2.151.04-3.112 2.34-.546 3.96-2.539 3.72-4.763-.25-2.489-2.71-4.333-5.5-4.115-2.79.217-4.84 2.407-4.58 4.899.22 2.188 2.16 3.878 4.51 4.107.29 1.031.54 2.139.73 3.315.22 1.349.35 2.649.39 3.903-.31.076-.62.152-.92.238a38.325 38.325 0 00-10.35 4.452 35.8 35.8 0 01-4.68-3.798 35.87 35.87 0 01-6.66-8.729c1.58-1.687 1.88-4.157.6-5.929-1.48-2.043-4.5-2.383-6.74-.759-2.25 1.628-2.88 4.602-1.4 6.645 1.3 1.803 3.8 2.275 5.92 1.244a32.75 32.75 0 016.65 9.092c.89 1.824 1.55 3.6 2.03 5.285a38.561 38.561 0 00-7.33 7.922c-.82-.344-1.63-.746-2.49-1.29a18.113 18.113 0 01-3.93-3.414c1.08-2.21.55-4.835-1.33-6.133-2.06-1.426-4.99-.702-6.53 1.62-1.53 2.319-1.11 5.357.97 6.78 1.78 1.229 4.2.856 5.82-.758 1.35.742 2.8 1.673 4.27 2.864.79.626 1.5 1.277 2.17 1.938a39.248 39.248 0 00-4.1 8.865 37.86 37.86 0 01-5.5-.474 38.593 38.593 0 01-10.83-3.451c.22-2.347-1.04-4.562-3.12-5.213-2.38-.744-4.93.84-5.7 3.538-.76 2.696.55 5.485 2.93 6.231 2.11.654 4.34-.505 5.36-2.648 2.74.327 6.6 1.171 10.74 3.411a31.15 31.15 0 014.93 3.326 32.76 32.76 0 00-.3 1.727 41.388 41.388 0 00-.33 8.838c-.91.32-1.88.613-2.91.859-3.35.798-6.34.882-8.65.745-.72-2.293-2.76-3.849-4.92-3.604-2.45.275-4.12 2.775-3.74 5.584.39 2.81 2.68 4.862 5.14 4.58 2.15-.242 3.71-2.205 3.79-4.584 2.21-.647 5.14-1.23 8.59-1.218 1.03.003 2.02.064 2.96.157a41.296 41.296 0 004.24 13.519 51.186 51.186 0 01-4.91 3.766 52.079 52.079 0 01-7.46 4.191c-1.52-2.005-4.07-2.753-6.01-1.648-2.13 1.217-2.7 4.204-1.28 6.673 1.43 2.466 4.32 3.482 6.44 2.267 1.9-1.083 2.55-3.564 1.68-5.84a55.498 55.498 0 0113.07-6.687 39.61 39.61 0 001.84 2.76c1.55 2.15 3.27 4.11 5.12 5.872a32.315 32.315 0 01-10.68 14.68c-1.99-1.32-4.5-1.23-5.96.347-1.67 1.794-1.35 4.843.72 6.804 2.07 1.961 5.1 2.093 6.76.298 1.45-1.556 1.4-4.041.03-5.952a50.085 50.085 0 0113.25-12.737 41.032 41.032 0 009.43 5.168c-.3 1.137-.7 2.324-1.22 3.551a25.905 25.905 0 01-3.4 5.734c-2.19-.919-4.62-.338-5.75 1.501-1.28 2.095-.39 5.041 2.01 6.571 1.5.96 3.24 1.139 4.64.615a3.935 3.935 0 002.37-2.367c.68-1.887-.12-4.198-2-5.598a37.241 37.241 0 013.4-5.632 39.097 39.097 0 012.81-3.376 40.288 40.288 0 006.48 1.422c.52 2.383.92 5.445.75 8.974a33.336 33.336 0 01-1.58 8.601c-2.35-.012-4.35 1.473-4.68 3.627-.38 2.459 1.56 4.858 4.34 5.358 2.76.503 5.31-1.085 5.69-3.541.33-2.135-1.1-4.226-3.29-5.063.04-2.491.29-5.455 1-8.71a43.423 43.423 0 012.96-8.874c3.76.02 7.53-.49 11.18-1.545.7 1.205 1.38 2.558 1.98 4.063a31.846 31.846 0 012.1 8.576c-2.14.965-3.35 3.172-2.77 5.305.67 2.418 3.39 3.827 6.09 3.146 2.7-.678 4.35-3.194 3.69-5.623-.58-2.105-2.71-3.447-5.03-3.307a44.895 44.895 0 01-2.64-8.46 41.84 41.84 0 01-.68-4.605 38.45 38.45 0 007.77-3.933 59.332 59.332 0 015.53 5.84c2.78 3.351 4.85 6.6 6.38 9.408-1.56 1.683-1.86 4.149-.58 5.917 1.48 2.043 4.49 2.382 6.75.752 2.24-1.624 2.87-4.595 1.39-6.638-1.27-1.761-3.7-2.256-5.78-1.314a68.096 68.096 0 01-6.95-8.995 69.418 69.418 0 01-3.97-6.965 38.395 38.395 0 006.44-6.42c.46.208.92.434 1.38.673a31.927 31.927 0 017.15 5.01c-.92 2.139-.39 4.616 1.41 5.869 2.05 1.444 4.98.74 6.54-1.566 1.55-2.306 1.15-5.348-.91-6.789-1.82-1.28-4.34-.868-5.97.85a22.42 22.42 0 01-7.14-5.191c-.31-.334-.6-.671-.87-1.011a39.068 39.068 0 004.58-8.985c2.33.165 4.9.508 7.65 1.129 4.24.953 7.82 2.329 10.65 3.655-.21 2.331 1.05 4.524 3.12 5.174 2.38.739 4.93-.843 5.69-3.541.76-2.694-.55-5.481-2.93-6.23-2.06-.641-4.24.454-5.29 2.507a61.715 61.715 0 01-10.82-3.011c-2.59-.98-4.93-2.06-7-3.16.36-1.403.64-2.824.86-4.266.34-2.355.48-4.748.41-7.143a45.955 45.955 0 018.73-2.218 45.89 45.89 0 018.7-.491c.71 2.248 2.7 3.796 4.83 3.588 2.45-.232 4.17-2.703 3.84-5.515-.34-2.816-2.61-4.902-5.07-4.67-2.14.205-3.73 2.125-3.86 4.483-2.29.59-5.21 1.097-8.62 1.096-3.53.001-6.59-.531-8.99-1.167a41.528 41.528 0 00-1.6-6.773c.99-.661 2.07-1.311 3.24-1.91a32.097 32.097 0 018.17-2.864c1.25 2.042 3.59 3.046 5.6 2.273 2.29-.882 3.29-3.74 2.23-6.386-1.06-2.643-3.77-4.072-6.07-3.186-2.01.772-3.03 3.08-2.52 5.429a29.527 29.527 0 01-7.97 3.32 29.99 29.99 0 01-3.65.673 41.235 41.235 0 00-2.89-5.795 80.556 80.556 0 015.16-4.083 79.188 79.188 0 019.37-5.873c1.67 1.633 4.08 2.044 5.83.868 2.02-1.379 2.37-4.409.76-6.762-1.61-2.356-4.56-3.152-6.58-1.776m167.06-265.605c-3.52 2.88-4.14 8.138-1.77 12.562a166.961 166.961 0 01-17.94 15.813 172.6 172.6 0 01-11.51 8.014 91.476 91.476 0 00-10.44-10.771 43.068 43.068 0 012.96-9.374 43.217 43.217 0 019.1-13.197c4.72 2.271 10.14 1.264 12.77-2.636 2.98-4.396 1.31-10.795-3.73-14.28-5.04-3.494-11.53-2.777-14.5 1.619-2.71 4.007-1.56 9.676 2.48 13.295-1.38 4.038-4 9.394-9.02 13.98a32.134 32.134 0 01-7.18 4.958 87.962 87.962 0 00-16.66-9.35 92.06 92.06 0 012.41-13.139 91.217 91.217 0 016.58-17.581c4.99.802 9.74-1.611 11.2-6.011 1.69-5.048-1.62-10.809-7.36-12.865-5.74-2.056-11.77.388-13.45 5.441-1.46 4.385.83 9.316 5.23 11.872a93.3 93.3 0 01-5.28 18.042 92.05 92.05 0 01-5.79 11.781 87.463 87.463 0 00-17.47-3.999c-2.58-5.308-4.99-12.027-6.03-19.958a63.885 63.885 0 01.38-18.856c5.04-.761 8.86-4.633 8.83-9.371-.03-5.376-4.95-9.827-11.01-9.931-6.06-.127-10.95 4.129-10.91 9.497.03 4.738 3.84 8.765 8.92 9.718a62.48 62.48 0 01.55 18.882 60.637 60.637 0 01-5.81 19.465 85.709 85.709 0 00-20.23 3.462 39.528 39.528 0 01-2.29-8.278 40.746 40.746 0 01-.49-6.69c4.91-1.628 8.02-6.223 7.1-10.952-1.01-5.294-6.66-8.772-12.6-7.761-5.95 1.01-9.94 6.113-8.93 11.414.9 4.652 5.38 7.903 10.48 7.935a61.408 61.408 0 012.18 6.975 65.881 65.881 0 011.58 8.304c-.66.223-1.3.445-1.94.689a83.269 83.269 0 00-21.4 11.579 77.006 77.006 0 01-10.77-7.239 77.19 77.19 0 01-15.94-17.444c3.06-3.928 3.25-9.289.16-12.844-3.56-4.096-10.1-4.238-14.62-.312-4.53 3.933-5.32 10.442-1.76 14.539 3.14 3.615 8.61 4.141 12.96 1.515a70.34 70.34 0 0116 18.22c2.25 3.742 4 7.426 5.36 10.949a83.09 83.09 0 00-14.26 18.44 34.936 34.936 0 01-5.59-2.283c-3.84-1.987-6.83-4.378-9.09-6.562 1.89-4.955.27-10.488-4.01-12.909-4.71-2.658-10.85-.532-13.73 4.754-2.86 5.278-1.37 11.716 3.35 14.368 4.07 2.289 9.2 1.017 12.37-2.766a61.878 61.878 0 019.72 5.315 55.685 55.685 0 015.01 3.739 84.777 84.777 0 00-7.12 19.832c-3.7.284-7.68.348-11.92.056-9.76-.675-17.9-2.998-23.91-5.294.03-5.083-3.1-9.593-7.69-10.584-5.26-1.132-10.44 2.768-11.58 8.709-1.12 5.935 2.22 11.667 7.47 12.806 4.66.99 9.23-1.934 11.02-6.733a64.53 64.53 0 0123.71 5.228 65.388 65.388 0 0111.21 6.177c-.12 1.24-.23 2.509-.31 3.767a88.795 88.795 0 00.96 19.038 62.566 62.566 0 01-6.09 2.411 64.258 64.258 0 01-18.45 3.288c-1.97-4.782-6.66-7.723-11.25-6.776-5.21 1.068-8.33 6.764-6.97 12.717 1.34 5.959 6.67 9.915 11.89 8.831 4.59-.941 7.55-5.457 7.28-10.581a65.384 65.384 0 0118.23-4.293c2.22-.194 4.35-.256 6.39-.241a88.823 88.823 0 0011.65 28.198 113.39 113.39 0 01-9.83 9.043 112.69 112.69 0 01-15.24 10.453c-3.64-4.008-9.28-5.114-13.23-2.363-4.36 3.029-5.02 9.552-1.49 14.575 3.54 5.015 9.92 6.632 14.27 3.61 3.87-2.696 4.8-8.15 2.49-12.866 4.24-3.53 9.24-7.208 15.09-10.715 4.05-2.435 7.98-4.461 11.74-6.193a87.245 87.245 0 004.47 5.567 90.574 90.574 0 0012.11 11.607c-1.42 5.336-3.86 12.112-8.3 19.232a70.083 70.083 0 01-11.88 14.369c-4.53-2.445-9.9-1.762-12.75 1.908-3.24 4.178-1.98 10.662 2.83 14.468 4.81 3.807 11.35 3.497 14.59-.682 2.81-3.622 2.24-8.947-1.07-12.782 2.77-4.685 6.31-9.901 10.85-15.238 5.22-6.13 10.5-10.947 15.23-14.694a87.789 87.789 0 0021.23 9.255 56.377 56.377 0 01-1.96 7.862 55.475 55.475 0 01-6.23 12.975c-4.86-1.549-9.97.172-12.05 4.341-2.36 4.75.11 10.899 5.54 13.718 3.41 1.767 7.18 1.812 10.09.412 1.73-.817 3.16-2.141 4.04-3.91.25-.519.46-1.072.6-1.633 1.11-4.183-1.05-8.989-5.34-11.629a81.167 81.167 0 016.25-12.755 80.965 80.965 0 015.4-7.797c4.29.91 8.63 1.483 12.96 1.73.41.028.83.048 1.22.06a73.032 73.032 0 013.29 19.119 71.583 71.583 0 01-1.76 18.773c-5.05.434-9.07 4.012-9.38 8.701-.34 5.353 4.28 10.124 10.33 10.657 6.03.541 11.22-3.368 11.56-8.713.31-4.648-3.14-8.86-8.02-10.228a94.89 94.89 0 01.51-18.895 94.815 94.815 0 014.69-19.629 85.42 85.42 0 0023.73-5.499 65.751 65.751 0 015.02 8.337 68.38 68.38 0 016.13 18c-4.42 2.489-6.6 7.465-4.95 11.93 1.88 5.062 8 7.554 13.67 5.565 5.67-1.982 8.74-7.705 6.87-12.79-1.63-4.408-6.47-6.873-11.43-6.118a96.526 96.526 0 01-7.26-17.649 93.114 93.114 0 01-2.33-9.753 83.094 83.094 0 0015.95-9.961c4.15 3.197 8.56 6.983 12.99 11.457a126.647 126.647 0 0115.47 18.954c-3.04 3.917-3.21 9.27-.13 12.817 3.56 4.097 10.1 4.237 14.64.296 4.52-3.926 5.3-10.426 1.74-14.522-3.07-3.533-8.37-4.123-12.66-1.693a147.867 147.867 0 01-16.64-17.953c-3.84-4.903-7.08-9.69-9.83-14.18a82.753 82.753 0 0012.63-15.041c1.02.359 2.05.753 3.09 1.176a68.192 68.192 0 0116.3 9.362c-1.58 4.771.04 9.984 4.13 12.323 4.69 2.701 10.85.617 13.77-4.639 2.9-5.253 1.46-11.705-3.23-14.397-4.16-2.392-9.48-1.017-12.67 2.99a47.956 47.956 0 01-16.31-9.752 43.58 43.58 0 01-2.08-1.998 84.424 84.424 0 008.17-20.185c5.02-.1 10.61.135 16.65.93a111.246 111.246 0 0123.55 5.768c0 5.045 3.12 9.508 7.68 10.5 5.27 1.121 10.44-2.773 11.57-8.714 1.13-5.932-2.21-11.661-7.46-12.804-4.55-.973-9.04 1.805-10.9 6.416a133.21 133.21 0 01-23.83-4.35c-5.75-1.6-10.97-3.463-15.63-5.419.51-3.082.86-6.188 1.05-9.326.29-5.124.15-10.288-.46-15.416a99.072 99.072 0 0118.34-6.467 99.108 99.108 0 0118.6-2.752c1.94 4.689 6.5 7.623 11.04 6.761 5.24-.978 8.46-6.618 7.22-12.591-1.26-5.979-6.52-10.014-11.76-9.036-4.57.858-7.63 5.29-7.47 10.38a74.193 74.193 0 01-18.3 4.034c-7.6.692-14.27.147-19.53-.75a89.189 89.189 0 00-4.72-14.228c2-1.613 4.21-3.221 6.61-4.734a69.336 69.336 0 0117.01-7.744c3.07 4.141 8.29 5.838 12.45 3.788 4.76-2.342 6.37-8.673 3.61-14.148-2.78-5.467-8.88-8.004-13.65-5.655-4.17 2.051-5.93 7.205-4.41 12.149a63.607 63.607 0 01-16.5 8.685 64.008 64.008 0 01-7.7 2.155 89.687 89.687 0 00-7.3-11.876c3.12-3.205 6.55-6.49 10.31-9.772a173.242 173.242 0 0119.03-14.439c3.89 3.181 9.16 3.592 12.68.727 4.1-3.358 4.27-9.93.37-14.667-3.9-4.744-10.38-5.877-14.47-2.528" fill="#FFE1E1"/><g opacity=".62"><path d="M414.319 720.925c-37.623 16.161-76.1 25.004-118.094 19.831-46.807-5.77-89.491-42.718-114.725-80.696-9.376-14.106-17.147-30.045-17.373-46.978-.507-39.117 36.038-45.878 67.712-41.613 17.855 2.396 34.563 9.411 51.083 16.361 27.427 11.548 59.009 16.046 84.022 32.901 8.395 5.674 14.881 12.725 24.46 16.627 14.901 6.073 31.603 8.31 46.854 13.728 13.023 4.653 27.769 12.742 28.688 26.535.925 14.146-13.245 24.125-25.846 30.603-8.917 4.612-17.817 8.867-26.781 12.701z" fill="url(#paint0_linear)"/><path d="M239.723 227.325c57.023-97.099 185.05-142.948 293.082-114.893 52.094 13.537 97.123 45.867 138.919 79.752 36.842 29.864 72.812 62.321 99.236 102.08 18.042 27.138 31.844 60.18 42.092 91.2 15.326 46.446 8.182 108.048-53.182 107.574-14.398-.109-27.131-4.453-40.827-8.086-11.079-2.947-21.559-.062-32.93-1.112-28.623-2.637-56.594-11.285-83.199-21.817-54.22-21.487-104.486-52.206-159.999-70.512a375.513 375.513 0 00-141.229-18.082c-20.165 1.284-41.273 4.079-59.897-3.76-45.906-19.339-29.831-80.618-15.431-115.439a211.537 211.537 0 0113.365-26.905z" fill="url(#paint1_linear)"/><path d="M735.327 209.067c11.001 8.73 53.488 31.748 52.306 1.558-.305-7.52-4.186-14.588-9.18-19.784-5.714-5.965-11.942-8.883-16.562-15.966-5.646-8.547-11.958-16.515-18.855-23.8-14.115-15.178-30.342-28.993-49.287-34.384-13.288-3.776-35.199-1.178-40.281 15.868-7.405 24.815 31.311 26.746 43.606 34.81 11.667 7.631 18.903 21.581 28.459 32.418a75.13 75.13 0 009.794 9.28z" fill="url(#paint2_linear)"/><path d="M541.326 192.136c22.846 11.518 40.616 29.83 61.695 44.135 35.093 23.814 81.216 26.144 120.694 41.721 40.255 15.895 71.614 42.634 87.643 83.076 20.705 52.2 26.481 115.508 15.427 171.285-12.177 61.396-47.405 103.951-100.994 134.295-53.557 30.326-114.006 46.792-174.938 53.353a484.229 484.229 0 01-17.665 1.582c-132.686 9.436-312.418-25.753-366.917-165.396a284.785 284.785 0 01-1.466-3.848 207.861 207.861 0 01-11.341-48.278c-6.67-58.441-.633-123.821 16.334-180.123 11.409-37.903 39.135-71.132 69.049-95.472 42.028-34.194 95.281-45.697 148.557-52.948 39.451-5.368 83.959-9.294 122.427 3.419a228.244 228.244 0 0131.495 13.199z" fill="url(#paint3_linear)"/></g><path d="M467.175 405.624a7.483 7.483 0 009.797 4l15.69-6.592c7.987-3.356 16.647-4.84 25.29-4.239 2.577.18 5.245-.308 7.754-1.565 6.647-3.33 9.855-11.223 7.417-18.247-2.861-8.246-12.025-12.246-19.946-8.918a14.89 14.89 0 00-5.414 3.879c-5.792 6.561-12.832 11.904-20.901 15.294l-15.687 6.591a7.482 7.482 0 00-4 9.797z" fill="#FB4C47"/><path d="M392.515 489.692a6.187 6.187 0 00-8.066 3.389l-5.319 13.027c-2.707 6.631-6.902 12.561-12.306 17.262a12.348 12.348 0 00-3.618 5.448c-1.939 5.833.799 12.323 6.331 15.004 6.494 3.148 14.189.129 16.874-6.447a12.316 12.316 0 00.898-5.432c-.45-7.222.543-14.461 3.278-21.16l5.318-13.024a6.188 6.188 0 00-3.39-8.067zm47.973-117.487a6.474 6.474 0 008.441-3.547l5.565-13.631c2.834-6.939 7.223-13.145 12.878-18.064a12.924 12.924 0 003.786-5.701c2.029-6.104-.837-12.895-6.625-15.701-6.795-3.294-14.849-.134-17.658 6.747a12.89 12.89 0 00-.939 5.685c.47 7.557-.568 15.132-3.43 22.142l-5.565 13.629a6.475 6.475 0 003.547 8.441z" fill="#C63F3B"/><path d="M438.948 474.774a7.483 7.483 0 00-4.001 9.797l6.592 15.69c3.356 7.987 4.841 16.647 4.239 25.29a14.944 14.944 0 001.565 7.753c3.331 6.648 11.223 9.856 18.247 7.418 8.247-2.862 12.246-12.025 8.919-19.946a14.895 14.895 0 00-3.88-5.414c-6.561-5.792-11.903-12.832-15.293-20.901l-6.591-15.687a7.483 7.483 0 00-9.797-4z" fill="#FB4C47"/><path d="M470.627 515.363c-6.561-5.793-11.904-12.832-15.294-20.901l-6.591-15.688a7.483 7.483 0 00-13.798 5.797l6.591 15.688c3.391 8.069 8.733 15.108 15.294 20.901a14.881 14.881 0 013.879 5.414c2.144 5.103 1.243 10.719-1.871 14.836 2.222.288 4.53.084 6.751-.687 8.246-2.862 12.246-12.026 8.918-19.946a14.881 14.881 0 00-3.879-5.414z" fill="#C63F3B"/><path d="M355.029 419.224c12.447-5.23 18.297-19.559 13.068-32.005-5.23-12.447-19.559-18.297-32.005-13.068-12.447 5.23-18.297 19.559-13.068 32.005 5.23 12.447 19.559 18.297 32.005 13.068z" fill="#FF8F8C"/><path d="M336.097 374.15a24.42 24.42 0 00-6.445 3.979c10.295-.897 20.434 4.847 24.652 14.886 4.218 10.04 1.224 21.301-6.622 28.027a24.428 24.428 0 007.352-1.819c12.447-5.229 18.297-19.558 13.068-32.005-5.23-12.447-19.559-18.297-32.005-13.068z" fill="#FB4C47"/><path d="M449.405 499.669c40.641-17.076 59.744-63.864 42.669-104.504-17.075-40.641-63.863-59.744-104.504-42.669-40.641 17.075-59.744 63.863-42.669 104.504 17.076 40.641 63.864 59.744 104.504 42.669z" fill="#FB4C47"/><path d="M387.57 352.495a80.93 80.93 0 00-6.762 3.223c38.867-12.237 81.372 6.929 97.469 45.243 16.098 38.313.038 82.086-35.906 101.281a80.986 80.986 0 007.035-2.574c40.641-17.076 59.744-63.863 42.669-104.504C475 354.523 428.211 335.42 387.57 352.495z" fill="#C63F3B"/><path d="M441.796 404.281c8.255-3.468 12.136-12.972 8.667-21.227-3.468-8.256-12.972-12.136-21.227-8.667-8.256 3.468-12.136 12.972-8.667 21.227 3.468 8.255 12.972 12.136 21.227 8.667z" fill="#C63F3B"/><path d="M429.234 374.387a16.135 16.135 0 00-6.189 4.587c5.829.484 11.197 4.111 13.619 9.877 2.423 5.766 1.257 12.138-2.478 16.641a16.14 16.14 0 007.609-1.211c8.255-3.468 12.135-12.972 8.667-21.227-3.469-8.255-12.972-12.136-21.228-8.667zm-20.72 101.612c5.589-2.348 8.215-8.782 5.867-14.37-2.348-5.588-8.781-8.215-14.369-5.867-5.589 2.348-8.215 8.781-5.867 14.37 2.348 5.588 8.781 8.215 14.369 5.867z" fill="#fff"/><path d="M497.278 473.422c7.62-3.202 11.202-11.975 8-19.595-3.202-7.62-11.974-11.202-19.595-8.001-7.62 3.202-11.202 11.975-8 19.595 3.202 7.62 11.974 11.202 19.595 8.001z" fill="#FB4C47"/><path d="M485.683 445.827a14.894 14.894 0 00-6.122 4.749c5.125.654 9.773 3.942 11.919 9.049 2.145 5.106 1.241 10.728-1.879 14.846 2.523.322 5.162.008 7.676-1.048 7.621-3.202 11.202-11.975 8.001-19.595-3.202-7.62-11.975-11.203-19.595-8.001zm-115.892.713a7.483 7.483 0 01-4 9.798l-15.689 6.592c-7.988 3.356-15.109 8.502-20.729 15.096a14.928 14.928 0 01-6.545 4.442c-7.031 2.417-14.913-.816-18.224-7.473-3.887-7.816-.329-17.16 7.591-20.488a14.897 14.897 0 016.56-1.152c8.74.455 17.483-.833 25.552-4.224l15.688-6.591a7.481 7.481 0 019.796 4z" fill="#C63F3B"/><path d="M398.035 377.389a7.483 7.483 0 004.001-9.797l-6.593-15.69c-3.355-7.987-4.84-16.647-4.238-25.29a14.94 14.94 0 00-1.566-7.754c-3.33-6.647-11.222-9.855-18.247-7.417-8.246 2.861-12.246 12.025-8.918 19.946a14.895 14.895 0 003.88 5.414c6.561 5.792 11.903 12.832 15.293 20.901l6.592 15.687a7.481 7.481 0 009.796 4z" fill="#FB4C47"/><path d="M389.64 318.858c-3.33-6.647-11.222-9.855-18.247-7.417a14.913 14.913 0 00-7.046 5.11c4.807.623 9.218 3.559 11.496 8.104a14.938 14.938 0 011.565 7.754c-.602 8.643.883 17.303 4.239 25.29l6.592 15.69a7.482 7.482 0 009.797 4 7.482 7.482 0 004-9.797l-6.592-15.69c-3.356-7.987-4.84-16.647-4.238-25.29a14.93 14.93 0 00-1.566-7.754zm125.098 51.594a14.885 14.885 0 00-5.481 3.777c-.26.284-.526.563-.792.842 5.438.77 10.291 4.514 12.147 10.198 1.588 4.862.495 10.085-2.525 13.915.298.021.597.039.895.065a14.921 14.921 0 007.777-1.422c6.704-3.206 10.054-11.034 7.747-18.097-2.708-8.294-11.792-12.458-19.768-9.278z" fill="#C63F3B"/><g opacity=".63"><path d="M573.882 545.025a3.81 3.81 0 005.31.906l7.069-5.006a28.203 28.203 0 0112.1-4.897 7.604 7.604 0 003.68-1.633c2.936-2.389 3.659-6.665 1.673-9.886a7.618 7.618 0 00-13.158.294c-2.154 3.899-5.063 7.331-8.699 9.906l-7.068 5.006a3.809 3.809 0 00-.907 5.31z" fill="#FFC700"/><path d="M540.189 585.854a3.15 3.15 0 00-3.634 2.574l-1.206 7.06a23.31 23.31 0 01-4.211 9.936 6.274 6.274 0 00-1.196 3.106c-.32 3.113 1.756 6.035 4.801 6.757a6.298 6.298 0 007.52-7.863c-1.02-3.54-1.325-7.246-.705-10.877l1.206-7.058a3.151 3.151 0 00-2.575-3.635zm10.879-63.675a3.295 3.295 0 003.803-2.693l1.262-7.388a24.39 24.39 0 014.406-10.397 6.573 6.573 0 001.252-3.251c.335-3.257-1.838-6.315-5.024-7.071a6.591 6.591 0 00-7.87 8.229c1.068 3.704 1.387 7.582.739 11.382l-1.262 7.386a3.296 3.296 0 002.694 3.803z" fill="#D09700"/><path d="M561.613 573.32a3.81 3.81 0 00-.907 5.31l5.007 7.07a28.194 28.194 0 014.897 12.099 7.603 7.603 0 001.633 3.681c2.389 2.936 6.664 3.659 9.886 1.672a7.617 7.617 0 002.231-10.895 7.582 7.582 0 00-2.525-2.263c-3.899-2.154-7.331-5.063-9.906-8.699l-5.006-7.068a3.81 3.81 0 00-5.31-.907z" fill="#FFC700"/><path d="M581.835 589.993c-3.9-2.155-7.331-5.064-9.906-8.699l-5.006-7.069a3.809 3.809 0 10-6.217 4.403l5.006 7.069c2.575 3.635 6.006 6.544 9.906 8.699a7.615 7.615 0 013.232 9.841 7.518 7.518 0 003.279-1.086 7.62 7.62 0 00-.294-13.158zm-68.046-35.02c5.608-3.971 6.934-11.737 2.962-17.345-3.972-5.608-11.737-6.934-17.345-2.963-5.608 3.972-6.935 11.738-2.963 17.346 3.972 5.608 11.738 6.934 17.346 2.962z" fill="#D09700"/><path d="M499.406 534.665a12.459 12.459 0 00-2.764 2.688c5.017-1.581 10.689.154 13.893 4.678 3.204 4.523 2.958 10.449-.199 14.657a12.42 12.42 0 003.453-1.715c5.608-3.972 6.935-11.737 2.963-17.345-3.972-5.608-11.738-6.934-17.346-2.963z" fill="#FFC700"/><path d="M569.556 584.537c18.311-12.968 22.642-38.326 9.673-56.638-12.969-18.311-38.327-22.642-56.638-9.673s-22.642 38.327-9.673 56.638c12.969 18.312 38.326 22.642 56.638 9.673z" fill="#FFC700"/><path d="M522.597 518.225a41.323 41.323 0 00-3.004 2.348c17.963-10.369 41.2-5.534 53.426 11.729 12.226 17.263 9.075 40.786-6.668 54.29a41.436 41.436 0 003.211-2.055c18.312-12.969 22.643-38.327 9.674-56.638-12.969-18.312-38.327-22.643-56.639-9.674z" fill="#D09700"/><path d="M550.679 540.759a3.004 3.004 0 10-3.473-4.903 3.004 3.004 0 003.473 4.903zm-4.057 36.528a5.588 5.588 0 00-6.458-9.119 5.587 5.587 0 106.458 9.119zm-17.635-23.441a8.554 8.554 0 10-9.89-13.96 8.554 8.554 0 009.89 13.96z" fill="#fff"/><path d="M590.446 566.213a7.618 7.618 0 001.814-10.62 7.618 7.618 0 00-10.62-1.814 7.618 7.618 0 00-1.814 10.62 7.618 7.618 0 0010.62 1.814z" fill="#FFC700"/><path d="M581.641 553.779a7.596 7.596 0 00-2.518 3.036 7.616 7.616 0 017.626 10.766 7.62 7.62 0 10-5.108-13.802zm-57.504 13.14a3.809 3.809 0 01-.907 5.31l-7.069 5.007a28.195 28.195 0 00-8.635 9.789 7.594 7.594 0 01-2.762 2.929c-3.228 1.977-7.501 1.24-9.881-1.703a7.618 7.618 0 014.645-12.314c4.393-.738 8.596-2.343 12.231-4.918l7.069-5.006a3.808 3.808 0 015.309.906z" fill="#D09700"/><path d="M530.539 529.443a3.81 3.81 0 00.907-5.31l-5.007-7.069a28.203 28.203 0 01-4.897-12.1 7.604 7.604 0 00-1.633-3.68c-2.388-2.936-6.664-3.659-9.886-1.673a7.62 7.62 0 00.294 13.158c3.9 2.155 7.331 5.063 9.906 8.699l5.006 7.068a3.809 3.809 0 005.31.907z" fill="#FFC700"/><path d="M519.907 501.284c-2.389-2.936-6.664-3.659-9.886-1.673a7.596 7.596 0 00-2.938 3.317c2.458-.22 4.974.752 6.607 2.759a7.603 7.603 0 011.633 3.681 28.194 28.194 0 004.897 12.099l5.007 7.07a3.81 3.81 0 006.217-4.403l-5.007-7.07a28.2 28.2 0 01-4.897-12.099 7.603 7.603 0 00-1.633-3.681z" fill="#D09700"/></g><path d="M625.172 461.392a4.382 4.382 0 00-5.265 3.271l-2.267 9.706c-1.154 4.942-3.427 9.559-6.683 13.45a8.76 8.76 0 00-1.924 4.215c-.705 4.298 1.935 8.532 6.104 9.791a8.767 8.767 0 0011.107-10.295c-1.12-5.002-1.234-10.177-.068-15.169l2.267-9.704a4.383 4.383 0 00-3.271-5.265z" fill="#1DB776"/><path d="M610.973 397.088a3.624 3.624 0 001.165-4.99l-4.349-7.001a26.825 26.825 0 01-3.956-11.77 7.227 7.227 0 00-1.34-3.588c-2.1-2.925-6.118-3.857-9.292-2.156a7.248 7.248 0 00-.475 12.512c3.579 2.269 6.671 5.228 8.907 8.828l4.349 6.999a3.625 3.625 0 004.991 1.166zm39.223 63.135a3.792 3.792 0 00-1.22 5.222l4.551 7.326a28.069 28.069 0 014.139 12.316 7.561 7.561 0 001.403 3.755c2.197 3.061 6.402 4.036 9.723 2.256a7.584 7.584 0 00.497-13.093c-3.745-2.375-6.98-5.471-9.321-9.238l-4.55-7.324a3.792 3.792 0 00-5.222-1.22z" fill="#128E5A"/><path d="M602.083 424.233a4.383 4.383 0 00-3.271-5.265l-9.707-2.267c-4.941-1.155-9.558-3.428-13.45-6.684a8.74 8.74 0 00-4.215-1.923c-4.297-.706-8.531 1.934-9.79 6.103a8.766 8.766 0 0010.294 11.107c5.002-1.12 10.177-1.233 15.169-.067l9.705 2.267a4.384 4.384 0 005.265-3.271z" fill="#1DB776"/><path d="M571.946 425.305c5.002-1.121 10.177-1.234 15.169-.068l9.705 2.267a4.384 4.384 0 001.994-8.536l-9.705-2.267c-4.992-1.166-10.167-1.053-15.169.068a8.727 8.727 0 01-3.901-.022 8.76 8.76 0 01-6.393-5.987 8.65 8.65 0 00-1.994 3.438 8.765 8.765 0 006.393 11.085 8.727 8.727 0 003.901.022zm85.328-21.771c-1.799 7.7 2.985 15.401 10.685 17.199 7.7 1.799 15.4-2.985 17.199-10.685 1.799-7.7-2.985-15.401-10.685-17.199-7.701-1.799-15.401 2.985-17.199 10.685z" fill="#128E5A"/><path d="M685.16 410.049c.348-1.489.447-2.977.329-4.424-3.114 5.191-9.323 8.024-15.534 6.574-6.211-1.451-10.522-6.742-11.014-12.775a14.29 14.29 0 00-1.665 4.112c-1.799 7.7 2.985 15.4 10.685 17.199 7.7 1.799 15.401-2.986 17.199-10.686z" fill="#1DB776"/><path d="M586.681 420.637c-5.873 25.142 9.748 50.285 34.891 56.158 25.142 5.873 50.285-9.748 56.158-34.891 5.873-25.142-9.748-50.285-34.891-56.158-25.142-5.873-50.285 9.748-56.158 34.891z" fill="#1DB776"/><path d="M677.739 441.903c.336-1.439.598-2.878.796-4.314-7.558 22.638-31.258 36.206-54.961 30.669-23.703-5.536-38.94-28.2-35.687-51.843a47.181 47.181 0 00-1.197 4.221c-5.873 25.143 9.748 50.285 34.89 56.158 25.143 5.873 50.286-9.748 56.159-34.891z" fill="#128E5A"/><path d="M634.529 449.818a9.496 9.496 0 007.087 11.407 9.496 9.496 0 0011.407-7.087 9.496 9.496 0 00-7.087-11.407 9.496 9.496 0 00-11.407 7.087z" fill="#128E5A"/><path d="M653.033 454.137c.36-1.54.32-3.08-.048-4.512a9.492 9.492 0 01-9.365 3.063 9.493 9.493 0 01-7.04-6.895 9.497 9.497 0 1016.453 8.344zm-41.069-44.757a6.429 6.429 0 1012.521 2.923 6.429 6.429 0 00-12.521-2.923z" fill="#fff"/><path d="M582.671 452.36a8.767 8.767 0 006.543 10.531 8.766 8.766 0 0010.531-6.543 8.767 8.767 0 10-17.074-3.988z" fill="#1DB776"/><path d="M599.749 456.347a8.732 8.732 0 00-.148-4.536 8.761 8.761 0 01-8.389 2.542 8.76 8.76 0 01-6.395-5.996 8.767 8.767 0 1014.932 7.99zm39.495-55.2a4.383 4.383 0 01-3.271-5.265l2.267-9.707c1.154-4.941 1.162-10.087-.033-15.019a8.738 8.738 0 01.143-4.631c1.271-4.165 5.513-6.791 9.808-6.073a8.766 8.766 0 015.398 14.149c-3.22 3.989-5.615 8.578-6.781 13.57l-2.267 9.705a4.382 4.382 0 01-5.264 3.271z" fill="#128E5A"/><path d="M662.332 438.307a4.383 4.383 0 003.271 5.265l9.707 2.268c4.941 1.154 9.558 3.427 13.45 6.683a8.74 8.74 0 004.215 1.923c4.297.706 8.531-1.934 9.79-6.103a8.767 8.767 0 00-10.294-11.107c-5.003 1.12-10.177 1.234-15.169.068l-9.705-2.267a4.382 4.382 0 00-5.265 3.27z" fill="#1DB776"/><path d="M692.973 454.444c4.298.706 8.532-1.934 9.791-6.103a8.746 8.746 0 00-.001-5.098c-1.949 2.065-4.857 3.148-7.796 2.665a8.744 8.744 0 01-4.215-1.923c-3.891-3.256-8.509-5.529-13.45-6.683l-9.706-2.268a4.383 4.383 0 00-1.994 8.536l9.706 2.268c4.942 1.154 9.559 3.427 13.45 6.683a8.749 8.749 0 004.215 1.923zm-66.752 40.993c.309-1.326.3-2.653.021-3.899-.049-.22-.094-.442-.14-.663a8.756 8.756 0 01-8.97 2.42c-2.868-.866-5.011-3.14-5.84-5.875-.11.136-.218.274-.331.408a8.744 8.744 0 00-1.922 4.214c-.705 4.295 1.933 8.527 6.101 9.786a8.763 8.763 0 0011.081-6.391z" fill="#128E5A"/></g><defs><linearGradient id="paint0_linear" x1="161.059" y1="618.687" x2="210.076" y2="754.827" gradientUnits="userSpaceOnUse"><stop stop-color="#FFD8D8"/><stop offset="1" stop-color="#FFF8F8"/></linearGradient><linearGradient id="paint1_linear" x1="807.47" y1="273.694" x2="370.853" y2="36.345" gradientUnits="userSpaceOnUse"><stop stop-color="#FFF8F8"/><stop offset="1" stop-color="#FFCFCF"/></linearGradient><linearGradient id="paint2_linear" x1="788.658" y1="210.028" x2="630.938" y2="154.506" gradientUnits="userSpaceOnUse"><stop stop-color="#FFD7D7"/><stop offset="1" stop-color="#FFF9F9"/></linearGradient><linearGradient id="paint3_linear" x1="782.235" y1="644.48" x2="142.067" y2="327.53" gradientUnits="userSpaceOnUse"><stop stop-color="#FFCFCF"/><stop offset="1" stop-color="#FFF8F8"/></linearGradient></defs></svg>