<svg width="1920" height="2730" fill="none" xmlns="http://www.w3.org/2000/svg"><mask id="a" maskUnits="userSpaceOnUse" x="0" y="0" width="1920" height="2730"><path fill="#C4C4C4" d="M0 0h1920v2730H0z"/></mask><g mask="url(#a)"><g filter="url(#filter0_d)"><path d="M131.935 876.427c-4.447-.133-8.279 3.356-9.367 8.151-6.884.546-14.749.732-23.383.176a168.476 168.476 0 01-13.637-1.466 89.276 89.276 0 00-.804-14.676 42.076 42.076 0 018.196-5.034 42.222 42.222 0 0115.186-3.912c2.023 4.707 6.671 7.445 11.118 6.252 5.015-1.341 7.889-7.144 6.399-12.963-1.478-5.82-6.73-9.458-11.745-8.116-4.565 1.227-7.356 6.155-6.694 11.427-3.607 2.102-8.977 4.38-15.624 4.548a31.46 31.46 0 01-8.48-.944 86.197 86.197 0 00-6.305-17.618 89.062 89.062 0 0110.207-8.169 88.795 88.795 0 0116.133-8.778c3.17 3.798 8.22 5.061 12.123 2.748 4.483-2.651 5.737-9.036 2.815-14.246-2.921-5.209-8.941-7.276-13.424-4.618-3.891 2.305-5.358 7.426-3.749 12.143a91.092 91.092 0 01-15.47 9.952 89.464 89.464 0 01-11.828 4.998 85.63 85.63 0 00-10.337-14.183c1.502-5.581 4.033-12.098 8.35-18.633a62.274 62.274 0 0112.371-13.705c4.211 2.676 9.51 2.261 12.526-1.263 3.43-3.991 2.65-10.446-1.763-14.419-4.387-3.983-10.727-3.976-14.145.017-3.016 3.523-2.78 8.955.355 12.918a61.152 61.152 0 01-11.698 14.325 59.382 59.382 0 01-16.771 10.667 83.76 83.76 0 00-17.162-10.438 38.797 38.797 0 013.62-7.594 39.895 39.895 0 013.926-5.263c4.672 1.951 9.911.547 12.265-3.541 2.65-4.566.71-10.766-4.329-13.838-5.038-3.073-11.26-1.864-13.909 2.71-2.318 4.019-1.1 9.299 2.65 12.602a61.697 61.697 0 01-2.863 6.56 64.249 64.249 0 01-4.163 7.154 53.414 53.414 0 00-1.869-.732 81.375 81.375 0 00-23.23-5.184 75.8 75.8 0 01-3.31-12.275 75.787 75.787 0 01-.58-23.139c4.778-.94 8.35-4.789 8.35-9.402 0-5.316-4.743-9.626-10.598-9.626-5.866 0-10.62 4.31-10.62 9.626 0 4.692 3.701 8.594 8.598 9.447a68.842 68.842 0 01.13 23.756 68.7 68.7 0 01-3.063 11.542 81.428 81.428 0 00-22.354 4.481 34.19 34.19 0 01-2.662-5.278c-1.56-3.937-2.235-7.626-2.507-10.697 4.577-2.447 6.93-7.579 5.322-12.119-1.774-4.994-7.676-7.37-13.187-5.306-5.5 2.065-8.528 7.785-6.742 12.779 1.537 4.309 6.139 6.661 10.905 5.899a60.5 60.5 0 013.773 10.179 55.858 55.858 0 011.301 5.983 83.145 83.145 0 00-17.978 10.094 79.971 79.971 0 01-8.835-7.613c-6.777-6.772-11.295-13.718-14.264-19.28 3.288-3.735 3.868-9.083 1.112-12.767-3.158-4.216-9.486-4.66-14.134-.995-4.636 3.668-5.843 10.056-2.697 14.271 2.803 3.724 8.055 4.498 12.455 2.099a63.283 63.283 0 0114.157 19.1 64.526 64.526 0 014.317 11.772 94.988 94.988 0 00-2.65 2.583 87.207 87.207 0 00-11.496 14.703 61.424 61.424 0 01-6.043-2.13 62.802 62.802 0 01-15.731-9.419c1.609-4.806.035-9.991-3.962-12.24-4.53-2.556-10.491-.351-13.306 4.925-2.827 5.274-1.431 11.622 3.122 14.177 3.986 2.246 9.072.811 12.159-3.152a63.83 63.83 0 0116.215 8.536 66.104 66.104 0 014.873 3.927 87.242 87.242 0 00-9.485 28.337c-4.033.353-8.386.523-13.058.375A109.841 109.841 0 01-113 865.538c-.118-5.304-3.572-9.743-8.256-10.248-5.156-.556-9.828 3.844-10.443 9.827-.604 5.983 3.075 11.282 8.22 11.835 4.589.495 8.776-2.939 10.089-7.917a117.432 117.432 0 0130.657 4.731 85.367 85.367 0 00-.272 6.988c0 5.594.508 11.065 1.502 16.369a69.022 69.022 0 01-18.463 8.892 68.26 68.26 0 01-17.99 2.995c-1.774-4.716-6.174-7.658-10.633-6.775-5.074 1.007-8.303 6.611-7.191 12.517 1.112 5.908 6.139 9.878 11.213 8.871 4.399-.872 7.392-5.179 7.404-10.146a106.881 106.881 0 0117.788-4.297 105.877 105.877 0 0120.663-1.09 86.172 86.172 0 009.746 20.488 54.445 54.445 0 01-19.41 10.152c-2.601-4.273-7.474-6.279-11.685-4.532-4.79 1.996-6.907 8.133-4.707 13.705 1.384 3.497 4.14 5.952 7.191 6.791 1.798.503 3.702.442 5.488-.3a7.978 7.978 0 001.49-.822c3.501-2.382 4.991-7.322 3.513-12.034a78.93 78.93 0 0112.797-5.417 78.656 78.656 0 018.99-2.297 84.136 84.136 0 008.456 9.602c.284.283.58.566.864.829a71.714 71.714 0 01-9.83 16.258 70.462 70.462 0 01-13.34 12.754c-4.01-2.926-9.273-2.862-12.502.414-3.69 3.735-3.336 10.235.792 14.517 4.104 4.273 10.444 4.717 14.122.98 3.205-3.242 3.36-8.574.639-12.715a93.052 93.052 0 0112.49-13.654 92.85 92.85 0 0116.05-11.506 83.637 83.637 0 0021.053 11.18 64.604 64.604 0 01-1.644 9.387 67.029 67.029 0 01-7.014 17.256c-4.861-.999-9.663 1.28-11.307 5.643-1.857 4.954 1.064 10.731 6.529 12.901 5.452 2.17 11.39-.09 13.27-5.05 1.62-4.31-.367-9.238-4.518-11.87a94.5 94.5 0 015.961-17.715 91.044 91.044 0 014.53-8.715 81.102 81.102 0 0018.167 2.879 126.533 126.533 0 012.247 16.822 124.77 124.77 0 01-.733 23.959c-4.755.94-8.315 4.79-8.315 9.4 0 5.31 4.743 9.62 10.621 9.62 5.855 0 10.598-4.31 10.598-9.62 0-4.59-3.537-8.43-8.268-9.39a145.782 145.782 0 01-.768-23.969 146.4 146.4 0 011.833-16.805 80.936 80.936 0 0018.971-3.011c.52.918 1.03 1.872 1.526 2.853a66.873 66.873 0 016.032 17.396c-4.222 2.517-6.375 7.409-4.85 11.772 1.728 5.004 7.618 7.424 13.141 5.414 5.512-2.024 8.587-7.72 6.848-12.726-1.537-4.442-6.351-6.845-11.271-5.926a47.134 47.134 0 01-5.796-17.697 39.168 39.168 0 01-.248-2.808 82.512 82.512 0 0018.971-9.688 108.283 108.283 0 0111.698 11.383A109.211 109.211 0 0173.4 983.579c-3.241 3.727-3.797 9.035-1.065 12.699 3.17 4.212 9.486 4.652 14.134.989 4.637-3.664 5.843-10.048 2.697-14.269-2.732-3.639-7.83-4.47-12.159-2.253A130.467 130.467 0 0162.2 962.218a129.085 129.085 0 01-8.066-14.05 88.525 88.525 0 006.753-6.226 86.357 86.357 0 009.545-11.7 96.96 96.96 0 0117.694 7.002 96.817 96.817 0 0115.494 9.909c-1.573 4.716-.083 9.819 3.821 12.097 4.494 2.641 10.491.539 13.4-4.679 2.91-5.228 1.609-11.595-2.886-14.236-3.927-2.304-9.024-.988-12.17 2.88a72.575 72.575 0 01-16.098-8.77 74.104 74.104 0 01-13.944-13.105 87.473 87.473 0 005.641-13.555c2.508.089 5.169.318 7.913.742a67.793 67.793 0 0117.528 5.201c-.39 5.034 2.378 9.643 6.766 10.8 5.015 1.325 10.266-2.322 11.733-8.15 1.454-5.828-1.42-11.621-6.446-12.946-4.4-1.167-9.001 1.519-11.047 6.154a62.28 62.28 0 01-17.753-4.176 63.212 63.212 0 01-7.073-3.356 87.014 87.014 0 002.223-13.476 171.59 171.59 0 0113.886-.601c8.61-.026 16.44.609 23.312 1.545.828 4.849 4.459 8.54 8.894 8.682 5.181.15 9.521-4.602 9.675-10.615.166-6.013-3.891-11.012-9.06-11.162z" fill="#128E5A" fill-opacity=".74"/></g><g opacity=".5" filter="url(#filter1_d)"><path d="M2062.69 2403.01c-5.06-.15-9.41 3.79-10.65 9.21-7.83.61-16.77.82-26.59.2-5.46-.36-10.65-.94-15.51-1.66.03-.95.04-1.9.04-2.86 0-4.66-.34-9.23-.95-13.71 2.47-1.92 5.56-3.95 9.32-5.68a48.265 48.265 0 0117.27-4.42c2.3 5.32 7.58 8.41 12.64 7.06 5.7-1.51 8.97-8.06 7.28-14.63-1.68-6.57-7.66-10.68-13.36-9.17-5.19 1.39-8.37 6.95-7.61 12.9-4.1 2.38-10.21 4.95-17.77 5.14-3.73.1-6.99-.41-9.64-1.07a96.778 96.778 0 00-7.17-19.89c3.25-2.99 7.1-6.16 11.6-9.22 6.53-4.44 12.82-7.62 18.35-9.91 3.61 4.29 9.35 5.72 13.79 3.1 5.09-2.99 6.52-10.2 3.2-16.08-3.32-5.88-10.17-8.21-15.27-5.21-4.42 2.6-6.09 8.38-4.26 13.71-4.75 3.74-10.59 7.7-17.59 11.23a102.16 102.16 0 01-13.45 5.64 97.153 97.153 0 00-11.76-16.01c1.71-6.3 4.59-13.65 9.5-21.03 4.61-6.9 9.72-11.93 14.07-15.47 4.78 3.02 10.81 2.55 14.24-1.43 3.9-4.51 3.01-11.79-2.01-16.28-4.99-4.49-12.19-4.49-16.08.02-3.43 3.98-3.16 10.11.4 14.58a69.195 69.195 0 01-13.3 16.18c-6.89 6.16-13.8 9.85-19.07 12.04-6-4.68-12.54-8.65-19.52-11.78 1.01-2.87 2.36-5.75 4.12-8.58a45.08 45.08 0 014.46-5.94c5.32 2.2 11.27.62 13.95-4 3.01-5.15.81-12.15-4.92-15.62-5.73-3.47-12.81-2.1-15.82 3.06-2.64 4.54-1.25 10.5 3.01 14.23-.88 2.39-1.96 4.87-3.25 7.4-1.47 2.91-3.05 5.6-4.74 8.08-.71-.29-1.41-.57-2.12-.83-8.31-3.17-17.18-5.17-26.42-5.85a84.417 84.417 0 01-3.76-13.86 84.535 84.535 0 01-.66-26.12c5.43-1.06 9.49-5.41 9.49-10.61 0-6-5.39-10.87-12.05-10.87-6.67 0-12.08 4.87-12.08 10.87 0 5.29 4.21 9.7 9.78 10.66 1.21 6.67 2.01 16 .15 26.82-.83 4.76-2.06 9.1-3.48 13.03a93.06 93.06 0 00-25.42 5.06 38.146 38.146 0 01-3.03-5.96c-1.78-4.44-2.54-8.61-2.85-12.08 5.2-2.76 7.88-8.55 6.05-13.68-2.02-5.63-8.73-8.32-15-5.99-6.25 2.33-9.69 8.79-7.66 14.43 1.75 4.86 6.98 7.52 12.4 6.66a67.33 67.33 0 014.29 11.49c.64 2.3 1.12 4.55 1.48 6.75-7.3 2.95-14.15 6.8-20.45 11.4-3.3-2.44-6.69-5.27-10.04-8.59a91.849 91.849 0 01-16.22-21.77c3.74-4.22 4.39-10.25 1.26-14.41-3.59-4.76-10.79-5.26-16.07-1.13-5.27 4.14-6.65 11.36-3.07 16.11 3.19 4.21 9.16 5.08 14.16 2.37 4.87 4.46 11.21 11.47 16.1 21.57 2.25 4.61 3.81 9.1 4.91 13.29-1.01.94-2.03 1.92-3.01 2.91a98.037 98.037 0 00-13.07 16.6c-2.22-.65-4.52-1.44-6.88-2.4a71.359 71.359 0 01-17.88-10.64c1.82-5.42.04-11.28-4.51-13.82-5.15-2.88-11.93-.39-15.13 5.56-3.22 5.96-1.63 13.12 3.55 16.01 4.53 2.54 10.32.91 13.83-3.56a73.002 73.002 0 0118.44 9.64c2 1.44 3.83 2.93 5.54 4.43a97.807 97.807 0 00-10.79 31.99 125.17 125.17 0 01-35.27-1.9c-.13-5.99-4.06-11-9.38-11.57-5.87-.63-11.18 4.34-11.88 11.1-.69 6.75 3.5 12.73 9.35 13.36 5.22.56 9.98-3.32 11.47-8.94 6.13.13 13.02.69 20.48 1.99 5.18.91 9.96 2.07 14.38 3.35-.21 2.6-.31 5.23-.31 7.89 0 6.32.58 12.49 1.71 18.48-5.08 3.42-12.08 7.31-20.99 10.04a78.433 78.433 0 01-20.46 3.38c-2.02-5.33-7.02-8.65-12.09-7.65-5.77 1.14-9.45 7.46-8.18 14.13 1.26 6.67 6.98 11.15 12.75 10.01 5-.98 8.41-5.84 8.42-11.45 5.74-1.9 12.52-3.69 20.23-4.85 8.85-1.33 16.8-1.53 23.5-1.23 2.67 8.26 6.44 16.02 11.08 23.13a61.35 61.35 0 01-7.39 5.14c-5.25 3.12-10.3 5.06-14.68 6.32-2.96-4.82-8.5-7.09-13.29-5.12-5.45 2.26-7.86 9.18-5.35 15.48 1.57 3.94 4.7 6.72 8.17 7.66 2.05.57 4.21.5 6.24-.34a9.6 9.6 0 001.7-.92c3.98-2.69 5.67-8.27 3.99-13.59 4.15-2.18 8.99-4.34 14.56-6.12 3.59-1.14 7-1.97 10.22-2.59 2.93 3.87 6.16 7.49 9.62 10.84.32.32.65.64.98.94a81.07 81.07 0 01-11.18 18.35c-5.21 6.42-10.61 11.1-15.17 14.4-4.56-3.3-10.55-3.23-14.22.47-4.2 4.21-3.79 11.55.9 16.39 4.67 4.82 11.88 5.32 16.06 1.1 3.65-3.66 3.82-9.68.73-14.35 3.58-4.76 8.24-10.12 14.2-15.42 6.42-5.68 12.74-9.89 18.25-12.99a95.146 95.146 0 0023.94 12.62c-.33 3.3-.91 6.86-1.87 10.6a75.202 75.202 0 01-7.97 19.48c-5.53-1.12-10.99 1.45-12.86 6.37-2.11 5.6 1.21 12.12 7.43 14.57 6.2 2.45 12.95-.1 15.09-5.7 1.84-4.87-.42-10.43-5.14-13.4 1.33-5.8 3.44-12.65 6.78-20 1.64-3.59 3.37-6.86 5.15-9.84a93.19 93.19 0 0020.66 3.25c1.15 5.68 2.1 12.04 2.55 18.99.69 10.34.14 19.49-.83 27.05-5.41 1.06-9.46 5.41-9.46 10.61 0 6 5.4 10.86 12.08 10.86 6.66 0 12.05-4.86 12.05-10.86 0-5.18-4.02-9.52-9.4-10.6-.9-7.73-1.38-16.86-.87-27.06.35-6.88 1.11-13.23 2.08-18.97 7.45-.29 14.68-1.46 21.58-3.4.59 1.04 1.17 2.11 1.73 3.22a75.316 75.316 0 016.86 19.64c-4.8 2.84-7.25 8.36-5.51 13.29 1.96 5.65 8.66 8.38 14.94 6.11 6.27-2.28 9.76-8.71 7.79-14.37-1.75-5.01-7.23-7.72-12.82-6.69a52.76 52.76 0 01-6.59-19.97c-.14-1.08-.23-2.14-.28-3.18 7.68-2.71 14.91-6.41 21.57-10.93 4.29 3.56 8.81 7.8 13.3 12.85 6.92 7.75 11.95 15.4 15.58 21.9-3.69 4.21-4.32 10.2-1.21 14.34 3.6 4.75 10.78 5.25 16.07 1.11 5.27-4.13 6.64-11.34 3.07-16.11-3.11-4.1-8.91-5.04-13.83-2.54-5.3-5.47-11.18-12.4-16.84-20.91-3.66-5.51-6.68-10.85-9.17-15.87 2.67-2.2 5.23-4.54 7.68-7.02 3.98-4.07 7.62-8.49 10.85-13.21a110.71 110.71 0 0120.12 7.9c7.04 3.58 12.9 7.52 17.62 11.19-1.79 5.32-.09 11.08 4.35 13.66 5.11 2.98 11.93.6 15.24-5.29 3.3-5.9 1.82-13.09-3.29-16.07-4.46-2.6-10.26-1.11-13.84 3.25a82.348 82.348 0 01-18.3-9.9 84.11 84.11 0 01-15.86-14.79c2.54-4.87 4.69-9.98 6.42-15.3 2.85.1 5.87.35 8.99.83a77.892 77.892 0 0119.94 5.87c-.45 5.69 2.7 10.89 7.69 12.2 5.7 1.49 11.68-2.62 13.34-9.2 1.66-6.58-1.61-13.12-7.33-14.62-5-1.32-10.23 1.72-12.56 6.95a71.352 71.352 0 01-20.19-4.72c-2.9-1.15-5.59-2.44-8.04-3.78a98.858 98.858 0 002.53-15.22c4.96-.41 10.23-.67 15.79-.68 9.79-.03 18.69.69 26.51 1.75.94 5.47 5.07 9.64 10.11 9.8 5.89.17 10.83-5.2 11-11.98.19-6.79-4.42-12.44-10.3-12.61z" fill="#FF383D"/></g><g opacity=".5" filter="url(#filter2_d)"><path d="M1883.81 2164.27c-2.05-.06-3.82 1.53-4.33 3.72-3.18.25-6.81.34-10.8.08a76.17 76.17 0 01-6.3-.67c.01-.38.01-.77.01-1.15 0-1.89-.13-3.74-.39-5.55 1.01-.77 2.27-1.59 3.79-2.29 2.64-1.23 5.11-1.66 7.02-1.79.93 2.15 3.08 3.4 5.14 2.86 2.31-.62 3.64-3.27 2.95-5.92-.68-2.66-3.11-4.32-5.42-3.71-2.11.56-3.4 2.81-3.1 5.22-1.66.96-4.15 2-7.22 2.07-1.51.05-2.84-.16-3.92-.43a38.93 38.93 0 00-2.91-8.04 41.162 41.162 0 0112.17-7.73c1.47 1.73 3.8 2.31 5.6 1.25 2.08-1.21 2.66-4.12 1.31-6.5s-4.14-3.32-6.21-2.11c-1.8 1.05-2.47 3.39-1.73 5.54-1.93 1.52-4.3 3.12-7.15 4.55-1.93.97-3.79 1.71-5.46 2.28-1.38-2.33-2.98-4.5-4.78-6.48.69-2.54 1.86-5.52 3.86-8.5a28.55 28.55 0 015.71-6.26c1.95 1.22 4.4 1.04 5.79-.57 1.59-1.82 1.23-4.77-.81-6.58-2.03-1.82-4.96-1.82-6.54 0-1.39 1.61-1.28 4.09.17 5.9a28.186 28.186 0 01-5.41 6.54c-2.8 2.49-5.61 3.98-7.75 4.87-2.44-1.89-5.09-3.5-7.93-4.77.41-1.15.96-2.32 1.67-3.46.58-.91 1.19-1.71 1.82-2.41 2.16.89 4.58.25 5.66-1.61 1.23-2.09.33-4.92-2-6.32-2.32-1.4-5.2-.85-6.42 1.24-1.07 1.83-.51 4.24 1.22 5.75-.36.97-.8 1.97-1.32 3-.6 1.17-1.24 2.26-1.93 3.26-.29-.12-.57-.23-.86-.33-3.38-1.29-6.98-2.1-10.73-2.37-.62-1.69-1.16-3.55-1.53-5.6-.77-4.19-.63-7.83-.27-10.56 2.21-.43 3.86-2.19 3.86-4.3 0-2.42-2.19-4.39-4.9-4.39-2.71 0-4.91 1.97-4.91 4.39 0 2.15 1.71 3.93 3.98 4.32.49 2.69.81 6.46.06 10.84-.34 1.92-.84 3.68-1.42 5.27-3.6.2-7.06.91-10.33 2.04-.45-.73-.86-1.5-1.23-2.41-.72-1.79-1.03-3.48-1.16-4.88 2.12-1.12 3.2-3.46 2.46-5.53-.82-2.28-3.55-3.36-6.09-2.42s-3.94 3.55-3.12 5.83c.71 1.97 2.84 3.04 5.04 2.69.65 1.35 1.26 2.89 1.74 4.65.27.93.46 1.84.61 2.73a38.505 38.505 0 00-8.31 4.61c-1.35-.99-2.72-2.14-4.08-3.48a37.232 37.232 0 01-6.6-8.8c1.52-1.7 1.79-4.14.52-5.83-1.46-1.92-4.38-2.12-6.53-.45-2.15 1.67-2.7 4.59-1.25 6.51 1.3 1.7 3.72 2.06 5.76.96 1.97 1.8 4.55 4.64 6.54 8.72.91 1.87 1.54 3.68 1.99 5.37-.41.39-.82.78-1.22 1.18-2 2.03-3.78 4.28-5.31 6.71-.91-.26-1.84-.58-2.8-.97a29.132 29.132 0 01-7.27-4.3c.75-2.19.02-4.56-1.83-5.58-2.09-1.17-4.84-.16-6.14 2.24-1.31 2.41-.67 5.31 1.44 6.47 1.84 1.03 4.19.38 5.62-1.43 2.12.74 4.76 1.93 7.49 3.89.81.59 1.56 1.19 2.25 1.79a39.384 39.384 0 00-4.38 12.94 51.102 51.102 0 01-14.33-.77c-.06-2.42-1.65-4.45-3.82-4.68-2.38-.25-4.54 1.76-4.82 4.49-.28 2.73 1.42 5.15 3.8 5.4 2.12.23 4.05-1.34 4.66-3.61 2.49.05 5.29.27 8.32.8 2.11.37 4.05.84 5.84 1.36-.08 1.05-.12 2.11-.12 3.19 0 2.55.23 5.05.69 7.47a32.371 32.371 0 01-8.53 4.06c-3.17.96-6.03 1.29-8.31 1.36-.82-2.15-2.86-3.49-4.92-3.09-2.34.46-3.83 3.02-3.32 5.72.52 2.69 2.84 4.5 5.18 4.04 2.04-.39 3.42-2.36 3.42-4.63a49.583 49.583 0 0117.77-2.46c1.09 3.35 2.62 6.48 4.51 9.36-.9.71-1.88 1.42-3.01 2.07a25.014 25.014 0 01-5.96 2.56c-1.21-1.95-3.46-2.87-5.4-2.07-2.22.91-3.19 3.71-2.18 6.26.64 1.59 1.91 2.71 3.32 3.1.84.23 1.72.2 2.54-.14.24-.1.48-.23.69-.38 1.62-1.08 2.31-3.34 1.62-5.49 1.69-.88 3.65-1.75 5.92-2.47 1.46-.46 2.84-.8 4.15-1.05a37.86 37.86 0 004.31 4.76c-.95 2.15-2.39 4.77-4.55 7.42a32.01 32.01 0 01-6.16 5.82c-1.85-1.33-4.29-1.3-5.78.19-1.7 1.71-1.54 4.67.37 6.63 1.9 1.95 4.82 2.15 6.52.45 1.49-1.48 1.56-3.92.3-5.81 1.45-1.92 3.35-4.09 5.77-6.23 2.61-2.3 5.18-4 7.42-5.25 2.96 2.13 6.23 3.86 9.73 5.1-.14 1.34-.38 2.77-.76 4.29-.85 3.29-2.1 5.93-3.24 7.87-2.25-.45-4.47.59-5.23 2.58-.86 2.26.49 4.9 3.02 5.89 2.52.99 5.26-.04 6.13-2.31.75-1.97-.17-4.21-2.09-5.42.54-2.34 1.4-5.11 2.76-8.08.66-1.45 1.37-2.78 2.09-3.98 2.69.74 5.5 1.19 8.39 1.31.47 2.3.86 4.87 1.04 7.68.28 4.18.06 7.88-.34 10.94-2.19.43-3.84 2.19-3.84 4.29 0 2.42 2.19 4.39 4.91 4.39 2.71 0 4.9-1.97 4.9-4.39 0-2.09-1.64-3.85-3.82-4.29-.37-3.12-.57-6.81-.36-10.94.14-2.78.46-5.35.85-7.67 3.03-.11 5.96-.59 8.77-1.37.24.42.47.85.7 1.3 1.53 2.95 2.34 5.72 2.79 7.94-1.95 1.15-2.95 3.38-2.24 5.37.79 2.29 3.52 3.39 6.07 2.47 2.55-.92 3.97-3.52 3.16-5.8-.71-2.03-2.93-3.13-5.21-2.71a21.392 21.392 0 01-2.67-8.08c-.06-.43-.1-.86-.12-1.28a38.19 38.19 0 008.77-4.42 49.69 49.69 0 015.4 5.2c2.81 3.13 4.86 6.22 6.33 8.85-1.49 1.7-1.75 4.12-.49 5.8 1.47 1.92 4.38 2.12 6.53.45 2.14-1.67 2.7-4.59 1.25-6.51-1.26-1.67-3.62-2.04-5.62-1.03a60.469 60.469 0 01-6.84-8.46 57.38 57.38 0 01-3.73-6.41 39.94 39.94 0 003.12-2.84c1.62-1.65 3.1-3.43 4.41-5.34 2.42.68 5.22 1.68 8.18 3.19a45.22 45.22 0 017.16 4.52c-.73 2.16-.04 4.49 1.76 5.53 2.08 1.2 4.85.24 6.19-2.14 1.35-2.39.75-5.29-1.33-6.5-1.81-1.05-4.17-.45-5.62 1.32-2.15-.83-4.75-2.08-7.44-4.01a33.69 33.69 0 01-6.44-5.98c1.03-1.96 1.9-4.03 2.6-6.19 1.16.05 2.39.15 3.66.34 3.27.5 6 1.44 8.1 2.38-.18 2.3 1.1 4.4 3.12 4.93 2.32.6 4.75-1.06 5.43-3.72.67-2.66-.66-5.31-2.98-5.91-2.04-.53-4.16.69-5.11 2.81-2.22-.19-5.08-.68-8.2-1.91-1.18-.47-2.27-.99-3.27-1.53.5-2 .85-4.05 1.03-6.15a79 79 0 0117.19.43c.38 2.21 2.06 3.9 4.11 3.96 2.39.07 4.4-2.1 4.47-4.84.07-2.75-1.8-5.03-4.19-5.1z" fill="#128E5A"/></g></g><defs><filter id="filter0_d" x="-141" y="737" width="287" height="297" filterUnits="userSpaceOnUse" color-interpolation-filters="sRGB"><feFlood flood-opacity="0" result="BackgroundImageFix"/><feColorMatrix in="SourceAlpha" values="0 0 0 0 0 0 0 0 0 0 0 0 0 0 0 0 0 0 127 0"/><feOffset dy="2"/><feGaussianBlur stdDeviation="2.5"/><feColorMatrix values="0 0 0 0 0 0 0 0 0 0 0 0 0 0 0 0 0 0 0.1 0"/><feBlend in2="BackgroundImageFix" result="effect1_dropShadow"/><feBlend in="SourceGraphic" in2="effect1_dropShadow" result="shape"/></filter><filter id="filter1_d" x="1754" y="2249" width="323" height="332" filterUnits="userSpaceOnUse" color-interpolation-filters="sRGB"><feFlood flood-opacity="0" result="BackgroundImageFix"/><feColorMatrix in="SourceAlpha" values="0 0 0 0 0 0 0 0 0 0 0 0 0 0 0 0 0 0 127 0"/><feOffset dy="4"/><feGaussianBlur stdDeviation="2"/><feColorMatrix values="0 0 0 0 0 0 0 0 0 0 0 0 0 0 0 0 0 0 0.07 0"/><feBlend in2="BackgroundImageFix" result="effect1_dropShadow"/><feBlend in="SourceGraphic" in2="effect1_dropShadow" result="shape"/></filter><filter id="filter2_d" x="1756" y="2102" width="136" height="139" filterUnits="userSpaceOnUse" color-interpolation-filters="sRGB"><feFlood flood-opacity="0" result="BackgroundImageFix"/><feColorMatrix in="SourceAlpha" values="0 0 0 0 0 0 0 0 0 0 0 0 0 0 0 0 0 0 127 0"/><feOffset dy="4"/><feGaussianBlur stdDeviation="2"/><feColorMatrix values="0 0 0 0 0 0 0 0 0 0 0 0 0 0 0 0 0 0 0.07 0"/><feBlend in2="BackgroundImageFix" result="effect1_dropShadow"/><feBlend in="SourceGraphic" in2="effect1_dropShadow" result="shape"/></filter></defs></svg>