<svg width="1173" height="805" fill="none" xmlns="http://www.w3.org/2000/svg"><mask id="a" maskUnits="userSpaceOnUse" x="0" y="0" width="1173" height="805"><path fill="#C4C4C4" d="M0 0h1173v805H0z"/></mask><g mask="url(#a)"><path d="M542.104 656.386c-35.171 20.256-72.039 33.43-114.017 33.258-46.789-.196-93.172-31.474-122.484-65.802-10.891-12.75-20.415-27.486-22.623-44.079-5.086-38.335 30.125-49.239 61.829-48.753 17.87.266 35.153 5.2 52.243 10.092 28.373 8.131 60.014 8.856 86.633 22.478 8.935 4.588 16.152 10.751 26.046 13.461 15.392 4.221 32.109 4.466 47.769 8.002 13.375 3.045 28.85 9.263 31.373 22.693 2.57 13.777-10.22 25.226-21.874 33.056-8.245 5.568-16.514 10.784-24.895 15.594z" fill="url(#paint0_linear)"/><path d="M293.8 202.934C334.798 93.091 458.155 22.904 574.386 32.08c56.049 4.434 108.249 29.407 157.407 56.56 43.329 23.929 86.233 50.675 120.646 86.633 23.495 24.543 43.703 55.905 59.886 85.837 24.213 44.824 28.069 109.249-35.141 119.883-14.83 2.497-28.718.353-43.467-.889-11.933-1.012-22.188 3.844-34.077 4.828-29.922 2.485-60.269-1.31-89.551-7.282-59.682-12.196-116.976-34.57-177.41-43.272a393.699 393.699 0 00-148.565 7.061c-20.51 4.969-41.715 11.659-62.299 7.001-50.739-11.502-45.348-77.216-36.869-115.511a219.822 219.822 0 018.854-29.995z" fill="url(#paint1_linear)"/><path d="M793.509 97.321c12.06 6.499 56.821 21.351 50.553-7.366-1.571-7.151-6.504-13.264-12.189-17.395-6.508-4.746-12.991-6.486-18.638-12.488a170.218 170.218 0 00-22.172-19.603c-16.151-12.147-34.1-22.633-53.231-24.588-13.417-1.366-34.041 4.834-36.029 22.021-2.902 25.023 34.649 20.316 47.841 25.958 12.514 5.334 21.842 17.47 32.871 26.232a73.478 73.478 0 0010.994 7.23z" fill="url(#paint2_linear)"/><path d="M589.693 110.421c25.597 7.663 47.206 23.21 71.491 34.052 40.431 18.046 88.299 12.076 131.742 20.886 44.3 8.995 81.421 30.716 105.265 69.258 30.792 49.745 48.249 113.579 47.022 172.743-1.358 65.128-29.856 115.123-79.462 155.931-49.577 40.784-108.763 68.613-170.249 86.378a507.63 507.63 0 01-17.883 4.823c-134.774 33.713-326.056 30.218-407.516-103.017a277.24 277.24 0 01-2.208-3.678 215.905 215.905 0 01-20.448-47.422c-17.489-58.684-23.171-126.782-15.958-187.556 4.842-40.912 29.832-72.811 56.176-103.176 37.013-42.659 87.188-71.277 140.672-88.362 39.606-12.65 84.675-24.738 126.558-18.68a239.108 239.108 0 0134.798 7.82z" fill="url(#paint3_linear)"/><path d="M903.258 525.893c-23.657 32.903-51.792 60.051-90.106 77.139-42.707 19.043-97.909 9.603-138.821-9.628-15.199-7.142-29.975-16.654-38.854-30.863-20.5-32.835 7.064-57.234 36.149-69.816 16.39-7.099 34.177-9.704 51.771-12.268 29.215-4.25 58.34-16.587 88.228-15.113 10.04.509 19.165 3.159 29.301 1.563 15.769-2.478 31.1-9.122 46.83-12.334 13.446-2.721 30.117-3.414 37.974 7.785 8.044 11.495 1.13 27.18-6.246 39.101-5.206 8.46-10.581 16.609-16.226 24.434z" fill="url(#paint4_linear)"/><path d="M507.432 347.013c-.341 0-.684-.108-.977-.333-.267-.209-6.596-5.189-11.429-15.348-4.432-9.317-8.368-24.935-1.96-46.468 4.346-14.607 8.702-24.992 12.543-34.159 6.974-16.632 12.014-28.649 12.421-54.126.013-.872.659-1.62 1.613-1.559a1.588 1.588 0 011.569 1.61c-.417 26.085-5.823 38.977-12.667 55.299-3.811 9.091-8.129 19.393-12.428 33.838-11.686 39.256 12.053 58.225 12.295 58.409a1.587 1.587 0 01-.98 2.837zM637.799 96.681c-.238 17.27-14.483 31.081-31.82 30.843-17.334-.237-31.194-14.429-30.958-31.702.238-17.27 14.486-31.078 31.82-30.843 17.334.238 31.197 14.433 30.958 31.702z" fill="#000C3E"/><path d="M504.394 335.842s9.657 18.699 47.414 24.465c37.755 5.763 66.941-8.489 96.216 1.312 29.275 9.805 70.883-4.853 78.904-17.2 8.024-12.346 3.073-146.867-20.351-168.889-23.424-22.021-143.785-38.016-169.144-10.999-25.358 27.02-49.883 156.545-33.039 171.311z" fill="#000C3E"/><path d="M718.938 224.549c-.783 56.915-47.729 102.422-104.86 101.642-57.128-.779-102.805-47.554-102.023-104.47.786-56.916 47.733-102.423 104.861-101.643 57.128.783 102.805 47.555 102.022 104.471z" fill="#000C3E"/><path d="M530.966 221.267s7.232 124.967 92.235 128.359c85 3.392 80.714-172.82 49.6-188.856-31.114-16.034-159.214-9.856-141.835 60.497z" fill="#FFCEB0"/><path d="M618.744 245.979s17.127 38.112 13.017 40.762c-4.111 2.647-16.329 2.482-19.686-.269-3.356-2.752-.063-44.642 6.669-40.493z" fill="#F5A473"/><path d="M593.633 259.464c-.111 4.387-3.77 7.855-8.173 7.744-4.404-.108-7.885-3.753-7.773-8.14.108-4.387 3.767-7.855 8.173-7.747 4.404.111 7.885 3.756 7.773 8.143zm68.377-5.361c-.111 4.387-3.77 7.855-8.174 7.744-4.403-.108-7.884-3.753-7.772-8.14.108-4.387 3.767-7.855 8.173-7.747 4.404.11 7.885 3.756 7.773 8.143zm-65.808-101.114s-30.084 15.384-35.216 43.044c-5.135 27.661-.461 98.067-32.781 95.598 0 0-65.754-138.001 67.997-138.642m16.054.219c-2.714 2.035 31.423 1.145 51.503 24.256 20.083 23.112 26.122 81.917 29.167 82.938 3.045 1.024 13.331-73.358-8.597-95.113-21.929-21.752-56.629-23.66-72.073-12.081z" fill="#41294A"/><path d="M685.725 265.599s7.378-31.503 21.817-20.693c14.438 10.809 2.396 43.83-11.544 47.13-13.936 3.3-17.626-10.115-10.273-26.437zm-133.979-1.831s-6.51-31.692-21.241-21.282c-14.728 10.41-3.599 43.751 10.242 47.431 13.844 3.677 17.9-9.63 10.999-26.149z" fill="#FFCEB0"/><path d="M650.183 226.073s15.012-7.89 24.261 3.446c8.136 9.966-10.433 1.889-17.267 3.179-6.838 1.294-15.867.729-6.994-6.625zm-59.656 2.872s-15.397-7.116-24.054 4.673c-7.614 10.368 10.516 1.356 17.41 2.301 6.892.941 15.884-.083 6.644-6.974zm54.205 81.084s-9.793-14.743-20.388-13.814c-10.599.932-18.722 14.521-20.147 15.092 0 0 16.539 7.737 40.535-1.278" fill="#41294A"/><path d="M585.172 241.771c-13.258 0-24.193 10.753-24.378 23.965-.086 6.485 2.364 12.622 6.908 17.276 4.543 4.65 10.63 7.259 17.143 7.348l.34.003c13.258 0 24.194-10.749 24.375-23.961.185-13.393-10.601-24.44-24.047-24.627l-.341-.004zm.013 51.762l-.385-.003c-7.362-.099-14.244-3.053-19.38-8.309-5.135-5.259-7.906-12.194-7.808-19.53.207-14.936 12.571-27.089 27.56-27.089l.385.003c15.2.209 27.392 12.698 27.185 27.838-.203 14.936-12.568 27.09-27.557 27.09zm68.853-57.253c-13.261 0-24.197 10.752-24.378 23.965-.185 13.389 10.604 24.44 24.047 24.623l.341.004c13.261 0 24.197-10.75 24.378-23.962.089-6.489-2.364-12.625-6.904-17.279-4.544-4.647-10.631-7.259-17.144-7.348l-.34-.003zm.01 51.761l-.382-.003c-15.203-.209-27.395-12.698-27.188-27.838.207-14.936 12.568-27.09 27.56-27.09l.385.003c7.363.099 14.245 3.053 19.377 8.309 5.138 5.259 7.91 12.194 7.808 19.529-.207 14.937-12.571 27.09-27.56 27.09z" fill="#FFFCF6"/><path d="M559.887 261.756a1.63 1.63 0 01-.548-.095l-10.204-3.734a1.588 1.588 0 01-.944-2.038 1.6 1.6 0 012.042-.938l10.201 3.731a1.586 1.586 0 01.945 2.038 1.587 1.587 0 01-1.492 1.036zm118.986-7.203a1.587 1.587 0 01-.474-3.1l13.946-4.337a1.59 1.59 0 011.992 1.04 1.584 1.584 0 01-1.044 1.988l-13.946 4.339c-.155.048-.318.07-.474.07z" fill="#FFFCF6"/><path d="M611.759 182.268s.029 31.614 18.931 37.323c18.9 5.712 67.52 3.192 67.027-4.533-4.452-69.748-37.36-66.239-64.844-75.165-48.2-15.65-87.622 62.758-81.72 81.289 5.902 18.528 46.584 1.227 55.292-1.379 8.706-2.609 3.882-24.091 5.314-37.535" fill="#000C3E"/><path opacity=".21" d="M563.015 289.039s42.88-24.649 61.7-21.203c18.82 3.449 51.85 3.987 53.345 10.714 1.499 6.723-41.875 3.693-55.216 4.986-13.341 1.294-64.557 16.595-59.829 5.503z" fill="#DB5C5D"/><path d="M587.013 272.545a1.584 1.584 0 01-.599-3.053c4.312-1.749 5.11-3.128 5.117-3.141.283-.831 1.155-1.217 1.995-.923.83.283 1.247 1.246.964 2.077-.201.583-1.286 2.656-6.879 4.923a1.603 1.603 0 01-.598.117zm65.511-3.356c-1.282 0-3.446-.386-6.844-2.038a1.577 1.577 0 01-.735-2.117 1.594 1.594 0 012.125-.729c4.191 2.031 5.75 1.692 5.769 1.692.811-.339 1.677.057 2.02.863.344.805-.095 1.756-.907 2.101-.21.089-.661.228-1.428.228z" fill="#DB5C5D"/><path d="M611.128 266.552a1.584 1.584 0 01-.159-3.16l17.073-1.737c.856-.108 1.654.542 1.743 1.414a1.584 1.584 0 01-1.422 1.737l-17.073 1.737a1.466 1.466 0 01-.162.009z" fill="#FFFCF6"/><path d="M587.487 127.098a1.55 1.55 0 01-.693-.162c-9.027-4.371-14.487-10.606-16.237-18.534-3.881-17.603 11.903-37.079 12.578-37.9a1.591 1.591 0 012.236-.222c.681.555.783 1.55.226 2.229-.156.19-15.485 19.124-11.931 35.221 1.53 6.929 6.414 12.432 14.518 16.359a1.582 1.582 0 01-.697 3.009zm36.33 4.711c-.442 0-.881-.184-1.196-.539a1.58 1.58 0 01.146-2.238c.184-.162 18.429-16.325 17.576-32.787-.366-7.084-4.276-13.313-11.623-18.515a1.579 1.579 0 01-.375-2.21 1.596 1.596 0 012.217-.37c8.18 5.788 12.543 12.835 12.959 20.943.923 17.996-17.856 34.622-18.657 35.323a1.592 1.592 0 01-1.047.393zm94.63 208.109c-.461 0-.919-.196-1.234-.586a1.58 1.58 0 01.229-2.228c.21-.172 21.136-17.584 15.075-45.13-2.336-10.619-6.43-22.304-10.767-34.673-7.519-21.45-15.295-43.633-15.928-65.138a1.59 1.59 0 011.546-1.632c.824.028 1.61.662 1.636 1.537.62 21.016 8.311 42.965 15.749 64.187 4.369 12.464 8.496 24.234 10.872 35.037 6.488 29.496-15.946 48.088-16.176 48.271a1.59 1.59 0 01-1.002.355z" fill="#000C3E"/><path d="M724.098 226.712c-.051 0-.105-.004-.159-.007a1.588 1.588 0 01-1.426-1.734c2.749-27.733-3.108-50.243-17.404-66.913-23.019-26.833-60.418-29.296-60.79-29.319a1.582 1.582 0 01-1.495-1.676c.047-.872.802-1.563 1.677-1.487.391.022 39.138 2.571 63.026 30.421 14.881 17.352 20.99 40.664 18.152 69.285a1.586 1.586 0 01-1.581 1.43z" fill="#000C3E"/><path d="M610.154 313.158s15.854-11.082 30.013-1.582c0 0-16.532 6.172-30.013 1.582zm10.49 11.378c-1.565 0-2.911-.016-3.741-.029a1.588 1.588 0 01-1.566-1.61c.013-.875.614-1.585 1.617-1.56 6.007.079 13.185-.066 14.302-.488a1.597 1.597 0 012.055.91 1.576 1.576 0 01-.904 2.044c-1.591.615-7.496.733-11.763.733zM543.48 281.16c-.143 0-.286-.019-.429-.06a1.583 1.583 0 01-1.105-1.953c4.353-15.542-7.203-25.549-7.321-25.65a1.582 1.582 0 01-.181-2.235 1.593 1.593 0 012.243-.178c.541.457 13.22 11.441 8.323 28.919a1.59 1.59 0 01-1.53 1.157zm148.44 3.786c-.035 0-.067 0-.105-.003a1.592 1.592 0 01-1.486-1.684c1.19-18.394 10.038-28.227 10.417-28.636a1.59 1.59 0 012.243-.102c.649.59.694 1.591.105 2.238-.086.095-8.476 9.488-9.586 26.703a1.594 1.594 0 01-1.588 1.484z" fill="#DB5C5D"/><path d="M659.972 336.691s5.059 56.383-1.654 65.299c-6.714 8.921-49.234 2.229-60.425 0-11.19-2.228-11.212-95.48-8.953-89.181 18.683 52.021 69.744 5.984 71.032 23.882z" fill="#FFCEB0"/><path d="M592.986 342.268s30.166 14.445 64.459-3.04c0 0 2.666 21.003 0 25.847-2.663 4.844-56.985 8.305-67.679-15.567 0 0 .134-8.277 3.22-7.24" fill="#F5A473"/><path d="M428.249 783.956h390.373s19.94-338.139-28.96-374.91c-48.903-36.774-264.176-18.405-314.858 13.006-50.682 31.41-46.555 361.904-46.555 361.904z" fill="#FB4C47"/><path d="M623.153 395.308s-15.047 129.979-8.479 148.07c6.563 18.09-1.846 98.298-4.519 108.724-2.675 10.426-83.781 14.854-104.71 6.514-20.93-8.34 5.332-233.152 17.047-274.745 11.719-41.595 99.372-17.089 100.661 11.437z" fill="#05BA6E"/><path d="M384.969 236.058s32.629 62.26 55.496 62.837c22.87.576 99.989-92.989 128.424-93.953 28.439-.961 52.858 1.788 52.97-4.964.111-6.755-39.552-14.128-39.552-14.128s57.36 3.639 45.495-2.612c-11.861-6.251-40.287-11.872-40.287-11.872s41.226 1.658 41.525-2.735c.299-4.394-42.922-10.864-42.922-10.864s52.594-1.673 42.976-8.882c-9.622-7.208-27.729-4.079-76.705 3.373-48.98 7.453-159.787 72.597-167.42 83.8z" fill="#FFCEB0"/><path d="M442.214 233.075s52.196 30.976 29.469 66.08c-24.2 37.379-22.845 26.275-27.029 41.399-4.187 15.123 64.787 44.578 67.924 57.524 3.137 12.942-29.377 172.132-59.833 165.598-26.51-5.683-173.83-88.975-195.002-172.211-16.411-64.529 117.359-222.368 184.471-158.39z" fill="#FB4C47"/><path d="M578.845 596.179s-57.834 126.929-36.571 143.926c21.264 16.994 38.398 5.922 57.202 16.953 18.807 11.031 36.847 5.516 51.954-4.083 15.107-9.602-24.21-135.881-40.472-147.904-16.261-12.027-29.182-15.488-32.113-8.892z" fill="#fff"/><path d="M771.001 400.013s31.098 3.782 55.509 48.32c18.314 33.416 53.794 228.675 0 256.497-53.794 27.819-104.249 13.267-123.774-5.481-19.527-18.748 15.214-115.368 38.372-122.58 23.16-7.21 29.893-176.756 29.893-176.756z" fill="#FB4C47"/><path d="M781.071 397.02s1.454-9.027-43.329-28.335c-35.737-15.409-66.349 10.597-120.862 13.396-54.512 2.802-49.593-18.725-88.153-8.721-59.504 15.435-12.128 54.294 7.045 58.656 19.173 4.362 83.409 111.945 245.299-34.996z" fill="#05BA6E"/><path d="M624.78 288.53s-.166 3.677 1.953 4.01c2.119.333 6.036-.847 5.027-5.801 0 0-5.313 1.702-6.98 1.791z" fill="#fff"/><path d="M845.514 593.111a3.18 3.18 0 01-3.169-2.825c-2.65-3.052-20.446-9.446-32.317-13.713-23.519-8.454-34.066-12.635-36.335-17.209-1.925-3.877-1.063-9.469.029-16.547 1.727-11.202 3.881-25.15-3.259-38.584-12.329-23.2-11.155-57.613-11.097-59.065.07-1.749 1.587-3.151 3.299-3.046a3.18 3.18 0 013.061 3.287c-.016.343-1.161 34.178 10.363 55.857 8.123 15.292 5.695 31.024 3.923 42.512-.85 5.499-1.648 10.695-.614 12.777 1.928 2.964 20.5 9.64 32.788 14.056 27.693 9.953 37.309 13.957 36.472 19.78a3.175 3.175 0 01-3.144 2.72zM762.5 567.048c-.277 0-.557-.035-.84-.111-10.512-2.856-26.844-5.829-27.006-5.861a3.166 3.166 0 01-2.562-3.683c.315-1.725 1.967-2.885 3.701-2.552.677.12 16.761 3.049 27.541 5.978a3.17 3.17 0 012.233 3.893 3.177 3.177 0 01-3.067 2.336zm57.153 156.796c-.05 0-.098 0-.146-.003-58.894-2.66-117.571-27.654-120.744-51.429-.995-7.471-1.715-11.208-2.16-13.056-1.19-.59-1.912-1.852-1.699-3.231.404-2.612 2.179-3.537 3.589-3.537h.035c3.204.035 4.267 1.905 6.545 18.991 2.462 18.455 55.884 43.272 114.72 45.928a3.175 3.175 0 013.036 3.31 3.176 3.176 0 01-3.176 3.027z" fill="#B31B1F"/><path d="M714.077 667.74a3.171 3.171 0 01-3.105-3.871c.137-.612 14.053-61.727 27.06-105.691a3.184 3.184 0 013.952-2.143 3.165 3.165 0 012.151 3.937c-12.95 43.767-26.819 104.686-26.956 105.298a3.184 3.184 0 01-3.102 2.47zM438 535.004a3.172 3.172 0 01-3.149-3.639c.327-2.188 8.183-53.841 18.963-78.012 10.48-23.488 15.845-47.304 15.899-47.542.375-1.708 2.071-2.776 3.796-2.409a3.173 3.173 0 012.415 3.785c-.22.995-5.559 24.675-16.294 48.744-10.43 23.384-18.41 75.846-18.489 76.372a3.176 3.176 0 01-3.141 2.701zM389.497 354.66c-8.469 0-17.961-.514-28.409-1.839a3.172 3.172 0 01-2.756-3.544c.22-1.737 1.852-2.945 3.557-2.745 31.818 4.039 54.421.32 66.072-2.212-5.803-1.849-13.933-3.649-22.046-3.208-18.257.855-44.971-15.393-46.1-16.091a3.162 3.162 0 01-1.034-4.362 3.184 3.184 0 014.378-1.03c.261.159 26.192 15.942 42.428 15.149 15.467-.811 33.784 6.051 35.448 8.996.595 1.05.547 2.413-.13 3.411-.63.923-1.935 1.477-3.08 1.408-.503.057-1.992.412-3.44.754-6.958 1.661-22.294 5.31-44.888 5.313zm78.211-68.129a3.182 3.182 0 01-2.866-1.788c-.08-.162-8.025-16.239-21.553-22.611-15.359-7.237-32.728-32.46-33.46-33.528a3.165 3.165 0 01.837-4.406 3.195 3.195 0 014.42.834c.171.247 17.127 24.864 30.926 31.366 15.591 7.351 24.2 24.845 24.56 25.584a3.161 3.161 0 01-1.483 4.229c-.445.218-.916.32-1.381.32z" fill="#B31B1F"/><path d="M615.497 470.75c-.118 0-.238-.013-.356-.041a1.583 1.583 0 01-1.197-1.896c.077-.336 7.665-33.385 9.886-50.173 3.459-26.174-8.307-35.303-8.425-35.392a1.588 1.588 0 011.887-2.552c.55.403 13.417 10.169 9.691 38.356-2.237 16.94-9.86 50.135-9.936 50.465a1.587 1.587 0 01-1.55 1.233zm-93.834-47.666l-3.16-.364s2.469-21.4 3.758-31.921c1.301-10.613 4.34-17.86 4.47-18.164a1.596 1.596 0 012.084-.846 1.59 1.59 0 01.847 2.079c-.032.07-3.001 7.171-4.242 17.317-1.288 10.512-3.757 31.896-3.757 31.899z" fill="#08824F"/><path d="M612.008 774.501c-18.145 0-28.123-.596-41.932-1.42-17.764-1.062-42.088-2.514-98.933-3.395a3.172 3.172 0 01-3.131-3.218c.029-1.75 1.575-3.208 3.23-3.122 56.985.881 81.392 2.342 99.213 3.408 13.7.814 23.595 1.407 41.553 1.407 22.479 0 42.645-2.454 62.149-4.825 17.121-2.085 33.29-4.051 50.621-4.434 36.969-.812 64.596-.003 64.869 0 1.757.057 3.138 1.518 3.084 3.265-.055 1.749-1.537 3.046-3.274 3.074-.274-.009-27.745-.821-64.536 0-17.015.375-33.035 2.324-49.994 4.388-19.692 2.396-40.052 4.872-62.919 4.872z" fill="#B31B1F"/><path d="M756.143 732.205c-1.581 0-3.165-.706-4.546-2.786-4.299-6.47-5.597-7.002-13.908-5.728-7.518 1.17-10.487-4.14-12.453-7.649-.655-1.173-1.279-2.279-1.823-2.707-1.464-1.151-5.12.231-6.666 1.081l-1.543-2.771c.675-.374 6.669-3.559 10.182-.798 1.04.821 1.775 2.133 2.628 3.648 1.899 3.382 3.865 6.866 9.188 6.064 9.514-1.464 12.056-.396 17.048 7.11 1.324 1.997 2.469 1.725 5.998-.326 2.679-1.566 6.742-3.928 9.771.288l-2.584 1.845c-1.18-1.632-2.249-1.338-5.584.602-1.594.929-3.649 2.127-5.708 2.127z" fill="#fff"/><path d="M719.124 582.915s-75.999-27.378-108.971-13.374c-32.972 14.002-60.144 50.1-55.111 52.487 5.034 2.39 31.97-18.423 31.97-18.423s-27.468 27.654-22.374 30.421c5.094 2.768 31.563-11.998 31.563-11.998s-18.476 19.679-10.541 21.185c7.935 1.505 24.948-14.709 42.689-15.317 17.745-.612 40.106 13.358 62.289 17.292 22.18 3.93 28.486-62.273 28.486-62.273z" fill="#FFCEB0"/><path d="M833.818 568.723a3.18 3.18 0 01-.595-.057c-.223-.038-22.603-4.254-49.358-9.674a3.171 3.171 0 01-2.485-3.738 3.172 3.172 0 013.751-2.472c26.711 5.408 49.053 9.614 49.276 9.658a3.165 3.165 0 012.532 3.703 3.175 3.175 0 01-3.121 2.58z" fill="#B31B1F"/><path fill-rule="evenodd" clip-rule="evenodd" d="M621.41 70.513c-.831 0-1.734.096-2.713.289-2.385.476-3.93 1.631-4.858 3.635-4.137 8.92 4.585 30.166 10.817 42.717 3.851-13.924 8.466-37.198 1.945-44.532-1.256-1.41-2.965-2.11-5.191-2.11zm3.448 57.07c.094.017.189.03.284.038a2.922 2.922 0 002.03.021c4.25-1.544 41.672-15.526 46.333-31.638 1.121-3.875.332-7.695-2.28-11.042-4.443-5.698-9.243-6.376-12.489-5.945-9.212 1.224-18.278 13.08-24.928 24.344 2.352-12.83 3.258-27.645-2.886-34.555-2.167-2.44-6.249-5.054-13.354-3.644-4.17.828-7.274 3.205-8.97 6.865-6.276 13.543 8.156 42.705 12.973 51.754-6.068 1.166-12.171 1.43-18.008 1.034-12.581-.852-23.732-4.749-30.389-9.013l-2.373 3.705c7.366 4.718 19.253 8.804 32.465 9.698 6.935.47 14.29.063 21.592-1.622zm35.469-42.922c-.273 0-.55.017-.827.059-9.756 1.293-21.543 21.906-27.775 34.947 12.955-5.434 33.503-15.815 36.233-25.253.613-2.126.201-4.004-1.29-5.92-2.007-2.573-4.086-3.833-6.341-3.833z" fill="#FFD310"/><path d="M198.27 179.088h113.272a23.999 23.999 0 0118.675 8.926L363.46 229.2a24.003 24.003 0 0019.394 8.916l212.996-6.378" stroke="#FFB2B1" stroke-width="5" stroke-linejoin="round"/><path d="M210.361 179.601c0 5.018-4.082 9.085-9.118 9.085-5.036 0-9.119-4.067-9.119-9.085 0-5.017 4.083-9.084 9.119-9.084s9.118 4.067 9.118 9.084z" fill="#FF383D"/><path d="M12 179.702c0-38.865 31.625-70.372 70.635-70.372 39.01 0 70.631 31.507 70.631 70.372 0 38.864-31.621 70.371-70.631 70.371-39.01 0-70.634-31.507-70.634-70.371z" fill="#FFE1E2"/><path d="M82.33 92.153c48.773 0 88.31 39.391 88.31 87.982 0 48.59-39.537 87.984-88.31 87.984v43.449" stroke="#FFD6D7" stroke-width="2.4" stroke-miterlimit="10"/><path d="M75.068 313.763c0-3.997 3.25-7.235 7.262-7.235s7.262 3.238 7.262 7.235c0 3.997-3.25 7.235-7.262 7.235-4.011 0-7.262-3.238-7.262-7.235z" fill="#F2AEB0"/><path d="M54.158 177.626v3.749h5.414v2.235h-5.414v5.768H51.58v-14.104h9.023v2.352h-6.445zm11.236 0v3.524h5.79v2.245h-5.79v3.631h6.446v2.352h-9.024v-14.104h9.024v2.352h-6.446zm10.678-2.352l2.041 5.22c.308.824.677 1.855 1.106 3.094.437 1.232.742 2.113.914 2.643.193-.53.505-1.418.934-2.664.437-1.246.81-2.278 1.117-3.094l2.02-5.199h2.75l-5.479 14.104h-2.653l-5.554-14.104h2.804zm15.254 2.352v3.524h5.79v2.245h-5.79v3.631h6.445v2.352h-9.023v-14.104h9.023v2.352h-6.445zm9.174-2.352h5.596c1.719 0 3.023.383 3.911 1.149.895.759 1.342 1.844 1.342 3.255 0 .981-.229 1.819-.687 2.514-.451.687-1.089 1.185-1.912 1.493l2.685 5.693h-2.879l-2.374-5.253h-3.104v5.253H100.5v-14.104zm5.596 6.606c.838 0 1.472-.2 1.902-.601.429-.409.644-.935.644-1.58 0-.644-.218-1.163-.655-1.557-.43-.401-1.06-.602-1.891-.602h-3.018v4.34h3.018z" fill="#FF383D"/><path d="M651.77 292.959h168.839a24 24 0 0121.094 12.551l31.233 57.546a24.002 24.002 0 0021.094 12.552h82.81" stroke="#FFB2B1" stroke-width="5" stroke-linejoin="round"/><path d="M980.944 375.509c0 5.018-4.082 9.085-9.118 9.085-5.036 0-9.118-4.067-9.118-9.085 0-5.017 4.082-9.084 9.118-9.084 5.036 0 9.118 4.067 9.118 9.084z" fill="#FF383D"/><path opacity=".15" d="M1006.73 393.902c0-38.865 31.63-70.371 70.64-70.371 39.01 0 70.63 31.506 70.63 70.371 0 38.865-31.62 70.371-70.63 70.371-39.01 0-70.64-31.506-70.64-70.371z" fill="#FF383D"/><path d="M1043.72 374.496h5.6c1.72 0 3.02.383 3.91 1.15.89.759 1.34 1.844 1.34 3.255 0 .981-.23 1.819-.69 2.513-.45.688-1.09 1.185-1.91 1.493l2.69 5.694h-2.88l-2.38-5.253h-3.1v5.253h-2.58v-14.105zm5.6 6.607c.83 0 1.47-.201 1.9-.602.43-.408.64-.934.64-1.579 0-.644-.22-1.164-.65-1.558-.43-.401-1.06-.601-1.89-.601h-3.02v4.34h3.02zm7.61-6.607h2.58v8.916c0 1.089.31 1.88.92 2.374.62.494 1.4.742 2.36.742 1.01 0 1.81-.262 2.4-.785.6-.53.9-1.307.9-2.331v-8.916h2.57v9.024c0 1.16-.25 2.145-.76 2.954a4.83 4.83 0 01-2.09 1.815c-.89.401-1.89.602-3.02.602-1.15 0-2.16-.204-3.04-.612a4.883 4.883 0 01-2.08-1.827c-.49-.809-.74-1.786-.74-2.932v-9.024zm26.25 0v14.105h-2.42l-6.49-9.657v9.657h-2.56v-14.105h2.43l6.49 9.679v-9.679h2.55zm14.63 0v14.105h-2.42l-6.49-9.657v9.657h-2.56v-14.105h2.43l6.49 9.679v-9.679h2.55zm4.78 0l1.67 2.858c.41.716.77 1.378 1.09 1.987.31.602.51.981.58 1.139.08-.165.28-.523.58-1.075l1.14-2.051 1.67-2.858h2.88l-4.99 8.454v5.651h-2.58v-5.651l-5.02-8.454h2.98zm-39.84 29v14.105h-2.41l-6.49-9.657v9.657h-2.56v-14.105h2.43l6.49 9.679v-9.679h2.54zm17.26 7.047c0 1.418-.33 2.686-.97 3.803a6.81 6.81 0 01-2.67 2.61c-1.14.623-2.41.935-3.82.935-1.41 0-2.68-.308-3.81-.924a6.592 6.592 0 01-2.64-2.6c-.64-1.117-.96-2.384-.96-3.802 0-1.425.32-2.693.96-3.803a6.668 6.668 0 012.64-2.61c1.13-.623 2.41-.935 3.83-.935 1.41 0 2.68.312 3.81.935a6.803 6.803 0 012.66 2.599c.64 1.103.97 2.367.97 3.792zm-2.73 0c0-.959-.2-1.812-.6-2.556a4.363 4.363 0 00-1.69-1.741c-.72-.422-1.52-.634-2.42-.634-.91 0-1.72.212-2.45.634-.71.416-1.27.996-1.68 1.741-.41.744-.61 1.604-.61 2.578 0 .952.2 1.804.61 2.556.41.745.97 1.325 1.68 1.741.73.415 1.54.623 2.45.623.9 0 1.7-.208 2.42-.623a4.363 4.363 0 001.69-1.741c.4-.752.6-1.611.6-2.578zm4.57-3.04c0-.866.21-1.622.63-2.266.42-.645 1.01-1.143 1.77-1.494.77-.351 1.65-.526 2.64-.526.98 0 1.86.172 2.62.516.77.343 1.37.83 1.8 1.461.43.63.64 1.364.64 2.202h-2.65c-.02-.602-.26-1.085-.72-1.451-.46-.372-1.06-.558-1.82-.558-.68 0-1.24.172-1.65.516-.41.336-.61.773-.61 1.31 0 .53.18.92.53 1.171.37.251.85.448 1.45.591l2.31.569c1.06.251 1.91.713 2.56 1.386.65.666.98 1.525.98 2.578 0 .881-.22 1.651-.67 2.31-.43.658-1.06 1.17-1.87 1.536-.8.358-1.73.537-2.8.537-1.58 0-2.87-.383-3.87-1.15-.99-.773-1.52-1.822-1.61-3.147h2.65c.03.659.31 1.178.83 1.558.52.372 1.2.558 2.04.558.81 0 1.45-.172 1.9-.515.46-.344.69-.817.69-1.418 0-.516-.16-.906-.48-1.171-.32-.265-.75-.462-1.27-.591l-2.36-.57c-1.16-.279-2.06-.744-2.7-1.396-.64-.659-.96-1.507-.96-2.546zm15.4-1.654v3.523h5.79v2.245h-5.79v3.631h6.44v2.353h-9.02v-14.105h9.02v2.353h-6.44z" fill="#FF383D"/><path d="M1082.03 306.129c48.77 0 88.31 39.391 88.31 87.984 0 48.591-39.54 87.982-88.31 87.982v43.451" stroke="#FFD6D7" stroke-width="2.4" stroke-miterlimit="10"/><path d="M1074.77 527.741c0-3.997 3.25-7.236 7.26-7.236s7.26 3.239 7.26 7.236c0 3.996-3.25 7.235-7.26 7.235s-7.26-3.239-7.26-7.235z" fill="#F2AEB0"/><path opacity=".15" d="M12 663.894c0-38.865 31.625-70.371 70.635-70.371 39.01 0 70.631 31.506 70.631 70.371 0 38.865-31.621 70.371-70.631 70.371-39.01 0-70.634-31.506-70.634-70.371z" fill="#FF383D"/><g filter="url(#filter0_d)"><path d="M32.822 660.462c1.375 0 2.6.301 3.674.903a6.386 6.386 0 012.524 2.524c.602 1.074.903 2.295.903 3.663 0 1.361-.298 2.575-.892 3.642a6.298 6.298 0 01-2.514 2.481c-1.074.595-2.306.892-3.695.892H27.58v-14.105h5.242zm-.226 11.752c.924 0 1.734-.193 2.428-.58a4.076 4.076 0 001.622-1.643c.38-.702.57-1.515.57-2.439 0-.938-.19-1.762-.57-2.471a4.039 4.039 0 00-1.622-1.665c-.694-.401-1.504-.601-2.428-.601h-2.438v9.399h2.438zm10.345-11.752l1.676 2.858c.408.716.77 1.378 1.085 1.987.315.602.508.981.58 1.139.086-.165.28-.523.58-1.075.308-.558.688-1.242 1.139-2.051l1.675-2.858h2.88l-4.996 8.454v5.651h-2.578v-5.651l-5.016-8.454h2.975zm17.198 0c1.483 0 2.647.419 3.492 1.257.852.838 1.278 1.959 1.278 3.362 0 .91-.193 1.716-.58 2.417a4.093 4.093 0 01-1.676 1.633c-.723.394-1.575.591-2.557.591h-3.168v4.845h-2.579v-14.105h5.79zm-.526 7.047c.867 0 1.515-.233 1.944-.698.437-.473.656-1.064.656-1.773 0-.644-.219-1.188-.656-1.632-.43-.452-1.056-.677-1.88-.677h-2.75v4.78h2.686zm7.015-3.04c0-.866.207-1.622.623-2.267.422-.644 1.013-1.142 1.772-1.493.767-.351 1.647-.526 2.643-.526.98 0 1.855.172 2.62.516.767.343 1.365.83 1.795 1.46.43.631.644 1.365.644 2.203h-2.653c-.014-.602-.254-1.085-.72-1.451-.458-.372-1.063-.558-1.815-.558-.688 0-1.24.172-1.654.515a1.62 1.62 0 00-.613 1.311c0 .53.18.92.537 1.171.366.251.849.448 1.45.591l2.31.569c1.053.251 1.905.713 2.557 1.386.651.666.977 1.525.977 2.578 0 .881-.222 1.651-.666 2.31-.436.658-1.06 1.17-1.869 1.536-.802.358-1.737.537-2.803.537-1.583 0-2.872-.383-3.868-1.15-.988-.773-1.525-1.822-1.611-3.147h2.653c.029.659.305 1.178.827 1.557.523.373 1.204.559 2.041.559.81 0 1.444-.172 1.902-.516.458-.343.687-.816.687-1.418 0-.515-.16-.905-.483-1.17-.322-.265-.745-.462-1.268-.591l-2.363-.57c-1.16-.279-2.059-.744-2.696-1.396-.638-.659-.956-1.508-.956-2.546zm24.277-4.007v14.105h-2.417L82 664.909v9.658h-2.557v-14.105h2.428l6.488 9.679v-9.679h2.546zm17.252 7.047c0 1.418-.322 2.686-.967 3.803a6.79 6.79 0 01-2.675 2.61c-1.131.623-2.402.935-3.813.935-1.41 0-2.682-.308-3.814-.924a6.682 6.682 0 01-2.642-2.6c-.637-1.117-.956-2.384-.956-3.802 0-1.426.319-2.693.956-3.803a6.769 6.769 0 012.642-2.611c1.132-.623 2.41-.934 3.835-.934 1.411 0 2.679.311 3.803.934a6.836 6.836 0 012.664 2.6c.645 1.103.967 2.367.967 3.792zm-2.729 0c0-.96-.2-1.812-.601-2.557a4.34 4.34 0 00-1.687-1.74c-.716-.422-1.521-.634-2.417-.634-.91 0-1.725.212-2.449.634a4.44 4.44 0 00-1.686 1.74c-.409.745-.613 1.605-.613 2.579 0 .952.204 1.804.613 2.556.408.745.97 1.325 1.686 1.74.724.416 1.54.624 2.449.624.896 0 1.701-.208 2.417-.624a4.328 4.328 0 001.687-1.74c.401-.752.601-1.611.601-2.578zm7.681-4.694v3.523h5.79v2.245h-5.79v3.631h6.445v2.353h-9.023v-14.105h9.023v2.353h-6.445zm13.052-2.353h2.621l5.231 14.105h-2.728l-1.139-3.212h-5.392l-1.193 3.212h-2.664l5.264-14.105zm3.233 8.755l-.902-2.481c-.086-.237-.322-.935-.709-2.095l-.301-.881c-.057.193-.193.598-.408 1.214a44.566 44.566 0 01-.655 1.762l-.924 2.481h3.899z" fill="#FF383D"/></g><path d="M82.332 576.497c48.773 0 88.311 39.39 88.311 87.981 0 48.594-39.538 87.984-88.31 87.984v43.449" stroke="#FFD6D7" stroke-width="2.4" stroke-miterlimit="10"/><path d="M75.07 798.107c0-3.997 3.25-7.235 7.262-7.235s7.263 3.238 7.263 7.235c0 3.994-3.251 7.235-7.263 7.235-4.011 0-7.262-3.241-7.262-7.235z" fill="#F2AEB0"/><path d="M187.74 676.316h178.316a24.002 24.002 0 0022.082-14.598l56.392-132.429a24 24 0 0122.081-14.598h207.198" stroke="#FFB2B1" stroke-width="5" stroke-linejoin="round"/><path d="M202.987 676.721c0 5.017-4.083 9.084-9.119 9.084s-9.118-4.067-9.118-9.084c0-5.018 4.082-9.085 9.118-9.085 5.036 0 9.119 4.067 9.119 9.085z" fill="#FF383D"/><path opacity=".15" d="M160.268 422.794c0-38.864-31.624-70.371-70.634-70.371-39.01 0-70.634 31.507-70.634 70.371 0 38.865 31.624 70.372 70.634 70.372 39.01 0 70.634-31.507 70.634-70.372z" fill="#FF383D"/><path d="M59.203 408.708h-4.265v11.774H52.36v-11.774h-4.308v-2.331h11.15v2.331zm1.912-2.331h2.578v5.855l6.252.021v-5.876h2.589v14.105h-2.59v-6.005h-6.251v6.005h-2.578v-14.105zm14.459 0h5.596c1.72 0 3.022.383 3.91 1.15.896.759 1.343 1.844 1.343 3.254 0 .982-.229 1.82-.687 2.514-.451.688-1.089 1.185-1.912 1.493l2.685 5.694H83.63l-2.374-5.253h-3.104v5.253h-2.578v-14.105zm5.596 6.607c.838 0 1.472-.201 1.902-.602.43-.408.644-.934.644-1.579 0-.645-.218-1.164-.655-1.558-.43-.401-1.06-.601-1.89-.601h-3.02v4.34h3.02zm21.7.44c0 1.418-.323 2.686-.967 3.803a6.796 6.796 0 01-2.675 2.61c-1.131.623-2.403.935-3.813.935-1.411 0-2.682-.308-3.814-.924a6.688 6.688 0 01-2.642-2.6c-.638-1.117-.957-2.384-.957-3.802 0-1.426.32-2.693.957-3.803a6.768 6.768 0 012.642-2.611c1.132-.623 2.41-.934 3.835-.934 1.41 0 2.678.311 3.803.934a6.849 6.849 0 012.664 2.6c.644 1.103.967 2.367.967 3.792zm-2.729 0c0-.96-.2-1.812-.601-2.557a4.345 4.345 0 00-1.687-1.74c-.716-.422-1.522-.634-2.417-.634-.91 0-1.726.212-2.45.634a4.44 4.44 0 00-1.686 1.74c-.408.745-.612 1.605-.612 2.579 0 .952.204 1.804.612 2.556.409.745.97 1.325 1.687 1.74.723.416 1.54.623 2.449.623.895 0 1.7-.207 2.417-.623a4.332 4.332 0 001.687-1.74c.4-.752.601-1.611.601-2.578zm8.315-7.047h2.621l5.231 14.105h-2.728l-1.139-3.212h-5.393l-1.192 3.212h-2.664l5.264-14.105zm3.233 8.755l-.902-2.481c-.086-.237-.323-.935-.709-2.095l-.301-.881c-.057.193-.194.598-.408 1.214a44.54 44.54 0 01-.656 1.762l-.923 2.481h3.899zm15.018-6.424h-4.265v11.774h-2.578v-11.774h-4.308v-2.331h11.151v2.331zm-52.025 26.669c1.483 0 2.646.419 3.491 1.257.853.838 1.279 1.959 1.279 3.362 0 .91-.194 1.716-.58 2.417a4.091 4.091 0 01-1.676 1.633c-.724.394-1.576.591-2.557.591H71.47v4.845h-2.578v-14.105h5.79zm-.526 7.047c.866 0 1.514-.233 1.944-.698.437-.473.655-1.064.655-1.773 0-.644-.218-1.188-.655-1.632-.43-.452-1.056-.677-1.88-.677h-2.75v4.78h2.686zm10.216-7.047h2.62l5.232 14.105h-2.728l-1.14-3.212h-5.392l-1.192 3.212h-2.664l5.264-14.105zm3.233 8.755l-.902-2.481a133.21 133.21 0 01-.71-2.095l-.3-.881c-.057.193-.194.598-.408 1.214a44.4 44.4 0 01-.656 1.762l-.923 2.481h3.899zm6.424 5.35v-14.105h2.578v14.105h-2.578zm17.069-14.105v14.105h-2.417l-6.488-9.658v9.658h-2.557v-14.105h2.428l6.488 9.679v-9.679h2.546z" fill="#FF383D"/><path d="M90.973 334.782c-48.773 0-88.31 39.391-88.31 87.985 0 48.591 39.537 87.981 88.31 87.981V554.2" stroke="#FFD6D7" stroke-width="2.4" stroke-miterlimit="10"/><path d="M98.433 556.474c0-3.997-3.25-7.235-7.263-7.235-4.008 0-7.262 3.238-7.262 7.235 0 3.997 3.254 7.235 7.263 7.235 4.011 0 7.262-3.238 7.262-7.235z" fill="#F2AEB0"/><path d="M191.511 437.444h203.338a24 24 0 0018.943-9.264l42.736-54.938a24 24 0 0118.943-9.264h157.25" stroke="#FFB2B1" stroke-width="5" stroke-linejoin="round"/><path d="M201.761 437.958c0 5.017-4.083 9.084-9.119 9.084s-9.118-4.067-9.118-9.084c0-5.018 4.082-9.085 9.118-9.085 5.036 0 9.119 4.067 9.119 9.085z" fill="#FF383D"/><path opacity=".13" d="M1161 634.006c0-38.865-31.62-70.372-70.63-70.372-39.01 0-70.63 31.507-70.63 70.372 0 38.864 31.62 70.371 70.63 70.371 39.01 0 70.63-31.507 70.63-70.371z" fill="#FF383D"/><path d="M1046.72 617.61c0-.866.2-1.622.62-2.266.42-.645 1.01-1.143 1.77-1.493.77-.351 1.65-.527 2.64-.527.99 0 1.86.172 2.63.516.76.344 1.36.831 1.79 1.461.43.63.64 1.364.64 2.202h-2.65a1.785 1.785 0 00-.72-1.45c-.46-.373-1.06-.559-1.81-.559-.69 0-1.24.172-1.66.516-.41.336-.61.773-.61 1.31 0 .53.18.92.54 1.171.36.251.84.448 1.45.591l2.31.569c1.05.251 1.9.713 2.55 1.386.65.666.98 1.525.98 2.578 0 .881-.22 1.651-.67 2.31-.43.659-1.06 1.171-1.87 1.536-.8.358-1.73.537-2.8.537-1.58 0-2.87-.383-3.87-1.149-.98-.774-1.52-1.823-1.61-3.148h2.66c.02.659.3 1.178.82 1.558.53.372 1.21.558 2.04.558.81 0 1.45-.172 1.91-.515.45-.344.68-.817.68-1.418 0-.516-.16-.906-.48-1.171-.32-.265-.75-.462-1.27-.591l-2.36-.569c-1.16-.28-2.06-.745-2.7-1.397-.64-.659-.95-1.507-.95-2.546zm12.81-4.007h2.58v5.855l6.25.021v-5.876h2.59v14.105h-2.59v-6.005h-6.25v6.005h-2.58v-14.105zm18.34 0h2.62l5.23 14.105h-2.73l-1.14-3.212h-5.39l-1.19 3.212h-2.67l5.27-14.105zm3.23 8.755l-.9-2.481c-.09-.236-.32-.935-.71-2.095l-.3-.881c-.06.194-.19.598-.41 1.214-.21.616-.43 1.203-.65 1.762l-.93 2.481h3.9zm13.12-2.685l4.86 8.035h-3.1l-3.52-5.855-2.33 2.89v3.008h-2.6v-14.148h2.6v7.176l5.76-7.176h3.22l-4.89 6.07zm6.73 8.035v-14.105h2.58v14.105h-2.58zm17.07-14.105v14.105h-2.41l-6.49-9.657v9.657h-2.56v-14.105h2.43l6.49 9.679v-9.679h2.54zm16.6 6.446v1.343c0 1.303-.3 2.456-.9 3.459-.6.995-1.44 1.768-2.52 2.32-1.06.551-2.28.827-3.65.827-1.42 0-2.67-.301-3.75-.902a6.31 6.31 0 01-2.5-2.536c-.6-1.095-.89-2.363-.89-3.802 0-1.468.3-2.761.91-3.878a6.512 6.512 0 012.56-2.621c1.1-.623 2.36-.935 3.79-.935 1.15 0 2.18.201 3.11.602.94.401 1.72.967 2.34 1.697a5.511 5.511 0 011.21 2.492h-2.75a3.356 3.356 0 00-1.48-1.772c-.71-.43-1.55-.645-2.51-.645-1.39 0-2.5.459-3.3 1.375-.81.917-1.22 2.131-1.22 3.642 0 1.511.41 2.703 1.23 3.577.82.866 1.93 1.3 3.32 1.3 1.16 0 2.12-.29 2.87-.87.77-.588 1.23-1.411 1.38-2.471h-4.47v-2.202h7.22zm-70.65 36.949c-1.41 0-2.67-.304-3.77-.913s-1.95-1.472-2.57-2.589c-.62-1.117-.92-2.399-.92-3.846 0-1.439.3-2.714.91-3.824a6.395 6.395 0 012.56-2.589c1.1-.608 2.36-.913 3.79-.913 1.17 0 2.25.201 3.22.602.97.401 1.78.981 2.42 1.74.64.752 1.04 1.626 1.22 2.621h-2.87c-.22-.759-.69-1.379-1.41-1.858-.73-.487-1.59-.731-2.6-.731-.91 0-1.71.204-2.41.612-.69.409-1.22.992-1.59 1.751-.37.752-.56 1.623-.56 2.611 0 .995.19 1.869.57 2.621.38.745.91 1.314 1.6 1.708.7.394 1.49.591 2.39.591.98 0 1.83-.237 2.56-.709.74-.48 1.23-1.114 1.45-1.902h2.87a5.437 5.437 0 01-1.19 2.621c-.63.76-1.43 1.35-2.41 1.773-.97.415-2.06.623-3.26.623zm9.2-14.395h2.58v5.855l6.25.021v-5.876h2.59v14.105H1082v-6.005h-6.25v6.005h-2.58v-14.105zm14.46 14.105v-14.105h2.58v14.105h-2.58zm14.04-2.331v2.331h-8.43v-14.105h2.6v11.774h5.83zm10.51 0v2.331h-8.43v-14.105h2.6v11.774h5.83zm1.67-7.767c0-.866.21-1.622.63-2.266.42-.645 1.01-1.143 1.77-1.493.77-.351 1.65-.527 2.64-.527.98 0 1.86.172 2.62.516.77.344 1.37.831 1.8 1.461.43.63.64 1.364.64 2.202h-2.65c-.02-.602-.25-1.085-.72-1.45-.46-.373-1.06-.559-1.82-.559-.68 0-1.23.172-1.65.516-.41.336-.61.773-.61 1.31 0 .53.18.92.53 1.171.37.251.85.448 1.45.591l2.31.569c1.06.251 1.91.713 2.56 1.386.65.666.98 1.525.98 2.578 0 .881-.22 1.651-.67 2.31-.43.659-1.06 1.171-1.87 1.536-.8.358-1.73.537-2.8.537-1.58 0-2.87-.383-3.87-1.149-.99-.774-1.52-1.823-1.61-3.148h2.65c.03.659.31 1.178.83 1.558.52.372 1.2.558 2.04.558.81 0 1.45-.172 1.9-.515.46-.344.69-.817.69-1.418 0-.516-.16-.906-.48-1.171-.32-.265-.75-.462-1.27-.591l-2.36-.569c-1.16-.28-2.06-.745-2.7-1.397-.64-.659-.96-1.507-.96-2.546z" fill="#FA5652"/><path d="M1090.87 547.763c-48.77 0-88.31 39.391-88.31 87.981 0 48.594 39.54 87.985 88.31 87.985v43.448" stroke="#FFD6D7" stroke-width="2.4" stroke-miterlimit="10"/><path d="M1098.13 769.373c0-3.997-3.25-7.235-7.27-7.235-4.01 0-7.26 3.238-7.26 7.235 0 3.994 3.25 7.235 7.26 7.235 4.02 0 7.27-3.241 7.27-7.235z" fill="#F2AEB0"/><path d="M726.738 687.839h91.135a24 24 0 0018.691-8.945l25.532-31.699a24 24 0 0118.691-8.945h94.208" stroke="#FFA6A6" stroke-width="5" stroke-linejoin="round"/><path d="M980.943 637.539c0 5.017-4.082 9.085-9.118 9.085-5.036 0-9.119-4.068-9.119-9.085 0-5.017 4.083-9.084 9.119-9.084s9.118 4.067 9.118 9.084z" fill="#FF383D"/><path opacity=".15" d="M1161 149.813c0-38.864-31.62-70.37-70.63-70.37-39.01 0-70.63 31.506-70.63 70.37 0 38.865 31.62 70.372 70.63 70.372 39.01 0 70.63-31.507 70.63-70.372z" fill="#FF383D"/><path d="M1037.58 146.382h2.58v5.854l6.25.022v-5.876h2.59v14.104h-2.59v-6.005h-6.25v6.005h-2.58v-14.104zm17.04 2.352v3.524h5.79v2.245h-5.79v3.63h6.44v2.353h-9.02v-14.104h9.02v2.352h-6.44zm13.05-2.352h2.62l5.23 14.104h-2.73l-1.14-3.212h-5.39l-1.19 3.212h-2.66l5.26-14.104zm3.23 8.754l-.9-2.481c-.09-.236-.32-.935-.71-2.095l-.3-.881c-.06.194-.19.598-.41 1.214-.21.616-.43 1.203-.65 1.762l-.93 2.481h3.9zm11.67-8.754c1.37 0 2.6.3 3.67.902a6.399 6.399 0 012.53 2.524c.6 1.075.9 2.296.9 3.663 0 1.361-.3 2.575-.89 3.642a6.295 6.295 0 01-2.52 2.481c-1.07.595-2.3.892-3.69.892h-5.24v-14.104h5.24zm-.23 11.751c.93 0 1.74-.193 2.43-.58.7-.393 1.24-.941 1.62-1.643.38-.702.57-1.515.57-2.439 0-.938-.19-1.761-.57-2.47a4.048 4.048 0 00-1.62-1.665c-.69-.401-1.5-.602-2.43-.602h-2.44v9.399h2.44zm12.92-11.751h2.62l5.23 14.104h-2.73l-1.14-3.212h-5.39l-1.19 3.212h-2.67l5.27-14.104zm3.23 8.754l-.9-2.481c-.09-.236-.33-.935-.71-2.095l-.3-.881c-.06.194-.2.598-.41 1.214-.22.616-.44 1.203-.66 1.762l-.92 2.481h3.9zm12.23 5.64c-1.41 0-2.66-.304-3.77-.913a6.457 6.457 0 01-2.56-2.589c-.62-1.117-.93-2.399-.93-3.846 0-1.439.31-2.714.92-3.824a6.37 6.37 0 012.55-2.589c1.1-.608 2.37-.913 3.79-.913 1.18 0 2.25.201 3.23.602.97.401 1.78.981 2.41 1.74a5.474 5.474 0 011.23 2.621h-2.87c-.22-.759-.69-1.378-1.42-1.858-.72-.487-1.59-.731-2.6-.731-.91 0-1.71.204-2.4.613-.69.408-1.22.991-1.59 1.751-.38.751-.56 1.622-.56 2.61 0 .995.19 1.869.57 2.621.38.745.91 1.314 1.6 1.708.69.394 1.49.591 2.38.591.98 0 1.84-.237 2.57-.709.74-.48 1.22-1.114 1.45-1.902h2.87a5.538 5.538 0 01-1.19 2.622c-.63.759-1.44 1.349-2.41 1.772-.97.415-2.06.623-3.27.623zm9.21-14.394h2.58v5.854l6.25.022v-5.876h2.59v14.104h-2.59v-6.005h-6.25v6.005h-2.58v-14.104zm17.04 2.352v3.524h5.79v2.245h-5.79v3.63h6.44v2.353h-9.02v-14.104h9.02v2.352h-6.44z" fill="#FF383D"/><path d="M1090.87 63.42c-48.77 0-88.31 39.39-88.31 87.981 0 48.591 39.54 87.984 88.31 87.984v43.449" stroke="#FFD6D7" stroke-width="2.4" stroke-miterlimit="10"/><path d="M1098.13 285.03c0-3.997-3.25-7.236-7.26-7.236s-7.26 3.239-7.26 7.236c0 3.996 3.25 7.235 7.26 7.235s7.26-3.239 7.26-7.235z" fill="#F2AEB0"/><path d="M976.839 158.275H850.533a23.998 23.998 0 00-16.424 6.5l-28.549 26.794a23.998 23.998 0 01-16.424 6.5H675.12" stroke="#FFB2B1" stroke-width="5" stroke-linejoin="round"/><path d="M980.941 157.564c0 5.017-4.082 9.085-9.119 9.085-5.036 0-9.118-4.068-9.118-9.085 0-5.017 4.082-9.084 9.118-9.084 5.037 0 9.119 4.067 9.119 9.084z" fill="#FF383D"/></g><defs><linearGradient id="paint0_linear" x1="280.615" y1="585.622" x2="344.484" y2="713.708" gradientUnits="userSpaceOnUse"><stop stop-color="#FFC8C8"/><stop offset="1" stop-color="#FFF2F5"/></linearGradient><linearGradient id="paint1_linear" x1="912.18" y1="183.82" x2="391.056" y2="-27.007" gradientUnits="userSpaceOnUse"><stop stop-color="#fff"/><stop offset="1" stop-color="#FFD5D5"/></linearGradient><linearGradient id="paint2_linear" x1="844.946" y1="89.209" x2="683.905" y2="62.547" gradientUnits="userSpaceOnUse"><stop stop-color="#FFD3D3"/><stop offset="1" stop-color="#FFF6F6"/></linearGradient><linearGradient id="paint3_linear" x1="206.431" y1="362.678" x2="963.765" y2="362.678" gradientUnits="userSpaceOnUse"><stop stop-color="#FFF8F5"/><stop offset="1" stop-color="#FFDEDE"/></linearGradient><linearGradient id="paint4_linear" x1="894.009" y1="543.512" x2="695.636" y2="561.863" gradientUnits="userSpaceOnUse"><stop stop-color="#FFC2C2"/><stop offset="1" stop-color="#fff"/></linearGradient><filter id="filter0_d" x="27.58" y="660.183" width="106.434" height="14.674" filterUnits="userSpaceOnUse" color-interpolation-filters="sRGB"><feFlood flood-opacity="0" result="BackgroundImageFix"/><feColorMatrix in="SourceAlpha" values="0 0 0 0 0 0 0 0 0 0 0 0 0 0 0 0 0 0 127 0"/><feOffset/><feColorMatrix values="0 0 0 0 0 0 0 0 0 0 0 0 0 0 0 0 0 0 0.1 0"/><feBlend in2="BackgroundImageFix" result="effect1_dropShadow"/><feBlend in="SourceGraphic" in2="effect1_dropShadow" result="shape"/></filter></defs></svg>