<svg width="1920" height="1146" fill="none" xmlns="http://www.w3.org/2000/svg"><mask id="a" maskUnits="userSpaceOnUse" x="0" y="0" width="1920" height="1146"><path fill="#C4C4C4" d="M0 0h1920v1146H0z"/></mask><g mask="url(#a)"><path d="M199.78 908.506c13.337 6.812 62.594 21.942 55.01-9.371-1.9-7.798-7.444-14.37-13.757-18.752-7.229-5.034-14.353-6.776-20.673-13.208-7.7-7.748-15.974-14.75-24.715-20.916-17.949-12.898-37.817-23.929-58.757-25.581-14.685-1.153-37.044 6.171-38.773 25.06-2.523 27.498 38.358 21.375 52.907 27.221 13.802 5.524 24.3 18.585 36.568 27.905a80.18 80.18 0 0012.19 7.642z" fill="url(#paint0_linear)"/><path d="M1816.16 980.124c-31.36-2.436-61.53.655-90.79 14.798-32.61 15.768-54.52 53.158-63.47 86.988-3.33 12.57-5.04 26.07-1.02 38.42 9.31 28.55 37.56 24.42 59.54 13.49 12.39-6.16 22.8-15.38 33.1-24.52 17.09-15.17 38.94-26.25 52.97-44.68 4.7-6.19 7.67-12.92 13.67-18.12 9.34-8.1 20.93-13.85 30.68-21.56 8.32-6.6 17.04-16.13 14.3-26.372-2.82-10.505-15.6-14.25-26.36-15.84-7.63-1.145-15.15-2.035-22.62-2.604z" fill="url(#paint1_linear)"/></g><defs><linearGradient id="paint0_linear" x1="255.736" y1="898.295" x2="79.177" y2="873.419" gradientUnits="userSpaceOnUse"><stop stop-color="#FFE1E2"/><stop offset="1" stop-color="#FFF8F8"/></linearGradient><linearGradient id="paint1_linear" x1="1801.07" y1="976.796" x2="1691.45" y2="1085.25" gradientUnits="userSpaceOnUse"><stop stop-color="#FFD3D2"/><stop offset="1" stop-color="snow"/></linearGradient></defs></svg>