<svg xmlns="http://www.w3.org/2000/svg" width="556" height="615" viewBox="0 0 556 615"><defs><linearGradient id="hgs8a" x1="1.35" x2="63.7" y1="468.24" y2="573.08" gradientUnits="userSpaceOnUse"><stop offset="0" stop-color="#fcc"/><stop offset="1" stop-color="#fee"/></linearGradient><linearGradient id="hgs8b" x1="611.33" x2="227.63" y1="165.01" y2="159.37" gradientUnits="userSpaceOnUse"><stop offset="0" stop-color="#fff"/><stop offset="1" stop-color="#ffcece"/></linearGradient><linearGradient id="hgs8c" x1="533.79" x2="411.35" y1="169.02" y2="108.53" gradientUnits="userSpaceOnUse"><stop offset="0" stop-color="#ffd1d1"/><stop offset="1" stop-color="#fffbfc"/></linearGradient><linearGradient id="hgs8d" x1="505.49" x2="1.36" y1="522.23" y2="230.3" gradientUnits="userSpaceOnUse"><stop offset="0" stop-color="#ffcdcd"/><stop offset="1" stop-color="#fff3f3"/></linearGradient><mask id="hgs8f" width="2" height="2" x="-1" y="-1"><path fill="#fff" d="M272 337h212v211H272z"/><path d="M483.32 442.564c0 58.233-47.208 105.44-105.44 105.44-58.234 0-105.44-47.207-105.44-105.44s47.206-105.44 105.44-105.44c58.232 0 105.44 47.207 105.44 105.44z"/></mask><filter id="hgs8e" width="392" height="395" x="182" y="247" filterUnits="userSpaceOnUse"><feOffset dy="4" in="SourceGraphic" result="FeOffset1299Out"/><feGaussianBlur in="FeOffset1299Out" result="FeGaussianBlur1300Out" stdDeviation="32 32"/></filter></defs><g><g><g><g><path fill="url(#hgs8a)" d="M202.018 564.898c-31.476 11.152-63.257 16.304-97.157 9.864-37.784-7.182-70.557-39.518-89.075-71.764-6.88-11.978-12.358-25.361-11.642-39.153 1.665-31.86 31.764-35.42 57.314-30.267 14.402 2.898 27.626 9.495 40.7 16.028 21.707 10.855 47.169 16.192 66.63 31.238 6.53 5.063 11.434 11.146 19.022 14.83 11.804 5.734 25.277 8.442 37.4 13.66 10.35 4.479 21.92 11.845 21.935 23.118.002 11.562-12.06 18.93-22.658 23.533-7.501 3.278-14.97 6.268-22.469 8.913z"/></g><g><path fill="url(#hgs8b)" d="M86.16 153.937c51.562-75.989 158.184-106.5 244.61-77.93 41.674 13.784 76.6 42.486 108.814 72.281 28.396 26.26 55.942 54.585 75.334 88.343 13.24 23.044 22.718 50.666 29.41 76.454 10.005 38.612.918 88.363-48.994 84.718-11.711-.855-21.842-5.065-32.794-8.75-8.86-2.987-17.542-1.195-26.74-2.653-23.153-3.667-45.457-12.191-66.547-22.174-42.982-20.367-82.256-48.036-126.46-65.883a306.226 306.226 0 0 0-113.97-22.216c-16.478-.027-33.804 1.127-48.544-6.242-36.33-18.176-19.993-67.19-6.425-94.763a172.58 172.58 0 0 1 12.305-21.185z"/></g><g><path fill="url(#hgs8c)" d="M490.445 165.406c8.489 7.689 41.841 28.678 42.483 4.047.152-6.136-2.631-12.094-6.419-16.588-4.334-5.158-9.246-7.863-12.63-13.873a142.342 142.342 0 0 0-14.08-20.37c-10.68-13.1-23.152-25.206-38.283-30.6-10.613-3.778-28.581-2.827-33.623 10.774-7.344 19.8 24.06 23.429 33.637 30.645 9.09 6.83 14.237 18.566 21.437 27.893a61.346 61.346 0 0 0 7.478 8.072z"/></g><g><path fill="url(#hgs8d)" d="M333.467 141.323c17.981 10.586 31.47 26.432 47.862 39.194 27.294 21.244 64.705 25.59 96.004 40.363 31.914 15.074 56.014 38.5 66.91 72.262 14.076 43.58 15.414 95.406 3.455 140.21-13.17 49.316-44.1 82.075-89.322 103.922-45.195 21.834-95.262 32.023-145.197 34.125a394.25 394.25 0 0 1-14.459.35c-108.48.63-252.874-37.554-289.807-154.089-.339-1.065-.663-2.13-.988-3.21a169.517 169.517 0 0 1-6.666-39.89c-2.323-47.913 6.063-100.798 22.861-145.714 11.298-30.24 35.627-55.808 61.263-74.027 36.019-25.594 79.967-32.126 123.707-35.197 32.39-2.272 68.819-3.103 99.448 9.287a186.042 186.042 0 0 1 24.93 12.414z"/></g></g><g><path fill="#fb4c47" d="M409.018 561.41c-139.046 40.43-254.918 1.445-295.473-23.102l-37.659-28.879 13.036-21.659 81.11-7.22 134.701-7.219 108.631 21.659 112.975-37.542h8.16c-17.38 58.912-89.753 93.855-125.48 103.963z"/></g><g><g><g><path fill="#d9423d" d="M397.5 274s110 5 136.5 120.5c21 149-77.989 96.304-101.657 88.96C408.681 476.115 324.307 285.402 397.5 274z"/></g></g><g><g><path fill="#fb4c47" d="M121.572 506.307h335.993s11.764-193.185-31.042-221.453c-42.8-28.263-242.967-22.36-287.331 1.78-44.365 24.146-17.62 219.673-17.62 219.673z"/></g></g><g><g><path fill="#000c3e" d="M172.96 257.758c-.379 0-.764-.1-1.114-.31-1.028-.6-25.04-15.324-18.846-53.214 2.166-13.253 4.805-22.804 7.134-31.24 4.192-15.18 7.222-26.15 4.776-48.247a2.195 2.195 0 0 1 1.938-2.417c1.197-.076 2.283.736 2.417 1.939 2.54 22.932-.753 34.83-4.91 49.892-2.3 8.32-4.904 17.76-7.035 30.78-5.715 34.97 16.528 48.608 16.756 48.748a2.181 2.181 0 0 1 .765 2.995 2.163 2.163 0 0 1-1.88 1.074z"/></g></g><g><g><path fill="#000c3e" d="M258.665 24.398c1.705 15.08-9.142 28.683-24.222 30.388-15.08 1.704-28.683-9.143-30.388-24.223-1.699-15.08 9.143-28.683 24.223-30.388 15.08-1.699 28.683 9.143 30.387 24.223z"/></g></g><g><g><path fill="#000c3e" d="M169.26 247.546s10.45 15.232 43.879 16.102c33.423.864 57.19-14.77 83.696-9.452 26.5 5.319 61.015-12.038 66.614-23.685 5.604-11.642-13.568-128.347-36.343-144.962-22.775-16.616-129.065-17.298-148.097 9.043-19.032 26.341-26.01 141.944-9.75 152.954z"/></g></g><g><g><path fill="#000c3e" d="M343.258 126.912c5.611 49.695-30.125 94.532-79.819 100.142-49.695 5.61-94.532-30.125-100.142-79.82-5.61-49.694 30.125-94.53 79.82-100.141 49.694-5.61 94.53 30.125 100.141 79.82z"/></g></g><g><g><path fill="#ffceb0" d="M301.82 209.743s16.34 68.85 11.7 77.478c-4.642 8.623-42.321 8.372-52.293 7.899-9.977-.479-25.262-75.43-19.453-76.31 5.81-.877 56.584-24.445 60.046-9.067z"/></g></g><g><g><path fill="#ffceb0" d="M179.667 144.755s20.095 108.128 94.28 101.718c74.192-6.404 50.986-159.522 22.197-170.066-28.788-10.549-139.345 8.939-116.477 68.348z"/></g></g><g><g><path fill="#ee9b68" d="M258.625 156.626s19.085 31.333 15.81 34.095c-3.275 2.761-13.907 3.958-17.123 1.932-3.217-2.032-4.992-38.905 1.313-36.027z"/></g></g><g><g><path fill="#000c3e" d="M228.769 78.06s-24.421 16.72-25.823 41.398c-1.4 24.672 10.445 85.523-17.894 86.93 0 0-72.358-113.039 43.717-128.329"/></g></g><g><g><path fill="#000c3e" d="M242.735 76.481c-2.131 2.073 27.41-2.464 47.406 15.471 19.99 17.935 31.736 68.523 34.492 69.077 2.761.555 3.468-65.41-17.976-81.956-21.45-16.545-51.79-14.385-63.922-2.592z"/></g></g><g><g><path fill="#ee9b68" d="M246.1 240.548s31.042 11.94 58.435-7.735c0 0 5.061 17.9 3.386 22.454-1.67 4.56-48.23 14.665-60.618-4.677 0 0-4.01-10.538-1.203-10.042z"/></g></g><g><g><path fill="#ffceb0" d="M318.957 166.35s2.925-28.268 16.656-20.44c13.737 7.83 6.924 37.943-4.81 42.35-11.741 4.414-16.429-6.87-11.846-21.91z"/></g></g><g><g><path fill="#ffceb0" d="M202.411 179.51s-9.154-26.907-20.796-16.212c-11.641 10.696 1.71 38.532 14.134 40.214 12.43 1.68 14.48-10.363 6.662-24.001z"/></g></g><g><g><path fill="#41294a" d="M283.568 137.219s10.959-10.03 21.316-2.44c9.101 6.672-8.42 3.917-13.924 6.526-5.5 2.61-13.276 4.128-7.392-4.086z"/></g></g><g><g><path fill="#41294a" d="M233.018 146.832s-13.037-7.128-21.28 2.709c-7.252 8.652 9.107 1.798 15.074 3.018 5.966 1.226 13.877.847 6.206-5.727z"/></g></g><g><g><path fill="#fffcf6" d="M252.843 175.446a21.154 21.154 0 0 1-4.507 15.652c-3.544 4.443-8.605 7.24-14.257 7.881-11.746 1.332-22.214-7.198-23.527-18.758-1.314-11.653 7.105-22.214 18.763-23.54a22.408 22.408 0 0 1 2.412-.133c10.824 0 19.896 8.126 21.116 18.898zm-18.43 26.43a24.027 24.027 0 0 0 16.206-8.962 24.008 24.008 0 0 0 5.12-17.795c-1.483-13.148-13.27-22.903-26.756-21.333-13.253 1.5-22.828 13.51-21.327 26.762 1.378 12.249 11.705 21.485 24.012 21.485.905 0 1.822-.053 2.744-.158z"/></g></g><g><g><path fill="#fffcf6" d="M312.033 163.074a21.154 21.154 0 0 1-4.508 15.653c-3.543 4.442-8.605 7.239-14.256 7.881-11.747 1.325-22.215-7.193-23.528-18.758-.63-5.645.963-11.203 4.513-15.652 3.538-4.443 8.6-7.24 14.25-7.882a22.623 22.623 0 0 1 2.423-.134c10.819 0 19.885 8.127 21.106 18.892zm-18.432 26.43a24.043 24.043 0 0 0 16.207-8.956c4.028-5.056 5.85-11.379 5.12-17.8-1.483-13.154-13.352-22.886-26.756-21.327a24.04 24.04 0 0 0-16.207 8.961 24.008 24.008 0 0 0-5.12 17.795c1.378 12.248 11.7 21.484 24 21.484.917 0 1.834-.052 2.756-.157z"/></g></g><g><g><path fill="#fffcf6" d="M209.078 176.941c-.11 0-.216-.012-.327-.04l-9.27-2.132a1.454 1.454 0 0 1-1.093-1.745c.181-.789.981-1.296 1.746-1.092l9.271 2.13a1.454 1.454 0 0 1 1.092 1.746 1.452 1.452 0 0 1-1.419 1.133z"/></g></g><g><g><path fill="#fffcf6" d="M311.607 157.556a1.47 1.47 0 0 1-1.331-.852c-.333-.73-.006-1.6.724-1.938l11.635-5.313c.707-.339 1.594-.017 1.933.724.332.73.011 1.6-.724 1.932l-11.63 5.319a1.494 1.494 0 0 1-.607.128z"/></g></g><g><g><path fill="#000c3e" d="M236.821 71.007s12.214 58.41 29.255 61.306c17.048 2.896 56.753-4.6 57.705-11.337.951-6.732-39.764-53.618-64.617-58.37-43.588-8.332-69.147 64.348-61.978 79.848 7.175 15.506 40.593-4.057 47.861-7.286 7.275-3.234-7.98-52.286-8.226-64.161z"/></g></g><g><g><path fill="#fffcf6" d="M254.108 175.476a1.453 1.453 0 0 1-1.418-1.127 1.457 1.457 0 0 1 1.086-1.751l14.636-3.398c.817-.21 1.576.31 1.751 1.086.181.788-.303 1.57-1.091 1.752l-14.63 3.397a1.33 1.33 0 0 1-.334.041z"/></g></g><g><g><path fill="#000c3e" d="M218.167 57.258c-.234 0-.467-.035-.7-.116-8.565-2.902-14.164-7.894-16.645-14.853-5.441-15.278 6.3-34.305 6.807-35.11a2.174 2.174 0 0 1 3.018-.69 2.19 2.19 0 0 1 .695 3.013c-.11.181-11.127 18.058-6.393 31.328 2.009 5.622 6.697 9.72 13.919 12.167a2.19 2.19 0 1 1-.7 4.262z"/></g></g><g><g><path fill="#000c3e" d="M250.231 57.367a2.189 2.189 0 0 1-1.64-3.637c.14-.158 13.941-15.986 11.454-29.851-1.062-5.885-5.009-10.69-11.728-14.292a2.184 2.184 0 0 1-.9-2.96c.573-1.08 1.915-1.454 2.96-.905 7.975 4.274 12.67 10.123 13.977 17.392 2.86 15.956-11.851 32.805-12.482 33.517a2.193 2.193 0 0 1-1.64.736z"/></g></g><g><g><path fill="#000c3e" d="M355.409 228.326a2.148 2.148 0 0 1-1.507-.607 2.187 2.187 0 0 1-.076-3.094c.654-.695 16.061-17.316 7.929-40.178-3.182-8.95-8.022-18.653-13.142-28.934-8.927-17.93-18.163-36.466-21.105-55.265a2.174 2.174 0 0 1 1.821-2.498c1.197-.263 2.318.624 2.5 1.821 2.836 18.134 11.92 36.36 20.707 53.986 5.179 10.403 10.071 20.223 13.346 29.418 9.055 25.46-8.156 43.898-8.891 44.674a2.176 2.176 0 0 1-1.582.677z"/></g></g><g><g><path fill="#000c3e" d="M347.719 128.502c-1.18 0-2.155-.94-2.19-2.125-.671-24.252-8.156-43.033-22.249-55.842-22.693-20.615-55.13-18.688-55.44-18.653-1.342.157-2.247-.835-2.329-2.038a2.184 2.184 0 0 1 2.038-2.33c1.395-.099 34.609-2.083 58.68 19.786 15.01 13.632 22.973 33.465 23.679 58.948a2.191 2.191 0 0 1-2.125 2.254z"/></g></g><g><g><path fill="#ee9b68" d="M269.525 226.496c-2.546 0-4.355-.443-4.507-.484a2.184 2.184 0 0 1-1.588-2.65c.292-1.163 1.471-1.869 2.65-1.6.059.023 6.329 1.512 11.087-1.822 1.004-.689 2.364-.45 3.048.531a2.187 2.187 0 0 1-.532 3.048c-3.42 2.4-7.262 2.977-10.158 2.977z"/></g></g><g><g><path fill="#ee9b68" d="M196.982 196.387a2.19 2.19 0 0 1-2.166-2.51c1.985-13.527-8.734-20.696-8.844-20.76a2.205 2.205 0 0 1-.637-3.037 2.187 2.187 0 0 1 3.03-.636c.537.35 13.171 8.798 10.783 25.075a2.186 2.186 0 0 1-2.166 1.868z"/></g></g><g><g><path fill="#ee9b68" d="M326.299 183.337a2.187 2.187 0 0 1-2.184-2.055c-1.027-16.44 5.734-26.208 6.02-26.616a2.191 2.191 0 0 1 3.584 2.522c-.064.087-6.153 9.008-5.237 23.825a2.184 2.184 0 0 1-2.049 2.318c-.04.006-.087.006-.134.006z"/></g></g><g><g><path fill="#ffceb0" d="M205.747 291.15s49.712 59.432 88.052 43.53c38.333-15.904 74.25-59.013 54.978-64.734-19.272-5.722-173.166-2.71-143.03 21.204z"/></g></g><g><g><path fill="#41294a" d="M243.17 177.849a6.627 6.627 0 1 1-13.106 1.979 6.631 6.631 0 0 1 5.563-7.543 6.631 6.631 0 0 1 7.543 5.564z"/></g></g><g><g><path fill="#41294a" d="M305.334 165.895a6.627 6.627 0 1 1-13.107 1.979 6.631 6.631 0 0 1 5.564-7.543 6.631 6.631 0 0 1 7.543 5.564z"/></g></g><g><g><path fill="#ee9b68" d="M253.988 218.532a2.191 2.191 0 0 1-1.944-3.193c.315-.608 7.864-15.028 20.025-16.388 6.906-.77 13.643 2.761 20.106 10.468a2.197 2.197 0 0 1-.268 3.088c-.923.794-2.3.654-3.083-.269-5.47-6.52-10.911-9.55-16.26-8.932-9.825 1.086-16.562 13.906-16.632 14.04a2.18 2.18 0 0 1-1.944 1.186z"/></g></g><g><g><g filter="url(#hgs8e)"><path fill="none" d="M483.32 442.564c0 58.233-47.208 105.44-105.44 105.44-58.234 0-105.44-47.207-105.44-105.44s47.206-105.44 105.44-105.44c58.232 0 105.44 47.207 105.44 105.44z" mask="url(&quot;#hgs8f&quot;)"/><path fill-opacity=".22" d="M483.32 442.564c0 58.233-47.208 105.44-105.44 105.44-58.234 0-105.44-47.207-105.44-105.44s47.206-105.44 105.44-105.44c58.232 0 105.44 47.207 105.44 105.44z"/></g><path fill="#fff" d="M483.32 442.564c0 58.233-47.208 105.44-105.44 105.44-58.234 0-105.44-47.207-105.44-105.44s47.206-105.44 105.44-105.44c58.232 0 105.44 47.207 105.44 105.44z"/></g><g><path fill="#e27b5a" d="M323.809 395.505s44.07 58.842 55.093 63.707c11.028 4.869 24.851 3.773 26.06 9.417 1.209 5.648-23.144-3.905-19.259 4.807 3.885 8.715 19.025 18.662 19.096 27.435.074 8.776-24.091-18.837-24.091-18.837s22.768 25.264 15.23 25.861c-7.543.598-27.045-24.103-27.045-24.103s21.815 32.402 14.583 29.443c-7.228-2.96-74.27-80.485-84.607-88.688-10.339-8.2 24.94-29.042 24.94-29.042z"/></g><g><path fill="#f8b38a" d="M452.005 409.788s-50.264 53.632-61.76 57.256c-11.494 3.622-25.112 1.013-26.936 6.489-1.82 5.478 23.433-1.334 18.613 6.9-4.817 8.232-20.956 16.451-21.993 25.166-1.034 8.712 26.017-16.072 26.017-16.072s-25.408 22.603-17.98 24.026c7.432 1.426 29.53-20.977 29.53-20.977s-25.245 29.806-17.733 27.66c7.511-2.147 82.663-71.82 93.838-78.834 11.178-7.015-21.596-31.614-21.596-31.614z"/></g><g><path fill="#f65551" d="M409.215 447.027s15.46 29.274 29.672 32.389c14.21 3.115 36.762-19.47 43.46-33.234 6.701-13.762-8.269-54.787-21.707-68.743-10.097-1.232-58.592 43.494-51.425 69.588z"/></g><g><path fill="#128e5a" d="M310.232 361.934s53.904 55.28 51.495 68.292c-2.407 13.014-21.823 28.603-37.481 33.709-15.659 5.102-51.227-15.684-51.227-30.675 1.55-28.427 17.573-55.304 37.213-71.326z"/></g></g><g><g><g><path fill="#ffc6a6" d="M129.907 425.958s118.861 64.955 141.081 64.69c22.219-.272 44.578-12.665 50.918-4.133 6.336 8.54-41.82 11.14-28.646 22.778 13.166 11.635 46.162 16.74 52.983 31.394 6.814 14.651-54.81-13.167-54.81-13.167s57.494 24.947 45.297 31.708c-12.201 6.768-63.781-19.732-63.781-19.732s61.344 37.646 46.952 38.208c-14.393.563-186.068-78.155-209.675-84.007-23.611-5.849 19.681-67.739 19.681-67.739z"/></g></g></g><g><g><path fill="#d9423d" d="M221.61 422.254s1.425 55.159-11.244 76.205C180.244 548.5 98.788 542.4 74.5 506.5c-24.287-35.899 28.822-217.14 64.691-219.866 35.87-2.727 82.418 83.366 82.418 135.62z"/></g></g><g><g><path fill="#ffd310" d="M249.032 7.381c5.275 5.953 1.542 24.845-1.572 36.147-5.04-10.188-12.093-27.433-8.748-34.673.75-1.627 2-2.564 3.93-2.951a11.37 11.37 0 0 1 2.193-.235c1.8 0 3.182.568 4.197 1.712zm-.76 44.641a2.338 2.338 0 0 0 1.997-1.593c1.195-3.634 11.42-35.8 2.258-46.145-1.752-1.98-5.053-4.103-10.8-2.958-3.372.672-5.881 2.601-7.253 5.573-5.706 12.358 9.753 40.739 11.536 43.934a2.33 2.33 0 0 0 2.262 1.189z"/></g><g><path fill="#ffd310" d="M281.435 20.264c1.206 1.555 1.539 3.08 1.043 4.805-2.207 7.662-18.824 16.087-29.301 20.499 5.04-10.586 14.572-27.318 22.461-28.367a4.46 4.46 0 0 1 .67-.048c1.823 0 3.504 1.022 5.127 3.11zm-31.94 31.777c3.437-1.254 33.7-12.603 37.469-25.681.907-3.145.268-6.246-1.844-8.963-3.593-4.625-7.475-5.175-10.1-4.825-13.7 1.827-27.005 32.846-28.479 36.375a2.336 2.336 0 0 0 2.955 3.094z"/></g><g/></g><g><g/></g></g></g></g></svg>