<svg width="1920" height="1466" viewBox="0 0 1920 1466" fill="none" xmlns="http://www.w3.org/2000/svg">
<mask id="mask0" mask-type="alpha" maskUnits="userSpaceOnUse" x="0" y="0" width="1920" height="1466">
<rect width="1920" height="1466" fill="#C4C4C4"/>
</mask>
<g mask="url(#mask0)">
<path opacity="0.1" d="M2082.13 1133.63C2076.13 1133.38 2070.9 1137.98 2069.35 1144.36C2060.06 1144.98 2049.44 1145.1 2037.8 1144.21C2031.32 1143.71 2025.17 1142.95 2019.42 1142.03C2019.46 1140.91 2019.49 1139.78 2019.51 1138.65C2019.57 1133.14 2019.24 1127.72 2018.57 1122.41C2021.54 1120.17 2025.24 1117.83 2029.72 1115.83C2037.47 1112.34 2044.7 1111.15 2050.27 1110.85C2052.93 1117.17 2059.15 1120.91 2065.17 1119.39C2071.96 1117.68 2075.94 1109.98 2074.02 1102.18C2072.12 1094.38 2065.09 1089.44 2058.3 1091.15C2052.12 1092.71 2048.28 1099.25 2049.08 1106.3C2044.18 1109.05 2036.9 1112 2027.92 1112.11C2023.5 1112.18 2019.63 1111.53 2016.5 1110.71C2014.6 1102.47 2011.84 1094.55 2008.28 1087.08C2012.18 1083.59 2016.79 1079.89 2022.19 1076.34C2029.99 1071.17 2037.51 1067.5 2044.1 1064.88C2048.32 1070.01 2055.11 1071.78 2060.42 1068.75C2066.51 1065.29 2068.3 1056.78 2064.45 1049.77C2060.59 1042.77 2052.5 1039.91 2046.41 1043.38C2041.12 1046.4 2039.06 1053.21 2041.15 1059.54C2035.46 1063.9 2028.48 1068.5 2020.11 1072.57C2014.42 1075.36 2008.99 1077.46 2004.07 1079.05C2000.14 1072.2 1995.54 1065.8 1990.35 1059.94C1992.47 1052.51 1995.99 1043.85 2001.92 1035.2C2007.5 1027.1 2013.63 1021.22 2018.84 1017.1C2024.48 1020.74 2031.64 1020.27 2035.76 1015.62C2040.46 1010.34 2039.51 1001.71 2033.62 996.33C2027.77 990.939 2019.21 990.843 2014.53 996.119C2010.41 1000.78 2010.64 1008.03 2014.8 1013.38C2011.4 1018.93 2006.27 1025.8 1998.78 1032.31C1990.52 1039.5 1982.26 1043.77 1975.97 1046.28C1968.92 1040.66 1961.22 1035.88 1952.98 1032.06C1954.22 1028.69 1955.86 1025.3 1957.99 1021.98C1959.7 1019.34 1961.53 1017.03 1963.38 1015.01C1969.65 1017.7 1976.74 1015.91 1979.99 1010.49C1983.64 1004.43 1981.12 996.121 1974.37 991.935C1967.62 987.747 1959.21 989.259 1955.56 995.324C1952.36 1000.65 1953.92 1007.72 1958.93 1012.2C1957.84 1015.02 1956.53 1017.94 1954.96 1020.91C1953.18 1024.34 1951.25 1027.49 1949.22 1030.4C1948.38 1030.04 1947.55 1029.7 1946.71 1029.39C1936.89 1025.52 1926.4 1023.02 1915.45 1022.08C1913.71 1017.13 1912.21 1011.65 1911.18 1005.63C1909.1 993.361 1909.64 982.711 1910.78 974.72C1917.24 973.544 1922.12 968.463 1922.2 962.302C1922.29 955.202 1915.96 949.369 1908.06 949.272C1900.14 949.175 1893.65 954.851 1893.57 961.951C1893.49 968.217 1898.42 973.49 1905.02 974.71C1906.36 982.615 1907.16 993.667 1904.8 1006.44C1903.74 1012.06 1902.23 1017.18 1900.48 1021.8C1889.95 1022.28 1879.82 1024.21 1870.24 1027.42C1868.94 1025.26 1867.77 1022.99 1866.73 1020.32C1864.69 1015.04 1863.84 1010.1 1863.53 1006C1869.74 1002.81 1873 995.989 1870.91 989.899C1868.59 983.201 1860.67 979.93 1853.2 982.596C1845.74 985.262 1841.56 992.851 1843.89 999.551C1845.89 1005.33 1852.07 1008.55 1858.51 1007.61C1860.35 1011.56 1862.09 1016.11 1863.43 1021.27C1864.17 1024 1864.69 1026.67 1865.09 1029.28C1856.38 1032.66 1848.2 1037.11 1840.67 1042.46C1836.78 1039.52 1832.79 1036.12 1828.87 1032.15C1819.83 1022.99 1813.85 1013.64 1809.93 1006.16C1814.43 1001.23 1815.3 994.096 1811.64 989.13C1807.45 983.448 1798.92 982.749 1792.59 987.568C1786.27 992.389 1784.54 1000.9 1788.71 1006.58C1792.44 1011.6 1799.51 1012.72 1805.49 1009.59C1811.2 1014.93 1818.62 1023.32 1824.28 1035.33C1826.88 1040.83 1828.66 1046.16 1829.91 1051.13C1828.7 1052.23 1827.47 1053.37 1826.3 1054.53C1820.4 1060.4 1815.1 1066.92 1810.54 1073.98C1807.92 1073.18 1805.2 1072.21 1802.42 1071.03C1793.38 1067.21 1786.4 1062.38 1781.35 1058.19C1783.59 1051.8 1781.56 1044.85 1776.2 1041.78C1770.13 1038.29 1762.05 1041.14 1758.16 1048.14C1754.26 1055.14 1756.04 1063.64 1762.14 1067.12C1767.49 1070.19 1774.37 1068.36 1778.6 1063.12C1784.77 1065.37 1792.45 1068.95 1800.35 1074.78C1802.7 1076.53 1804.85 1078.31 1806.86 1080.11C1800.41 1091.58 1795.85 1104.28 1793.59 1117.8C1788.14 1118.2 1782.27 1118.36 1775.97 1118.08C1766.97 1117.69 1758.86 1116.52 1751.77 1115.04C1751.7 1107.95 1747.11 1101.97 1740.8 1101.21C1733.85 1100.39 1727.47 1106.19 1726.54 1114.17C1725.63 1122.15 1730.51 1129.28 1737.44 1130.11C1743.63 1130.84 1749.33 1126.33 1751.19 1119.7C1758.46 1119.94 1766.63 1120.7 1775.47 1122.36C1781.6 1123.51 1787.25 1124.94 1792.48 1126.53C1792.19 1129.6 1792.04 1132.71 1792 1135.86C1791.91 1143.33 1792.5 1150.64 1793.76 1157.74C1787.67 1161.72 1779.32 1166.21 1768.7 1169.31C1759.39 1172.03 1751.03 1172.89 1744.37 1173.01C1742.05 1166.69 1736.16 1162.68 1730.13 1163.79C1723.27 1165.05 1718.82 1172.48 1720.22 1180.39C1721.63 1188.3 1728.35 1193.68 1735.21 1192.42C1741.16 1191.33 1745.27 1185.63 1745.37 1178.99C1752.21 1176.83 1760.28 1174.81 1769.44 1173.55C1779.96 1172.1 1789.4 1171.99 1797.34 1172.43C1800.4 1182.25 1804.76 1191.48 1810.16 1199.96C1807.53 1202.02 1804.62 1204.04 1801.32 1205.93C1795.04 1209.55 1789.02 1211.77 1783.8 1213.19C1780.36 1207.45 1773.82 1204.69 1768.11 1206.95C1761.61 1209.53 1758.65 1217.7 1761.53 1225.17C1763.34 1229.87 1767.02 1233.19 1771.12 1234.36C1773.54 1235.06 1776.11 1235.01 1778.53 1234.05C1779.24 1233.77 1779.93 1233.41 1780.56 1232.98C1785.32 1229.86 1787.41 1223.28 1785.5 1216.97C1790.44 1214.45 1796.22 1211.97 1802.85 1209.94C1807.13 1208.65 1811.2 1207.71 1815.02 1207.02C1818.45 1211.64 1822.22 1215.98 1826.28 1219.99C1826.66 1220.37 1827.05 1220.75 1827.43 1221.11C1824.57 1227.37 1820.3 1234.98 1813.9 1242.66C1807.63 1250.18 1801.15 1255.63 1795.69 1259.47C1790.32 1255.5 1783.22 1255.5 1778.81 1259.82C1773.77 1264.74 1774.14 1273.43 1779.64 1279.22C1785.11 1284.99 1793.66 1285.69 1798.68 1280.76C1803.06 1276.48 1803.36 1269.37 1799.75 1263.79C1804.07 1258.21 1809.68 1251.94 1816.83 1245.76C1824.53 1239.13 1832.09 1234.25 1838.68 1230.66C1847.25 1237.02 1856.75 1242.19 1866.91 1245.94C1866.46 1249.84 1865.72 1254.04 1864.53 1258.45C1861.96 1268.06 1858.19 1275.73 1854.79 1281.38C1848.24 1279.96 1841.72 1282.93 1839.43 1288.73C1836.85 1295.31 1840.7 1303.08 1848.03 1306.07C1855.36 1309.06 1863.41 1306.14 1866.02 1299.54C1868.28 1293.81 1865.68 1287.2 1860.12 1283.61C1861.79 1276.78 1864.39 1268.71 1868.46 1260.05C1870.46 1255.83 1872.56 1251.99 1874.71 1248.49C1882.55 1250.74 1890.73 1252.17 1899.18 1252.64C1900.47 1259.38 1901.5 1266.91 1901.94 1275.14C1902.6 1287.38 1901.82 1298.2 1900.56 1307.12C1894.12 1308.31 1889.26 1313.39 1889.18 1319.54C1889.09 1326.63 1895.42 1332.47 1903.36 1332.56C1911.26 1332.66 1917.73 1326.99 1917.82 1319.89C1917.89 1313.76 1913.18 1308.57 1906.81 1307.21C1905.86 1298.06 1905.41 1287.25 1906.17 1275.19C1906.68 1267.06 1907.68 1259.56 1908.92 1252.78C1917.76 1252.54 1926.35 1251.27 1934.57 1249.07C1935.26 1250.3 1935.93 1251.59 1936.58 1252.91C1940.93 1261.6 1943.22 1269.74 1944.44 1276.24C1938.7 1279.53 1935.71 1286.03 1937.7 1291.88C1939.95 1298.59 1947.86 1301.92 1955.34 1299.32C1962.81 1296.72 1967.06 1289.16 1964.79 1282.44C1962.79 1276.49 1956.33 1273.2 1949.68 1274.34C1946.7 1268.99 1943.25 1260.91 1942.15 1250.61C1942 1249.34 1941.91 1248.09 1941.86 1246.86C1951.01 1243.76 1959.65 1239.49 1967.62 1234.24C1972.66 1238.51 1977.96 1243.6 1983.22 1249.63C1991.31 1258.91 1997.17 1268.03 2001.38 1275.77C1996.95 1280.69 1996.11 1287.77 1999.74 1292.71C2003.95 1298.39 2012.46 1299.08 2018.8 1294.26C2025.11 1289.45 2026.84 1280.94 2022.67 1275.25C2019.04 1270.35 2012.17 1269.15 2006.3 1272.04C2000.09 1265.49 1993.21 1257.21 1986.62 1247.05C1982.36 1240.49 1978.84 1234.13 1975.96 1228.16C1979.17 1225.59 1982.24 1222.86 1985.18 1219.95C1989.96 1215.2 1994.35 1210.03 1998.25 1204.49C2005.3 1206.58 2013.42 1209.62 2022.01 1214.13C2030.31 1218.47 2037.21 1223.21 2042.76 1227.62C2040.56 1233.89 2042.49 1240.73 2047.72 1243.84C2053.74 1247.44 2061.87 1244.73 2065.88 1237.81C2069.89 1230.88 2068.24 1222.35 2062.22 1218.75C2056.95 1215.61 2050.05 1217.28 2045.74 1222.4C2039.52 1219.9 2031.97 1216.14 2024.17 1210.42C2016.06 1204.48 2009.96 1198.14 2005.56 1192.69C2008.65 1186.97 2011.28 1180.95 2013.4 1174.68C2016.78 1174.84 2020.37 1175.19 2024.06 1175.8C2033.61 1177.38 2041.54 1180.22 2047.63 1183.03C2047.02 1189.75 2050.68 1195.95 2056.58 1197.57C2063.33 1199.42 2070.48 1194.64 2072.55 1186.88C2074.61 1179.12 2070.83 1171.33 2064.06 1169.48C2058.15 1167.85 2051.89 1171.36 2049.06 1177.52C2042.57 1176.9 2034.24 1175.34 2025.17 1171.65C2021.74 1170.24 2018.56 1168.68 2015.68 1167.05C2017.2 1161.23 2018.3 1155.24 2018.9 1149.09C2024.79 1148.68 2031.06 1148.45 2037.65 1148.51C2049.27 1148.62 2059.82 1149.6 2069.08 1150.96C2070.12 1157.45 2074.96 1162.44 2080.94 1162.71C2087.93 1162.99 2093.87 1156.72 2094.17 1148.69C2094.49 1140.66 2089.1 1133.92 2082.13 1133.63Z" fill="#FA5652"/>
<path opacity="0.1" d="M1737.44 948.075C1735.03 947.975 1732.92 949.823 1732.3 952.392C1728.56 952.64 1724.29 952.687 1719.61 952.331C1717 952.128 1714.53 951.822 1712.21 951.453C1712.23 951.002 1712.24 950.547 1712.25 950.092C1712.28 947.876 1712.14 945.697 1711.87 943.563C1713.07 942.661 1714.55 941.717 1716.36 940.913C1719.47 939.509 1722.38 939.033 1724.62 938.913C1725.69 941.454 1728.2 942.956 1730.62 942.345C1733.35 941.658 1734.95 938.56 1734.18 935.424C1733.41 932.287 1730.59 930.298 1727.86 930.985C1725.37 931.614 1723.82 934.243 1724.15 937.08C1722.17 938.185 1719.24 939.373 1715.63 939.419C1713.86 939.445 1712.3 939.184 1711.04 938.856C1710.28 935.538 1709.17 932.355 1707.73 929.349C1709.3 927.945 1711.16 926.458 1713.33 925.028C1716.47 922.951 1719.49 921.474 1722.14 920.42C1723.84 922.481 1726.57 923.193 1728.7 921.976C1731.16 920.582 1731.88 917.161 1730.33 914.342C1728.77 911.524 1725.52 910.374 1723.07 911.772C1720.94 912.984 1720.11 915.726 1720.95 918.27C1718.67 920.026 1715.86 921.875 1712.49 923.514C1710.2 924.634 1708.02 925.48 1706.04 926.12C1704.46 923.363 1702.61 920.787 1700.52 918.432C1701.37 915.444 1702.79 911.96 1705.17 908.477C1707.42 905.222 1709.89 902.856 1711.98 901.197C1714.25 902.663 1717.13 902.475 1718.79 900.602C1720.68 898.48 1720.3 895.007 1717.93 892.844C1715.57 890.675 1712.13 890.636 1710.25 892.759C1708.59 894.632 1708.68 897.551 1710.36 899.701C1708.99 901.934 1706.92 904.699 1703.91 907.319C1700.59 910.21 1697.27 911.925 1694.74 912.938C1691.9 910.678 1688.8 908.751 1685.49 907.216C1685.99 905.86 1686.65 904.497 1687.5 903.161C1688.19 902.101 1688.93 901.171 1689.67 900.359C1692.19 901.438 1695.05 900.719 1696.35 898.538C1697.82 896.103 1696.81 892.76 1694.09 891.076C1691.38 889.391 1687.99 889.999 1686.52 892.439C1685.24 894.583 1685.87 897.427 1687.88 899.227C1687.44 900.36 1686.91 901.535 1686.28 902.732C1685.57 904.109 1684.79 905.376 1683.98 906.547C1683.64 906.406 1683.3 906.269 1682.97 906.142C1679.02 904.584 1674.8 903.579 1670.39 903.202C1669.69 901.21 1669.09 899.005 1668.67 896.586C1667.83 891.649 1668.05 887.365 1668.51 884.151C1671.11 883.678 1673.08 881.634 1673.11 879.155C1673.14 876.299 1670.59 873.953 1667.42 873.914C1664.23 873.875 1661.62 876.158 1661.59 879.014C1661.56 881.535 1663.54 883.656 1666.19 884.147C1666.73 887.327 1667.06 891.772 1666.11 896.91C1665.68 899.171 1665.07 901.229 1664.37 903.09C1660.13 903.281 1656.06 904.06 1652.2 905.349C1651.68 904.48 1651.21 903.568 1650.79 902.495C1649.97 900.37 1649.63 898.384 1649.5 896.732C1652 895.448 1653.32 892.706 1652.47 890.257C1651.54 887.562 1648.35 886.247 1645.35 887.319C1642.35 888.391 1640.67 891.444 1641.6 894.139C1642.41 896.464 1644.89 897.758 1647.49 897.381C1648.22 898.969 1648.93 900.799 1649.47 902.874C1649.76 903.973 1649.97 905.047 1650.13 906.097C1646.63 907.458 1643.34 909.247 1640.31 911.4C1638.74 910.219 1637.14 908.851 1635.56 907.251C1631.93 903.568 1629.52 899.807 1627.95 896.799C1629.76 894.814 1630.11 891.945 1628.63 889.947C1626.95 887.661 1623.51 887.381 1620.97 889.319C1618.43 891.258 1617.73 894.682 1619.41 896.967C1620.91 898.987 1623.75 899.438 1626.16 898.178C1628.45 900.325 1631.44 903.702 1633.72 908.534C1634.76 910.743 1635.48 912.888 1635.98 914.886C1635.5 915.33 1635 915.789 1634.53 916.257C1632.15 918.617 1630.02 921.238 1628.19 924.079C1627.13 923.756 1626.04 923.367 1624.92 922.894C1621.29 921.355 1618.48 919.415 1616.45 917.729C1617.35 915.158 1616.53 912.362 1614.37 911.127C1611.93 909.724 1608.68 910.869 1607.12 913.685C1605.55 916.499 1606.27 919.919 1608.72 921.321C1610.87 922.555 1613.64 921.818 1615.34 919.709C1617.82 920.615 1620.91 922.058 1624.09 924.403C1625.04 925.103 1625.9 925.823 1626.71 926.545C1624.11 931.157 1622.28 936.267 1621.37 941.705C1619.18 941.868 1616.82 941.931 1614.28 941.82C1610.66 941.663 1607.4 941.191 1604.55 940.595C1604.52 937.745 1602.67 935.337 1600.13 935.035C1597.34 934.702 1594.77 937.035 1594.4 940.245C1594.03 943.455 1596 946.326 1598.78 946.658C1601.27 946.954 1603.57 945.137 1604.31 942.472C1607.24 942.567 1610.52 942.874 1614.08 943.541C1616.55 944.002 1618.82 944.58 1620.92 945.217C1620.81 946.453 1620.75 947.704 1620.73 948.969C1620.69 951.975 1620.93 954.917 1621.44 957.773C1618.99 959.373 1615.63 961.181 1611.36 962.427C1607.61 963.52 1604.25 963.866 1601.57 963.917C1600.64 961.371 1598.27 959.761 1595.84 960.206C1593.08 960.714 1591.29 963.703 1591.86 966.883C1592.42 970.064 1595.13 972.231 1597.89 971.723C1600.28 971.284 1601.93 968.99 1601.97 966.322C1604.73 965.45 1607.97 964.64 1611.66 964.132C1615.89 963.548 1619.69 963.503 1622.88 963.683C1624.11 967.631 1625.86 971.347 1628.04 974.755C1626.98 975.583 1625.81 976.399 1624.48 977.158C1621.95 978.613 1619.53 979.508 1617.43 980.08C1616.05 977.767 1613.42 976.657 1611.12 977.567C1608.51 978.608 1607.32 981.891 1608.47 984.899C1609.2 986.787 1610.68 988.124 1612.33 988.595C1613.31 988.877 1614.34 988.857 1615.31 988.471C1615.6 988.355 1615.88 988.211 1616.13 988.039C1618.05 986.782 1618.89 984.139 1618.12 981.597C1620.11 980.585 1622.43 979.586 1625.1 978.772C1626.82 978.25 1628.45 977.874 1629.99 977.598C1631.37 979.454 1632.89 981.199 1634.52 982.813C1634.67 982.967 1634.83 983.12 1634.98 983.264C1633.83 985.784 1632.11 988.842 1629.54 991.933C1627.02 994.958 1624.41 997.151 1622.21 998.695C1620.06 997.097 1617.2 997.096 1615.43 998.835C1613.4 1000.82 1613.55 1004.31 1615.76 1006.64C1617.96 1008.96 1621.4 1009.24 1623.42 1007.26C1625.18 1005.54 1625.3 1002.68 1623.85 1000.43C1625.59 998.19 1627.84 995.665 1630.72 993.181C1633.82 990.514 1636.86 988.549 1639.51 987.106C1642.96 989.663 1646.78 991.745 1650.86 993.252C1650.68 994.821 1650.39 996.511 1649.91 998.285C1648.87 1002.15 1647.36 1005.24 1645.99 1007.51C1643.36 1006.94 1640.73 1008.13 1639.81 1010.46C1638.77 1013.11 1640.32 1016.24 1643.27 1017.44C1646.22 1018.64 1649.46 1017.47 1650.51 1014.81C1651.42 1012.51 1650.37 1009.85 1648.13 1008.41C1648.8 1005.66 1649.85 1002.41 1651.49 998.93C1652.29 997.232 1653.14 995.686 1654 994.278C1657.16 995.185 1660.45 995.757 1663.85 995.946C1664.37 998.657 1664.78 1001.69 1664.96 1005C1665.22 1009.92 1664.91 1014.27 1664.4 1017.86C1661.81 1018.34 1659.85 1020.38 1659.82 1022.86C1659.79 1025.71 1662.34 1028.06 1665.53 1028.1C1668.7 1028.14 1671.31 1025.85 1671.34 1023C1671.37 1020.54 1669.48 1018.45 1666.92 1017.9C1666.53 1014.22 1666.35 1009.87 1666.66 1005.02C1666.86 1001.75 1667.27 998.73 1667.76 996.003C1671.32 995.909 1674.78 995.396 1678.08 994.511C1678.36 995.008 1678.63 995.524 1678.89 996.054C1680.64 999.553 1681.56 1002.82 1682.05 1005.44C1679.74 1006.76 1678.54 1009.38 1679.34 1011.73C1680.24 1014.43 1683.43 1015.77 1686.44 1014.73C1689.44 1013.68 1691.15 1010.64 1690.24 1007.94C1689.43 1005.54 1686.84 1004.22 1684.16 1004.68C1682.96 1002.52 1681.57 999.275 1681.13 995.133C1681.07 994.619 1681.03 994.116 1681.01 993.622C1684.7 992.377 1688.17 990.659 1691.38 988.544C1693.4 990.263 1695.54 992.31 1697.65 994.737C1700.91 998.468 1703.26 1002.14 1704.96 1005.25C1703.17 1007.23 1702.84 1010.08 1704.3 1012.07C1705.99 1014.35 1709.42 1014.63 1711.96 1012.69C1714.5 1010.75 1715.2 1007.33 1713.52 1005.04C1712.06 1003.07 1709.3 1002.59 1706.93 1003.75C1704.44 1001.12 1701.67 997.785 1699.02 993.701C1697.3 991.06 1695.89 988.5 1694.73 986.099C1696.02 985.066 1697.26 983.966 1698.44 982.799C1700.36 980.887 1702.13 978.806 1703.7 976.577C1706.53 977.419 1709.8 978.64 1713.26 980.457C1716.59 982.202 1719.37 984.109 1721.6 985.883C1720.72 988.406 1721.49 991.158 1723.6 992.407C1726.02 993.856 1729.29 992.767 1730.9 989.982C1732.52 987.194 1731.85 983.764 1729.43 982.315C1727.31 981.052 1724.54 981.725 1722.8 983.782C1720.3 982.777 1717.26 981.265 1714.12 978.963C1710.86 976.575 1708.41 974.025 1706.64 971.83C1707.88 969.53 1708.94 967.109 1709.79 964.585C1711.15 964.65 1712.59 964.791 1714.08 965.037C1717.92 965.672 1721.11 966.816 1723.56 967.947C1723.32 970.649 1724.79 973.144 1727.16 973.795C1729.88 974.54 1732.75 972.615 1733.59 969.494C1734.41 966.373 1732.89 963.241 1730.17 962.496C1727.79 961.84 1725.28 963.252 1724.14 965.729C1721.52 965.479 1718.17 964.854 1714.53 963.367C1713.15 962.8 1711.87 962.172 1710.71 961.517C1711.32 959.177 1711.76 956.766 1712 954.292C1714.38 954.127 1716.89 954.034 1719.55 954.062C1724.22 954.105 1728.47 954.499 1732.19 955.047C1732.61 957.658 1734.55 959.665 1736.96 959.771C1739.77 959.885 1742.16 957.362 1742.28 954.132C1742.41 950.903 1740.24 948.191 1737.44 948.075Z" fill="#FA5652"/>
</g>
</svg>
