<svg width="1914" height="1000" viewBox="0 0 1914 1000" fill="none" xmlns="http://www.w3.org/2000/svg">
<mask id="mask0" mask-type="alpha" maskUnits="userSpaceOnUse" x="0" y="0" width="1914" height="1000">
<rect width="1914" height="1000" fill="#C4C4C4"/>
</mask>
<g mask="url(#mask0)">
<path d="M345.688 745.116C341.61 744.997 338.096 748.145 337.098 752.473C330.786 752.966 323.574 753.133 315.657 752.631C311.254 752.344 307.067 751.882 303.152 751.309C303.174 750.552 303.185 749.787 303.185 749.022C303.185 745.301 302.913 741.643 302.415 738.064C304.41 736.525 306.905 734.908 309.93 733.522C315.169 731.099 320.071 730.239 323.856 729.991C325.711 734.238 329.973 736.709 334.051 735.633C338.649 734.423 341.285 729.186 339.918 723.935C338.562 718.682 333.747 715.399 329.149 716.61C324.962 717.718 322.403 722.165 323.01 726.923C319.702 728.82 314.778 730.875 308.683 731.027C305.679 731.107 303.044 730.7 300.907 730.175C299.551 724.619 297.61 719.296 295.126 714.276C297.751 711.885 300.853 709.351 304.486 706.904C309.746 703.35 314.822 700.808 319.279 698.982C322.186 702.41 326.817 703.549 330.396 701.462C334.506 699.07 335.656 693.308 332.977 688.606C330.298 683.905 324.778 682.04 320.667 684.439C317.099 686.518 315.754 691.141 317.229 695.397C313.401 698.393 308.694 701.556 303.044 704.378C299.204 706.306 295.528 707.773 292.198 708.888C289.476 704.29 286.298 700.002 282.719 696.089C284.097 691.053 286.417 685.172 290.376 679.274C294.096 673.76 298.217 669.735 301.72 666.906C305.581 669.321 310.44 668.946 313.206 665.766C316.351 662.164 315.635 656.339 311.59 652.754C307.566 649.159 301.753 649.166 298.619 652.769C295.853 655.949 296.07 660.85 298.944 664.427C296.677 668.205 293.25 672.891 288.218 677.354C282.665 682.279 277.09 685.228 272.839 686.981C268.002 683.243 262.731 680.071 257.102 677.561C257.916 675.273 259 672.971 260.421 670.708C261.56 668.915 262.785 667.337 264.022 665.958C268.306 667.719 273.11 666.452 275.268 662.763C277.698 658.642 275.919 653.047 271.299 650.275C266.679 647.501 260.974 648.593 258.545 652.721C256.419 656.348 257.536 661.112 260.974 664.093C260.258 666.006 259.391 667.991 258.349 670.014C257.167 672.341 255.888 674.486 254.532 676.469C253.957 676.238 253.393 676.015 252.818 675.808C246.116 673.274 238.969 671.673 231.518 671.13C230.292 667.799 229.229 664.107 228.481 660.053C226.963 651.779 227.245 644.579 227.95 639.171C232.331 638.323 235.606 634.849 235.606 630.686C235.606 625.889 231.258 622 225.889 622C220.51 622 216.15 625.889 216.15 630.686C216.15 634.921 219.544 638.443 224.034 639.212C225.01 644.542 225.65 652.002 224.154 660.65C223.481 664.457 222.494 667.926 221.345 671.067C214.198 671.473 207.332 672.866 200.847 675.11C199.947 673.661 199.133 672.141 198.407 670.347C196.975 666.794 196.357 663.465 196.107 660.694C200.305 658.486 202.463 653.854 200.988 649.757C199.361 645.251 193.949 643.106 188.895 644.969C183.852 646.832 181.076 651.994 182.713 656.501C184.123 660.389 188.342 662.512 192.713 661.825C193.992 664.478 195.218 667.536 196.172 671.011C196.693 672.851 197.073 674.65 197.365 676.41C191.476 678.767 185.956 681.841 180.88 685.519C178.212 683.568 175.479 681.303 172.779 678.648C166.564 672.537 162.421 666.269 159.699 661.249C162.714 657.879 163.246 653.053 160.719 649.728C157.823 645.924 152.021 645.522 147.758 648.831C143.507 652.14 142.401 657.905 145.286 661.709C147.856 665.069 152.671 665.768 156.706 663.603C160.632 667.161 165.74 672.773 169.688 680.84C171.499 684.53 172.757 688.117 173.646 691.463C172.833 692.219 172.009 692.999 171.217 693.795C167.258 697.809 163.712 702.253 160.675 707.063C158.886 706.542 157.031 705.912 155.133 705.141C148.962 702.63 144.179 699.429 140.709 696.64C142.184 692.303 140.741 687.624 137.076 685.595C132.922 683.288 127.456 685.278 124.874 690.039C122.282 694.798 123.562 700.527 127.738 702.833C131.393 704.86 136.056 703.565 138.887 699.988C143.095 701.459 148.344 703.818 153.756 707.692C155.372 708.849 156.847 710.039 158.224 711.235C153.94 719.035 150.947 727.656 149.526 736.808C145.828 737.127 141.837 737.28 137.553 737.147C131.436 736.957 125.915 736.233 121.089 735.29C120.981 730.504 117.814 726.498 113.519 726.042C108.791 725.54 104.507 729.511 103.943 734.91C103.389 740.309 106.762 745.091 111.48 745.591C115.688 746.037 119.528 742.938 120.731 738.446C125.677 738.547 131.23 738.994 137.249 740.041C141.424 740.765 145.275 741.689 148.843 742.716C148.669 744.794 148.593 746.896 148.593 749.022C148.593 754.07 149.06 759.007 149.971 763.793C145.871 766.532 140.232 769.637 133.041 771.818C126.74 773.73 121.068 774.381 116.545 774.521C114.918 770.265 110.884 767.61 106.795 768.407C102.142 769.316 99.1815 774.373 100.201 779.703C101.22 785.034 105.83 788.617 110.482 787.708C114.517 786.921 117.261 783.034 117.272 778.553C121.903 777.032 127.369 775.604 133.583 774.675C140.72 773.607 147.129 773.454 152.53 773.691C154.689 780.296 157.725 786.5 161.467 792.18C159.699 793.592 157.736 794.986 155.513 796.289C151.272 798.785 147.205 800.338 143.67 801.342C141.284 797.486 136.815 795.676 132.954 797.251C128.562 799.053 126.62 804.591 128.638 809.62C129.907 812.775 132.434 814.991 135.232 815.748C136.88 816.202 138.626 816.147 140.264 815.478C140.741 815.278 141.208 815.031 141.631 814.736C144.841 812.586 146.207 808.128 144.852 803.875C148.192 802.134 152.097 800.409 156.587 798.987C159.482 798.075 162.237 797.409 164.829 796.914C167.193 800.004 169.796 802.903 172.584 805.579C172.844 805.835 173.115 806.09 173.375 806.328C171.488 810.584 168.647 815.756 164.363 820.999C160.165 826.132 155.806 829.869 152.129 832.509C148.452 829.869 143.626 829.926 140.665 832.882C137.282 836.253 137.607 842.119 141.392 845.984C145.155 849.84 150.969 850.24 154.341 846.868C157.281 843.942 157.422 839.131 154.927 835.393C157.812 831.59 161.575 827.304 166.38 823.072C171.553 818.53 176.651 815.167 181.097 812.688C186.976 816.911 193.472 820.33 200.402 822.777C200.131 825.414 199.665 828.259 198.895 831.248C197.224 837.76 194.73 842.979 192.463 846.821C188.006 845.919 183.602 847.976 182.095 851.913C180.392 856.384 183.071 861.596 188.082 863.556C193.081 865.516 198.526 863.476 200.25 858.997C201.736 855.108 199.914 850.662 196.107 848.286C197.181 843.656 198.884 838.181 201.573 832.299C202.897 829.432 204.296 826.817 205.727 824.435C211.074 825.893 216.638 826.786 222.386 827.033C223.319 831.576 224.078 836.66 224.446 842.214C225 850.478 224.555 857.794 223.774 863.834C219.414 864.688 216.15 868.162 216.15 872.315C216.15 877.112 220.499 881 225.889 881C231.258 881 235.607 877.112 235.607 872.315C235.607 868.178 232.364 864.711 228.025 863.842C227.299 857.666 226.908 850.367 227.321 842.214C227.603 836.714 228.221 831.639 229.002 827.048C235.01 826.817 240.834 825.886 246.398 824.331C246.875 825.159 247.341 826.02 247.797 826.906C250.823 832.746 252.45 838.222 253.328 842.604C249.456 844.876 247.482 849.291 248.881 853.228C250.465 857.746 255.866 859.93 260.931 858.112C265.985 856.288 268.804 851.147 267.21 846.629C265.8 842.621 261.386 840.452 256.874 841.282C254.803 837.687 252.395 832.26 251.56 825.311C251.452 824.45 251.376 823.606 251.332 822.777C257.525 820.609 263.36 817.653 268.729 814.035C272.188 816.879 275.832 820.274 279.455 824.307C285.029 830.507 289.085 836.62 292.014 841.815C289.042 845.178 288.532 849.968 291.038 853.275C293.944 857.077 299.736 857.475 303.998 854.167C308.249 850.861 309.356 845.099 306.471 841.29C303.965 838.006 299.291 837.257 295.322 839.258C291.048 834.882 286.309 829.344 281.743 822.538C278.793 818.138 276.353 813.868 274.347 809.858C276.505 808.098 278.565 806.225 280.539 804.24C283.749 800.989 286.689 797.458 289.292 793.681C294.096 795.037 299.638 797.021 305.516 800.001C311.188 802.863 315.917 806.01 319.724 808.942C318.281 813.199 319.648 817.804 323.227 819.86C327.348 822.243 332.847 820.346 335.515 815.637C338.183 810.919 336.99 805.173 332.869 802.789C329.268 800.711 324.594 801.899 321.709 805.389C317.457 803.754 312.295 801.276 306.948 797.475C301.395 793.53 297.198 789.298 294.161 785.648C296.211 781.76 297.946 777.672 299.334 773.415C301.634 773.495 304.074 773.703 306.59 774.085C313.086 775.073 318.498 776.93 322.663 778.778C322.305 783.322 324.843 787.481 328.867 788.525C333.465 789.721 338.28 786.429 339.625 781.17C340.959 775.911 338.324 770.683 333.715 769.487C329.68 768.434 325.461 770.858 323.585 775.041C319.171 774.675 313.499 773.694 307.306 771.272C304.963 770.347 302.794 769.319 300.82 768.243C301.807 764.3 302.501 760.242 302.859 756.082C306.861 755.756 311.113 755.548 315.592 755.54C323.487 755.517 330.667 756.09 336.968 756.935C337.727 761.31 341.057 764.641 345.124 764.77C349.874 764.904 353.855 760.617 353.996 755.19C354.147 749.764 350.427 745.252 345.688 745.116Z" fill="#FFD0D0"/>
</g>
</svg>
