<svg width="1920" height="959" viewBox="0 0 1920 959" fill="none" xmlns="http://www.w3.org/2000/svg">
<g opacity="0.67">
<path d="M1184.06 512.954L1165.92 518.999L1183.72 507.812C1183.57 506.105 1183.39 504.384 1183.18 502.65L1173.6 504.492L1182.66 498.882C1180.59 485.514 1175.97 468.736 1169.64 451.611L1134.35 465.235L1168.08 447.45C1159.22 424.441 1147.38 401.264 1134.54 385.28L1115.57 398.671L1130.7 380.742C1119.01 367.744 1106.67 361.127 1095.09 366.242C1081.02 372.459 1076.99 402.602 1081.32 438.95L1090.82 438.781L1081.53 440.64C1083.53 456.547 1087.11 473.572 1092.13 490.267L1128.37 478.036L1093.77 495.549C1101.43 519.41 1112.03 542.244 1125.18 559.742L1139.46 545.455L1127.86 563.19C1138.93 576.947 1151.68 586.921 1165.92 590.684C1165.92 590.684 1186.06 556.831 1184.06 512.954Z" fill="#03673D"/>
<path d="M1168 590.684C1168 590.684 1188.14 556.831 1186.13 512.954L1168 518.999L1185.79 507.812C1185.65 506.105 1185.47 504.384 1185.25 502.65L1175.68 504.492L1184.74 498.882C1182.67 485.514 1178.05 468.736 1171.72 451.613L1136.42 465.235L1170.15 447.452C1161.29 424.441 1149.46 401.264 1136.62 385.28L1117.65 398.673L1132.77 380.742C1121.09 367.744 1108.74 361.127 1097.16 366.242C1097.16 366.242 1149.84 491.815 1166.97 590.385C1167.31 590.481 1167.65 590.593 1168 590.684Z" fill="#04AD66"/>
<path d="M1156.67 618.274L1143.25 621.406L1155.5 614.766C1154.24 611.165 1152.74 607.409 1150.93 603.484C1147.2 595.411 1141.87 586.174 1135.69 577.242L1123.62 586.416L1132.12 572.243C1113.4 546.862 1088.79 526.341 1076.68 546.308C1071.71 554.513 1071.38 567.576 1074.82 582.261L1102.28 581.297L1075.8 586.151C1078.55 596.172 1082.95 606.79 1088.75 617.042L1098.02 612.872L1090.03 619.261C1096.15 629.642 1103.69 639.561 1112.4 647.998L1131.3 627.381L1115.01 650.455C1126.46 660.883 1139.76 668.709 1154.34 671.756C1154.34 671.756 1167.61 653.14 1156.67 618.274Z" fill="#10794D"/>
<path d="M1153.26 671.506C1153.62 671.588 1153.98 671.68 1154.34 671.755C1154.34 671.755 1167.62 653.139 1156.67 618.275L1143.25 621.406L1155.51 614.766C1154.25 611.165 1152.74 607.409 1150.93 603.485C1147.2 595.412 1141.87 586.175 1135.69 577.241L1123.62 586.417L1132.13 572.244C1114.48 548.317 1091.6 528.727 1078.89 543.28C1089.07 557.001 1131.94 616.438 1153.26 671.506Z" fill="#04AD66"/>
<path d="M1115.34 656.605C1107.85 649.528 1094.48 640.84 1078.96 632.854C1072.23 642.798 1064.72 654.028 1063.43 656.488C1063.24 656.927 1063.17 657.078 1063.26 656.852C1063.29 656.768 1063.35 656.644 1063.43 656.488C1064.52 653.909 1069.78 640.924 1074.05 630.387C1064.74 625.818 1054.83 621.574 1045.05 618.112L1039.73 643.361L1042.18 617.117C1011.69 606.774 983.263 604.54 979.643 624.567C978.642 630.102 980.583 636.252 984.742 642.689C996.429 642.005 1013.33 640.908 1013.33 640.908L988.688 648.07C997.727 659.208 1012.58 670.914 1029.79 681.611L1044.58 652.904L1032.49 683.264C1050.63 694.266 1071.1 704.081 1090.03 710.944C1091.64 703.864 1092.81 698.734 1092.81 698.734L1093.05 712.015C1096.7 713.288 1100.27 714.442 1103.76 715.471L1105.32 709.348L1106.35 716.216C1123.69 721.079 1138.43 722.595 1146.88 719.069C1146.88 719.069 1153.6 692.745 1115.34 656.605Z" fill="#007248"/>
<path d="M1220.36 467.595C1238.63 422.59 1263.62 413.195 1273.83 414.123C1290.76 411.896 1291.65 441.416 1289.98 456.455H1264.36L1289.98 461.468C1289.53 485.531 1283.11 511.227 1279.95 521.067L1248.21 514.94L1279.95 525.523C1271.93 555.824 1259.9 583.823 1254.89 594.034L1222.58 578.995L1253.22 597.376L1249.32 604.06L1240.41 602.389L1248.21 606.288C1234.39 634.361 1208.66 645.835 1197.52 648.063C1188.16 636.923 1185.45 615.572 1185.26 606.288L1201.97 602.389H1185.26C1183.48 586.348 1188.98 558.572 1191.95 546.689L1204.76 552.259L1192.51 543.904L1194.18 538.334L1221.47 546.689L1196.4 531.093C1199.08 515.497 1212 484.862 1218.13 471.494L1235.39 473.722L1220.36 467.595Z" fill="#096B42"/>
<path d="M1248.47 607.233C1234.37 635.021 1208.73 646.807 1197.67 649.227C1214.26 534.754 1258.15 444.958 1278.03 414.37C1291.71 416.859 1292.02 444.094 1290.47 457.401L1265.06 456.364L1290.47 461.03C1288.81 488.404 1283.56 512.875 1281.14 521.689L1246.92 514.43L1279.58 525.318C1271.7 559.328 1259.71 585.458 1254.7 594.271L1223.07 578.718L1253.66 597.382L1249.51 604.64L1240.7 602.567L1248.47 607.233Z" fill="#0EA867"/>
<path fill-rule="evenodd" clip-rule="evenodd" d="M1180.61 809.193C1180.61 809.195 1180.61 809.196 1179.94 809.151L1180.61 809.196C1180.58 809.547 1180.29 809.819 1179.94 809.818C1179.59 809.817 1179.3 809.542 1179.28 809.191C1176.71 766.115 1159.72 733.149 1137.66 708.094C1115.94 684.505 1090.32 667.137 1065.03 654.374C1065.06 654.328 1065.08 654.281 1065.11 654.234C1048.34 645.894 1033.93 640.651 1025.6 637.62L1025.6 637.619C1023.69 636.926 1022.11 636.348 1020.88 635.875C1005.75 630.856 991.84 627.367 980.33 624.964C980.343 624.86 980.353 624.755 980.363 624.65C980.379 624.48 980.394 624.31 980.425 624.143C984.013 604.832 1012.31 607.012 1042.66 617.014L1040.3 641.74C1040.33 641.748 1040.35 641.757 1040.37 641.766L1045.52 617.975C1055.26 621.324 1065.12 625.426 1074.4 629.839C1070.95 638.096 1066.85 647.901 1064.86 652.621C1065.18 652.781 1065.51 652.941 1065.83 653.103C1068.66 648.697 1074.56 640.091 1079.95 632.282C1095.6 640.168 1109.08 648.744 1116.63 655.729C1155.21 691.398 1148.45 717.355 1148.45 717.355C1148.08 717.508 1147.69 717.649 1147.29 717.779C1163.63 739.429 1176 766.249 1179.76 799.325C1180 793.493 1180.25 785.212 1180.38 774.913C1180.63 753.413 1180.28 723.12 1177.9 687.953C1173.13 617.609 1160.2 527.811 1127.58 449.882C1127.44 449.543 1127.6 449.152 1127.94 449.01C1128.28 448.868 1128.67 449.028 1128.81 449.367C1161.52 527.492 1174.46 617.457 1179.23 687.863C1181.62 723.071 1181.96 753.4 1181.71 774.928C1181.58 785.692 1181.31 794.257 1181.06 800.131C1180.94 803.069 1180.83 805.333 1180.74 806.865C1180.7 807.63 1180.67 808.212 1180.64 808.604C1180.64 808.735 1180.63 808.844 1180.62 808.932L1180.62 809.046L1180.61 809.158L1180.61 809.186L1180.61 809.193Z" fill="#128E5A"/>
<path d="M1106.55 582.15C1106.55 582.15 1179.94 684.556 1179.94 809.151C1191.04 591.538 1247.44 472.955 1247.44 472.955" stroke="#014D2D" stroke-miterlimit="10" stroke-linecap="round" stroke-linejoin="round"/>
<path d="M1203.91 774.692H1145.04C1145.04 774.692 1129.19 900.176 1180.14 914.741C1231.08 929.306 1203.91 774.692 1203.91 774.692Z" fill="#F52D29"/>
<path d="M1214.26 774.692H1159.07C1159.07 774.692 1146.58 900.176 1186.72 914.741C1250.55 921.931 1214.26 774.692 1214.26 774.692Z" fill="#F80700"/>
</g>
<g opacity="0.76">
<path d="M1226.78 187.178H1207.74V262.1H1226.78V187.178Z" fill="#FF1F55"/>
<path d="M1249.35 187.178H1230.31V262.1H1249.35V187.178Z" fill="#FFC702"/>
<path d="M1263.42 188.519L1247.29 198.643L1287.17 262.101L1303.3 251.978L1263.42 188.519Z" fill="#3D99EE"/>
<path d="M1411.98 278.616H1206.52C1202.14 278.616 1197.94 276.876 1194.84 273.778C1191.74 270.681 1190 266.48 1190 262.1H1428.5C1428.5 266.48 1426.76 270.68 1423.66 273.778C1420.56 276.875 1416.36 278.615 1411.98 278.616Z" fill="#6F2A1A"/>
<path d="M1415.88 189.953H1324.93V262.099H1415.88V189.953Z" fill="#BDD8F5"/>
<path d="M1409.8 197.04H1331.01V254.998H1409.8V197.04Z" fill="#FB4C47"/>
<path d="M1370.41 244.616C1380.68 244.616 1389.01 236.293 1389.01 226.026C1389.01 215.759 1380.68 207.436 1370.41 207.436C1360.13 207.436 1351.81 215.759 1351.81 226.026C1351.81 236.293 1360.13 244.616 1370.41 244.616Z" fill="#FFC700"/>
<path d="M1392.86 254.998H1331.01V227.246C1341.69 226.842 1357.46 228.14 1372.36 236.701C1380.39 241.312 1387.37 247.544 1392.86 254.998Z" fill="#1DB776"/>
<path d="M1409.8 216.881V254.999H1360.22C1363.39 248.367 1367.48 242.209 1372.35 236.701C1380.82 227.187 1392.89 218.991 1409.8 216.881Z" fill="#11915B"/>
<path d="M1238.23 292.954H1223.41L1225.46 262.099H1236.19L1238.23 292.954Z" fill="#592A3C"/>
<path d="M1395.09 292.954H1380.27L1382.32 262.099H1393.05L1395.09 292.954Z" fill="#592A3C"/>
<path d="M1706.91 245.912H1495.48V147H1706.91V245.912ZM1504.55 236.852H1697.85V156.062H1504.55L1504.55 236.852Z" fill="#925C50"/>
<path d="M1697.85 156.062H1504.55V236.853H1697.85V156.062Z" fill="white"/>
<path d="M1547.53 215.818C1563.82 212.004 1573.93 195.713 1570.11 179.433C1566.3 163.152 1550 153.046 1533.71 156.86C1517.42 160.675 1507.31 176.965 1511.13 193.246C1514.94 209.527 1531.24 219.633 1547.53 215.818Z" fill="#FFC700"/>
<path d="M1504.55 211.346L1562.01 185.697C1566.59 183.653 1571.64 182.898 1576.61 183.512C1581.59 184.126 1586.3 186.087 1590.25 189.183L1650.97 236.852H1504.55L1504.55 211.346Z" fill="#11915B"/>
<path d="M1604.88 200.669L1648.16 186.366C1652.79 184.836 1657.74 184.562 1662.51 185.572C1667.28 186.581 1671.7 188.838 1675.31 192.112L1697.85 212.549V236.858H1650.97L1604.88 200.669Z" fill="#1DB776"/>
</g>
<path opacity="0.89" d="M1391.97 385.419C1390 385.362 1388.3 386.881 1387.82 388.969C1384.76 389.208 1381.27 389.289 1377.44 389.046C1375.3 388.908 1373.27 388.685 1371.37 388.408C1371.38 388.042 1371.39 387.673 1371.39 387.304C1371.39 385.508 1371.26 383.743 1371.02 382.016C1371.99 381.273 1373.19 380.493 1374.66 379.823C1377.19 378.654 1379.57 378.239 1381.4 378.119C1382.3 380.17 1384.36 381.361 1386.34 380.843C1388.57 380.258 1389.84 377.731 1389.18 375.196C1388.53 372.662 1386.19 371.077 1383.97 371.662C1381.94 372.196 1380.7 374.343 1380.99 376.639C1379.39 377.554 1377.01 378.546 1374.06 378.62C1372.6 378.658 1371.32 378.462 1370.29 378.208C1369.63 375.527 1368.69 372.958 1367.49 370.535C1368.76 369.381 1370.26 368.158 1372.02 366.977C1374.57 365.262 1377.03 364.035 1379.19 363.154C1380.59 364.808 1382.84 365.358 1384.57 364.35C1386.56 363.196 1387.12 360.415 1385.82 358.147C1384.52 355.877 1381.85 354.977 1379.86 356.135C1378.13 357.139 1377.48 359.37 1378.19 361.423C1376.34 362.87 1374.06 364.396 1371.33 365.758C1369.46 366.689 1367.68 367.396 1366.07 367.935C1364.76 365.715 1363.21 363.646 1361.48 361.758C1362.15 359.327 1363.27 356.488 1365.19 353.643C1366.99 350.981 1368.99 349.039 1370.69 347.673C1372.56 348.839 1374.91 348.658 1376.25 347.123C1377.77 345.385 1377.42 342.573 1375.46 340.842C1373.51 339.108 1370.7 339.112 1369.18 340.85C1367.84 342.385 1367.95 344.75 1369.34 346.477C1368.24 348.3 1366.58 350.562 1364.14 352.715C1361.46 355.093 1358.75 356.516 1356.7 357.362C1354.36 355.558 1351.81 354.027 1349.08 352.816C1349.47 351.712 1350 350.6 1350.68 349.508C1351.23 348.643 1351.83 347.881 1352.43 347.216C1354.51 348.066 1356.83 347.454 1357.87 345.673C1359.05 343.685 1358.19 340.985 1355.95 339.646C1353.72 338.308 1350.95 338.835 1349.78 340.827C1348.75 342.577 1349.29 344.877 1350.95 346.315C1350.61 347.238 1350.18 348.197 1349.69 349.173C1349.11 350.296 1348.49 351.331 1347.83 352.289C1347.56 352.177 1347.28 352.069 1347 351.97C1343.75 350.747 1340.29 349.974 1336.69 349.712C1336.1 348.104 1335.58 346.323 1335.22 344.366C1334.48 340.373 1334.62 336.897 1334.96 334.287C1337.08 333.878 1338.67 332.202 1338.67 330.192C1338.67 327.877 1336.56 326 1333.96 326C1331.36 326 1329.25 327.877 1329.25 330.192C1329.25 332.236 1330.9 333.936 1333.07 334.308C1333.54 336.879 1333.85 340.48 1333.12 344.654C1332.79 346.491 1332.32 348.166 1331.76 349.681C1328.31 349.878 1324.98 350.55 1321.84 351.632C1321.4 350.933 1321.01 350.2 1320.66 349.334C1319.96 347.62 1319.66 346.013 1319.54 344.675C1321.57 343.61 1322.62 341.374 1321.9 339.396C1321.12 337.221 1318.49 336.187 1316.05 337.086C1313.61 337.985 1312.26 340.476 1313.05 342.651C1313.73 344.528 1315.78 345.552 1317.9 345.221C1318.52 346.501 1319.11 347.978 1319.58 349.654C1319.82 350.542 1320.01 351.41 1320.15 352.26C1317.3 353.397 1314.62 354.881 1312.17 356.656C1310.87 355.714 1309.55 354.621 1308.25 353.34C1305.24 350.391 1303.23 347.366 1301.91 344.943C1303.37 343.316 1303.63 340.987 1302.4 339.382C1301 337.547 1298.19 337.353 1296.13 338.95C1294.07 340.546 1293.53 343.329 1294.94 345.164C1296.17 346.787 1298.51 347.124 1300.46 346.079C1302.36 347.796 1304.83 350.505 1306.75 354.398C1307.62 356.178 1308.24 357.91 1308.66 359.525C1308.27 359.89 1307.87 360.266 1307.49 360.65C1305.57 362.587 1303.86 364.732 1302.38 367.054C1301.52 366.802 1300.62 366.499 1299.7 366.126C1296.71 364.914 1294.39 363.37 1292.71 362.024C1293.43 359.931 1292.73 357.672 1290.96 356.693C1288.94 355.58 1286.3 356.54 1285.04 358.837C1283.79 361.135 1284.41 363.9 1286.43 365.012C1288.2 365.991 1290.46 365.365 1291.83 363.639C1293.87 364.349 1296.41 365.488 1299.03 367.357C1299.81 367.916 1300.53 368.49 1301.2 369.068C1299.12 372.832 1297.67 376.992 1296.98 381.409C1295.19 381.564 1293.26 381.637 1291.18 381.573C1288.23 381.481 1285.55 381.132 1283.22 380.677C1283.16 378.367 1281.63 376.433 1279.54 376.213C1277.26 375.972 1275.18 377.888 1274.92 380.494C1274.64 383.099 1276.28 385.407 1278.56 385.649C1280.6 385.864 1282.46 384.368 1283.04 382.2C1285.44 382.249 1288.13 382.465 1291.04 382.97C1293.06 383.319 1294.93 383.765 1296.65 384.261C1296.57 385.264 1296.53 386.278 1296.53 387.304C1296.53 389.741 1296.76 392.124 1297.2 394.433C1295.22 395.754 1292.48 397.253 1289 398.306C1285.95 399.229 1283.2 399.543 1281.01 399.61C1280.23 397.556 1278.27 396.275 1276.29 396.66C1274.04 397.099 1272.6 399.54 1273.1 402.112C1273.59 404.685 1275.82 406.414 1278.08 405.975C1280.03 405.596 1281.36 403.72 1281.37 401.556C1283.61 400.822 1286.25 400.134 1289.26 399.684C1292.72 399.169 1295.83 399.096 1298.44 399.21C1299.49 402.397 1300.95 405.392 1302.76 408.134C1301.91 408.815 1300.95 409.488 1299.89 410.117C1297.83 411.321 1295.86 412.071 1294.15 412.555C1292.99 410.694 1290.83 409.821 1288.96 410.581C1286.83 411.45 1285.89 414.123 1286.87 416.55C1287.48 418.073 1288.71 419.142 1290.06 419.508C1290.86 419.727 1291.7 419.7 1292.5 419.377C1292.73 419.281 1292.96 419.162 1293.16 419.019C1294.72 417.981 1295.38 415.83 1294.72 413.778C1296.34 412.937 1298.23 412.105 1300.41 411.419C1301.8 410.978 1303.14 410.658 1304.4 410.418C1305.54 411.909 1306.8 413.309 1308.15 414.601C1308.28 414.723 1308.41 414.846 1308.53 414.962C1307.62 417.016 1306.24 419.512 1304.17 422.043C1302.14 424.519 1300.02 426.323 1298.25 427.596C1296.46 426.323 1294.13 426.35 1292.69 427.777C1291.06 429.404 1291.21 432.235 1293.04 434.1C1294.87 435.962 1297.68 436.154 1299.32 434.527C1300.73 433.116 1300.8 430.793 1299.59 428.988C1300.99 427.154 1302.82 425.085 1305.15 423.042C1307.65 420.85 1310.12 419.227 1312.27 418.031C1315.12 420.069 1318.27 421.719 1321.63 422.9C1321.49 424.173 1321.26 425.546 1320.89 426.988C1320.09 430.131 1318.87 432.65 1317.77 434.504C1315.62 434.069 1313.49 435.061 1312.76 436.961C1311.93 439.119 1313.22 441.635 1315.65 442.581C1318.08 443.528 1320.72 442.543 1321.54 440.381C1322.27 438.504 1321.38 436.358 1319.54 435.212C1320.06 432.977 1320.88 430.335 1322.19 427.497C1322.83 426.112 1323.5 424.85 1324.2 423.7C1326.79 424.404 1329.49 424.835 1332.26 424.954C1332.72 427.146 1333.09 429.6 1333.26 432.281C1333.53 436.269 1333.31 439.8 1332.94 442.716C1330.82 443.129 1329.25 444.805 1329.25 446.808C1329.25 449.122 1331.36 451 1333.96 451C1336.56 451 1338.67 449.122 1338.67 446.808C1338.67 444.812 1337.1 443.139 1335 442.719C1334.65 439.738 1334.45 436.216 1334.65 432.281C1334.79 429.627 1335.09 427.177 1335.47 424.962C1338.38 424.85 1341.2 424.4 1343.89 423.65C1344.12 424.05 1344.35 424.465 1344.57 424.892C1346.03 427.712 1346.82 430.354 1347.25 432.47C1345.37 433.565 1344.42 435.696 1345.09 437.596C1345.87 439.777 1348.48 440.831 1350.93 439.954C1353.38 439.073 1354.74 436.592 1353.97 434.411C1353.29 432.477 1351.15 431.431 1348.96 431.831C1347.96 430.096 1346.8 427.477 1346.39 424.123C1346.34 423.708 1346.3 423.3 1346.28 422.9C1349.28 421.854 1352.11 420.427 1354.7 418.681C1356.38 420.054 1358.15 421.693 1359.91 423.639C1362.6 426.631 1364.56 429.581 1365.98 432.088C1364.54 433.712 1364.29 436.023 1365.51 437.619C1366.92 439.454 1369.72 439.646 1371.78 438.05C1373.85 436.454 1374.39 433.673 1372.98 431.834C1371.77 430.25 1369.51 429.889 1367.59 430.854C1365.52 428.742 1363.22 426.069 1361.01 422.785C1359.58 420.662 1358.4 418.6 1357.43 416.666C1358.47 415.816 1359.47 414.912 1360.42 413.954C1361.98 412.385 1363.41 410.681 1364.66 408.858C1366.99 409.512 1369.67 410.469 1372.52 411.908C1375.27 413.289 1377.55 414.808 1379.4 416.223C1378.7 418.277 1379.37 420.5 1381.09 421.492C1383.09 422.643 1385.75 421.727 1387.05 419.454C1388.34 417.177 1387.76 414.404 1385.77 413.254C1384.02 412.25 1381.76 412.823 1380.36 414.508C1378.3 413.719 1375.8 412.523 1373.22 410.689C1370.52 408.785 1368.5 406.743 1367.02 404.981C1368.02 403.104 1368.86 401.131 1369.53 399.077C1370.64 399.116 1371.82 399.216 1373.05 399.4C1376.19 399.877 1378.81 400.774 1380.82 401.666C1380.65 403.858 1381.88 405.866 1383.83 406.369C1386.06 406.946 1388.39 405.358 1389.04 402.819C1389.68 400.281 1388.4 397.758 1386.18 397.181C1384.22 396.673 1382.18 397.843 1381.27 399.862C1379.13 399.685 1376.39 399.212 1373.4 398.042C1372.25 397.597 1371.2 397.1 1370.25 396.581C1370.72 394.677 1371.06 392.719 1371.23 390.712C1373.17 390.554 1375.23 390.454 1377.4 390.45C1381.23 390.439 1384.7 390.715 1387.75 391.123C1388.12 393.235 1389.73 394.843 1391.7 394.904C1394 394.969 1395.93 392.9 1396 390.281C1396.07 387.662 1394.27 385.485 1391.97 385.419Z" fill="#FA5752" fill-opacity="0.82"/>
<path opacity="0.93" d="M1045.81 281.743C1042.78 281.654 1040.17 284 1039.42 287.224C1034.73 287.593 1029.36 287.717 1023.48 287.343C1020.19 287.13 1017.08 286.785 1014.16 286.357C1014.18 285.793 1014.19 285.223 1014.19 284.653C1014.19 281.88 1013.99 279.154 1013.62 276.488C1015.1 275.342 1016.96 274.136 1019.2 273.102C1023.1 271.298 1026.76 270.656 1029.57 270.472C1030.95 273.638 1034.11 275.478 1037.16 274.677C1040.58 273.774 1042.53 269.872 1041.52 265.959C1040.52 262.046 1036.93 259.599 1033.51 260.502C1030.39 261.327 1028.49 264.641 1028.94 268.186C1026.48 269.599 1022.82 271.131 1018.28 271.244C1016.04 271.304 1014.08 271 1012.49 270.608C1011.49 266.47 1010.03 262.502 1008.19 258.761C1010.14 256.98 1012.45 255.091 1015.16 253.268C1019.07 250.62 1022.85 248.725 1026.16 247.366C1028.32 249.919 1031.78 250.768 1034.43 249.212C1037.49 247.431 1038.35 243.137 1036.36 239.634C1034.36 236.13 1030.25 234.74 1027.2 236.527C1024.53 238.078 1023.54 241.523 1024.64 244.693C1021.79 246.926 1018.29 249.284 1014.09 251.386C1011.23 252.823 1008.49 253.916 1006.01 254.747C1003.99 251.32 1001.62 248.126 998.961 245.21C999.984 241.457 1001.71 237.074 1004.66 232.68C1007.42 228.57 1010.49 225.572 1013.1 223.463C1015.98 225.263 1019.59 224.983 1021.65 222.614C1023.99 219.93 1023.45 215.589 1020.45 212.916C1017.45 210.238 1013.12 210.244 1010.79 212.928C1008.72 215.298 1008.9 218.95 1011.03 221.616C1009.35 224.431 1006.8 227.923 1003.05 231.248C998.919 234.919 994.763 237.116 991.605 238.422C988.012 235.637 984.091 233.273 979.899 231.403C980.51 229.699 981.314 227.982 982.368 226.296C983.214 224.96 984.123 223.783 985.047 222.757C988.242 224.069 991.808 223.124 993.416 220.375C995.228 217.305 993.907 213.136 990.466 211.069C987.031 209.003 982.781 209.816 980.974 212.893C979.392 215.595 980.228 219.146 982.781 221.366C982.248 222.792 981.601 224.271 980.833 225.779C979.956 227.513 978.996 229.111 977.988 230.589C977.565 230.417 977.137 230.251 976.714 230.097C971.718 228.208 966.402 227.015 960.863 226.61C959.954 224.128 959.161 221.378 958.607 218.356C957.474 212.191 957.683 206.825 958.205 202.795C961.463 202.164 963.907 199.575 963.907 196.473C963.907 192.898 960.665 190 956.665 190C952.671 190 949.429 192.898 949.429 196.473C949.429 199.629 951.961 202.253 955.297 202.826C956.023 206.797 956.498 212.357 955.376 218.801C954.88 221.638 954.149 224.224 953.292 226.563C947.983 226.867 942.871 227.904 938.042 229.576C937.368 228.497 936.768 227.364 936.23 226.027C935.16 223.381 934.695 220.899 934.512 218.834C937.634 217.189 939.248 213.737 938.141 210.684C936.935 207.325 932.904 205.728 929.15 207.116C925.396 208.504 923.334 212.351 924.545 215.709C925.589 218.607 928.733 220.188 931.99 219.677C932.941 221.653 933.849 223.933 934.57 226.522C934.946 227.893 935.233 229.233 935.452 230.545C931.072 232.301 926.957 234.591 923.183 237.332C921.193 235.879 919.162 234.191 917.157 232.212C912.537 227.659 909.451 222.989 907.425 219.247C909.67 216.735 910.062 213.14 908.182 210.662C906.026 207.828 901.714 207.528 898.544 209.994C895.375 212.459 894.55 216.756 896.707 219.589C898.607 222.094 902.199 222.615 905.191 221.002C908.12 223.652 911.916 227.835 914.86 233.846C916.202 236.595 917.142 239.269 917.794 241.762C917.189 242.326 916.583 242.907 915.998 243.499C913.043 246.491 910.412 249.802 908.151 253.387C906.82 252.998 905.441 252.53 904.032 251.954C899.432 250.083 895.871 247.698 893.292 245.621C894.388 242.388 893.323 238.901 890.593 237.389C887.497 235.671 883.429 237.154 881.508 240.7C879.587 244.248 880.537 248.517 883.638 250.234C886.364 251.746 889.83 250.78 891.94 248.115C895.072 249.21 898.967 250.968 902.998 253.855C904.199 254.717 905.306 255.604 906.329 256.497C903.139 262.308 900.915 268.732 899.855 275.552C897.098 275.79 894.127 275.903 890.942 275.805C886.395 275.663 882.286 275.123 878.699 274.421C878.616 270.855 876.256 267.869 873.055 267.529C869.547 267.156 866.357 270.114 865.944 274.138C865.521 278.16 868.038 281.724 871.546 282.097C874.674 282.429 877.535 280.12 878.422 276.773C882.108 276.849 886.244 277.181 890.723 277.961C893.819 278.501 896.696 279.189 899.343 279.954C899.218 281.503 899.155 283.069 899.155 284.653C899.155 288.415 899.505 292.095 900.184 295.661C897.14 297.7 892.932 300.015 887.585 301.639C882.897 303.065 878.673 303.55 875.311 303.654C874.105 300.482 871.102 298.504 868.059 299.098C864.592 299.777 862.389 303.545 863.151 307.517C863.908 311.489 867.333 314.159 870.805 313.481C873.802 312.895 875.843 309.999 875.854 306.659C879.3 305.525 883.362 304.462 887.987 303.768C893.308 302.973 898.074 302.86 902.084 303.036C903.698 307.957 905.953 312.581 908.736 316.814C907.425 317.866 905.953 318.905 904.314 319.876C901.155 321.736 898.127 322.893 895.501 323.64C893.715 320.768 890.394 319.419 887.528 320.592C884.254 321.935 882.808 326.062 884.317 329.809C885.257 332.161 887.136 333.811 889.214 334.376C890.441 334.714 891.741 334.673 892.958 334.173C893.323 334.025 893.663 333.841 893.976 333.621C896.372 332.019 897.385 328.698 896.372 325.528C898.858 324.231 901.761 322.946 905.112 321.886C907.258 321.206 909.31 320.711 911.242 320.341C913.001 322.644 914.933 324.804 917.011 326.799C917.21 326.988 917.403 327.178 917.601 327.356C916.197 330.528 914.082 334.382 910.892 338.289C907.77 342.113 904.522 344.899 901.792 346.864C899.051 344.899 895.464 344.94 893.255 347.143C890.744 349.656 890.984 354.026 893.798 356.906C896.602 359.78 900.925 360.077 903.437 357.565C905.614 355.386 905.723 351.799 903.865 349.014C906.016 346.182 908.819 342.986 912.401 339.833C916.244 336.448 920.039 333.942 923.344 332.096C927.72 335.243 932.554 337.79 937.718 339.614C937.509 341.579 937.159 343.699 936.59 345.926C935.353 350.778 933.489 354.668 931.797 357.53C928.487 356.859 925.214 358.39 924.091 361.324C922.817 364.656 924.806 368.54 928.534 370C932.262 371.463 936.319 369.942 937.593 366.604C938.705 363.706 937.342 360.392 934.517 358.623C935.316 355.172 936.575 351.093 938.579 346.71C939.561 344.572 940.605 342.625 941.676 340.848C945.649 341.935 949.794 342.601 954.065 342.785C954.765 346.169 955.329 349.958 955.6 354.097C956.007 360.255 955.678 365.707 955.099 370.209C951.851 370.846 949.429 373.435 949.429 376.527C949.429 380.1 952.671 383 956.67 383C960.67 383 963.907 380.1 963.907 376.527C963.907 373.446 961.495 370.862 958.268 370.214C957.725 365.612 957.427 360.172 957.736 354.097C957.95 350 958.409 346.217 958.994 342.797C963.458 342.625 967.791 341.929 971.932 340.772C972.287 341.389 972.642 342.03 972.976 342.689C975.221 347.043 976.432 351.123 977.09 354.389C974.208 356.081 972.746 359.37 973.775 362.304C974.965 365.671 978.975 367.299 982.75 365.945C986.514 364.585 988.602 360.754 987.417 357.387C986.368 354.401 983.084 352.785 979.727 353.403C978.186 350.724 976.396 346.68 975.774 341.501C975.696 340.861 975.639 340.231 975.602 339.614C980.217 337.998 984.556 335.795 988.545 333.099C991.124 335.219 993.839 337.749 996.538 340.754C1000.68 345.374 1003.7 349.929 1005.87 353.8C1003.67 356.307 1003.28 359.875 1005.15 362.34C1007.31 365.172 1011.62 365.47 1014.79 363.005C1017.96 360.54 1018.79 356.247 1016.63 353.408C1014.77 350.962 1011.29 350.404 1008.34 351.894C1005.16 348.634 1001.63 344.507 998.235 339.435C996.037 336.157 994.225 332.975 992.727 329.987C994.335 328.675 995.875 327.279 997.332 325.801C999.728 323.378 1001.92 320.747 1003.85 317.933C1007.42 318.942 1011.55 320.42 1015.92 322.641C1020.14 324.773 1023.66 327.119 1026.49 329.304C1025.42 332.475 1026.44 335.908 1029.1 337.44C1032.17 339.216 1036.26 337.802 1038.24 334.293C1040.23 330.777 1039.35 326.495 1036.28 324.72C1033.59 323.17 1030.13 324.055 1027.97 326.656C1024.81 325.438 1020.97 323.592 1016.99 320.759C1012.85 317.819 1009.74 314.666 1007.47 311.946C1009 309.048 1010.29 306.002 1011.32 302.831C1013.04 302.89 1014.84 303.045 1016.73 303.329C1021.56 304.066 1025.58 305.45 1028.68 306.828C1028.41 310.212 1030.3 313.312 1033.31 314.09C1036.72 314.98 1040.31 312.528 1041.3 308.609C1042.3 304.689 1040.33 300.794 1036.91 299.903C1033.9 299.119 1030.76 300.925 1029.37 304.042C1026.08 303.769 1021.87 303.039 1017.27 301.233C1015.51 300.545 1013.9 299.778 1012.43 298.977C1013.16 296.037 1013.68 293.014 1013.95 289.915C1016.92 289.671 1020.09 289.517 1023.42 289.511C1029.3 289.493 1034.64 289.92 1039.33 290.55C1039.89 293.811 1042.37 296.292 1045.4 296.388C1048.93 296.488 1051.89 293.293 1052 289.249C1052.11 285.205 1049.34 281.844 1045.81 281.743Z" fill="#FA5752" fill-opacity="0.9"/>
<path d="M1909.3 209.616C1907.49 209.562 1905.92 210.984 1905.48 212.939C1902.67 213.162 1899.47 213.238 1895.95 213.011C1893.98 212.882 1892.12 212.672 1890.38 212.413C1890.39 212.071 1890.39 211.726 1890.39 211.38C1890.39 209.699 1890.28 208.047 1890.05 206.43C1890.94 205.736 1892.05 205.005 1893.39 204.378C1895.72 203.284 1897.91 202.895 1899.59 202.783C1900.41 204.702 1902.31 205.818 1904.13 205.332C1906.17 204.785 1907.34 202.42 1906.74 200.047C1906.13 197.675 1903.99 196.192 1901.94 196.739C1900.08 197.239 1898.94 199.248 1899.21 201.397C1897.74 202.254 1895.55 203.183 1892.84 203.252C1891.5 203.287 1890.33 203.104 1889.38 202.866C1888.78 200.357 1887.91 197.952 1886.81 195.684C1887.98 194.604 1889.36 193.459 1890.97 192.354C1893.31 190.749 1895.57 189.6 1897.55 188.776C1898.84 190.324 1900.91 190.839 1902.5 189.895C1904.32 188.815 1904.84 186.212 1903.65 184.089C1902.45 181.964 1900 181.122 1898.17 182.206C1896.58 183.145 1895.99 185.234 1896.64 187.156C1894.94 188.51 1892.84 189.939 1890.33 191.213C1888.62 192.084 1886.99 192.747 1885.51 193.25C1884.3 191.173 1882.88 189.237 1881.29 187.469C1881.9 185.194 1882.93 182.537 1884.69 179.873C1886.35 177.382 1888.18 175.564 1889.75 174.285C1891.46 175.377 1893.62 175.207 1894.85 173.771C1896.25 172.144 1895.93 169.512 1894.13 167.892C1892.34 166.269 1889.75 166.272 1888.36 167.899C1887.13 169.336 1887.23 171.55 1888.51 173.166C1887.5 174.873 1885.97 176.989 1883.73 179.005C1881.26 181.23 1878.78 182.562 1876.89 183.354C1874.74 181.666 1872.4 180.233 1869.89 179.099C1870.26 178.066 1870.74 177.025 1871.37 176.003C1871.87 175.193 1872.42 174.48 1872.97 173.858C1874.88 174.653 1877.01 174.08 1877.97 172.414C1879.06 170.552 1878.27 168.025 1876.21 166.772C1874.16 165.52 1871.62 166.013 1870.53 167.878C1869.59 169.516 1870.09 171.668 1871.62 173.015C1871.3 173.879 1870.91 174.775 1870.45 175.689C1869.93 176.741 1869.35 177.709 1868.75 178.606C1868.5 178.501 1868.24 178.401 1867.99 178.307C1865 177.162 1861.82 176.439 1858.51 176.194C1857.97 174.689 1857.49 173.021 1857.16 171.19C1856.48 167.452 1856.61 164.199 1856.92 161.756C1858.87 161.374 1860.33 159.804 1860.33 157.924C1860.33 155.757 1858.39 154 1856 154C1853.61 154 1851.67 155.757 1851.67 157.924C1851.67 159.837 1853.19 161.428 1855.18 161.775C1855.62 164.182 1855.9 167.553 1855.23 171.459C1854.93 173.179 1854.5 174.747 1853.98 176.165C1850.81 176.349 1847.75 176.978 1844.87 177.992C1844.46 177.337 1844.1 176.65 1843.78 175.84C1843.14 174.236 1842.87 172.731 1842.76 171.479C1844.62 170.482 1845.59 168.39 1844.93 166.539C1844.2 164.503 1841.79 163.535 1839.55 164.376C1837.31 165.217 1836.07 167.549 1836.8 169.585C1837.42 171.342 1839.3 172.3 1841.25 171.99C1841.82 173.189 1842.36 174.57 1842.79 176.14C1843.02 176.971 1843.19 177.784 1843.32 178.579C1840.7 179.643 1838.24 181.032 1835.98 182.693C1834.79 181.812 1833.58 180.789 1832.38 179.59C1829.62 176.829 1827.77 173.998 1826.56 171.73C1827.9 170.207 1828.14 168.028 1827.01 166.526C1825.72 164.807 1823.15 164.626 1821.25 166.12C1819.36 167.615 1818.86 170.219 1820.15 171.937C1821.29 173.456 1823.44 173.772 1825.23 172.794C1826.98 174.4 1829.25 176.936 1831.01 180.58C1831.81 182.247 1832.37 183.867 1832.76 185.379C1832.4 185.72 1832.04 186.073 1831.69 186.432C1829.92 188.245 1828.35 190.253 1827 192.426C1826.2 192.19 1825.38 191.906 1824.53 191.558C1821.78 190.423 1819.65 188.977 1818.11 187.718C1818.77 185.759 1818.13 183.644 1816.5 182.728C1814.65 181.686 1812.21 182.585 1811.07 184.735C1809.92 186.886 1810.49 189.474 1812.34 190.515C1813.97 191.431 1816.04 190.846 1817.3 189.23C1819.18 189.894 1821.5 190.96 1823.91 192.71C1824.63 193.232 1825.29 193.77 1825.91 194.311C1824 197.834 1822.67 201.728 1822.03 205.863C1820.39 206.007 1818.61 206.076 1816.71 206.016C1813.99 205.93 1811.53 205.603 1809.39 205.177C1809.34 203.015 1807.93 201.205 1806.01 200.999C1803.91 200.773 1802.01 202.567 1801.76 205.006C1801.51 207.444 1803.01 209.605 1805.11 209.831C1806.98 210.032 1808.69 208.632 1809.22 206.603C1811.42 206.649 1813.9 206.851 1816.58 207.323C1818.43 207.65 1820.15 208.068 1821.73 208.531C1821.65 209.47 1821.62 210.42 1821.62 211.38C1821.62 213.661 1821.83 215.891 1822.23 218.053C1820.41 219.29 1817.9 220.693 1814.7 221.677C1811.9 222.542 1809.37 222.836 1807.36 222.899C1806.64 220.976 1804.84 219.777 1803.02 220.137C1800.95 220.548 1799.63 222.833 1800.09 225.24C1800.54 227.648 1802.59 229.267 1804.67 228.856C1806.46 228.501 1807.68 226.745 1807.68 224.72C1809.75 224.033 1812.17 223.389 1814.94 222.968C1818.12 222.486 1820.97 222.417 1823.37 222.524C1824.33 225.508 1825.68 228.311 1827.34 230.877C1826.56 231.514 1825.68 232.144 1824.7 232.733C1822.81 233.86 1821 234.562 1819.43 235.015C1818.36 233.274 1816.38 232.456 1814.66 233.167C1812.71 233.981 1811.84 236.483 1812.75 238.755C1813.31 240.18 1814.43 241.181 1815.67 241.523C1816.41 241.728 1817.18 241.703 1817.91 241.4C1818.13 241.311 1818.33 241.199 1818.52 241.066C1819.95 240.094 1820.56 238.081 1819.95 236.159C1821.44 235.373 1823.17 234.594 1825.18 233.952C1826.46 233.539 1827.69 233.239 1828.84 233.015C1829.9 234.411 1831.05 235.72 1832.29 236.93C1832.41 237.044 1832.53 237.16 1832.65 237.268C1831.81 239.19 1830.54 241.526 1828.63 243.895C1826.77 246.213 1824.83 247.902 1823.19 249.094C1821.55 247.902 1819.41 247.927 1818.09 249.263C1816.59 250.786 1816.73 253.435 1818.41 255.181C1820.09 256.924 1822.67 257.104 1824.18 255.581C1825.48 254.26 1825.54 252.085 1824.43 250.397C1825.72 248.68 1827.39 246.743 1829.54 244.831C1831.83 242.779 1834.1 241.26 1836.08 240.141C1838.69 242.048 1841.59 243.593 1844.67 244.698C1844.55 245.89 1844.34 247.175 1844 248.525C1843.26 251.466 1842.14 253.824 1841.13 255.559C1839.15 255.153 1837.2 256.081 1836.53 257.859C1835.76 259.879 1836.95 262.234 1839.18 263.119C1841.41 264.006 1843.84 263.084 1844.6 261.06C1845.26 259.303 1844.45 257.294 1842.76 256.222C1843.24 254.13 1843.99 251.657 1845.19 249C1845.77 247.704 1846.4 246.523 1847.04 245.447C1849.41 246.105 1851.89 246.509 1854.45 246.62C1854.86 248.672 1855.2 250.969 1855.36 253.479C1855.61 257.212 1855.41 260.516 1855.06 263.246C1853.12 263.632 1851.67 265.201 1851.67 267.076C1851.67 269.242 1853.61 271 1856 271C1858.4 271 1860.33 269.242 1860.33 267.076C1860.33 265.208 1858.89 263.641 1856.96 263.249C1856.63 260.459 1856.46 257.161 1856.64 253.479C1856.77 250.994 1857.04 248.702 1857.39 246.628C1860.06 246.523 1862.65 246.102 1865.13 245.4C1865.34 245.774 1865.55 246.163 1865.75 246.563C1867.1 249.202 1867.82 251.675 1868.21 253.655C1866.49 254.681 1865.62 256.675 1866.23 258.453C1866.94 260.495 1869.34 261.482 1871.6 260.66C1873.85 259.836 1875.1 257.514 1874.39 255.472C1873.76 253.662 1871.8 252.683 1869.79 253.057C1868.87 251.434 1867.8 248.982 1867.43 245.843C1867.38 245.454 1867.34 245.072 1867.32 244.698C1870.08 243.719 1872.68 242.383 1875.06 240.749C1876.6 242.034 1878.23 243.568 1879.84 245.389C1882.32 248.19 1884.12 250.951 1885.42 253.298C1884.1 254.818 1883.87 256.981 1884.99 258.475C1886.28 260.192 1888.86 260.373 1890.75 258.878C1892.65 257.384 1893.14 254.782 1891.86 253.061C1890.74 251.578 1888.66 251.239 1886.9 252.143C1884.99 250.166 1882.89 247.665 1880.85 244.59C1879.54 242.603 1878.46 240.674 1877.56 238.862C1878.52 238.067 1879.44 237.221 1880.31 236.325C1881.75 234.856 1883.06 233.261 1884.21 231.555C1886.35 232.166 1888.82 233.063 1891.43 234.409C1893.95 235.702 1896.05 237.123 1897.75 238.448C1897.11 240.371 1897.72 242.452 1899.31 243.38C1901.14 244.457 1903.59 243.6 1904.78 241.473C1905.96 239.342 1905.43 236.746 1903.6 235.669C1901.99 234.73 1899.92 235.266 1898.63 236.843C1896.74 236.105 1894.45 234.985 1892.07 233.268C1889.6 231.486 1887.73 229.575 1886.38 227.925C1887.29 226.169 1888.06 224.322 1888.68 222.4C1889.7 222.436 1890.78 222.529 1891.91 222.702C1894.8 223.149 1897.21 223.988 1899.06 224.823C1898.9 226.874 1900.03 228.754 1901.82 229.225C1903.86 229.765 1906.01 228.278 1906.6 225.902C1907.2 223.526 1906.02 221.165 1903.98 220.625C1902.18 220.15 1900.3 221.245 1899.47 223.134C1897.5 222.968 1894.99 222.526 1892.23 221.431C1891.18 221.014 1890.22 220.549 1889.34 220.063C1889.78 218.281 1890.09 216.449 1890.25 214.57C1892.03 214.422 1893.92 214.329 1895.91 214.325C1899.43 214.314 1902.62 214.573 1905.42 214.955C1905.76 216.932 1907.24 218.436 1909.05 218.494C1911.16 218.555 1912.93 216.618 1913 214.166C1913.07 211.715 1911.41 209.677 1909.3 209.616Z" fill="#FA5752" fill-opacity="0.75"/>
<path d="M2031.66 564.493C2027.56 564.371 2024.03 567.58 2023.03 571.991C2016.69 572.494 2009.45 572.665 2001.51 572.153C1997.09 571.86 1992.88 571.389 1988.95 570.805C1988.97 570.033 1988.98 569.253 1988.98 568.474C1988.98 564.681 1988.71 560.952 1988.21 557.304C1990.21 555.736 1992.72 554.087 1995.76 552.674C2001.02 550.205 2005.94 549.328 2009.74 549.076C2011.6 553.405 2015.88 555.924 2019.97 554.827C2024.59 553.593 2027.23 548.255 2025.86 542.902C2024.5 537.549 2019.67 534.202 2015.05 535.436C2010.85 536.566 2008.28 541.098 2008.89 545.948C2005.57 547.882 2000.62 549.977 1994.5 550.131C1991.49 550.213 1988.84 549.798 1986.7 549.263C1985.34 543.6 1983.39 538.174 1980.89 533.057C1983.53 530.62 1986.64 528.037 1990.29 525.542C1995.57 521.92 2000.67 519.329 2005.14 517.468C2008.06 520.962 2012.71 522.124 2016.3 519.996C2020.43 517.557 2021.58 511.684 2018.89 506.892C2016.2 502.1 2010.66 500.199 2006.54 502.644C2002.95 504.764 2001.6 509.475 2003.08 513.813C1999.24 516.867 1994.52 520.092 1988.84 522.968C1984.99 524.934 1981.3 526.428 1977.95 527.565C1975.22 522.879 1972.03 518.508 1968.44 514.519C1969.82 509.386 1972.15 503.391 1976.13 497.38C1979.86 491.759 1984 487.657 1987.51 484.773C1991.39 487.234 1996.27 486.852 1999.05 483.611C2002.2 479.94 2001.48 474.002 1997.42 470.347C1993.38 466.684 1987.55 466.69 1984.4 470.363C1981.62 473.604 1981.84 478.6 1984.73 482.246C1982.45 486.097 1979.01 490.873 1973.96 495.423C1968.38 500.442 1962.79 503.448 1958.52 505.235C1953.66 501.425 1948.37 498.192 1942.72 495.634C1943.54 493.302 1944.63 490.955 1946.05 488.648C1947.2 486.82 1948.43 485.212 1949.67 483.806C1953.97 485.601 1958.79 484.31 1960.96 480.549C1963.4 476.35 1961.61 470.646 1956.97 467.821C1952.33 464.994 1946.61 466.106 1944.17 470.314C1942.03 474.011 1943.16 478.867 1946.61 481.905C1945.89 483.856 1945.02 485.878 1943.97 487.94C1942.79 490.313 1941.5 492.499 1940.14 494.52C1939.56 494.285 1939 494.058 1938.42 493.847C1931.69 491.263 1924.52 489.631 1917.04 489.078C1915.81 485.683 1914.74 481.92 1913.99 477.787C1912.46 469.354 1912.75 462.015 1913.45 456.502C1917.85 455.638 1921.14 452.097 1921.14 447.854C1921.14 442.964 1916.77 439 1911.38 439C1905.98 439 1901.61 442.964 1901.61 447.854C1901.61 452.17 1905.02 455.76 1909.52 456.544C1910.5 461.977 1911.15 469.581 1909.64 478.396C1908.97 482.276 1907.98 485.812 1906.82 489.014C1899.65 489.428 1892.75 490.848 1886.24 493.135C1885.34 491.659 1884.52 490.108 1883.79 488.28C1882.36 484.659 1881.74 481.265 1881.49 478.441C1885.7 476.19 1887.87 471.468 1886.39 467.292C1884.75 462.699 1879.32 460.513 1874.25 462.412C1869.18 464.311 1866.39 469.573 1868.04 474.167C1869.45 478.13 1873.69 480.294 1878.08 479.593C1879.36 482.297 1880.59 485.415 1881.55 488.957C1882.07 490.832 1882.45 492.666 1882.75 494.46C1876.84 496.862 1871.29 499.996 1866.2 503.745C1863.52 501.756 1860.78 499.447 1858.07 496.742C1851.83 490.513 1847.67 484.124 1844.93 479.007C1847.96 475.571 1848.49 470.652 1845.96 467.263C1843.05 463.385 1837.23 462.976 1832.95 466.348C1828.68 469.722 1827.57 475.598 1830.46 479.475C1833.04 482.901 1837.88 483.613 1841.93 481.406C1845.87 485.033 1851 490.753 1854.96 498.976C1856.78 502.737 1858.04 506.393 1858.94 509.804C1858.12 510.574 1857.29 511.369 1856.5 512.18C1852.52 516.272 1848.96 520.802 1845.91 525.704C1844.12 525.174 1842.26 524.532 1840.35 523.745C1834.15 521.186 1829.35 517.924 1825.87 515.081C1827.35 510.66 1825.9 505.891 1822.22 503.822C1818.05 501.471 1812.56 503.499 1809.97 508.353C1807.37 513.204 1808.65 519.043 1812.85 521.393C1816.52 523.459 1821.2 522.139 1824.04 518.493C1828.26 519.992 1833.53 522.397 1838.97 526.346C1840.59 527.525 1842.07 528.738 1843.45 529.958C1839.15 537.908 1836.15 546.695 1834.72 556.024C1831.01 556.349 1827 556.506 1822.7 556.369C1816.56 556.176 1811.02 555.438 1806.17 554.477C1806.06 549.598 1802.88 545.515 1798.57 545.05C1793.83 544.539 1789.52 548.586 1788.96 554.09C1788.4 559.593 1791.79 564.467 1796.53 564.977C1800.75 565.431 1804.6 562.272 1805.81 557.694C1810.78 557.797 1816.35 558.253 1822.4 559.319C1826.59 560.058 1830.45 560.999 1834.04 562.046C1833.86 564.165 1833.78 566.307 1833.78 568.474C1833.78 573.62 1834.25 578.651 1835.17 583.53C1831.05 586.322 1825.39 589.487 1818.17 591.71C1811.85 593.659 1806.15 594.322 1801.61 594.465C1799.98 590.127 1795.93 587.421 1791.82 588.233C1787.15 589.16 1784.18 594.315 1785.2 599.747C1786.23 605.181 1790.85 608.834 1795.52 607.907C1799.57 607.105 1802.33 603.143 1802.34 598.575C1806.99 597.024 1812.48 595.569 1818.72 594.622C1825.88 593.534 1832.31 593.377 1837.74 593.619C1839.9 600.352 1842.95 606.676 1846.71 612.465C1844.93 613.905 1842.96 615.326 1840.73 616.654C1836.47 619.198 1832.39 620.781 1828.84 621.804C1826.45 617.873 1821.96 616.028 1818.08 617.634C1813.67 619.471 1811.73 625.116 1813.75 630.241C1815.02 633.458 1817.56 635.717 1820.37 636.488C1822.03 636.951 1823.78 636.895 1825.42 636.213C1825.9 636.009 1826.37 635.757 1826.79 635.456C1830.02 633.265 1831.39 628.721 1830.03 624.386C1833.38 622.611 1837.3 620.853 1841.81 619.404C1844.72 618.474 1847.48 617.795 1850.08 617.29C1852.46 620.44 1855.07 623.396 1857.87 626.123C1858.13 626.383 1858.4 626.644 1858.66 626.886C1856.77 631.224 1853.92 636.496 1849.62 641.841C1845.4 647.073 1841.03 650.882 1837.33 653.572C1833.64 650.882 1828.8 650.94 1825.83 653.953C1822.43 657.389 1822.75 663.368 1826.55 667.307C1830.33 671.238 1836.17 671.646 1839.56 668.209C1842.51 665.227 1842.65 660.322 1840.14 656.512C1843.04 652.636 1846.82 648.267 1851.64 643.953C1856.83 639.323 1861.95 635.895 1866.42 633.369C1872.32 637.674 1878.84 641.158 1885.8 643.653C1885.53 646.341 1885.06 649.241 1884.28 652.288C1882.61 658.925 1880.1 664.245 1877.83 668.161C1873.35 667.242 1868.93 669.338 1867.42 673.351C1865.71 677.908 1868.4 683.221 1873.43 685.219C1878.45 687.217 1883.91 685.137 1885.64 680.572C1887.14 676.608 1885.31 672.076 1881.49 669.654C1882.56 664.935 1884.27 659.354 1886.97 653.359C1888.3 650.436 1889.71 647.771 1891.14 645.343C1896.51 646.829 1902.1 647.74 1907.87 647.991C1908.8 652.622 1909.57 657.803 1909.94 663.465C1910.49 671.888 1910.05 679.346 1909.26 685.503C1904.88 686.373 1901.61 689.914 1901.61 694.147C1901.61 699.037 1905.97 703 1911.38 703C1916.77 703 1921.14 699.037 1921.14 694.147C1921.14 689.93 1917.88 686.396 1913.53 685.511C1912.8 679.215 1912.41 671.775 1912.82 663.465C1913.1 657.859 1913.73 652.685 1914.51 648.007C1920.54 647.771 1926.39 646.821 1931.97 645.236C1932.45 646.081 1932.92 646.959 1933.38 647.861C1936.42 653.815 1938.05 659.396 1938.93 663.863C1935.04 666.178 1933.06 670.678 1934.47 674.692C1936.06 679.297 1941.48 681.523 1946.56 679.67C1951.64 677.81 1954.47 672.571 1952.87 667.965C1951.45 663.88 1947.02 661.669 1942.49 662.515C1940.41 658.851 1938 653.319 1937.16 646.236C1937.05 645.358 1936.97 644.498 1936.93 643.653C1943.15 641.443 1949 638.43 1954.39 634.742C1957.87 637.641 1961.52 641.102 1965.16 645.212C1970.76 651.532 1974.83 657.763 1977.77 663.059C1974.79 666.487 1974.27 671.369 1976.79 674.74C1979.71 678.614 1985.52 679.021 1989.8 675.649C1994.07 672.279 1995.18 666.406 1992.28 662.524C1989.77 659.176 1985.08 658.412 1981.09 660.452C1976.8 655.992 1972.04 650.347 1967.46 643.409C1964.5 638.925 1962.05 634.572 1960.03 630.485C1962.2 628.69 1964.27 626.781 1966.25 624.758C1969.47 621.444 1972.42 617.845 1975.04 613.995C1979.86 615.377 1985.42 617.4 1991.33 620.437C1997.02 623.354 2001.77 626.562 2005.59 629.551C2004.14 633.889 2005.51 638.584 2009.11 640.679C2013.24 643.109 2018.76 641.175 2021.44 636.375C2024.12 631.566 2022.92 625.709 2018.79 623.279C2015.17 621.16 2010.48 622.371 2007.58 625.929C2003.31 624.262 1998.13 621.737 1992.76 617.862C1987.19 613.841 1982.97 609.527 1979.93 605.807C1981.98 601.844 1983.73 597.677 1985.12 593.338C1987.43 593.42 1989.88 593.631 1992.4 594.021C1998.93 595.028 2004.36 596.92 2008.54 598.805C2008.18 603.436 2010.73 607.676 2014.77 608.74C2019.38 609.959 2024.22 606.603 2025.57 601.243C2026.91 595.882 2024.26 590.553 2019.63 589.334C2015.58 588.261 2011.35 590.731 2009.47 594.995C2005.03 594.622 1999.34 593.622 1993.12 591.154C1990.77 590.211 1988.59 589.163 1986.61 588.066C1987.6 584.046 1988.3 579.91 1988.66 575.67C1992.68 575.337 1996.94 575.126 2001.44 575.117C2009.37 575.094 2016.58 575.678 2022.9 576.539C2023.66 580.999 2027.01 584.395 2031.09 584.526C2035.86 584.663 2039.85 580.292 2040 574.761C2040.15 569.23 2036.41 564.631 2031.66 564.493Z" fill="#FA5752" fill-opacity="0.92"/>
<path d="M1753.35 433.798V845.903" stroke="#925D51" stroke-width="5.81" stroke-miterlimit="10"/>
<path d="M1672.96 432.333C1672.96 432.333 1743.1 462.068 1833.02 428.834L1784.46 318.64L1712.53 316.89L1672.96 432.333Z" fill="#AC6352"/>
<path d="M1803.49 361.839C1775.23 393.847 1729.33 407.325 1681.17 408.365L1672.96 432.333C1672.96 432.333 1743.1 462.068 1833.02 428.834L1803.49 361.839Z" fill="#984B39"/>
<rect x="1129.7" y="909.272" width="726.385" height="16.939" rx="8.46951" fill="#925D51"/>
<path fill-rule="evenodd" clip-rule="evenodd" d="M1493.53 540.656C1492.72 540.53 1491.9 540.469 1491.07 540.469H1306.47H1306.31C1293.55 540.468 1283.24 540.468 1283.24 587.304V838.357C1283.24 832.047 1286.5 833.815 1291.63 836.594C1295.65 838.777 1300.82 841.584 1306.47 841.584H1491.07C1492.84 841.584 1494.56 841.308 1496.22 840.862H1677.08C1684.92 840.862 1692.11 838.064 1697.71 835.887C1704.82 833.117 1709.36 831.353 1709.36 837.644V587.35C1709.36 540.654 1695.02 540.655 1677.3 540.656H1677.08H1493.53Z" fill="#F5C827"/>
<g opacity="0.699997">
<g opacity="0.699997">
<path d="M1298.08 671.238V837.898C1298.08 825.92 1307.42 841.329 1318.94 841.329H1484.7C1493.09 841.329 1500.32 833.159 1503.63 833.353V837.898C1503.63 835.619 1503.96 834.336 1504.58 833.745C1505.21 834.336 1505.55 835.619 1505.55 837.898V833.351C1508.84 833.189 1515.99 841.329 1524.28 841.329H1688.48C1699.89 841.329 1709.14 825.92 1709.14 837.898V571.073C1709.14 568.404 1709.1 565.906 1709.05 563.514L1298.08 671.238Z" fill="#DCB21D"/>
</g>
</g>
<path d="M1316.51 795.111C1316.51 812.026 1306.84 825.737 1294.91 825.737H1247.4C1235.47 825.737 1225.8 812.026 1225.8 795.111V684.856C1225.8 667.941 1235.47 654.229 1247.4 654.229H1294.91C1306.84 654.229 1316.51 667.941 1316.51 684.856V795.111Z" fill="#EBAFB2"/>
<path d="M1336.27 807.326C1336.27 825.723 1322.24 840.637 1304.93 840.637H1235.99C1218.68 840.637 1204.65 825.723 1204.65 807.326V687.408C1204.65 669.01 1218.68 654.097 1235.99 654.097H1304.93C1322.24 654.097 1336.27 669.01 1336.27 687.408V807.326Z" fill="#CAA41E"/>
<path d="M1820.1 807.611C1820.1 826.066 1806.27 841.026 1789.2 841.026H1721.21C1704.14 841.026 1690.31 826.066 1690.31 807.611V687.318C1690.31 668.863 1704.14 653.903 1721.21 653.903H1789.2C1806.27 653.903 1820.1 668.863 1820.1 687.318V807.611Z" fill="#CAA41E"/>
<path d="M1255.78 948.411C1255.78 954.258 1251.96 959 1247.26 959C1242.55 959 1238.74 954.258 1238.74 948.411V911.827C1238.74 905.98 1242.55 901.239 1247.26 901.239C1251.96 901.239 1255.78 905.98 1255.78 911.827V948.411Z" fill="#925D51"/>
<path d="M1785.1 946.517C1785.1 952.364 1781.28 957.106 1776.57 957.106C1771.87 957.106 1768.05 952.364 1768.05 946.517V909.933C1768.05 904.086 1771.87 899.345 1776.57 899.345C1781.28 899.345 1785.1 904.086 1785.1 909.933V946.517Z" fill="#925D51"/>
<path d="M1799.36 654.097H1775.46C1763.46 654.097 1753.74 667.816 1753.74 684.739V837.946H1268.21V684.739C1268.21 667.816 1258.48 654.097 1246.48 654.097H1222.59C1210.59 654.097 1200.86 667.816 1200.86 684.739V894.632C1200.86 903.489 1203.54 911.444 1207.8 917.039C1211.77 923.034 1217.4 926.805 1223.67 926.805L1799.36 925.274C1811.36 925.274 1821.08 911.555 1821.08 894.632V684.739C1821.08 667.816 1811.36 654.097 1799.36 654.097Z" fill="#F5C827"/>
<path d="M1391.95 670.195H1303.54C1300.17 670.195 1297.45 673.376 1297.45 677.3V780.451C1297.45 784.376 1300.17 787.557 1303.54 787.557H1391.95C1395.32 787.557 1398.04 784.376 1398.04 780.451V677.3C1398.04 673.376 1395.32 670.195 1391.95 670.195Z" fill="white"/>
<path d="M1734.1 681.406L1653.7 667.374C1650.64 666.84 1647.61 669.547 1646.93 673.421L1629.14 775.247C1628.46 779.121 1630.4 782.694 1633.45 783.228L1713.86 797.261C1716.92 797.795 1719.94 795.087 1720.62 791.213L1738.41 689.387C1739.09 685.513 1737.16 681.94 1734.1 681.406Z" fill="white"/>
<path fill-rule="evenodd" clip-rule="evenodd" d="M1724.96 861.351C1741.29 861.351 1754.52 846.584 1754.52 828.366V798.681C1754.52 780.463 1741.29 765.696 1724.96 765.696H1496.67C1495.03 765.045 1493.31 764.699 1491.54 764.699H1288.64C1277.03 764.699 1267.62 779.621 1267.62 798.028V828.023C1267.62 846.43 1277.03 861.351 1288.64 861.351H1444.09C1444.11 861.351 1444.13 861.351 1444.15 861.351H1724.96Z" fill="#FFE792"/>
<path d="M1440.74 491.017C1437.71 490.773 1434.89 489.391 1432.81 487.169C1427.4 481.359 1419.64 467.848 1430.75 443.853C1451.43 399.167 1527.08 405.871 1545.12 438.341C1557.96 461.441 1570.73 466.024 1563.84 472.974C1557.19 479.682 1478.41 494.058 1440.74 491.017Z" fill="#FF504A"/>
<path d="M1574.07 759.483C1573.98 759.494 1573.9 759.506 1573.81 759.517C1557.45 761.9 1540.86 764.089 1524.23 765.375C1523.27 765.445 1522.32 765.52 1521.36 765.578C1503.76 766.83 1486.11 767.018 1468.63 765.299C1462.9 764.736 1457.19 763.958 1451.54 762.924C1438.89 760.615 1430.37 748.667 1432.42 735.984C1434.35 724.076 1435.61 712.795 1436.44 702.19C1436.56 700.613 1436.68 699.056 1436.78 697.513C1437.62 685.134 1437.89 673.734 1437.98 663.379C1437.98 662.498 1437.99 661.627 1437.99 660.766C1437.99 660.376 1438 659.988 1438 659.607C1438.01 659.016 1438.01 658.43 1438.01 657.852C1438.01 657.456 1438.01 657.067 1438.01 656.686C1438.01 655.878 1438.02 655.091 1438.01 654.303C1438.02 651.882 1438.02 649.53 1438.02 647.247V646.641C1438.03 638.738 1438.06 631.664 1438.38 625.462C1438.39 625.178 1438.4 624.903 1438.42 624.625C1438.49 623.337 1438.56 622.059 1438.62 620.8C1438.68 619.579 1438.74 618.37 1438.78 617.173C1438.91 613.815 1439 610.578 1439.06 607.487C1439.09 604.887 1439.09 602.396 1439.05 600.032C1439 597.409 1438.9 594.952 1438.76 592.676C1438.7 591.923 1438.65 591.145 1438.59 590.346C1438.49 589.136 1438.39 587.881 1438.29 586.592C1438.23 585.808 1438.16 585.019 1438.08 584.216C1438.05 583.866 1438.02 583.511 1437.98 583.151C1437.98 583.062 1437.97 582.976 1437.96 582.895C1437.92 582.398 1437.87 581.904 1437.83 581.4C1437.78 580.911 1437.73 580.422 1437.68 579.928C1437.6 579.066 1437.52 578.187 1437.42 577.301C1437.01 573.167 1436.54 568.827 1436.06 564.378C1435.9 562.984 1435.75 561.569 1435.59 560.152C1435.34 557.957 1435.09 555.738 1434.85 553.53C1434.68 552.104 1434.52 550.677 1434.36 549.253C1431.92 527.802 1429.62 507.264 1430.44 500.746C1431.85 489.46 1486.51 459.672 1486.51 459.672L1519.32 458.641C1519.32 458.641 1565.37 477.192 1573.87 488.39C1573.92 488.445 1573.95 488.502 1574 488.553C1575.92 491.191 1577.14 494.856 1577.83 499.386C1578.45 503.369 1578.67 508.015 1578.63 513.226C1578.61 516.935 1578.44 520.932 1578.2 525.171C1577.95 529.666 1577.61 534.435 1577.23 539.43C1577.12 540.883 1577.01 542.355 1576.89 543.844C1576.77 545.358 1576.66 546.885 1576.55 548.431C1576.47 549.43 1576.4 550.438 1576.32 551.449C1576.12 554.118 1575.93 556.835 1575.75 559.589C1575.69 560.477 1575.63 561.375 1575.57 562.275C1575.54 562.841 1575.5 563.418 1575.47 563.988C1575.44 564.572 1575.4 565.154 1575.37 565.742V565.753C1575.34 566.293 1575.31 566.828 1575.28 567.366C1575.24 567.952 1575.21 568.539 1575.19 569.129C1575.13 570.209 1575.07 571.291 1575.03 572.383C1574.98 573.283 1574.95 574.192 1574.91 575.099C1574.9 575.259 1574.89 575.428 1574.89 575.591C1574.86 576.177 1574.84 576.765 1574.83 577.347L1574.82 577.653L1574.81 577.799C1574.79 578.566 1574.76 579.346 1574.74 580.118C1574.71 581.046 1574.69 581.972 1574.66 582.895C1574.65 583.321 1574.65 583.76 1574.64 584.193C1574.63 584.576 1574.63 584.971 1574.62 585.359C1574.62 585.557 1574.62 585.747 1574.62 585.949C1574.6 586.483 1574.6 587.018 1574.59 587.567C1574.58 588.478 1574.58 589.401 1574.58 590.346V591.841C1574.58 594.456 1574.61 597.189 1574.66 600.032C1574.68 601.206 1574.71 602.396 1574.74 603.604C1574.76 604.884 1574.8 606.177 1574.83 607.487C1574.91 610.241 1575 613.054 1575.12 615.918C1575.13 616.337 1575.14 616.751 1575.16 617.173C1575.17 617.345 1575.17 617.514 1575.18 617.685C1575.21 618.619 1575.25 619.556 1575.29 620.505C1575.35 621.869 1575.41 623.248 1575.47 624.625C1575.53 626.116 1575.63 627.696 1575.77 629.362C1575.93 631.447 1576.13 633.657 1576.39 635.992C1576.44 636.538 1576.5 637.091 1576.57 637.647C1576.67 638.543 1576.77 639.455 1576.9 640.382C1576.97 640.964 1577.04 641.542 1577.11 642.133C1577.16 642.506 1577.21 642.881 1577.26 643.257C1577.44 644.661 1577.64 646.104 1577.84 647.573C1577.87 647.736 1577.89 647.898 1577.91 648.061C1578.02 648.805 1578.13 649.552 1578.24 650.313C1578.45 651.762 1578.68 653.242 1578.91 654.741C1578.97 655.161 1579.04 655.589 1579.1 656.013C1579.5 658.565 1579.93 661.182 1580.38 663.858C1580.46 664.324 1580.55 664.803 1580.63 665.281C1580.8 666.334 1580.99 667.396 1581.17 668.464C1581.82 672.188 1582.5 675.998 1583.22 679.868C1584.05 684.343 1584.92 688.896 1585.82 693.483C1586.56 697.256 1587.33 701.051 1588.1 704.845C1589.91 713.721 1591.79 722.593 1593.64 731.153C1596.53 744.481 1587.56 757.515 1574.07 759.483Z" fill="white"/>
<path d="M1577.83 499.387C1553.86 504.523 1531.63 505.99 1514.06 505.99C1510.87 505.99 1507.84 505.942 1504.97 505.86C1477.84 505.067 1460.19 501.134 1459.45 500.971L1460.73 495.322L1462 489.676H1462C1462.35 489.754 1479.66 493.563 1505.62 494.295C1523.15 494.788 1547.37 493.911 1573.87 488.39C1573.92 488.445 1573.96 488.5 1574 488.554C1575.92 491.191 1577.14 494.856 1577.83 499.387Z" fill="#1DB776" fill-opacity="0.56"/>
<path d="M1578.63 513.226C1578.6 516.935 1578.44 520.932 1578.2 525.171C1554.76 530.154 1532.9 531.623 1515.31 531.623C1510.95 531.623 1506.86 531.533 1503.06 531.383C1475.95 530.322 1458.34 526.214 1457.61 526.039L1460.27 514.768C1460.45 514.81 1477.75 518.829 1503.82 519.822C1522.77 520.548 1549.55 519.747 1578.63 513.226Z" fill="#1DB776" fill-opacity="0.56"/>
<path d="M1577.23 539.43C1577.12 540.883 1577.01 542.355 1576.89 543.844C1576.78 545.358 1576.66 546.885 1576.55 548.431C1576.47 549.429 1576.4 550.437 1576.32 551.449C1554.24 555.913 1533.58 557.28 1516.58 557.28C1511.02 557.28 1505.86 557.136 1501.16 556.908C1474.07 555.574 1456.51 551.289 1455.77 551.111L1458.55 539.867C1458.72 539.907 1475.99 544.099 1502.04 545.354C1521.04 546.269 1547.96 545.73 1577.23 539.43Z" fill="#1DB776" fill-opacity="0.56"/>
<path d="M1575.37 565.741V565.753C1575.34 566.295 1575.31 566.827 1575.28 567.366C1575.25 567.953 1575.22 568.539 1575.19 569.129C1575.13 570.209 1575.08 571.291 1575.03 572.383C1574.99 573.282 1574.95 574.191 1574.92 575.099C1574.91 575.258 1574.9 575.428 1574.9 575.591C1574.87 576.177 1574.85 576.765 1574.83 577.346L1574.82 577.653C1553.92 581.69 1534.31 582.972 1517.84 582.972C1511.08 582.972 1504.84 582.759 1499.26 582.426C1472.18 580.825 1454.67 576.363 1453.94 576.177L1456.83 564.964H1456.83C1456.99 565.005 1461.36 566.107 1468.94 567.388C1476.51 568.67 1487.29 570.131 1500.25 570.886C1519.22 571.991 1546.09 571.723 1575.37 565.741Z" fill="#1DB776" fill-opacity="0.56"/>
<path d="M1455.1 590.062L1453.6 595.654L1455.11 590.062H1455.1ZM1574.67 600.032C1574.62 597.188 1574.59 594.455 1574.58 591.84C1544.88 597.711 1517.63 597.727 1498.47 596.416C1472.55 594.649 1455.42 590.144 1455.11 590.062L1453.6 595.654L1452.1 601.245C1452.83 601.439 1470.3 606.076 1497.36 607.947C1503.8 608.396 1511.11 608.697 1519.11 608.697C1535.38 608.697 1554.47 607.447 1574.74 603.603C1574.71 602.396 1574.69 601.205 1574.67 600.032Z" fill="#1DB776" fill-opacity="0.56"/>
<path d="M1575.77 629.361C1555.69 633.182 1536.71 634.453 1520.37 634.453C1511.12 634.453 1502.72 634.046 1495.45 633.471C1468.41 631.322 1450.99 626.514 1450.26 626.313L1451.82 620.737L1453.38 615.16H1453.38C1453.66 615.238 1470.75 619.919 1496.68 621.952C1516.32 623.49 1544.5 623.721 1575.18 617.684C1575.21 618.62 1575.25 619.557 1575.29 620.504C1575.35 621.868 1575.42 623.247 1575.47 624.626C1575.54 626.115 1575.64 627.695 1575.77 629.361Z" fill="#1DB776" fill-opacity="0.56"/>
<path d="M1578.91 654.74C1558.24 658.863 1538.6 660.238 1521.61 660.238C1511.12 660.238 1501.64 659.711 1493.55 658.991C1466.53 656.573 1449.15 651.591 1448.43 651.381L1451.65 640.261V640.257C1451.82 640.307 1468.9 645.185 1494.89 647.483C1515.33 649.293 1545.04 649.776 1577.26 643.257C1577.44 644.662 1577.64 646.104 1577.85 647.572C1577.87 647.736 1577.89 647.897 1577.92 648.061C1578.02 648.804 1578.14 649.552 1578.24 650.313C1578.45 651.764 1578.68 653.241 1578.91 654.74Z" fill="#1DB776" fill-opacity="0.56"/>
<path d="M1583.22 679.867C1561.53 684.51 1540.8 686.052 1522.84 686.052C1511.09 686.052 1500.53 685.392 1491.64 684.51C1464.64 681.821 1447.31 676.667 1446.59 676.446L1449.93 665.36C1450.09 665.408 1467.13 670.459 1493.09 673.017C1514.71 675.147 1546.72 675.896 1581.17 668.464C1581.82 672.188 1582.5 675.997 1583.22 679.867Z" fill="#1DB776" fill-opacity="0.56"/>
<path d="M1588.1 704.846C1565.18 710.146 1543.16 711.902 1524.06 711.902C1511.05 711.902 1499.4 711.088 1489.74 710.026C1462.76 707.067 1445.47 701.738 1444.75 701.514L1446.48 695.985L1448.2 690.458L1448.2 690.462C1448.47 690.542 1465.44 695.738 1491.3 698.551C1514.23 701.04 1548.87 702.094 1585.82 693.482C1586.56 697.255 1587.33 701.05 1588.1 704.846Z" fill="#1DB776" fill-opacity="0.56"/>
<path d="M1499.87 743.906C1500.97 696.164 1492.8 640.613 1492.87 592.857C1492.93 550.039 1496.06 507.529 1496.03 464.711C1485.81 465.479 1481.42 467.223 1481.42 467.223C1481.42 467.223 1471.66 475.557 1439.87 485.914C1409.9 495.68 1415.47 606.379 1417.29 668.338C1419.11 730.298 1418.39 769.581 1477.31 777.11C1482.84 777.818 1488.28 778.442 1493.6 778.965C1493.69 764.796 1499.54 758.109 1499.87 743.906Z" fill="#FB4C47"/>
<path d="M1435.95 618.021C1435.31 618.021 1434.74 617.578 1434.61 616.931C1434.45 616.191 1434.92 615.461 1435.66 615.301C1436.41 615.139 1454.1 611.113 1460.2 589.938C1460.4 589.208 1461.17 588.789 1461.9 588.997C1462.62 589.206 1463.05 589.968 1462.84 590.697C1456.27 613.508 1437.05 617.817 1436.23 617.99C1436.14 618.011 1436.04 618.021 1435.95 618.021Z" fill="#B63A37"/>
<path d="M1487.38 734.501C1486.81 734.501 1486.33 734.056 1486.3 733.478C1481.56 647.988 1477.78 564.42 1483.63 481.937C1483.68 481.34 1484.2 480.893 1484.79 480.933C1485.39 480.975 1485.84 481.494 1485.8 482.091C1479.95 564.447 1483.73 647.94 1488.47 733.356C1488.5 733.955 1488.04 734.466 1487.44 734.499C1487.42 734.501 1487.4 734.501 1487.38 734.501Z" fill="#B63A37"/>
<path d="M1602.13 529.275C1603.56 485.169 1582.31 473.528 1539.92 467.17C1539.75 467.145 1539.59 467.121 1539.42 467.098C1538.74 474.384 1538.99 481.784 1539.47 489.058C1540.23 500.692 1541.58 512.259 1542.05 523.912C1544.01 572.538 1548.76 605.566 1544.86 669.388C1541.92 717.356 1549.59 742.533 1550.93 778.881C1575 775.205 1593.94 765.41 1605.6 745.534C1627.48 708.245 1600.72 573.381 1602.13 529.275Z" fill="#FB4C47"/>
<path d="M1597.16 616.533C1597.05 616.533 1596.95 616.524 1596.85 616.499C1596.56 616.434 1568.38 609.517 1563.61 568.523C1563.53 567.77 1564.07 567.087 1564.82 567.001C1565.58 566.908 1566.26 567.454 1566.34 568.207C1570.89 607.294 1597.2 613.76 1597.46 613.819C1598.2 613.989 1598.66 614.726 1598.49 615.466C1598.35 616.101 1597.78 616.533 1597.16 616.533Z" fill="#B63A37"/>
<path d="M1554.17 726.658C1553.64 726.658 1553.18 726.281 1553.1 725.749C1551.11 713.679 1551.87 681.299 1552.61 649.987C1553.17 626.166 1553.7 603.667 1553.08 590.113C1550.99 544.225 1544.72 480.136 1544.66 479.495C1544.6 478.9 1545.03 478.369 1545.63 478.31C1546.22 478.253 1546.76 478.687 1546.81 479.282C1546.88 479.925 1553.15 544.067 1555.25 590.012C1555.87 603.642 1555.34 626.177 1554.78 650.038C1554.04 681.251 1553.28 713.527 1555.24 725.397C1555.33 725.986 1554.93 726.546 1554.34 726.643C1554.28 726.652 1554.22 726.658 1554.17 726.658Z" fill="#B63A37"/>
<path d="M1515.62 366.014L1494.78 373.585C1494.78 373.585 1488.52 382.208 1480.32 380.43C1477.04 379.715 1473.43 377.328 1469.8 372.047C1457.09 353.584 1487.74 328.004 1506.16 332.302C1515.2 334.409 1517.65 342.564 1517.8 350.326C1517.95 358.384 1515.62 366.014 1515.62 366.014Z" fill="#002014"/>
<path d="M1515.62 366.014L1494.77 373.585C1494.77 373.585 1488.52 382.208 1480.32 380.43C1480.32 370.868 1493.74 353.384 1517.79 350.326C1517.95 358.384 1515.62 366.014 1515.62 366.014Z" fill="#FFD339"/>
<path d="M1515.27 329.13C1514.9 329.13 1514.49 329.174 1514.05 329.262C1512.97 329.478 1512.27 330.003 1511.85 330.914C1509.97 334.969 1513.92 344.627 1516.74 350.332C1518.49 344.003 1520.58 333.423 1517.63 330.089C1517.06 329.448 1516.28 329.13 1515.27 329.13ZM1517.07 355.094C1516.6 355.094 1516.16 354.842 1515.93 354.423C1514.93 352.633 1506.28 336.74 1509.47 329.819C1510.24 328.155 1511.65 327.075 1513.53 326.698C1516.75 326.057 1518.6 327.246 1519.58 328.354C1524.71 334.148 1518.99 352.162 1518.32 354.197C1518.15 354.689 1517.72 355.039 1517.2 355.089C1517.16 355.093 1517.12 355.094 1517.07 355.094Z" fill="#FFD339"/>
<path d="M1532.9 335.562C1532.78 335.562 1532.65 335.57 1532.53 335.589C1528.11 336.176 1522.77 345.547 1519.95 351.475C1525.82 349.004 1535.12 344.286 1536.36 339.995C1536.63 339.029 1536.45 338.175 1535.77 337.304C1534.86 336.135 1533.92 335.562 1532.9 335.562ZM1517.44 355.178C1517.09 355.178 1516.74 355.037 1516.49 354.775C1516.13 354.398 1516.03 353.846 1516.23 353.367C1517.06 351.391 1524.51 334.02 1532.18 332.996C1533.65 332.801 1535.82 333.109 1537.84 335.699C1539.02 337.22 1539.38 338.957 1538.87 340.718C1536.76 348.042 1519.81 354.398 1517.89 355.1C1517.74 355.153 1517.59 355.178 1517.44 355.178Z" fill="#FFD339"/>
<path d="M1478.75 383.145C1474.19 382.464 1469.07 380.037 1465.86 373.333C1458.27 357.508 1476.42 344.153 1476.61 344.02C1476.98 343.752 1477.5 343.837 1477.76 344.206C1478.03 344.577 1477.95 345.096 1477.58 345.364C1477.4 345.49 1460.37 358.044 1467.35 372.616C1473.59 385.617 1487.32 381.043 1487.9 380.839C1488.33 380.691 1488.8 380.921 1488.95 381.353C1489.1 381.785 1488.87 382.256 1488.44 382.407C1488.36 382.435 1483.92 383.917 1478.75 383.145Z" fill="#002014"/>
<path d="M1539.14 385.1C1539.14 385.1 1547.28 419.263 1535.98 441.376C1524.68 463.489 1513.33 469.512 1529.55 476.381C1545.78 483.249 1564.24 470.166 1576.63 476.971C1591.59 485.185 1574.82 416.243 1567.34 387.067C1559.69 357.213 1523.36 353.872 1523.36 353.872L1539.14 385.1Z" fill="#002014"/>
<path d="M1560.65 409.648C1560.65 409.648 1575.19 376.352 1547.93 360.679C1520.67 345.006 1493.14 356.843 1485.8 374.888C1478.47 392.932 1489.7 404.802 1489.7 404.802L1560.65 409.648Z" fill="#002014"/>
<path d="M1513.93 479.95C1521.8 482.135 1524.95 478.647 1527.36 476.053L1528.99 461.947L1529.94 453.72L1530.14 452.508L1526.52 452.107L1499.83 444.408L1496.22 461.356L1494.51 469.391C1497.94 472.63 1502.5 476.774 1513.93 479.95Z" fill="#FBB990"/>
<path d="M1528.99 461.947C1520.72 465.676 1504.41 463.982 1496.22 461.355C1496.19 461.352 1496.17 461.342 1496.14 461.332L1499.83 444.408L1526.52 452.107L1530.14 452.508L1529.94 453.719L1528.99 461.947Z" fill="#181818"/>
<path d="M1550.78 409.853C1550.78 409.853 1566.63 405.247 1563.52 419.248C1560.1 434.665 1547.48 430.288 1545.31 429.29L1550.78 409.853Z" fill="#FB9476"/>
<path d="M1539.4 435.459C1538.52 441.325 1542.58 446.81 1548.44 447.686C1554.31 448.563 1559.79 444.505 1560.67 438.637C1561.42 433.634 1558.57 428.917 1554.08 427.091C1554.07 427.101 1554.06 427.112 1554.05 427.129C1553.3 427.327 1553.14 427.909 1553.07 428.542C1557.05 429.959 1559.62 434.048 1558.97 438.384C1558.23 443.308 1553.63 446.72 1548.7 445.984C1543.77 445.248 1540.36 440.638 1541.1 435.714C1541.43 433.489 1542.55 431.576 1544.13 430.216C1544.55 429.866 1544.99 429.55 1545.45 429.276C1545.04 428.902 1544.64 428.466 1544.3 427.968C1543.87 428.234 1543.45 428.537 1543.07 428.868C1541.15 430.49 1539.79 432.787 1539.4 435.459Z" fill="white"/>
<path d="M1552.55 424.713C1552.52 424.709 1552.49 424.702 1552.46 424.694C1552 424.574 1551.73 424.105 1551.85 423.644C1553.61 416.849 1558.61 414.494 1558.82 414.397C1559.26 414.202 1559.77 414.39 1559.97 414.824C1560.16 415.255 1559.97 415.765 1559.54 415.963C1559.35 416.05 1555.06 418.11 1553.51 424.078C1553.4 424.508 1552.98 424.778 1552.55 424.713Z" fill="#FA7764"/>
<path d="M1558.22 421.853C1557.98 421.817 1557.76 421.678 1557.62 421.452C1557.59 421.414 1556.53 419.732 1555.02 419.713C1554.54 419.711 1554.16 419.32 1554.17 418.844C1554.17 418.369 1554.56 417.988 1555.04 417.994C1557.51 418.019 1559.02 420.451 1559.09 420.554C1559.33 420.961 1559.2 421.49 1558.8 421.737C1558.62 421.845 1558.42 421.881 1558.22 421.853Z" fill="#FA7764"/>
<path d="M1559.47 407.933C1558.49 413.501 1556.97 418.912 1555.08 423.986C1554.23 426.285 1553.3 428.512 1552.3 430.654C1545.32 445.747 1535.28 456.622 1527.26 457.563C1514.57 459.056 1500.16 452.854 1493.09 436.299C1491.94 433.594 1490.73 430.327 1490.15 426.477C1490.07 425.943 1490 425.395 1489.93 424.836C1487.86 407.636 1492.22 383.115 1492.22 383.115C1502.63 367.581 1525 371.721 1537.98 373.857C1550.96 375.997 1563.99 382.45 1559.47 407.933Z" fill="#FFC29C"/>
<path d="M1523.75 448.674C1521 448.263 1519.37 447.014 1519.3 446.96C1518.92 446.668 1518.86 446.127 1519.15 445.753C1519.44 445.378 1519.98 445.31 1520.35 445.601C1520.38 445.622 1521.84 446.709 1524.27 447.008C1526.75 447.31 1528.41 446.738 1528.43 446.732C1528.88 446.574 1529.37 446.808 1529.53 447.253C1529.69 447.698 1529.46 448.191 1529.01 448.351C1528.93 448.381 1526.98 449.071 1524.06 448.716C1523.96 448.704 1523.86 448.689 1523.75 448.674Z" fill="#FB9476"/>
<path d="M1475.43 613.759C1474.88 613.759 1474.37 613.407 1474.19 612.853C1472.32 607.096 1471.03 600.602 1470.98 600.328C1470.84 599.618 1471.3 598.932 1472.01 598.791C1472.71 598.652 1473.4 599.112 1473.54 599.822C1473.55 599.888 1474.86 606.44 1476.68 612.047C1476.9 612.733 1476.52 613.471 1475.84 613.694C1475.7 613.738 1475.57 613.759 1475.43 613.759Z" fill="#108A57"/>
<path d="M1482.42 611.416C1481.87 611.416 1481.36 611.073 1481.18 610.528C1479.23 604.797 1477.86 598.323 1477.8 598.051C1477.65 597.344 1478.1 596.65 1478.81 596.501C1479.51 596.351 1480.21 596.804 1480.36 597.509C1480.37 597.576 1481.76 604.107 1483.65 609.687C1483.89 610.372 1483.52 611.113 1482.84 611.345C1482.69 611.393 1482.55 611.416 1482.42 611.416Z" fill="#108A57"/>
<path d="M1489.4 609.073C1488.86 609.073 1488.36 608.738 1488.17 608.201C1486.15 602.498 1484.69 596.045 1484.63 595.773C1484.47 595.069 1484.91 594.369 1485.62 594.211C1486.32 594.054 1487.02 594.495 1487.18 595.2C1487.19 595.265 1488.67 601.775 1490.63 607.329C1490.88 608.009 1490.52 608.755 1489.84 608.996C1489.69 609.048 1489.55 609.073 1489.4 609.073Z" fill="#108A57"/>
<path d="M1496.38 606.73C1495.85 606.73 1495.35 606.403 1495.15 605.875C1493.06 600.2 1491.51 593.767 1491.45 593.496C1491.28 592.794 1491.71 592.088 1492.42 591.921C1493.12 591.753 1493.82 592.187 1493.99 592.889C1494.01 592.953 1495.57 599.443 1497.61 604.969C1497.86 605.646 1497.51 606.4 1496.83 606.649C1496.68 606.704 1496.53 606.73 1496.38 606.73Z" fill="#108A57"/>
<path d="M1503.37 604.388C1502.84 604.388 1502.34 604.068 1502.14 603.549C1499.97 597.9 1498.34 591.489 1498.28 591.219C1498.1 590.519 1498.52 589.808 1499.22 589.631C1499.92 589.454 1500.63 589.878 1500.81 590.578C1500.83 590.641 1502.47 597.111 1504.58 602.611C1504.84 603.285 1504.51 604.042 1503.83 604.3C1503.68 604.359 1503.52 604.388 1503.37 604.388Z" fill="#108A57"/>
<path d="M1510.34 602.046C1509.83 602.046 1509.33 601.734 1509.13 601.222C1506.89 595.602 1505.17 589.21 1505.1 588.94C1504.91 588.244 1505.33 587.527 1506.02 587.341C1506.72 587.154 1507.44 587.569 1507.62 588.267C1507.64 588.331 1509.37 594.781 1511.56 600.252C1511.83 600.924 1511.5 601.684 1510.83 601.952C1510.67 602.015 1510.51 602.046 1510.34 602.046Z" fill="#108A57"/>
<path d="M1517.33 599.703C1516.81 599.703 1516.33 599.398 1516.12 598.896C1513.8 593.303 1512 586.932 1511.92 586.664C1511.73 585.969 1512.13 585.247 1512.83 585.051C1513.52 584.855 1514.24 585.26 1514.44 585.956C1514.46 586.021 1516.27 592.449 1518.53 597.894C1518.81 598.56 1518.49 599.326 1517.83 599.602C1517.66 599.67 1517.49 599.703 1517.33 599.703Z" fill="#108A57"/>
<path d="M1554.95 460.328C1554.68 463.738 1554.05 467.143 1552.89 470.324C1552.59 471.138 1552.26 471.935 1551.89 472.715V472.719C1550.01 476.682 1547.18 480.174 1543.01 482.728C1543.01 482.728 1522.7 491.361 1498.78 480.766H1498.77C1497.42 480.163 1496.05 479.495 1494.66 478.763C1493.45 478.124 1492.25 477.434 1491.03 476.69C1480.64 470.324 1476.52 461.745 1475.39 453.575C1475.29 452.846 1475.22 452.126 1475.16 451.401C1474.72 445.64 1475.65 440.212 1476.76 436.076C1476.84 435.802 1476.91 435.532 1476.99 435.271C1478.19 431.057 1479.51 428.375 1479.51 428.375C1479.51 428.375 1484.89 426.038 1491.94 424.965C1494.63 424.558 1497.55 424.334 1500.52 424.492C1503.89 424.667 1507.31 425.336 1510.49 426.785C1533.17 437.135 1544.66 441.757 1551.24 432.873C1551.24 432.873 1552.39 436.179 1553.43 441.158C1553.58 441.865 1553.72 442.601 1553.86 443.37C1554.25 445.481 1554.59 447.81 1554.82 450.266C1555.11 453.482 1555.22 456.903 1554.95 460.328Z" fill="#0CAD69"/>
<path d="M1553.86 443.369C1553.56 443.837 1553.22 444.311 1552.85 444.782C1549.97 448.413 1544.39 452.593 1533.91 452.593C1533.27 452.593 1532.61 452.578 1531.93 452.544C1521.76 452.059 1513.84 447.863 1506.18 443.807C1497.03 438.967 1488.39 434.391 1476.92 436.806L1476.76 436.076L1476.61 435.345C1476.74 435.321 1476.87 435.294 1476.99 435.271C1488.79 432.919 1497.58 437.569 1506.88 442.489C1514.4 446.466 1522.17 450.583 1532 451.049C1540.91 451.479 1547.51 449.075 1551.63 443.911C1552.37 442.985 1552.96 442.048 1553.43 441.157C1553.58 441.863 1553.72 442.601 1553.86 443.369Z" fill="#108E59"/>
<path d="M1552.88 470.324C1552.59 471.138 1552.26 471.935 1551.88 472.715V472.718C1548.08 474.9 1543.53 476.395 1538.26 477.186C1535.27 477.639 1532.05 477.861 1528.61 477.861C1524.13 477.861 1519.28 477.481 1514.11 476.72C1498.6 474.426 1485.34 469.421 1485.21 469.367L1485.74 467.971C1485.87 468.023 1499 472.979 1514.36 475.244C1526.57 477.039 1542.4 477.418 1552.88 470.324Z" fill="#108E59"/>
<path d="M1517.02 589.994L1471.04 605.011C1471.04 605.011 1470.43 602.331 1469.49 597.774C1469.28 596.759 1469.05 595.646 1468.81 594.45C1468.16 591.215 1467.41 587.356 1466.62 583.05C1466.43 581.958 1466.23 580.842 1466.03 579.695C1465.39 576.093 1464.73 572.24 1464.1 568.212C1463.92 567.095 1463.75 565.968 1463.57 564.825C1463 561.059 1462.45 557.175 1461.95 553.233C1461.8 552.09 1461.66 550.943 1461.52 549.791C1461.04 545.89 1460.63 541.957 1460.28 538.056C1460.17 536.888 1460.07 535.723 1459.99 534.561C1459.67 530.496 1459.44 526.489 1459.32 522.615C1459.29 521.423 1459.26 520.243 1459.25 519.078C1459.19 514.738 1459.3 510.599 1459.61 506.778C1459.71 505.525 1459.84 504.312 1459.98 503.136C1460.08 502.284 1460.2 501.451 1460.33 500.641C1460.93 496.856 1461.76 493.424 1462.77 490.308C1463.19 489 1463.64 487.75 1464.12 486.554C1472.63 465.173 1489.35 460.959 1489.35 460.959C1501.73 462.188 1507.17 475.419 1507.17 475.419C1504.58 477.893 1502.7 481.292 1501.42 485.369C1501.08 486.427 1500.79 487.53 1500.54 488.673C1499.85 491.735 1499.43 495.097 1499.24 498.675C1499.17 499.785 1499.14 500.917 1499.12 502.064C1499.06 505.407 1499.18 508.903 1499.43 512.495C1499.51 513.617 1499.6 514.745 1499.71 515.881C1500.03 519.34 1500.47 522.87 1501 526.413C1501.16 527.543 1501.34 528.667 1501.52 529.795C1502.1 533.321 1502.75 536.85 1503.46 540.333C1503.68 541.453 1503.92 542.565 1504.16 543.676C1504.92 547.257 1505.73 550.772 1506.57 554.165C1506.84 555.27 1507.11 556.36 1507.39 557.436C1508.31 561.078 1509.25 564.553 1510.15 567.78C1510.46 568.889 1510.77 569.973 1511.07 571.021C1512.19 574.891 1513.24 578.324 1514.13 581.171C1514.5 582.345 1514.84 583.415 1515.15 584.379C1516.3 587.944 1517.02 589.994 1517.02 589.994Z" fill="#0CAD69"/>
<path d="M1501.41 485.37C1501.08 486.427 1500.79 487.528 1500.53 488.671C1492.39 487.667 1477.61 486.733 1462.76 490.309C1463.18 489 1463.63 487.749 1464.11 486.555C1471.49 484.959 1478.58 484.428 1484.42 484.369C1491.33 484.295 1497.27 484.832 1501.41 485.37Z" fill="#108E59"/>
<path d="M1499.23 498.675C1499.17 499.784 1499.13 500.916 1499.11 502.063C1489.4 501.646 1474.14 502.038 1459.61 506.777C1459.71 505.526 1459.83 504.313 1459.98 503.135C1469.61 500.174 1479.22 499.048 1486.76 498.694C1491.46 498.474 1495.7 498.521 1499.23 498.675Z" fill="#108E59"/>
<path d="M1499.71 515.88C1489.34 516.055 1473.77 517.352 1459.32 522.617C1459.28 521.424 1459.26 520.243 1459.24 519.077C1469.88 515.35 1480.75 513.714 1489.09 513.02C1492.88 512.702 1496.37 512.552 1499.43 512.497C1499.51 513.617 1499.6 514.745 1499.71 515.88Z" fill="#108E59"/>
<path d="M1501.52 529.795C1490.81 530.516 1474.87 532.532 1460.28 538.057C1460.17 536.887 1460.08 535.723 1459.99 534.561C1474.66 529.126 1490.31 527.132 1501 526.414C1501.16 527.541 1501.34 528.667 1501.52 529.795Z" fill="#108E59"/>
<path d="M1504.15 543.675C1493.27 544.908 1476.84 547.57 1461.94 553.234C1461.8 552.091 1461.65 550.944 1461.51 549.79C1476.48 544.191 1492.6 541.557 1503.46 540.332C1503.68 541.454 1503.92 542.566 1504.15 543.675Z" fill="#108E59"/>
<path d="M1507.39 557.437C1496.47 559.158 1479.46 562.49 1464.1 568.212C1463.92 567.096 1463.75 565.968 1463.57 564.825C1478.88 559.203 1495.65 555.9 1506.57 554.163C1506.84 555.27 1507.11 556.36 1507.39 557.437Z" fill="#108E59"/>
<path d="M1511.08 571.022C1500.29 573.218 1482.59 577.283 1466.63 583.049C1466.43 581.959 1466.23 580.843 1466.03 579.696C1481.92 574.006 1499.36 569.987 1510.16 567.779C1510.47 568.888 1510.78 569.972 1511.08 571.022Z" fill="#108E59"/>
<path d="M1515.15 584.379C1504.7 587.009 1486.2 591.941 1469.49 597.774C1469.28 596.758 1469.05 595.646 1468.81 594.449C1485.42 588.675 1503.67 583.809 1514.13 581.171C1514.5 582.344 1514.84 583.415 1515.15 584.379Z" fill="#108E59"/>
<path d="M1498.78 480.766H1498.77C1498.43 480.747 1498.08 480.707 1497.72 480.638C1496.62 480.429 1495.6 479.773 1494.66 478.763C1486.75 470.235 1484.72 436.58 1484.72 436.58C1484.72 436.58 1487.68 429.256 1491.94 424.967C1494.62 424.56 1497.55 424.336 1500.52 424.494C1501.13 430.814 1503.26 450.962 1505.73 456.506C1508.58 462.873 1508.21 481.27 1498.78 480.766Z" fill="#128E5A"/>
<path d="M1554.95 460.328C1543.39 469.294 1518.18 464.132 1495.16 457.348C1487.29 455.03 1480.74 453.948 1475.39 453.577C1475.3 452.848 1475.22 452.126 1475.16 451.403C1485.17 452.029 1498.58 454.841 1515.19 458.615C1539.82 464.208 1551.04 454.767 1554.82 450.268C1555.12 453.484 1555.22 456.907 1554.95 460.328Z" fill="#108E59"/>
<path d="M1538.25 414.722C1537.87 417.152 1538.66 419.296 1540.01 419.509C1541.37 419.724 1542.79 417.923 1543.17 415.49C1543.32 414.532 1543.28 413.623 1543.11 412.854C1545.52 413.337 1546.56 411.949 1546.56 411.949C1544.96 411.924 1542.91 411.259 1541.95 410.912C1541.61 410.785 1541.4 410.703 1541.4 410.703C1540.04 410.488 1538.64 412.286 1538.25 414.722Z" fill="#181818"/>
<path d="M1541.4 410.702C1541.4 410.702 1541.61 410.784 1541.95 410.912C1541.78 410.805 1541.6 410.733 1541.4 410.702Z" fill="#181818"/>
<path d="M1555.08 423.986C1554.23 426.285 1553.3 428.512 1552.31 430.654C1551.22 430.663 1550.04 430.587 1548.84 430.416C1543.44 429.653 1539.32 427.291 1539.62 425.142C1539.93 422.995 1544.55 421.875 1549.94 422.636C1551.86 422.908 1553.63 423.383 1555.08 423.986Z" fill="#FD9B7E"/>
<path d="M1515.48 420.925C1515.17 423.097 1510.51 424.229 1505.06 423.457C1499.61 422.683 1495.44 420.298 1495.75 418.126C1496.05 415.956 1500.72 414.822 1506.17 415.594C1511.62 416.368 1515.79 418.753 1515.48 420.925Z" fill="#FD9B7E"/>
<path d="M1492.98 407.194C1493.28 405.138 1492.4 403.1 1490.72 401.879C1486.57 398.853 1481 397.139 1478.24 402.639C1473.11 412.849 1482.42 426.53 1490.47 424.728L1492.98 407.194Z" fill="#FBB990"/>
<path d="M1494.67 424.057C1494.51 424.202 1494.36 424.341 1494.2 424.468C1493.74 424.851 1493.27 425.176 1492.79 425.446C1491.91 425.946 1491.01 426.271 1490.16 426.479C1490.07 425.94 1490 425.394 1489.94 424.835C1490.55 424.689 1491.18 424.476 1491.8 424.162C1492.31 423.924 1492.81 423.622 1493.29 423.247C1493.48 423.097 1493.67 422.933 1493.85 422.764C1494.16 422.471 1494.59 422.536 1494.81 422.901C1495.03 423.259 1494.98 423.784 1494.67 424.057Z" fill="#FB9476"/>
<path d="M1486.88 417.63C1486.46 417.568 1486.13 417.197 1486.15 416.759C1486.31 409.867 1481.94 406.187 1481.9 406.151C1481.53 405.849 1481.48 405.308 1481.78 404.941C1482.08 404.572 1482.62 404.517 1482.99 404.818C1483.19 404.987 1488.05 409.034 1487.87 416.799C1487.85 417.275 1487.46 417.651 1486.99 417.638C1486.95 417.638 1486.91 417.634 1486.88 417.63Z" fill="#FB9476"/>
<path d="M1481.38 412.802C1481.18 412.772 1481 412.675 1480.86 412.513C1480.55 412.154 1480.59 411.614 1480.95 411.302C1481.05 411.214 1483.47 409.155 1486.18 409.873C1486.64 409.995 1486.91 410.467 1486.79 410.927C1486.67 411.385 1486.19 411.656 1485.74 411.538C1483.91 411.055 1482.09 412.589 1482.07 412.605C1481.87 412.774 1481.62 412.838 1481.38 412.802Z" fill="#FB9476"/>
<path d="M1531.96 423.925H1531.97H1531.96ZM1527.65 428.269C1527.3 428.217 1526.99 427.955 1526.92 427.55C1526.85 427.17 1527.07 426.797 1527.42 426.629C1529.54 425.625 1531.58 424.334 1531.94 423.788C1531.64 422.219 1530.48 415.985 1530.06 413.703C1529.97 413.235 1530.28 412.79 1530.75 412.702C1531.21 412.615 1531.66 412.921 1531.75 413.387C1532.19 415.745 1533.41 422.308 1533.66 423.607C1533.74 424.056 1534 425.42 1528.14 428.195C1527.98 428.271 1527.81 428.293 1527.65 428.269Z" fill="#FB9476"/>
<path d="M1516.72 411.505C1516.37 413.941 1514.99 415.76 1513.63 415.569C1512.27 415.377 1511.45 413.241 1511.8 410.803C1511.93 409.845 1512.23 408.983 1512.62 408.3C1510.17 408.057 1509.58 406.425 1509.58 406.425C1511.12 406.87 1513.28 406.832 1514.3 406.783C1514.66 406.76 1514.88 406.741 1514.88 406.741C1516.24 406.933 1517.07 409.063 1516.72 411.505Z" fill="#181818"/>
<path d="M1514.89 406.741C1514.89 406.741 1514.67 406.76 1514.3 406.781C1514.5 406.73 1514.69 406.711 1514.89 406.741Z" fill="#181818"/>
<path d="M1550.68 410.833C1550.19 409.815 1549.54 408.801 1548.85 407.889C1548.14 406.97 1547.35 406.135 1546.5 405.401C1545.66 404.655 1544.74 404.045 1543.78 403.556C1542.84 403.035 1541.81 402.75 1540.81 402.493L1540.71 402.468C1539.63 402.191 1538.98 401.088 1539.26 400.007C1539.53 398.925 1540.64 398.273 1541.72 398.551C1541.84 398.583 1541.97 398.63 1542.08 398.684C1543.34 399.281 1544.56 399.937 1545.6 400.812C1546.65 401.656 1547.59 402.609 1548.38 403.653C1549.18 404.688 1549.85 405.785 1550.41 406.928C1550.97 408.079 1551.42 409.233 1551.74 410.49C1551.82 410.789 1551.64 411.091 1551.34 411.167C1551.08 411.234 1550.81 411.105 1550.7 410.871L1550.68 410.833Z" fill="#111111"/>
<path d="M1504.33 403.454C1505.2 402.269 1506.16 401.24 1507.23 400.266C1508.3 399.3 1509.47 398.431 1510.74 397.68C1512 396.915 1513.39 396.312 1514.84 395.871C1516.29 395.388 1517.84 395.211 1519.4 395.11C1520.51 395.038 1521.47 395.883 1521.54 396.995C1521.61 398.108 1520.77 399.068 1519.66 399.14C1519.55 399.148 1519.44 399.144 1519.33 399.135L1519.2 399.121C1518.01 398.998 1516.78 398.897 1515.54 399.085C1514.31 399.23 1513.06 399.521 1511.86 399.989C1510.65 400.441 1509.47 401.023 1508.34 401.727C1507.23 402.429 1506.13 403.256 1505.2 404.156L1505.16 404.184C1504.94 404.397 1504.59 404.388 1504.38 404.167C1504.19 403.969 1504.18 403.667 1504.33 403.454Z" fill="#111111"/>
<path d="M1503.35 381.183C1503.35 381.183 1519.31 402.961 1556.59 401.896C1576.65 401.324 1559.23 370.004 1529.33 368.243C1499.43 366.484 1503.35 381.183 1503.35 381.183Z" fill="#002014"/>
<path d="M1556.69 398.488C1556.69 398.488 1558.93 415.096 1555.08 423.986C1555.08 423.986 1562.29 409.119 1560.04 399.722C1557.8 390.325 1556.69 398.488 1556.69 398.488Z" fill="#181818"/>
<path d="M1513.35 381.248C1513.35 381.248 1495.58 411.539 1499.93 435.991C1504.27 460.441 1510.62 479.907 1493.09 481.732C1475.75 483.541 1464.25 476.729 1448.71 482.87H1448.71C1448.55 482.936 1448.39 482.999 1448.22 483.068C1447.82 483.235 1447.45 483.336 1447.12 483.381C1444.43 483.727 1443.91 480.217 1444.92 474.226C1445.28 472.107 1445.82 469.684 1446.53 467.008C1449.8 454.618 1456.53 436.891 1463.84 419.854C1469.58 406.474 1475.68 393.519 1480.75 383.911C1482.59 380.411 1484.31 377.361 1485.81 374.887C1501.85 348.575 1537.57 355.994 1537.57 355.994L1513.35 381.248Z" fill="#002014"/>
<path d="M1481.81 385.062C1481.65 385.361 1472.6 402.002 1463.84 419.853C1456.68 434.417 1449.72 449.792 1447.92 457.76C1447.14 461.193 1446.71 464.274 1446.52 467.009C1445.94 475.754 1447.83 480.963 1448.71 482.869C1448.55 482.935 1448.38 483 1448.22 483.066C1447.81 483.236 1447.45 483.336 1447.11 483.38C1446.41 481.838 1445.33 478.816 1444.92 474.225C1444.53 469.982 1444.71 464.394 1446.3 457.393C1450.36 439.434 1479.14 386.511 1480.36 384.267C1480.45 384.102 1480.59 383.984 1480.74 383.912C1480.97 383.807 1481.25 383.807 1481.48 383.938C1481.88 384.155 1482.03 384.659 1481.81 385.062Z" fill="#002014"/>
<g opacity="0.399994">
<g opacity="0.399994">
<g opacity="0.399994">
<g opacity="0.399994">
<g opacity="0.399994">
<g opacity="0.399994">
<path opacity="0.399994" d="M1534.44 401.942C1534.44 401.942 1515.08 396.063 1509.57 417.345C1504.05 438.624 1523.14 448.179 1535.24 445.84C1547.34 443.499 1555.31 405.551 1534.44 401.942Z" fill="#FFC29C"/>
</g>
</g>
</g>
</g>
</g>
</g>
<path d="M1515.13 399.681C1507.89 399.681 1502.01 405.572 1502.01 412.812C1502.01 420.05 1507.89 425.94 1515.13 425.94C1522.37 425.94 1528.26 420.05 1528.26 412.812C1528.26 405.572 1522.37 399.681 1515.13 399.681ZM1515.13 427.747C1506.9 427.747 1500.2 421.047 1500.2 412.812C1500.2 404.575 1506.9 397.875 1515.13 397.875C1523.37 397.875 1530.07 404.575 1530.07 412.812C1530.07 421.047 1523.37 427.747 1515.13 427.747Z" fill="white"/>
<path d="M1548.22 406.392C1540.98 406.392 1535.1 412.282 1535.1 419.52C1535.1 426.761 1540.98 432.651 1548.22 432.651C1555.46 432.651 1561.35 426.761 1561.35 419.52C1561.35 412.282 1555.46 406.392 1548.22 406.392ZM1548.22 434.458C1539.99 434.458 1533.29 427.757 1533.29 419.52C1533.29 411.285 1539.99 404.585 1548.22 404.585C1556.46 404.585 1563.16 411.285 1563.16 419.52C1563.16 427.757 1556.46 434.458 1548.22 434.458Z" fill="white"/>
<path d="M1534.14 415.642C1532.55 413.189 1529.61 414.227 1529.49 414.273L1528.87 412.576C1530.39 412.021 1533.76 411.741 1535.65 414.657L1534.14 415.642Z" fill="white"/>
<path d="M1557.89 758.712C1553.71 761.711 1548.02 770.673 1538.13 773.818C1481.95 791.694 1429.52 757 1429.52 757C1426.41 741.614 1428.34 724.133 1433.52 717.733C1431.89 715.46 1432.97 712.742 1432.97 712.742L1408.23 666.879C1408.83 667.256 1447.04 691.409 1475.35 708.52H1475.36C1483.52 713.448 1490.85 717.792 1496.23 720.81C1504.43 725.415 1514.9 725.865 1525.16 724.452C1545.15 721.689 1564.34 711.837 1564.34 711.837C1564.34 711.837 1612.18 683.627 1624.25 684.601C1633.64 685.354 1599.67 737.118 1557.89 758.712Z" fill="#108E59"/>
<path d="M1452.08 805.116C1452.08 805.116 1449.06 805.683 1444.14 806.691C1442.74 806.978 1441.19 807.296 1439.51 807.651C1437.29 808.121 1434.84 808.646 1432.23 809.226C1430.75 809.555 1429.21 809.901 1427.62 810.261C1407.93 814.747 1381.85 821.571 1371.34 828.243C1370.61 828.71 1369.89 829.174 1369.21 829.64C1353.21 840.399 1349.93 849.69 1346.96 847.805C1343.87 845.842 1343.17 837.786 1348.23 832.489C1351.73 828.819 1354.18 823.465 1358.87 817.678C1360.14 816.113 1361.58 814.515 1363.24 812.91C1370.59 805.827 1382.36 798.507 1388.93 792.88C1389.35 792.518 1389.75 792.161 1390.13 791.813C1395.54 786.826 1397.65 776.564 1407.51 773.445C1412.33 771.923 1418.11 772.516 1423.69 773.987C1424.68 774.247 1425.66 774.538 1426.63 774.846C1428.08 775.31 1429.5 775.82 1430.87 776.347C1432.76 777.087 1434.55 777.864 1436.18 778.627C1437.75 779.357 1439.17 780.073 1440.4 780.715C1443.37 782.269 1445.2 783.424 1445.2 783.424L1452.08 805.116Z" fill="white"/>
<path d="M1423.68 773.987C1417.85 781.619 1404.42 796.208 1388.92 792.881C1389.34 792.518 1389.75 792.162 1390.12 791.813C1395.53 786.826 1397.64 776.564 1407.51 773.444C1412.33 771.923 1418.11 772.518 1423.68 773.987Z" fill="#80D7B2"/>
<path d="M1369.21 829.639C1353.2 840.398 1349.93 849.689 1346.96 847.806C1343.86 845.843 1343.17 837.785 1348.23 832.488C1351.73 828.818 1354.18 823.466 1358.87 817.679C1362.83 820.488 1367.04 824.47 1369.21 829.639Z" fill="#80D7B2"/>
<path d="M1444.14 806.691C1442.74 806.976 1441.19 807.296 1439.51 807.651C1436.6 802.33 1435.13 795.841 1435.22 788.439C1435.27 784.698 1435.7 781.299 1436.18 778.627C1437.74 779.358 1439.17 780.073 1440.4 780.715C1440.05 782.965 1439.77 785.643 1439.74 788.528C1439.67 794.361 1440.63 801.041 1444.14 806.691Z" fill="#80D7B2"/>
<path d="M1430.86 776.347C1429.5 775.82 1428.08 775.31 1426.63 774.846C1425.68 777.579 1424.34 782.184 1423.73 787.598C1422.74 796.373 1424.08 804.079 1427.62 810.26C1429.2 809.901 1430.74 809.555 1432.23 809.226C1424.75 797.76 1428.86 782.222 1430.86 776.347Z" fill="#80D7B2"/>
<path d="M1688.23 721.855C1667.14 747.611 1619.73 773.958 1569.01 789.245C1551.4 794.553 1536.28 798.537 1523.38 801.523C1513.22 803.879 1504.43 805.61 1496.89 806.875C1467.76 811.761 1457.05 809.726 1457.05 809.726C1457.05 809.726 1439.08 803.946 1446.78 774.749C1446.78 774.749 1480.86 766.917 1507.26 753.867C1512.64 751.208 1517.71 748.328 1522.1 745.253C1523.13 744.532 1524.15 743.8 1525.16 743.056C1549.7 725.082 1570.68 700.668 1625.98 678.599C1625.98 678.599 1654.9 661.035 1678.15 668.911C1681.62 670.082 1684.9 671.775 1687.86 674.111C1704.71 687.366 1702.47 704.477 1688.23 721.855Z" fill="#0CAD69"/>
<path d="M1584.95 781.354L1573.95 782.864L1507.27 753.867C1512.65 751.206 1517.71 748.329 1522.11 745.253C1523.13 744.532 1524.16 743.8 1525.17 743.057L1584.95 781.354Z" fill="#108E59"/>
<path d="M1523.39 801.522C1513.23 803.879 1504.44 805.609 1496.89 806.874C1475.67 801.111 1450.26 790.358 1450.26 790.358L1451.92 777.179L1523.39 801.522Z" fill="#108E59"/>
<path d="M1688.23 721.856C1670.83 698.462 1674.28 678.873 1678.15 668.911C1681.62 670.084 1684.9 671.775 1687.87 674.111C1704.71 687.366 1702.47 704.477 1688.23 721.856Z" fill="#108E59"/>
<path d="M1449.68 783.457C1467.42 779.984 1503.89 765.098 1547.25 743.636C1579.67 727.584 1617.16 706.9 1622.85 699.416C1625.93 695.374 1626.8 691.997 1625.45 689.38C1623.44 685.464 1617.17 684.802 1614.31 684.709C1613.57 684.684 1612.97 685.283 1612.99 686.023C1613.01 686.692 1613.54 687.233 1614.22 687.255C1617.03 687.356 1621.9 688.046 1623.19 690.547C1624.26 692.626 1622.49 695.679 1620.82 697.873C1616.23 703.91 1584.82 722.194 1546.12 741.352C1512.79 757.848 1469.83 776.916 1449.19 780.958L1449.68 783.457Z" fill="#108E59"/>
<path d="M1453.51 771.111C1454.83 786.687 1458.25 800.942 1466.54 812.113C1466.54 812.113 1458.82 817.191 1452.14 813.028C1447.03 809.848 1437.98 785.221 1442.38 772.467C1446.85 770.265 1450.66 769.592 1453.51 771.111Z" fill="#108E59"/>
<path d="M1575.63 811.405C1575.63 811.405 1578.61 812.166 1583.45 813.495C1584.83 813.871 1586.36 814.294 1588.01 814.756C1590.2 815.37 1592.6 816.055 1595.17 816.804C1596.63 817.23 1598.15 817.675 1599.7 818.137C1619.06 823.904 1644.64 832.42 1654.68 839.761C1655.39 840.279 1656.07 840.788 1656.73 841.298C1671.99 853.08 1674.65 862.563 1677.73 860.879C1680.96 859.124 1682.17 851.129 1677.48 845.513C1674.22 841.621 1672.13 836.119 1667.82 830.035C1666.65 828.392 1665.33 826.703 1663.77 824.993C1656.9 817.443 1645.64 809.372 1639.45 803.326C1639.06 802.938 1638.68 802.555 1638.32 802.181C1633.25 796.852 1631.82 786.475 1622.18 782.715C1617.47 780.882 1611.66 781.095 1606.01 782.198C1605 782.394 1603.99 782.618 1603.01 782.864C1601.53 783.233 1600.08 783.647 1598.68 784.085C1596.75 784.699 1594.91 785.359 1593.23 786.011C1591.62 786.639 1590.15 787.259 1588.88 787.822C1585.82 789.176 1583.92 790.207 1583.92 790.207L1575.63 811.405Z" fill="white"/>
<path d="M1606.01 782.197C1611.33 790.197 1623.77 805.63 1639.46 803.325C1639.06 802.937 1638.68 802.555 1638.32 802.182C1633.26 796.851 1631.82 786.475 1622.18 782.715C1617.47 780.883 1611.67 781.096 1606.01 782.197Z" fill="#80D7B2"/>
<path d="M1656.72 841.298C1671.99 853.08 1674.65 862.564 1677.73 860.879C1680.95 859.124 1682.17 851.128 1677.47 845.512C1674.22 841.621 1672.13 836.119 1667.82 830.035C1663.68 832.58 1659.22 836.281 1656.72 841.298Z" fill="#80D7B2"/>
<path d="M1583.45 813.494C1584.83 813.871 1586.36 814.293 1588.01 814.755C1591.26 809.637 1593.15 803.257 1593.54 795.864C1593.74 792.129 1593.54 788.709 1593.23 786.012C1591.62 786.638 1590.15 787.258 1588.88 787.821C1589.09 790.088 1589.19 792.777 1589.03 795.661C1588.72 801.484 1587.32 808.085 1583.45 813.494Z" fill="#80D7B2"/>
<path d="M1595.17 816.804C1596.63 817.23 1598.15 817.675 1599.7 818.137C1603.64 812.201 1605.48 804.6 1605.07 795.777C1604.81 790.336 1603.77 785.653 1603.01 782.863C1601.53 783.232 1600.08 783.647 1598.68 784.084C1600.3 790.075 1603.39 805.849 1595.17 816.804Z" fill="#80D7B2"/>
<path d="M1581.28 781.856C1587.05 811.498 1568.74 816.087 1568.74 816.087C1568.74 816.087 1541.46 819.444 1458.37 788.328C1410.46 770.389 1366.29 742.354 1345.88 716.067C1330.89 696.767 1328.72 678.401 1347.3 665.664C1351.57 662.729 1356.37 661.048 1361.36 660.265C1384.35 656.657 1411.52 672.13 1411.52 672.13C1467.47 698.828 1453.46 708.003 1500.13 737.727C1526.81 754.726 1581.28 781.856 1581.28 781.856Z" fill="#0CAD69"/>
<path d="M1361.36 660.265C1362.25 670.287 1363.78 703.8 1345.88 716.067C1330.89 696.767 1328.72 678.401 1347.3 665.664C1351.58 662.729 1356.37 661.048 1361.36 660.265Z" fill="#108E59"/>
<path d="M1577.82 790.356C1560.35 785.731 1524.93 768.491 1483.07 744.239C1451.76 726.101 1415.71 703.008 1410.52 695.169C1407.72 690.933 1407.06 687.506 1408.58 684.985C1410.85 681.207 1417.14 680.958 1420 681.051C1420.74 681.076 1421.3 681.713 1421.23 682.447C1421.17 683.115 1420.6 683.619 1419.93 683.6C1417.12 683.516 1412.21 683.885 1410.76 686.299C1409.56 688.301 1411.12 691.462 1412.64 693.763C1416.83 700.085 1446.98 720.387 1484.35 742.036C1516.52 760.676 1558.15 782.513 1578.47 787.894L1577.82 790.356Z" fill="#108E59"/>
<path d="M1574.8 777.786C1572.46 793.245 1568.12 807.242 1559.12 817.847C1559.12 817.847 1566.49 823.419 1573.43 819.703C1578.73 816.866 1589.37 792.883 1585.82 779.869C1581.5 777.378 1577.75 776.459 1574.8 777.786Z" fill="#108E59"/>
<path d="M1658.58 659.719C1652.37 667.657 1643.82 672.098 1637.02 676.639C1620.68 687.565 1587.53 694.473 1590.02 656.835C1592.52 619.202 1620.99 634.452 1600.04 568.352C1591.1 540.149 1584.94 482.014 1584.94 482.014C1584.94 482.014 1631.74 514.798 1659.43 595.653C1661.59 601.952 1663.22 607.701 1664.4 612.956C1669.75 636.828 1665.72 650.586 1658.58 659.719Z" fill="#FB4C47"/>
<path d="M1658.57 659.719C1648.42 641.592 1656.84 623.673 1664.4 612.956C1669.75 636.828 1665.72 650.586 1658.57 659.719Z" fill="#B63A37"/>
<path d="M1589.91 663.572C1589.4 663.572 1588.93 663.212 1588.82 662.685C1588.75 662.364 1587.18 654.705 1590.3 644.523C1593.17 635.175 1600.73 621.875 1620.47 611.604C1621.02 611.316 1621.69 611.531 1621.98 612.079C1622.27 612.629 1622.05 613.306 1621.5 613.591C1602.52 623.475 1595.24 636.16 1592.48 645.063C1589.49 654.715 1591 662.145 1591.01 662.219C1591.14 662.824 1590.75 663.419 1590.15 663.547C1590.07 663.564 1589.99 663.572 1589.91 663.572Z" fill="#B63A37"/>
<path d="M1606.92 622.561C1606.77 622.576 1606.61 622.559 1606.45 622.508C1605.86 622.31 1605.55 621.675 1605.75 621.089C1609.38 610.275 1611.71 605.646 1611.8 605.454C1612.08 604.902 1612.76 604.682 1613.31 604.963C1613.86 605.243 1614.08 605.916 1613.8 606.468C1613.78 606.513 1611.44 611.173 1607.87 621.802C1607.72 622.234 1607.34 622.519 1606.92 622.561Z" fill="#B63A37"/>
<path d="M1608.18 617.636C1607.57 617.636 1607.06 617.134 1607.06 616.516C1607.06 594.486 1577.63 544.609 1577.33 544.106C1577.01 543.574 1577.19 542.885 1577.72 542.57C1578.25 542.254 1578.94 542.431 1579.26 542.962C1580.48 545.031 1609.3 593.876 1609.3 616.516C1609.3 617.134 1608.8 617.636 1608.18 617.636Z" fill="#B63A37"/>
<path d="M1587.35 561.025C1587.11 561.025 1586.88 560.953 1586.68 560.802C1582.87 557.955 1573.23 555.437 1573.13 555.413C1572.53 555.258 1572.17 554.646 1572.33 554.049C1572.48 553.448 1573.09 553.088 1573.69 553.244C1574.1 553.351 1583.85 555.896 1588.02 559.007C1588.51 559.378 1588.61 560.08 1588.24 560.576C1588.02 560.869 1587.69 561.025 1587.35 561.025Z" fill="#B63A37"/>
<path d="M1573.63 718.348C1573.81 720.338 1573.98 722.416 1574.22 724.094C1574.68 727.264 1575.4 728.999 1576.98 725.984C1577.33 725.305 1577.61 724.438 1577.85 723.441C1579.2 717.626 1578.76 707.39 1579.39 705.159C1580.09 702.624 1583.05 695.414 1583.31 695.007C1583.18 695.307 1581.84 699.716 1581.69 702.436C1581.54 704.986 1581.69 708.086 1581.69 714.366C1581.69 717.104 1581.79 719.936 1582.14 721.996V722.002C1582.58 724.664 1583.44 726.02 1585.04 724.174C1585.82 723.265 1586.33 721.669 1586.65 719.78C1587.51 714.875 1587.2 707.949 1587.66 705.682C1588.26 702.643 1590.73 697.732 1590.89 697.424C1589.95 700.551 1589.95 700.243 1589.43 704.351C1589.07 707.221 1588.4 714.856 1589.11 718.278C1589.41 719.754 1589.97 720.45 1590.93 719.642C1592.42 718.381 1593.45 716.532 1594.18 714.417C1595 712.044 1595.44 709.33 1595.71 706.73C1596.23 701.808 1598.22 698.774 1598.22 698.774C1597.12 704.105 1596.52 709.261 1596.84 711.924C1597.07 713.807 1597.76 714.442 1599.06 713.01C1601.6 710.222 1604.16 701.003 1605.04 697.536C1605.08 697.43 1605.1 697.323 1605.12 697.223C1605.16 697.116 1605.18 697.023 1605.2 696.933C1605.32 696.469 1605.38 696.205 1605.38 696.205L1605.39 696.199C1606.13 693.31 1606.79 690.422 1607.76 687.835C1609.21 683.991 1611.36 680.808 1615.49 679.277C1624.86 675.791 1621.98 657.959 1608.84 656.888C1605.01 656.576 1601.22 657.845 1598.22 660.237C1596.31 661.761 1593.61 663.889 1590.88 665.975L1590.87 665.981C1590.61 666.316 1582.06 676.901 1579.39 683.495C1576.67 690.189 1574.36 700.764 1573.84 703.797C1573.31 706.831 1573.11 712.589 1573.63 718.348Z" fill="#FAB893"/>
<path d="M1367.05 668.514C1373.29 676.653 1381.9 681.208 1388.73 685.865C1405.17 697.069 1438.53 704.15 1436.02 665.556C1433.51 626.967 1404.87 642.606 1425.94 574.824C1434.94 545.905 1436.02 488.272 1436.02 488.272C1436.02 488.272 1394.05 519.908 1366.19 602.82C1364.02 609.277 1362.37 615.172 1361.19 620.563C1355.8 645.042 1359.86 659.149 1367.05 668.514Z" fill="#FB4C47"/>
<path d="M1367.3 670.099C1377.46 651.97 1369.04 634.053 1361.48 623.336C1356.13 647.208 1360.16 660.966 1367.3 670.099Z" fill="#B63A37"/>
<path d="M1435.96 673.952C1436.48 673.952 1436.95 673.592 1437.06 673.065C1437.13 672.744 1438.7 665.085 1435.57 654.903C1432.71 645.555 1425.14 632.256 1405.41 621.982C1404.86 621.696 1404.18 621.911 1403.9 622.459C1403.61 623.007 1403.83 623.684 1404.38 623.971C1423.36 633.853 1430.63 646.54 1433.4 655.443C1436.39 665.093 1434.88 672.525 1434.87 672.599C1434.74 673.204 1435.12 673.798 1435.73 673.927C1435.81 673.944 1435.89 673.952 1435.96 673.952Z" fill="#B63A37"/>
<path d="M1418.96 632.94C1419.12 632.956 1419.28 632.939 1419.43 632.887C1420.02 632.689 1420.33 632.054 1420.14 631.468C1416.5 620.655 1414.18 616.025 1414.08 615.833C1413.8 615.282 1413.13 615.061 1412.57 615.343C1412.02 615.622 1411.8 616.295 1412.08 616.849C1412.1 616.893 1414.44 621.552 1418.01 632.182C1418.16 632.613 1418.54 632.899 1418.96 632.94Z" fill="#B63A37"/>
<path d="M1417.7 628.015C1418.32 628.015 1418.82 627.513 1418.82 626.895C1418.82 604.866 1448.26 554.988 1448.55 554.486C1448.87 553.953 1448.69 553.265 1448.16 552.949C1447.63 552.633 1446.94 552.81 1446.63 553.343C1445.4 555.41 1416.58 604.255 1416.58 626.895C1416.58 627.513 1417.08 628.015 1417.7 628.015Z" fill="#B63A37"/>
<path d="M1438.53 571.405C1438.77 571.405 1439 571.333 1439.2 571.181C1443.01 568.334 1452.65 565.818 1452.75 565.793C1453.35 565.639 1453.71 565.026 1453.55 564.427C1453.4 563.828 1452.78 563.469 1452.19 563.623C1451.77 563.729 1442.02 566.276 1437.86 569.387C1437.37 569.756 1437.27 570.46 1437.63 570.956C1437.85 571.249 1438.19 571.405 1438.53 571.405Z" fill="#B63A37"/>
<path d="M1452.25 728.727C1452.07 730.718 1451.9 732.797 1451.66 734.472C1451.2 737.642 1450.48 739.379 1448.9 736.364C1448.55 735.684 1448.27 734.818 1448.03 733.82C1446.68 728.004 1447.12 717.768 1446.5 715.539C1445.79 713.002 1442.83 705.794 1442.57 705.387C1442.7 705.688 1444.04 710.096 1444.19 712.816C1444.34 715.364 1444.19 718.466 1444.19 724.746C1444.19 727.485 1444.09 730.317 1443.74 732.376V732.382C1443.3 735.045 1442.44 736.401 1440.84 734.554C1440.06 733.645 1439.56 732.049 1439.23 730.159C1438.37 725.254 1438.68 718.327 1438.23 716.06C1437.62 713.021 1435.15 708.111 1434.99 707.804C1435.93 710.931 1435.93 710.623 1436.45 714.731C1436.81 717.599 1437.48 725.235 1436.77 728.658C1436.47 730.134 1435.91 730.83 1434.95 730.022C1433.47 728.759 1432.43 726.912 1431.7 724.797C1430.88 722.424 1430.45 719.71 1430.17 717.11C1429.65 712.186 1427.66 709.153 1427.66 709.153C1428.76 714.486 1429.37 719.641 1429.04 722.302C1428.81 724.187 1428.12 724.82 1426.82 723.388C1424.28 720.602 1421.72 711.382 1420.84 707.917C1420.8 707.81 1420.78 707.702 1420.76 707.603C1420.72 707.494 1420.71 707.401 1420.68 707.314C1420.56 706.85 1420.5 706.585 1420.5 706.585L1420.49 706.578C1419.76 703.691 1419.09 700.802 1418.12 698.215C1416.67 694.372 1414.53 691.188 1410.39 689.655C1401.02 686.171 1403.9 668.339 1417.04 667.266C1420.87 666.955 1424.66 668.223 1427.66 670.616C1429.58 672.141 1432.27 674.269 1435 676.355L1435.01 676.361C1435.27 676.694 1443.82 687.281 1446.5 693.875C1449.21 700.57 1451.52 711.144 1452.04 714.177C1452.57 717.209 1452.77 722.97 1452.25 728.727Z" fill="#FAB893"/>
<path fill-rule="evenodd" clip-rule="evenodd" d="M-59.8322 211.743C-55.084 212.953 -50.4323 214.078 -45.875 215.122V214.267L12.5 224.821L23.5 118.378L12.5 1.79819H-45.875V-41.1454H477.125C472.132 -69.2896 462.562 -89.8575 460.563 -94H-148V183.313C-117.923 194.769 -90.682 203.581 -65.9872 210.141L-66 210.628L-59.8322 211.743Z" fill="url(#paint0_linear)"/>
<defs>
<linearGradient id="paint0_linear" x1="410.861" y1="-71.583" x2="-90.6663" y2="162.315" gradientUnits="userSpaceOnUse">
<stop stop-color="#FFF1F4"/>
<stop offset="1" stop-color="white"/>
</linearGradient>
</defs>
</svg>
