<svg width="1920" height="904" viewBox="0 0 1920 904" fill="none" xmlns="http://www.w3.org/2000/svg">
<mask id="mask0" mask-type="alpha" maskUnits="userSpaceOnUse" x="0" y="0" width="1920" height="904">
<rect width="1920" height="904" fill="#C4C4C4"/>
</mask>
<g mask="url(#mask0)">
<path d="M1841.69 792.818C1839.95 794.001 1839.45 796.405 1840.36 798.549C1837.87 800.668 1834.91 802.922 1831.44 805.103C1829.51 806.313 1827.62 807.383 1825.8 808.323C1825.58 807.994 1825.35 807.665 1825.11 807.34C1823.97 805.755 1822.73 804.28 1821.42 802.907C1821.78 801.648 1822.32 800.205 1823.16 798.699C1824.61 796.083 1826.39 794.234 1827.9 792.983C1829.98 794.231 1832.53 793.993 1833.9 792.301C1835.45 790.395 1834.94 787.368 1832.75 785.545C1830.57 783.719 1827.55 783.778 1825.99 785.685C1824.58 787.423 1824.88 790.091 1826.6 791.933C1825.8 793.741 1824.37 796.106 1821.87 798.014C1820.64 798.957 1819.41 799.582 1818.36 800.004C1816.08 798.049 1813.63 796.37 1811.04 794.984C1811.4 793.172 1811.92 791.155 1812.69 789.014C1813.79 785.909 1815.14 783.291 1816.44 781.166C1818.71 781.746 1821 780.83 1821.85 778.858C1822.84 776.596 1821.54 773.795 1818.97 772.604C1816.41 771.413 1813.52 772.289 1812.54 774.554C1811.69 776.519 1812.55 778.893 1814.48 780.259C1813.8 782.693 1812.8 785.464 1811.31 788.375C1810.29 790.357 1809.21 792.094 1808.16 793.576C1805.6 792.442 1802.95 791.578 1800.25 790.994C1799.28 788.434 1798.44 785.227 1798.28 781.519C1798.14 778.046 1798.62 775.085 1799.22 772.821C1801.58 772.681 1803.49 771.052 1803.67 768.861C1803.88 766.376 1801.78 764.112 1798.99 763.81C1796.2 763.497 1793.77 765.258 1793.57 767.74C1793.39 769.931 1794.99 771.952 1797.29 772.606C1797.51 774.9 1797.52 777.932 1796.78 781.354C1795.98 785.131 1794.55 788.073 1793.31 790.106C1790.14 789.978 1786.96 790.222 1783.83 790.856C1783.47 789.636 1783.21 788.327 1783.11 786.934C1783.03 785.826 1783.06 784.783 1783.15 783.822C1785.49 783.276 1787.11 781.283 1786.87 779.059C1786.62 776.57 1784.16 774.726 1781.37 774.944C1778.58 775.161 1776.53 777.351 1776.79 779.843C1777.01 782.031 1778.95 783.721 1781.3 783.95C1781.59 784.981 1781.84 786.089 1782.03 787.265C1782.25 788.614 1782.38 789.914 1782.42 791.168C1782.11 791.244 1781.8 791.32 1781.5 791.406C1777.91 792.354 1774.43 793.835 1771.15 795.858C1769.61 794.81 1768.03 793.56 1766.47 792.06C1763.28 788.997 1761.18 785.846 1759.81 783.331C1761.39 781.644 1761.69 779.174 1760.41 777.402C1758.93 775.359 1755.91 775.019 1753.67 776.643C1751.42 778.271 1750.79 781.245 1752.27 783.288C1753.57 785.091 1756.07 785.563 1758.19 784.532C1760.24 786.506 1762.8 789.489 1764.84 793.624C1765.73 795.448 1766.39 797.224 1766.87 798.909C1764.01 801.244 1761.56 803.914 1759.54 806.831C1758.72 806.487 1757.91 806.085 1757.05 805.541C1755.36 804.462 1754.08 803.232 1753.12 802.127C1754.2 799.917 1753.67 797.292 1751.79 795.994C1749.73 794.568 1746.8 795.292 1745.26 797.614C1743.73 799.933 1744.15 802.971 1746.23 804.394C1748.01 805.623 1750.43 805.25 1752.05 803.636C1753.4 804.378 1754.85 805.309 1756.32 806.5C1757.11 807.126 1757.82 807.777 1758.49 808.438C1756.75 811.223 1755.38 814.202 1754.39 817.303C1752.68 817.28 1750.84 817.142 1748.89 816.829C1744.41 816.107 1740.74 814.692 1738.06 813.378C1738.28 811.031 1737.02 808.816 1734.94 808.165C1732.56 807.421 1730.01 809.005 1729.24 811.703C1728.48 814.399 1729.79 817.188 1732.17 817.934C1734.28 818.588 1736.51 817.429 1737.53 815.286C1740.27 815.613 1744.13 816.457 1748.27 818.697C1750.16 819.72 1751.79 820.867 1753.2 822.023C1753.09 822.591 1752.98 823.172 1752.9 823.75C1752.48 826.657 1752.36 829.622 1752.57 832.588C1751.66 832.908 1750.69 833.201 1749.66 833.447C1746.31 834.245 1743.32 834.329 1741.01 834.192C1740.29 831.899 1738.25 830.343 1736.09 830.588C1733.64 830.863 1731.97 833.363 1732.35 836.172C1732.74 838.982 1735.03 841.034 1737.49 840.752C1739.64 840.51 1741.2 838.547 1741.28 836.168C1743.49 835.521 1746.42 834.938 1749.87 834.95C1750.9 834.953 1751.89 835.014 1752.83 835.107C1753.44 839.723 1754.84 844.299 1757.07 848.626C1755.62 849.88 1754 851.153 1752.16 852.392C1749.54 854.162 1747.01 855.524 1744.7 856.583C1743.18 854.578 1740.63 853.83 1738.69 854.935C1736.56 856.152 1735.99 859.139 1737.41 861.608C1738.84 864.074 1741.73 865.09 1743.85 863.875C1745.75 862.792 1746.4 860.311 1745.53 858.035C1747.63 856.581 1750.09 855.092 1752.93 853.716C1754.9 852.762 1756.79 851.99 1758.6 851.348C1759.17 852.285 1759.78 853.203 1760.44 854.108C1761.99 856.258 1763.71 858.218 1765.56 859.98C1764.69 862.387 1763.29 865.415 1760.95 868.519C1758.9 871.239 1756.73 873.232 1754.88 874.66C1752.89 873.34 1750.38 873.43 1748.92 875.007C1747.25 876.801 1747.57 879.85 1749.64 881.811C1751.71 883.772 1754.74 883.904 1756.4 882.109C1757.85 880.553 1757.8 878.068 1756.43 876.157C1757.9 874.108 1759.74 871.847 1762.06 869.571C1764.71 866.958 1767.35 864.953 1769.68 863.42C1772.62 865.579 1775.8 867.302 1779.11 868.588C1778.81 869.725 1778.41 870.912 1777.89 872.139C1776.88 874.485 1775.66 876.377 1774.49 877.873C1772.3 876.954 1769.87 877.535 1768.74 879.374C1767.46 881.469 1768.35 884.415 1770.75 885.945C1772.25 886.905 1773.99 887.084 1775.39 886.56C1776.22 886.254 1776.93 885.703 1777.41 884.922C1777.55 884.693 1777.67 884.446 1777.76 884.193C1778.44 882.306 1777.64 879.995 1775.76 878.595C1776.62 876.843 1777.72 874.927 1779.16 872.963C1780.1 871.699 1781.04 870.582 1781.97 869.587C1783.92 870.187 1785.9 870.634 1787.89 870.93C1788.07 870.96 1788.27 870.987 1788.45 871.009C1788.97 873.392 1789.37 876.454 1789.2 879.983C1789.02 883.438 1788.35 886.348 1787.62 888.584C1785.27 888.572 1783.27 890.057 1782.94 892.211C1782.56 894.67 1784.5 897.069 1787.28 897.569C1790.04 898.072 1792.59 896.484 1792.97 894.028C1793.3 891.893 1791.87 889.802 1789.68 888.965C1789.72 886.474 1789.97 883.51 1790.68 880.255C1791.44 876.756 1792.54 873.782 1793.64 871.381C1797.4 871.401 1801.17 870.891 1804.82 869.836C1805.52 871.041 1806.2 872.394 1806.8 873.899C1808.1 877.177 1808.67 880.154 1808.9 882.475C1806.76 883.44 1805.55 885.647 1806.13 887.78C1806.8 890.198 1809.52 891.607 1812.22 890.926C1814.92 890.248 1816.57 887.732 1815.91 885.303C1815.33 883.198 1813.2 881.856 1810.88 881.996C1809.9 879.7 1808.93 876.854 1808.24 873.536C1807.91 871.915 1807.69 870.379 1807.56 868.931C1810.24 867.935 1812.85 866.632 1815.33 864.998C1817.12 866.65 1819 868.584 1820.86 870.838C1823.64 874.189 1825.71 877.438 1827.24 880.246C1825.68 881.929 1825.38 884.395 1826.66 886.163C1828.14 888.206 1831.15 888.545 1833.41 886.915C1835.65 885.291 1836.28 882.32 1834.8 880.277C1833.53 878.516 1831.1 878.021 1829.02 878.963C1826.81 876.554 1824.4 873.564 1822.07 869.968C1820.49 867.541 1819.19 865.193 1818.1 863.003C1820.54 861.087 1822.69 858.928 1824.54 856.583C1825 856.791 1825.46 857.017 1825.92 857.256C1828.98 858.827 1831.35 860.666 1833.07 862.266C1832.15 864.405 1832.68 866.882 1834.48 868.135C1836.53 869.579 1839.46 868.875 1841.02 866.569C1842.57 864.263 1842.17 861.221 1840.11 859.78C1838.29 858.5 1835.77 858.912 1834.14 860.63C1832.17 859.727 1829.49 858.144 1827 855.439C1826.69 855.105 1826.4 854.768 1826.13 854.428C1828.05 851.632 1829.58 848.608 1830.71 845.443C1833.04 845.608 1835.61 845.951 1838.36 846.572C1842.6 847.525 1846.18 848.901 1849.01 850.227C1848.8 852.558 1850.06 854.751 1852.13 855.401C1854.51 856.14 1857.06 854.558 1857.82 851.86C1858.58 849.166 1857.27 846.379 1854.89 845.63C1852.83 844.989 1850.65 846.084 1849.6 848.137C1846.47 847.567 1842.78 846.643 1838.78 845.126C1836.19 844.146 1833.85 843.066 1831.78 841.966C1832.14 840.563 1832.42 839.142 1832.64 837.7C1832.98 835.345 1833.12 832.952 1833.05 830.557C1835.48 829.68 1838.41 828.849 1841.78 828.339C1845.04 827.842 1847.98 827.751 1850.48 827.848C1851.19 830.096 1853.18 831.644 1855.31 831.436C1857.76 831.204 1859.48 828.733 1859.15 825.921C1858.81 823.105 1856.54 821.019 1854.08 821.251C1851.94 821.456 1850.35 823.376 1850.22 825.734C1847.93 826.324 1845.01 826.831 1841.6 826.83C1838.07 826.831 1835.01 826.299 1832.61 825.663C1832.27 823.388 1831.74 821.122 1831.01 818.89C1832 818.229 1833.08 817.579 1834.25 816.98C1837.27 815.436 1840.11 814.589 1842.42 814.116C1843.67 816.158 1846.01 817.162 1848.02 816.389C1850.31 815.507 1851.31 812.649 1850.25 810.003C1849.19 807.36 1846.48 805.931 1844.18 806.817C1842.17 807.589 1841.15 809.897 1841.66 812.246C1839.7 813.425 1837.02 814.724 1833.69 815.566C1832.42 815.881 1831.2 816.1 1830.04 816.239C1829.24 814.261 1828.28 812.323 1827.15 810.444C1828.72 809.094 1830.44 807.72 1832.31 806.361C1835.6 803.963 1838.78 802.035 1841.68 800.488C1843.35 802.121 1845.76 802.532 1847.51 801.356C1849.53 799.977 1849.88 796.947 1848.27 794.594C1846.66 792.238 1843.71 791.442 1841.69 792.818" fill="#FFE1E1"/>
<path d="M2008.75 527.213C2005.23 530.093 2004.61 535.351 2006.98 539.775C2002.03 544.812 1996.08 550.228 1989.04 555.588C1985.12 558.563 1981.25 561.229 1977.53 563.602C1976.99 562.94 1976.43 562.279 1975.86 561.625C1973.1 558.448 1970.16 555.522 1967.09 552.831C1967.63 550.058 1968.53 546.853 1970.05 543.457C1972.66 537.558 1976.15 533.239 1979.15 530.26C1983.87 532.531 1989.29 531.524 1991.92 527.624C1994.9 523.228 1993.23 516.829 1988.19 513.344C1983.15 509.85 1976.66 510.567 1973.69 514.963C1970.98 518.97 1972.13 524.639 1976.17 528.258C1974.79 532.296 1972.17 537.652 1967.15 542.238C1964.68 544.503 1962.16 546.083 1959.97 547.196C1954.71 543.443 1949.12 540.317 1943.31 537.846C1943.75 533.885 1944.48 529.453 1945.72 524.707C1947.52 517.826 1949.9 511.944 1952.3 507.126C1957.29 507.928 1962.04 505.515 1963.5 501.115C1965.19 496.067 1961.88 490.306 1956.14 488.25C1950.4 486.194 1944.37 488.638 1942.69 493.691C1941.23 498.076 1943.52 503.007 1947.92 505.563C1946.92 510.92 1945.3 517.064 1942.64 523.605C1940.83 528.059 1938.83 531.999 1936.85 535.386C1931.15 533.45 1925.29 532.112 1919.38 531.387C1916.8 526.079 1914.39 519.36 1913.35 511.429C1912.4 504.001 1912.88 497.55 1913.73 492.573C1918.77 491.812 1922.59 487.94 1922.56 483.202C1922.53 477.826 1917.61 473.375 1911.55 473.271C1905.49 473.144 1900.6 477.4 1900.64 482.768C1900.67 487.506 1904.48 491.533 1909.56 492.486C1910.45 497.37 1911.04 503.877 1910.11 511.368C1909.09 519.633 1906.58 526.227 1904.3 530.833C1897.46 531.178 1890.67 532.323 1884.07 534.295C1883.06 531.747 1882.26 528.988 1881.78 526.017C1881.41 523.652 1881.27 521.409 1881.29 519.327C1886.2 517.699 1889.31 513.104 1888.39 508.375C1887.38 503.081 1881.73 499.603 1875.79 500.614C1869.84 501.624 1865.85 506.727 1866.86 512.028C1867.76 516.68 1872.24 519.931 1877.34 519.963C1878.16 522.12 1878.9 524.449 1879.52 526.938C1880.25 529.79 1880.77 532.557 1881.1 535.242C1880.44 535.465 1879.8 535.687 1879.16 535.931C1871.64 538.667 1864.43 542.525 1857.76 547.51C1854.26 545.561 1850.62 543.186 1846.99 540.271C1839.57 534.316 1834.47 527.961 1831.05 522.827C1834.11 518.899 1834.3 513.538 1831.21 509.983C1827.65 505.887 1821.11 505.745 1816.59 509.671C1812.06 513.604 1811.27 520.113 1814.83 524.21C1817.97 527.825 1823.44 528.351 1827.79 525.725C1832.56 529.563 1838.63 535.465 1843.79 543.945C1846.04 547.687 1847.79 551.371 1849.15 554.894C1843.43 560.467 1838.68 566.676 1834.89 573.334C1833.06 572.755 1831.24 572.051 1829.3 571.051C1825.46 569.064 1822.47 566.673 1820.21 564.489C1822.1 559.534 1820.48 554.001 1816.2 551.58C1811.49 548.922 1805.35 551.048 1802.47 556.334C1799.61 561.612 1801.1 568.05 1805.82 570.702C1809.89 572.991 1815.02 571.719 1818.19 567.936C1821.23 569.266 1824.53 570.982 1827.91 573.251C1829.72 574.442 1831.37 575.701 1832.92 576.99C1829.71 583.308 1827.34 589.969 1825.8 596.822C1822.1 597.106 1818.12 597.17 1813.88 596.878C1804.12 596.203 1795.98 593.88 1789.97 591.584C1790 586.501 1786.87 581.991 1782.28 581C1777.02 579.868 1771.84 583.768 1770.7 589.709C1769.58 595.644 1772.92 601.376 1778.17 602.515C1782.83 603.505 1787.4 600.581 1789.19 595.782C1795.14 595.95 1803.6 597.007 1812.9 601.01C1817.17 602.836 1820.88 604.98 1824.11 607.187C1823.99 608.427 1823.88 609.696 1823.8 610.954C1823.44 617.276 1823.75 623.665 1824.76 629.992C1822.87 630.856 1820.84 631.674 1818.67 632.403C1811.61 634.771 1805.21 635.535 1800.22 635.691C1798.25 630.909 1793.56 627.968 1788.97 628.915C1783.76 629.983 1780.64 635.679 1782 641.632C1783.34 647.591 1788.67 651.547 1793.89 650.463C1798.48 649.522 1801.44 645.006 1801.17 639.882C1805.81 638.061 1811.97 636.238 1819.4 635.589C1821.62 635.395 1823.75 635.333 1825.79 635.348C1827.97 645.141 1831.84 654.691 1837.44 663.546C1834.56 666.522 1831.31 669.571 1827.61 672.589C1822.32 676.9 1817.13 680.318 1812.37 683.042C1808.73 679.034 1803.09 677.928 1799.14 680.679C1794.78 683.708 1794.12 690.231 1797.65 695.254C1801.19 700.269 1807.57 701.886 1811.92 698.864C1815.79 696.168 1816.72 690.714 1814.41 685.998C1818.65 682.468 1823.65 678.79 1829.5 675.283C1833.55 672.848 1837.48 670.822 1841.24 669.09C1842.64 670.992 1844.13 672.842 1845.71 674.657C1849.45 678.969 1853.51 682.843 1857.82 686.264C1856.4 691.6 1853.96 698.376 1849.52 705.496C1845.63 711.736 1841.34 716.439 1837.64 719.865C1833.11 717.42 1827.74 718.103 1824.89 721.773C1821.65 725.951 1822.91 732.435 1827.72 736.241C1832.53 740.048 1839.07 739.738 1842.31 735.559C1845.12 731.937 1844.55 726.612 1841.24 722.777C1844.01 718.092 1847.55 712.876 1852.09 707.539C1857.31 701.409 1862.59 696.592 1867.32 692.845C1874.03 696.908 1881.19 699.985 1888.55 702.1C1888.11 704.598 1887.49 707.224 1886.59 709.962C1884.87 715.195 1882.6 719.494 1880.36 722.937C1875.5 721.388 1870.39 723.109 1868.31 727.278C1865.95 732.028 1868.42 738.177 1873.85 740.996C1877.26 742.763 1881.03 742.808 1883.94 741.408C1885.67 740.591 1887.1 739.267 1887.98 737.498C1888.23 736.979 1888.44 736.426 1888.58 735.865C1889.69 731.682 1887.53 726.876 1883.24 724.236C1884.76 720.306 1886.77 715.979 1889.49 711.481C1891.25 708.585 1893.08 706.002 1894.89 703.684C1899.18 704.594 1903.52 705.167 1907.85 705.414C1908.26 705.442 1908.68 705.462 1909.07 705.474C1910.64 710.489 1912.08 716.983 1912.36 724.593C1912.64 732.045 1911.74 738.424 1910.6 743.366C1905.55 743.8 1901.53 747.378 1901.22 752.067C1900.88 757.42 1905.5 762.191 1911.55 762.724C1917.58 763.265 1922.77 759.356 1923.11 754.011C1923.42 749.363 1919.97 745.151 1915.09 743.783C1914.7 738.427 1914.69 732.014 1915.6 724.888C1916.59 717.226 1918.38 710.627 1920.29 705.259C1928.37 704.568 1936.38 702.738 1944.02 699.76C1945.75 702.211 1947.47 704.981 1949.04 708.097C1952.46 714.878 1954.23 721.159 1955.17 726.097C1950.75 728.586 1948.57 733.562 1950.22 738.027C1952.1 743.089 1958.22 745.581 1963.89 743.592C1969.56 741.61 1972.63 735.887 1970.76 730.802C1969.13 726.394 1964.29 723.929 1959.33 724.684C1956.8 719.945 1954.17 714.024 1952.07 707.035C1951.06 703.619 1950.3 700.363 1949.74 697.282C1955.32 694.618 1960.67 691.313 1965.69 687.321C1969.84 690.518 1974.25 694.304 1978.68 698.778C1985.28 705.43 1990.33 712.003 1994.15 717.732C1991.11 721.649 1990.94 727.002 1994.02 730.549C1997.58 734.646 2004.12 734.786 2008.66 730.845C2013.18 726.919 2013.96 720.419 2010.4 716.323C2007.33 712.79 2002.03 712.2 1997.74 714.63C1992.54 709.888 1986.8 703.94 1981.1 696.677C1977.26 691.774 1974.02 686.987 1971.27 682.497C1976.16 677.906 1980.37 672.852 1983.9 667.456C1984.92 667.815 1985.95 668.209 1986.99 668.632C1993.87 671.408 1999.3 674.894 2003.29 677.994C2001.71 682.765 2003.33 687.978 2007.42 690.317C2012.11 693.018 2018.27 690.934 2021.19 685.678C2024.09 680.425 2022.65 673.973 2017.96 671.281C2013.8 668.889 2008.48 670.264 2005.29 674.271C2000.88 672.717 1994.83 669.842 1988.98 664.519C1988.25 663.863 1987.56 663.198 1986.9 662.521C1990.51 656.143 1993.23 649.352 1995.07 642.336C2000.09 642.236 2005.68 642.471 2011.72 643.266C2021.01 644.484 2028.96 646.739 2035.27 649.034C2035.27 654.079 2038.39 658.542 2042.95 659.534C2048.22 660.655 2053.39 656.761 2054.52 650.82C2055.65 644.888 2052.31 639.159 2047.06 638.016C2042.51 637.043 2038.02 639.821 2036.16 644.432C2029.32 643.82 2021.22 642.556 2012.33 640.082C2006.58 638.482 2001.36 636.619 1996.7 634.663C1997.21 631.581 1997.56 628.475 1997.75 625.337C1998.04 620.213 1997.9 615.049 1997.29 609.921C2002.34 607.565 2008.47 605.208 2015.63 603.454C2022.53 601.751 2028.85 600.981 2034.23 600.702C2036.17 605.391 2040.73 608.325 2045.27 607.463C2050.51 606.485 2053.73 600.845 2052.49 594.872C2051.23 588.893 2045.97 584.858 2040.73 585.836C2036.16 586.694 2033.1 591.126 2033.26 596.216C2028.47 597.928 2022.29 599.587 2014.96 600.25C2007.36 600.942 2000.69 600.397 1995.43 599.5C1994.27 594.681 1992.7 589.921 1990.71 585.272C1992.71 583.659 1994.92 582.051 1997.32 580.538C2003.52 576.632 2009.45 574.26 2014.33 572.794C2017.4 576.935 2022.62 578.632 2026.78 576.582C2031.54 574.24 2033.15 567.909 2030.39 562.434C2027.61 556.967 2021.51 554.43 2016.74 556.779C2012.57 558.83 2010.81 563.984 2012.33 568.928C2008.35 571.843 2002.84 575.153 1995.83 577.613C1993.18 578.536 1990.59 579.244 1988.13 579.768C1986.03 575.679 1983.61 571.706 1980.83 567.892C1983.95 564.687 1987.38 561.402 1991.14 558.12C1997.77 552.327 2004.24 547.567 2010.17 543.681C2014.06 546.862 2019.33 547.273 2022.85 544.408C2026.95 541.05 2027.12 534.478 2023.22 529.741C2019.32 524.997 2012.84 523.864 2008.75 527.213" fill="#FFE1E1"/>
<g opacity="0.62">
<path d="M414.319 720.925C376.696 737.086 338.219 745.929 296.225 740.756C249.418 734.986 206.734 698.038 181.5 660.06C172.124 645.954 164.353 630.015 164.127 613.082C163.62 573.965 200.165 567.204 231.839 571.469C249.694 573.865 266.402 580.88 282.922 587.83C310.349 599.378 341.931 603.876 366.944 620.731C375.339 626.405 381.825 633.456 391.404 637.358C406.305 643.431 423.007 645.668 438.258 651.086C451.281 655.739 466.027 663.828 466.946 677.621C467.871 691.767 453.701 701.746 441.1 708.224C432.183 712.836 423.283 717.091 414.319 720.925Z" fill="url(#paint0_linear)"/>
<path d="M239.723 227.325C296.746 130.226 424.773 84.3767 532.805 112.432C584.899 125.969 629.928 158.299 671.724 192.184C708.566 222.048 744.536 254.505 770.96 294.264C789.002 321.402 802.804 354.444 813.052 385.464C828.378 431.91 821.234 493.512 759.87 493.038C745.472 492.929 732.739 488.585 719.043 484.952C707.964 482.005 697.484 484.89 686.113 483.84C657.49 481.203 629.519 472.555 602.914 462.023C548.694 440.536 498.428 409.817 442.915 391.511C397.423 376.532 349.485 370.395 301.686 373.429C281.521 374.713 260.413 377.508 241.789 369.669C195.883 350.33 211.958 289.051 226.358 254.23C230.17 244.956 234.636 235.965 239.723 227.325V227.325Z" fill="url(#paint1_linear)"/>
<path d="M735.327 209.067C746.328 217.797 788.815 240.815 787.633 210.625C787.328 203.105 783.447 196.037 778.453 190.841C772.739 184.876 766.511 181.958 761.891 174.875C756.245 166.328 749.933 158.36 743.036 151.075C728.921 135.897 712.694 122.082 693.749 116.691C680.461 112.915 658.55 115.513 653.468 132.559C646.063 157.374 684.779 159.305 697.074 167.369C708.741 175 715.977 188.95 725.533 199.787C728.551 203.204 731.83 206.311 735.327 209.067V209.067Z" fill="url(#paint2_linear)"/>
<path d="M541.326 192.136C564.172 203.654 581.942 221.966 603.021 236.271C638.114 260.085 684.237 262.415 723.715 277.992C763.97 293.887 795.329 320.626 811.358 361.068C832.063 413.268 837.839 476.576 826.785 532.353C814.608 593.749 779.38 636.304 725.791 666.648C672.234 696.974 611.785 713.44 550.853 720.001C544.973 720.639 539.095 721.16 533.188 721.583C400.502 731.019 220.77 695.83 166.271 556.187C165.772 554.911 165.29 553.634 164.805 552.339C159.112 536.757 155.304 520.549 153.464 504.061C146.794 445.62 152.831 380.24 169.798 323.938C181.207 286.035 208.933 252.806 238.847 228.466C280.875 194.272 334.128 182.769 387.404 175.518C426.855 170.15 471.363 166.224 509.831 178.937C520.644 182.544 531.172 186.956 541.326 192.136Z" fill="url(#paint3_linear)"/>
</g>
<path d="M467.175 405.624C468.776 409.434 473.162 411.225 476.972 409.624L492.662 403.032C500.649 399.676 509.309 398.192 517.952 398.793C520.529 398.973 523.197 398.485 525.706 397.228C532.353 393.898 535.561 386.005 533.123 378.981C530.262 370.735 521.098 366.735 513.177 370.063C511.032 370.964 509.206 372.307 507.763 373.942C501.971 380.503 494.931 385.846 486.862 389.236L471.175 395.827C467.365 397.427 465.574 401.814 467.175 405.624Z" fill="#FB4C47"/>
<path d="M392.515 489.692C389.352 488.4 385.741 489.918 384.449 493.081L379.13 506.108C376.423 512.739 372.228 518.669 366.824 523.37C365.212 524.772 363.938 526.617 363.206 528.818C361.267 534.651 364.005 541.141 369.537 543.822C376.031 546.97 383.726 543.951 386.411 537.375C387.139 535.594 387.42 533.742 387.309 531.943C386.859 524.721 387.852 517.482 390.587 510.783L395.905 497.759C397.196 494.595 395.678 490.983 392.515 489.692V489.692Z" fill="#C63F3B"/>
<path d="M440.488 372.205C443.798 373.556 447.577 371.969 448.929 368.658L454.494 355.027C457.328 348.088 461.717 341.882 467.372 336.963C469.058 335.496 470.392 333.566 471.158 331.262C473.187 325.158 470.321 318.367 464.533 315.561C457.738 312.267 449.684 315.427 446.875 322.308C446.114 324.172 445.819 326.11 445.936 327.993C446.406 335.55 445.368 343.125 442.506 350.135L436.941 363.764C435.59 367.074 437.178 370.853 440.488 372.205V372.205Z" fill="#C63F3B"/>
<path d="M438.948 474.774C435.138 476.374 433.346 480.761 434.947 484.571L441.539 500.261C444.895 508.248 446.38 516.908 445.778 525.551C445.599 528.127 446.087 530.796 447.343 533.304C450.674 539.952 458.566 543.16 465.59 540.722C473.837 537.86 477.836 528.697 474.509 520.776C473.607 518.63 472.264 516.805 470.629 515.362C464.068 509.57 458.726 502.53 455.336 494.461L448.745 478.774C447.144 474.964 442.758 473.173 438.948 474.774V474.774Z" fill="#FB4C47"/>
<path d="M470.627 515.363C464.066 509.57 458.723 502.531 455.333 494.462L448.742 478.774C447.141 474.964 442.755 473.173 438.944 474.774C435.134 476.375 433.343 480.761 434.944 484.571L441.535 500.259C444.926 508.328 450.268 515.367 456.829 521.16C458.464 522.603 459.807 524.428 460.708 526.574C462.852 531.677 461.951 537.293 458.837 541.41C461.059 541.698 463.367 541.494 465.588 540.723C473.834 537.861 477.834 528.697 474.506 520.777C473.605 518.631 472.262 516.806 470.627 515.363V515.363Z" fill="#C63F3B"/>
<path d="M355.029 419.224C367.476 413.994 373.326 399.665 368.097 387.219C362.867 374.772 348.538 368.922 336.092 374.151C323.645 379.381 317.795 393.71 323.024 406.156C328.254 418.603 342.583 424.453 355.029 419.224Z" fill="#FF8F8C"/>
<path d="M336.097 374.15C333.69 375.162 331.533 376.516 329.652 378.129C339.947 377.232 350.086 382.976 354.304 393.015C358.522 403.055 355.528 414.316 347.682 421.042C350.15 420.827 352.627 420.234 355.034 419.223C367.481 413.994 373.331 399.665 368.102 387.218C362.872 374.771 348.543 368.921 336.097 374.15V374.15Z" fill="#FB4C47"/>
<path d="M449.405 499.669C490.046 482.593 509.149 435.805 492.074 395.165C474.999 354.524 428.211 335.421 387.57 352.496C346.929 369.571 327.826 416.359 344.901 457C361.977 497.641 408.765 516.744 449.405 499.669Z" fill="#FB4C47"/>
<path d="M387.57 352.495C385.244 353.473 382.991 354.552 380.808 355.718C419.675 343.481 462.18 362.647 478.277 400.961C494.375 439.274 478.315 483.047 442.371 502.242C444.731 501.499 447.079 500.645 449.406 499.668C490.047 482.592 509.15 435.805 492.075 395.164C475 354.523 428.211 335.42 387.57 352.495V352.495Z" fill="#C63F3B"/>
<path d="M441.796 404.281C450.051 400.813 453.932 391.309 450.463 383.054C446.995 374.798 437.491 370.918 429.236 374.387C420.98 377.855 417.1 387.359 420.569 395.614C424.037 403.869 433.541 407.75 441.796 404.281Z" fill="#C63F3B"/>
<path d="M429.234 374.387C426.745 375.433 424.657 377.03 423.045 378.974C428.874 379.458 434.242 383.085 436.664 388.851C439.087 394.617 437.921 400.989 434.186 405.492C436.703 405.701 439.305 405.327 441.795 404.281C450.05 400.813 453.93 391.309 450.462 383.054C446.993 374.799 437.49 370.918 429.234 374.387V374.387Z" fill="white"/>
<path d="M408.514 475.999C414.103 473.651 416.729 467.217 414.381 461.629C412.033 456.041 405.6 453.414 400.012 455.762C394.423 458.11 391.797 464.543 394.145 470.132C396.493 475.72 402.926 478.347 408.514 475.999Z" fill="white"/>
<path d="M497.278 473.422C504.898 470.22 508.48 461.447 505.278 453.827C502.076 446.207 493.304 442.625 485.683 445.826C478.063 449.028 474.481 457.801 477.683 465.421C480.885 473.041 489.657 476.623 497.278 473.422Z" fill="#FB4C47"/>
<path d="M485.683 445.827C483.169 446.883 481.097 448.549 479.561 450.576C484.686 451.23 489.334 454.518 491.48 459.625C493.625 464.731 492.721 470.353 489.601 474.471C492.124 474.793 494.763 474.479 497.277 473.423C504.898 470.221 508.479 461.448 505.278 453.828C502.076 446.208 493.303 442.625 485.683 445.827V445.827Z" fill="#C63F3B"/>
<path d="M369.791 446.54C371.392 450.35 369.602 454.737 365.791 456.338L350.102 462.93C342.114 466.286 334.993 471.432 329.373 478.026C327.698 479.992 325.482 481.556 322.828 482.468C315.797 484.885 307.915 481.652 304.604 474.995C300.717 467.179 304.275 457.835 312.195 454.507C314.341 453.605 316.578 453.242 318.755 453.355C327.495 453.81 336.238 452.522 344.307 449.131L359.995 442.54C363.804 440.939 368.191 442.73 369.791 446.54Z" fill="#C63F3B"/>
<path d="M398.035 377.389C401.845 375.788 403.637 371.402 402.036 367.592L395.443 351.902C392.088 343.915 390.603 335.255 391.205 326.612C391.384 324.035 390.896 321.367 389.639 318.858C386.309 312.211 378.417 309.003 371.392 311.441C363.146 314.302 359.146 323.466 362.474 331.387C363.376 333.533 364.719 335.358 366.354 336.801C372.915 342.593 378.257 349.633 381.647 357.702L388.239 373.389C389.839 377.199 394.225 378.99 398.035 377.389Z" fill="#FB4C47"/>
<path d="M389.64 318.858C386.31 312.211 378.418 309.003 371.393 311.441C368.459 312.458 366.067 314.277 364.347 316.551C369.154 317.174 373.565 320.11 375.843 324.655C377.099 327.164 377.588 329.832 377.408 332.409C376.806 341.052 378.291 349.712 381.647 357.699L388.239 373.389C389.839 377.199 394.226 378.99 398.036 377.389C401.847 375.788 403.637 371.402 402.036 367.592L395.444 351.902C392.088 343.915 390.604 335.255 391.206 326.612C391.385 324.035 390.898 321.367 389.64 318.858V318.858Z" fill="#C63F3B"/>
<path d="M514.738 370.452C512.578 371.313 510.729 372.622 509.257 374.229C508.997 374.513 508.731 374.792 508.465 375.071C513.903 375.841 518.756 379.585 520.612 385.269C522.2 390.131 521.107 395.354 518.087 399.184C518.385 399.205 518.684 399.223 518.982 399.249C521.554 399.476 524.229 399.037 526.759 397.827C533.463 394.621 536.813 386.793 534.506 379.73C531.798 371.436 522.714 367.272 514.738 370.452V370.452Z" fill="#C63F3B"/>
<g opacity="0.63">
<path d="M573.882 545.025C575.098 546.741 577.475 547.147 579.192 545.931L586.261 540.925C589.86 538.376 594 536.683 598.361 536.028C599.661 535.833 600.933 535.296 602.041 534.395C604.977 532.006 605.7 527.73 603.714 524.509C601.382 520.727 596.387 519.75 592.818 522.278C591.852 522.963 591.093 523.831 590.556 524.803C588.402 528.702 585.493 532.134 581.857 534.709L574.789 539.715C573.072 540.93 572.666 543.308 573.882 545.025Z" fill="#FFC700"/>
<path d="M540.189 585.854C538.475 585.561 536.848 586.714 536.555 588.428L535.349 595.488C534.735 599.082 533.305 602.492 531.138 605.424C530.492 606.298 530.062 607.355 529.942 608.53C529.622 611.643 531.698 614.565 534.743 615.287C538.317 616.135 541.808 613.786 542.417 610.222C542.582 609.257 542.517 608.305 542.263 607.424C541.243 603.884 540.938 600.178 541.558 596.547L542.764 589.489C543.056 587.774 541.903 586.147 540.189 585.854V585.854Z" fill="#D09700"/>
<path d="M551.068 522.179C552.862 522.485 554.565 521.28 554.871 519.486L556.133 512.098C556.775 508.337 558.272 504.769 560.539 501.701C561.215 500.786 561.665 499.68 561.791 498.45C562.126 495.193 559.953 492.135 556.767 491.379C553.027 490.492 549.374 492.951 548.737 496.68C548.564 497.69 548.632 498.686 548.897 499.608C549.965 503.312 550.284 507.19 549.636 510.99L548.374 518.376C548.068 520.17 549.274 521.873 551.068 522.179V522.179Z" fill="#D09700"/>
<path d="M561.613 573.32C559.897 574.536 559.49 576.913 560.706 578.63L565.713 585.7C568.262 589.298 569.955 593.438 570.61 597.799C570.805 599.1 571.342 600.372 572.243 601.48C574.632 604.416 578.907 605.139 582.129 603.152C585.911 600.821 586.888 595.826 584.36 592.257C583.675 591.29 582.807 590.531 581.835 589.994C577.936 587.84 574.504 584.931 571.929 581.295L566.923 574.227C565.707 572.511 563.33 572.105 561.613 573.32V573.32Z" fill="#FFC700"/>
<path d="M581.835 589.993C577.935 587.838 574.504 584.929 571.929 581.294L566.923 574.225C565.707 572.509 563.329 572.103 561.613 573.318C559.896 574.534 559.49 576.912 560.706 578.628L565.712 585.697C568.287 589.332 571.718 592.241 575.618 594.396C576.589 594.932 577.458 595.691 578.143 596.658C579.771 598.957 579.943 601.848 578.85 604.237C579.986 604.135 581.11 603.779 582.129 603.151C585.911 600.819 586.887 595.824 584.36 592.255C583.675 591.288 582.806 590.529 581.835 589.993V589.993Z" fill="#D09700"/>
<path d="M513.789 554.973C519.397 551.002 520.723 543.236 516.751 537.628C512.779 532.02 505.014 530.694 499.406 534.665C493.798 538.637 492.471 546.403 496.443 552.011C500.415 557.619 508.181 558.945 513.789 554.973Z" fill="#D09700"/>
<path d="M499.406 534.665C498.322 535.433 497.4 536.344 496.642 537.353C501.659 535.772 507.331 537.507 510.535 542.031C513.739 546.554 513.493 552.48 510.336 556.688C511.539 556.309 512.705 555.741 513.789 554.973C519.397 551.001 520.724 543.236 516.752 537.628C512.78 532.02 505.014 530.694 499.406 534.665V534.665Z" fill="#FFC700"/>
<path d="M569.556 584.537C587.867 571.569 592.198 546.211 579.229 527.899C566.26 509.588 540.902 505.257 522.591 518.226C504.28 531.195 499.949 556.553 512.918 574.864C525.887 593.176 551.244 597.506 569.556 584.537Z" fill="#FFC700"/>
<path d="M522.597 518.225C521.549 518.968 520.549 519.753 519.593 520.573C537.556 510.204 560.793 515.039 573.019 532.302C585.245 549.565 582.094 573.088 566.351 586.592C567.441 585.962 568.514 585.279 569.562 584.537C587.874 571.568 592.205 546.21 579.236 527.899C566.267 509.587 540.909 505.256 522.597 518.225V518.225Z" fill="#D09700"/>
<path d="M550.679 540.759C552.033 539.8 552.353 537.925 551.394 536.571C550.435 535.216 548.56 534.896 547.206 535.855C545.851 536.814 545.531 538.69 546.49 540.044C547.449 541.398 549.325 541.718 550.679 540.759Z" fill="white"/>
<path d="M546.622 577.287C549.14 575.503 549.736 572.016 547.953 569.498C546.169 566.98 542.682 566.384 540.164 568.168C537.646 569.951 537.05 573.438 538.834 575.957C540.617 578.475 544.104 579.07 546.622 577.287Z" fill="white"/>
<path d="M528.987 553.846C532.842 551.116 533.754 545.777 531.023 541.922C528.293 538.067 522.954 537.155 519.099 539.885C515.243 542.616 514.332 547.955 517.062 551.81C519.793 555.665 525.131 556.577 528.987 553.846Z" fill="white"/>
<path d="M590.446 566.213C593.88 563.781 594.692 559.026 592.26 555.593C589.828 552.159 585.073 551.347 581.64 553.779C578.206 556.211 577.394 560.966 579.826 564.399C582.258 567.833 587.013 568.645 590.446 566.213Z" fill="#FFC700"/>
<path d="M581.641 553.779C580.509 554.582 579.663 555.638 579.123 556.815C581.742 556.574 584.415 557.696 586.045 559.996C587.674 562.297 587.845 565.19 586.749 567.581C588.038 567.463 589.315 567.016 590.448 566.214C593.882 563.782 594.693 559.027 592.262 555.593C589.83 552.16 585.075 551.347 581.641 553.779V553.779Z" fill="#D09700"/>
<path d="M524.137 566.919C525.353 568.636 524.947 571.013 523.23 572.229L516.161 577.236C512.562 579.785 509.591 583.128 507.526 587.025C506.911 588.187 505.982 589.208 504.764 589.954C501.536 591.931 497.263 591.194 494.883 588.251C492.09 584.796 492.826 579.76 496.395 577.233C497.362 576.548 498.433 576.121 499.528 575.937C503.921 575.199 508.124 573.594 511.759 571.019L518.828 566.013C520.544 564.797 522.921 565.203 524.137 566.919Z" fill="#D09700"/>
<path d="M530.539 529.443C532.255 528.227 532.662 525.85 531.446 524.133L526.439 517.064C523.89 513.465 522.197 509.325 521.542 504.964C521.347 503.664 520.81 502.392 519.909 501.284C517.521 498.348 513.245 497.625 510.023 499.611C506.241 501.943 505.265 506.938 507.792 510.507C508.477 511.474 509.346 512.232 510.317 512.769C514.217 514.924 517.648 517.832 520.223 521.468L525.229 528.536C526.445 530.253 528.822 530.659 530.539 529.443Z" fill="#FFC700"/>
<path d="M519.907 501.284C517.518 498.348 513.243 497.625 510.021 499.611C508.675 500.441 507.687 501.608 507.083 502.928C509.541 502.708 512.057 503.68 513.69 505.687C514.591 506.795 515.128 508.067 515.323 509.368C515.978 513.729 517.671 517.869 520.22 521.467L525.227 528.537C526.442 530.253 528.82 530.66 530.537 529.444C532.253 528.228 532.659 525.85 531.444 524.134L526.437 517.064C523.888 513.465 522.195 509.326 521.54 504.965C521.345 503.664 520.808 502.392 519.907 501.284V501.284Z" fill="#D09700"/>
</g>
<path d="M625.172 461.392C622.815 460.841 620.458 462.305 619.907 464.663L617.64 474.369C616.486 479.311 614.213 483.928 610.957 487.819C609.986 488.98 609.3 490.413 609.033 492.034C608.328 496.332 610.968 500.566 615.137 501.825C620.031 503.302 625.078 500.331 626.223 495.431C626.533 494.104 626.523 492.777 626.244 491.53C625.124 486.528 625.01 481.353 626.176 476.361L628.443 466.657C628.994 464.3 627.529 461.942 625.172 461.392Z" fill="#1DB776"/>
<path d="M610.973 397.088C612.672 396.032 613.194 393.798 612.138 392.098L607.789 385.097C605.575 381.534 604.205 377.506 603.833 373.327C603.722 372.081 603.286 370.843 602.493 369.739C600.393 366.814 596.375 365.882 593.201 367.583C589.476 369.581 588.262 374.268 590.458 377.802C591.053 378.759 591.834 379.529 592.726 380.095C596.305 382.364 599.397 385.323 601.633 388.923L605.982 395.922C607.039 397.622 609.273 398.144 610.973 397.088V397.088Z" fill="#128E5A"/>
<path d="M650.196 460.223C648.417 461.329 647.871 463.666 648.976 465.445L653.527 472.771C655.844 476.5 657.277 480.715 657.666 485.087C657.782 486.391 658.239 487.687 659.069 488.842C661.266 491.903 665.471 492.878 668.792 491.098C672.69 489.008 673.96 484.103 671.663 480.405C671.04 479.403 670.222 478.597 669.289 478.005C665.544 475.63 662.309 472.534 659.968 468.767L655.418 461.443C654.312 459.664 651.974 459.118 650.196 460.223V460.223Z" fill="#128E5A"/>
<path d="M602.083 424.233C602.633 421.876 601.169 419.518 598.812 418.968L589.105 416.701C584.164 415.546 579.547 413.273 575.655 410.017C574.495 409.046 573.062 408.36 571.44 408.094C567.143 407.388 562.909 410.028 561.65 414.197C560.172 419.092 563.143 424.138 568.043 425.283C569.371 425.593 570.698 425.584 571.944 425.304C576.946 424.184 582.121 424.071 587.113 425.237L596.818 427.504C599.175 428.054 601.532 426.59 602.083 424.233V424.233Z" fill="#1DB776"/>
<path d="M571.946 425.305C576.948 424.184 582.123 424.071 587.115 425.237L596.82 427.504C599.177 428.054 601.534 426.59 602.085 424.233C602.635 421.876 601.171 419.519 598.814 418.968L589.109 416.701C584.117 415.535 578.942 415.648 573.94 416.769C572.693 417.048 571.366 417.057 570.039 416.747C566.882 416.01 564.528 413.652 563.646 410.76C562.746 411.715 562.05 412.879 561.652 414.198C560.174 419.092 563.145 424.139 568.045 425.283C569.372 425.593 570.699 425.584 571.946 425.305V425.305Z" fill="#128E5A"/>
<path d="M657.274 403.534C655.475 411.234 660.259 418.935 667.959 420.733C675.659 422.532 683.359 417.748 685.158 410.048C686.957 402.348 682.173 394.647 674.473 392.849C666.772 391.05 659.072 395.834 657.274 403.534Z" fill="#128E5A"/>
<path d="M685.16 410.049C685.508 408.56 685.607 407.072 685.489 405.625C682.375 410.816 676.166 413.649 669.955 412.199C663.744 410.748 659.433 405.457 658.941 399.424C658.194 400.668 657.624 402.047 657.276 403.536C655.477 411.236 660.261 418.936 667.961 420.735C675.661 422.534 683.362 417.749 685.16 410.049V410.049Z" fill="#1DB776"/>
<path d="M586.681 420.637C580.808 445.779 596.429 470.922 621.572 476.795C646.714 482.668 671.857 467.047 677.73 441.904C683.603 416.762 667.982 391.619 642.839 385.746C617.697 379.873 592.554 395.494 586.681 420.637Z" fill="#1DB776"/>
<path d="M677.739 441.903C678.075 440.464 678.337 439.025 678.535 437.589C670.977 460.227 647.277 473.795 623.574 468.258C599.871 462.722 584.634 440.058 587.887 416.415C587.428 417.79 587.026 419.196 586.69 420.636C580.817 445.779 596.438 470.921 621.58 476.794C646.723 482.667 671.866 467.046 677.739 441.903V441.903Z" fill="#128E5A"/>
<path d="M634.529 449.818C633.336 454.925 636.509 460.032 641.616 461.225C646.723 462.418 651.83 459.245 653.023 454.138C654.216 449.031 651.043 443.924 645.936 442.731C640.829 441.538 635.722 444.711 634.529 449.818Z" fill="#128E5A"/>
<path d="M653.033 454.137C653.393 452.597 653.353 451.057 652.985 449.625C650.752 452.223 647.187 453.521 643.62 452.688C640.053 451.855 637.431 449.111 636.58 445.793C635.616 446.914 634.898 448.277 634.538 449.817C633.346 454.924 636.519 460.031 641.626 461.224C646.733 462.417 651.84 459.244 653.033 454.137V454.137Z" fill="white"/>
<path d="M611.964 409.38C611.157 412.837 613.305 416.295 616.762 417.102C620.219 417.91 623.677 415.762 624.484 412.305C625.292 408.847 623.144 405.39 619.686 404.582C616.229 403.775 612.772 405.923 611.964 409.38Z" fill="white"/>
<path d="M582.671 452.36C581.57 457.075 584.499 461.79 589.214 462.891C593.929 463.993 598.644 461.063 599.745 456.348C600.846 451.633 597.917 446.918 593.202 445.817C588.487 444.716 583.772 447.645 582.671 452.36Z" fill="#1DB776"/>
<path d="M599.749 456.347C600.112 454.792 600.034 453.237 599.601 451.811C597.529 454.017 594.371 455.091 591.212 454.353C588.052 453.615 585.697 451.253 584.817 448.357C583.796 449.444 583.038 450.803 582.674 452.359C581.573 457.074 584.503 461.789 589.217 462.89C593.932 463.991 598.648 461.062 599.749 456.347V456.347Z" fill="#128E5A"/>
<path d="M639.244 401.147C636.887 400.596 635.422 398.239 635.973 395.882L638.24 386.175C639.394 381.234 639.402 376.088 638.207 371.156C637.85 369.686 637.87 368.097 638.35 366.525C639.621 362.36 643.863 359.734 648.158 360.452C653.201 361.296 656.41 366.195 655.265 371.095C654.955 372.422 654.358 373.608 653.556 374.601C650.336 378.59 647.941 383.179 646.775 388.171L644.508 397.876C643.958 400.233 641.601 401.697 639.244 401.147Z" fill="#128E5A"/>
<path d="M662.332 438.307C661.781 440.664 663.246 443.022 665.603 443.572L675.31 445.84C680.251 446.994 684.868 449.267 688.76 452.523C689.92 453.494 691.353 454.18 692.975 454.446C697.272 455.152 701.506 452.512 702.765 448.343C704.242 443.449 701.272 438.402 696.372 437.257C695.044 436.947 693.717 436.957 692.471 437.236C687.468 438.356 682.294 438.47 677.302 437.304L667.597 435.037C665.24 434.486 662.883 435.95 662.332 438.307Z" fill="#1DB776"/>
<path d="M692.973 454.444C697.271 455.15 701.505 452.51 702.764 448.341C703.289 446.6 703.25 444.84 702.763 443.243C700.814 445.308 697.906 446.391 694.967 445.908C693.346 445.642 691.912 444.956 690.752 443.985C686.861 440.729 682.243 438.456 677.302 437.302L667.596 435.034C665.239 434.484 662.881 435.948 662.331 438.305C661.78 440.663 663.244 443.02 665.602 443.57L675.308 445.838C680.25 446.992 684.867 449.265 688.758 452.521C689.919 453.492 691.352 454.178 692.973 454.444V454.444Z" fill="#128E5A"/>
<path d="M626.221 495.437C626.53 494.111 626.521 492.784 626.242 491.538C626.193 491.318 626.148 491.096 626.102 490.875C623.911 493.231 620.486 494.308 617.132 493.295C614.264 492.429 612.121 490.155 611.292 487.42C611.182 487.556 611.074 487.694 610.961 487.828C609.991 488.988 609.305 490.42 609.039 492.042C608.334 496.337 610.972 500.569 615.14 501.828C620.032 503.305 625.076 500.335 626.221 495.437V495.437Z" fill="#128E5A"/>
</g>
<defs>
<linearGradient id="paint0_linear" x1="161.059" y1="618.687" x2="210.076" y2="754.827" gradientUnits="userSpaceOnUse">
<stop stop-color="#FFD8D8"/>
<stop offset="1" stop-color="#FFF8F8"/>
</linearGradient>
<linearGradient id="paint1_linear" x1="807.47" y1="273.694" x2="370.853" y2="36.345" gradientUnits="userSpaceOnUse">
<stop stop-color="#FFF8F8"/>
<stop offset="1" stop-color="#FFCFCF"/>
</linearGradient>
<linearGradient id="paint2_linear" x1="788.658" y1="210.028" x2="630.938" y2="154.506" gradientUnits="userSpaceOnUse">
<stop stop-color="#FFD7D7"/>
<stop offset="1" stop-color="#FFF9F9"/>
</linearGradient>
<linearGradient id="paint3_linear" x1="782.235" y1="644.48" x2="142.067" y2="327.53" gradientUnits="userSpaceOnUse">
<stop stop-color="#FFCFCF"/>
<stop offset="1" stop-color="#FFF8F8"/>
</linearGradient>
</defs>
</svg>
