<svg width="1920" height="2730" viewBox="0 0 1920 2730" fill="none" xmlns="http://www.w3.org/2000/svg">
<mask id="mask0" mask-type="alpha" maskUnits="userSpaceOnUse" x="0" y="0" width="1920" height="2730">
<rect width="1920" height="2730" fill="#C4C4C4"/>
</mask>
<g mask="url(#mask0)">
<g filter="url(#filter0_d)">
<path d="M131.935 876.427C127.488 876.294 123.656 879.783 122.568 884.578C115.684 885.124 107.819 885.31 99.1848 884.754C94.3828 884.436 89.8174 883.923 85.5477 883.288C85.5713 882.449 85.5831 881.602 85.5831 880.754C85.5831 876.631 85.2875 872.577 84.7434 868.612C86.9197 866.907 89.64 865.114 92.9399 863.578C98.6526 860.894 103.999 859.94 108.126 859.666C110.149 864.373 114.797 867.111 119.244 865.918C124.259 864.577 127.133 858.774 125.643 852.955C124.165 847.135 118.913 843.497 113.898 844.839C109.333 846.066 106.542 850.994 107.204 856.266C103.597 858.368 98.2268 860.646 91.5797 860.814C88.3035 860.902 85.4294 860.452 83.0993 859.87C81.6209 853.714 79.5038 847.815 76.7953 842.252C79.6576 839.603 83.0402 836.794 87.0024 834.083C92.7388 830.145 98.2741 827.328 103.135 825.305C106.305 829.103 111.355 830.366 115.258 828.053C119.741 825.402 120.995 819.017 118.073 813.807C115.152 808.598 109.132 806.531 104.649 809.189C100.758 811.494 99.2912 816.615 100.9 821.332C96.7247 824.651 91.5915 828.157 85.4294 831.284C81.2424 833.421 77.2329 835.046 73.6019 836.282C70.6332 831.187 67.1678 826.435 63.2647 822.099C64.7668 816.518 67.2978 810.001 71.6149 803.466C75.6717 797.356 80.1661 792.896 83.9864 789.761C88.197 792.437 93.4958 792.022 96.5118 788.498C99.9418 784.507 99.1611 778.052 94.7495 774.079C90.3615 770.096 84.0219 770.103 80.6038 774.096C77.5878 777.619 77.8243 783.051 80.9586 787.014C78.4867 791.201 74.7491 796.393 69.2611 801.339C63.2054 806.796 57.1261 810.063 52.4897 812.006C47.2146 807.864 41.4665 804.349 35.328 801.568C36.2151 799.033 37.3978 796.482 38.9472 793.974C40.1891 791.987 41.5256 790.238 42.874 788.711C47.5458 790.662 52.7855 789.258 55.1391 785.17C57.7885 780.604 55.8487 774.404 50.8102 771.332C45.7717 768.259 39.5504 769.468 36.9011 774.042C34.5829 778.061 35.8011 783.341 39.5505 786.644C38.7699 788.764 37.8236 790.963 36.6882 793.204C35.399 795.784 34.0033 798.16 32.5249 800.358C31.898 800.102 31.283 799.855 30.6561 799.626C23.3467 796.817 15.5523 795.043 7.42683 794.442C6.09032 790.75 4.93123 786.66 4.11512 782.167C2.45927 772.999 2.76686 765.02 3.53565 759.028C8.31396 758.088 11.8858 754.239 11.8858 749.626C11.8858 744.31 7.14304 740 1.28842 740C-4.57804 740 -9.3328 744.31 -9.3328 749.626C-9.3328 754.318 -5.63076 758.22 -0.734164 759.073C0.330313 764.979 1.02821 773.246 -0.603992 782.829C-1.3373 787.047 -2.41365 790.891 -3.66736 794.371C-11.4617 794.822 -18.9485 796.365 -26.0214 798.852C-27.0031 797.247 -27.8901 795.561 -28.6826 793.574C-30.2438 789.637 -30.918 785.948 -31.19 782.877C-26.6128 780.43 -24.2591 775.298 -25.8677 770.758C-27.6418 765.764 -33.5437 763.388 -39.0554 765.452C-44.5552 767.517 -47.583 773.237 -45.797 778.231C-44.2595 782.54 -39.6585 784.892 -34.892 784.13C-33.4964 787.07 -32.1598 790.459 -31.119 794.309C-30.5513 796.348 -30.1373 798.342 -29.818 800.292C-36.2403 802.904 -42.2605 806.31 -47.7958 810.386C-50.7054 808.224 -53.686 805.714 -56.631 802.773C-63.4082 796.001 -67.9264 789.055 -70.8951 783.493C-67.607 779.758 -67.0274 774.41 -69.7833 770.726C-72.9412 766.51 -79.2689 766.066 -83.9172 769.731C-88.5535 773.399 -89.7599 779.787 -86.6138 784.002C-83.8107 787.726 -78.5593 788.5 -74.1594 786.101C-69.8779 790.044 -64.3071 796.262 -60.0019 805.201C-58.0267 809.29 -56.6547 813.265 -55.6848 816.973C-56.5719 817.81 -57.4708 818.675 -58.3342 819.556C-62.6513 824.004 -66.5189 828.929 -69.8306 834.259C-71.7821 833.682 -73.8046 832.984 -75.8744 832.129C-82.6043 829.347 -87.8202 825.8 -91.6051 822.71C-89.9965 817.904 -91.5696 812.719 -95.5673 810.47C-100.097 807.914 -106.058 810.119 -108.873 815.395C-111.7 820.669 -110.304 827.017 -105.751 829.572C-101.765 831.818 -96.679 830.383 -93.5921 826.42C-89.003 828.049 -83.2785 830.663 -77.3766 834.956C-75.6143 836.238 -74.0057 837.557 -72.5036 838.883C-77.1755 847.526 -80.4399 857.078 -81.9893 867.22C-86.0225 867.573 -90.3749 867.743 -95.0468 867.595C-101.718 867.385 -107.738 866.583 -113.001 865.538C-113.119 860.234 -116.573 855.795 -121.257 855.29C-126.413 854.734 -131.085 859.134 -131.7 865.117C-132.304 871.1 -128.625 876.399 -123.48 876.952C-118.891 877.447 -114.704 874.013 -113.391 869.035C-107.998 869.147 -101.942 869.642 -95.3781 870.802C-90.8245 871.605 -86.6257 872.628 -82.7344 873.766C-82.9236 876.07 -83.0064 878.399 -83.0064 880.754C-83.0064 886.348 -82.4978 891.819 -81.5043 897.123C-85.9751 900.157 -92.1255 903.598 -99.9671 906.015C-106.839 908.133 -113.025 908.855 -117.957 909.01C-119.731 904.294 -124.131 901.352 -128.59 902.235C-133.664 903.242 -136.893 908.846 -135.781 914.752C-134.669 920.66 -129.642 924.63 -124.568 923.623C-120.169 922.751 -117.176 918.444 -117.164 913.477C-112.114 911.792 -106.153 910.21 -99.3758 909.18C-91.5932 907.997 -84.6032 907.827 -78.713 908.09C-76.3594 915.409 -73.0476 922.284 -68.9671 928.578C-70.895 930.143 -73.0358 931.688 -75.4605 933.132C-80.085 935.898 -84.5204 937.618 -88.3762 938.73C-90.9782 934.457 -95.8511 932.451 -100.062 934.198C-104.852 936.194 -106.969 942.331 -104.769 947.903C-103.385 951.4 -100.629 953.855 -97.578 954.694C-95.7802 955.197 -93.8759 955.136 -92.0899 954.394C-91.5695 954.173 -91.061 953.899 -90.5997 953.572C-87.0988 951.19 -85.6085 946.25 -87.0869 941.538C-83.444 939.608 -79.1861 937.697 -74.2895 936.121C-71.1315 935.111 -68.1274 934.373 -65.3006 933.824C-62.7222 937.248 -59.8836 940.461 -56.8439 943.426C-56.56 943.709 -56.2644 943.992 -55.9805 944.255C-58.0385 948.972 -61.1374 954.703 -65.8092 960.513C-70.3865 966.201 -75.1411 970.341 -79.1507 973.267C-83.1602 970.341 -88.4235 970.405 -91.6524 973.681C-95.3426 977.416 -94.9877 983.916 -90.8599 988.198C-86.7558 992.471 -80.4162 992.915 -76.7378 989.178C-73.5326 985.936 -73.3789 980.604 -76.0992 976.463C-72.9531 972.249 -68.8489 967.499 -63.6093 962.809C-57.9675 957.776 -52.4086 954.05 -47.5593 951.303C-41.1488 955.983 -34.0641 959.771 -26.5063 962.483C-26.802 965.405 -27.3106 968.558 -28.1503 971.87C-29.9718 979.085 -32.6921 984.869 -35.1641 989.126C-40.0252 988.127 -44.8272 990.406 -46.4712 994.769C-48.3282 999.723 -45.4067 1005.5 -39.9424 1007.67C-34.4899 1009.84 -28.5525 1007.58 -26.6719 1002.62C-25.0515 998.31 -27.0386 993.382 -31.19 990.75C-30.0191 985.619 -28.1622 979.552 -25.2289 973.035C-23.786 969.857 -22.2602 966.96 -20.699 964.32C-14.868 965.936 -8.80056 966.926 -2.53197 967.199C-1.5148 972.233 -0.686872 977.866 -0.28474 984.021C0.318462 993.178 -0.166367 1001.29 -1.01796 1007.98C-5.77262 1008.92 -9.3328 1012.77 -9.3328 1017.38C-9.3328 1022.69 -4.58987 1027 1.28842 1027C7.14305 1027 11.8858 1022.69 11.8858 1017.38C11.8858 1012.79 8.34936 1008.95 3.61835 1007.99C2.8259 1001.14 2.40011 993.056 2.84956 984.021C3.15707 977.927 3.83124 972.303 4.68282 967.216C11.2353 966.96 17.5867 965.928 23.6542 964.205C24.1746 965.123 24.6833 966.077 25.18 967.058C28.4799 973.53 30.254 979.598 31.2121 984.454C26.9896 986.971 24.837 991.863 26.3628 996.226C28.0896 1001.23 33.9797 1003.65 39.5031 1001.64C45.0147 999.616 48.0899 993.92 46.3513 988.914C44.8137 984.472 39.9998 982.069 35.0796 982.988C32.8205 979.005 30.1948 972.991 29.2841 965.291C29.1658 964.337 29.0831 963.402 29.0358 962.483C35.7893 960.081 42.1525 956.805 48.0072 952.795C51.7801 955.948 55.7541 959.709 59.7045 964.178C65.7839 971.048 70.2073 977.823 73.4008 983.579C70.16 987.306 69.6041 992.614 72.3363 996.278C75.5061 1000.49 81.822 1000.93 86.4702 997.267C91.1066 993.603 92.3131 987.219 89.167 982.998C86.4348 979.359 81.337 978.528 77.0082 980.745C72.3481 975.897 67.1796 969.76 62.2002 962.218C58.9831 957.343 56.3219 952.611 54.1338 948.168C56.4875 946.216 58.7347 944.141 60.8873 941.942C64.3882 938.34 67.5935 934.427 70.4321 930.242C75.6717 931.744 81.7155 933.943 88.126 937.244C94.3118 940.416 99.4686 943.903 103.62 947.153C102.047 951.869 103.537 956.972 107.441 959.25C111.935 961.891 117.932 959.789 120.841 954.571C123.751 949.343 122.45 942.976 117.955 940.335C114.028 938.031 108.931 939.347 105.785 943.215C101.148 941.403 95.5183 938.658 89.6873 934.445C83.6316 930.074 79.0544 925.385 75.7427 921.34C77.9781 917.032 79.8704 912.501 81.3843 907.785C83.8918 907.874 86.553 908.103 89.297 908.527C96.3817 909.622 102.284 911.679 106.825 913.728C106.435 918.762 109.203 923.371 113.591 924.528C118.606 925.853 123.857 922.206 125.324 916.378C126.778 910.55 123.904 904.757 118.878 903.432C114.478 902.265 109.877 904.951 107.831 909.586C103.017 909.18 96.8311 908.093 90.0776 905.41C87.5228 904.385 85.1574 903.246 83.0047 902.054C84.0811 897.683 84.838 893.187 85.2283 888.578C89.5927 888.216 94.2291 887.986 99.1139 887.977C107.724 887.951 115.554 888.586 122.426 889.522C123.254 894.371 126.885 898.062 131.32 898.204C136.501 898.354 140.841 893.602 140.995 887.589C141.161 881.576 137.104 876.577 131.935 876.427Z" fill="#128E5A" fill-opacity="0.74"/>
</g>
<g opacity="0.5" filter="url(#filter1_d)">
<path d="M2062.69 2403.01C2057.63 2402.86 2053.28 2406.8 2052.04 2412.22C2044.21 2412.83 2035.27 2413.04 2025.45 2412.42C2019.99 2412.06 2014.8 2411.48 2009.94 2410.76C2009.97 2409.81 2009.98 2408.86 2009.98 2407.9C2009.98 2403.24 2009.64 2398.67 2009.03 2394.19C2011.5 2392.27 2014.59 2390.24 2018.35 2388.51C2024.84 2385.48 2030.92 2384.4 2035.62 2384.09C2037.92 2389.41 2043.2 2392.5 2048.26 2391.15C2053.96 2389.64 2057.23 2383.09 2055.54 2376.52C2053.86 2369.95 2047.88 2365.84 2042.18 2367.35C2036.99 2368.74 2033.81 2374.3 2034.57 2380.25C2030.47 2382.63 2024.36 2385.2 2016.8 2385.39C2013.07 2385.49 2009.81 2384.98 2007.16 2384.32C2005.48 2377.37 2003.07 2370.71 1999.99 2364.43C2003.24 2361.44 2007.09 2358.27 2011.59 2355.21C2018.12 2350.77 2024.41 2347.59 2029.94 2345.3C2033.55 2349.59 2039.29 2351.02 2043.73 2348.4C2048.82 2345.41 2050.25 2338.2 2046.93 2332.32C2043.61 2326.44 2036.76 2324.11 2031.66 2327.11C2027.24 2329.71 2025.57 2335.49 2027.4 2340.82C2022.65 2344.56 2016.81 2348.52 2009.81 2352.05C2005.04 2354.46 2000.49 2356.3 1996.36 2357.69C1992.98 2351.94 1989.04 2346.58 1984.6 2341.68C1986.31 2335.38 1989.19 2328.03 1994.1 2320.65C1998.71 2313.75 2003.82 2308.72 2008.17 2305.18C2012.95 2308.2 2018.98 2307.73 2022.41 2303.75C2026.31 2299.24 2025.42 2291.96 2020.4 2287.47C2015.41 2282.98 2008.21 2282.98 2004.32 2287.49C2000.89 2291.47 2001.16 2297.6 2004.72 2302.07C2001.91 2306.8 1997.66 2312.66 1991.42 2318.25C1984.53 2324.41 1977.62 2328.1 1972.35 2330.29C1966.35 2325.61 1959.81 2321.64 1952.83 2318.51C1953.84 2315.64 1955.19 2312.76 1956.95 2309.93C1958.36 2307.69 1959.88 2305.71 1961.41 2303.99C1966.73 2306.19 1972.68 2304.61 1975.36 2299.99C1978.37 2294.84 1976.17 2287.84 1970.44 2284.37C1964.71 2280.9 1957.63 2282.27 1954.62 2287.43C1951.98 2291.97 1953.37 2297.93 1957.63 2301.66C1956.75 2304.05 1955.67 2306.53 1954.38 2309.06C1952.91 2311.97 1951.33 2314.66 1949.64 2317.14C1948.93 2316.85 1948.23 2316.57 1947.52 2316.31C1939.21 2313.14 1930.34 2311.14 1921.1 2310.46C1919.58 2306.29 1918.26 2301.67 1917.34 2296.6C1915.45 2286.25 1915.8 2277.25 1916.68 2270.48C1922.11 2269.42 1926.17 2265.07 1926.17 2259.87C1926.17 2253.87 1920.78 2249 1914.12 2249C1907.45 2249 1902.04 2253.87 1902.04 2259.87C1902.04 2265.16 1906.25 2269.57 1911.82 2270.53C1913.03 2277.2 1913.83 2286.53 1911.97 2297.35C1911.14 2302.11 1909.91 2306.45 1908.49 2310.38C1899.62 2310.89 1891.11 2312.63 1883.07 2315.44C1881.95 2313.63 1880.94 2311.72 1880.04 2309.48C1878.26 2305.04 1877.5 2300.87 1877.19 2297.4C1882.39 2294.64 1885.07 2288.85 1883.24 2283.72C1881.22 2278.09 1874.51 2275.4 1868.24 2277.73C1861.99 2280.06 1858.55 2286.52 1860.58 2292.16C1862.33 2297.02 1867.56 2299.68 1872.98 2298.82C1874.57 2302.14 1876.09 2305.96 1877.27 2310.31C1877.91 2312.61 1878.39 2314.86 1878.75 2317.06C1871.45 2320.01 1864.6 2323.86 1858.3 2328.46C1855 2326.02 1851.61 2323.19 1848.26 2319.87C1840.55 2312.22 1835.41 2304.38 1832.04 2298.1C1835.78 2293.88 1836.43 2287.85 1833.3 2283.69C1829.71 2278.93 1822.51 2278.43 1817.23 2282.56C1811.96 2286.7 1810.58 2293.92 1814.16 2298.67C1817.35 2302.88 1823.32 2303.75 1828.32 2301.04C1833.19 2305.5 1839.53 2312.51 1844.42 2322.61C1846.67 2327.22 1848.23 2331.71 1849.33 2335.9C1848.32 2336.84 1847.3 2337.82 1846.32 2338.81C1841.41 2343.83 1837.01 2349.39 1833.25 2355.41C1831.03 2354.76 1828.73 2353.97 1826.37 2353.01C1818.72 2349.87 1812.79 2345.86 1808.49 2342.37C1810.31 2336.95 1808.53 2331.09 1803.98 2328.55C1798.83 2325.67 1792.05 2328.16 1788.85 2334.11C1785.63 2340.07 1787.22 2347.23 1792.4 2350.12C1796.93 2352.66 1802.72 2351.03 1806.23 2346.56C1811.44 2348.4 1817.95 2351.35 1824.67 2356.2C1826.67 2357.64 1828.5 2359.13 1830.21 2360.63C1824.89 2370.39 1821.18 2381.17 1819.42 2392.62C1814.83 2393.02 1809.88 2393.21 1804.57 2393.04C1796.99 2392.81 1790.14 2391.9 1784.15 2390.72C1784.02 2384.73 1780.09 2379.72 1774.77 2379.15C1768.9 2378.52 1763.59 2383.49 1762.89 2390.25C1762.2 2397 1766.39 2402.98 1772.24 2403.61C1777.46 2404.17 1782.22 2400.29 1783.71 2394.67C1789.84 2394.8 1796.73 2395.36 1804.19 2396.66C1809.37 2397.57 1814.15 2398.73 1818.57 2400.01C1818.36 2402.61 1818.26 2405.24 1818.26 2407.9C1818.26 2414.22 1818.84 2420.39 1819.97 2426.38C1814.89 2429.8 1807.89 2433.69 1798.98 2436.42C1791.16 2438.81 1784.13 2439.62 1778.52 2439.8C1776.5 2434.47 1771.5 2431.15 1766.43 2432.15C1760.66 2433.29 1756.98 2439.61 1758.25 2446.28C1759.51 2452.95 1765.23 2457.43 1771 2456.29C1776 2455.31 1779.41 2450.45 1779.42 2444.84C1785.16 2442.94 1791.94 2441.15 1799.65 2439.99C1808.5 2438.66 1816.45 2438.46 1823.15 2438.76C1825.82 2447.02 1829.59 2454.78 1834.23 2461.89C1832.04 2463.66 1829.6 2465.4 1826.84 2467.03C1821.59 2470.15 1816.54 2472.09 1812.16 2473.35C1809.2 2468.53 1803.66 2466.26 1798.87 2468.23C1793.42 2470.49 1791.01 2477.41 1793.52 2483.71C1795.09 2487.65 1798.22 2490.43 1801.69 2491.37C1803.74 2491.94 1805.9 2491.87 1807.93 2491.03C1808.53 2490.78 1809.1 2490.47 1809.63 2490.11C1813.61 2487.42 1815.3 2481.84 1813.62 2476.52C1817.77 2474.34 1822.61 2472.18 1828.18 2470.4C1831.77 2469.26 1835.18 2468.43 1838.4 2467.81C1841.33 2471.68 1844.56 2475.3 1848.02 2478.65C1848.34 2478.97 1848.67 2479.29 1849 2479.59C1846.66 2484.91 1843.13 2491.38 1837.82 2497.94C1832.61 2504.36 1827.21 2509.04 1822.65 2512.34C1818.09 2509.04 1812.1 2509.11 1808.43 2512.81C1804.23 2517.02 1804.64 2524.36 1809.33 2529.2C1814 2534.02 1821.21 2534.52 1825.39 2530.3C1829.04 2526.64 1829.21 2520.62 1826.12 2515.95C1829.7 2511.19 1834.36 2505.83 1840.32 2500.53C1846.74 2494.85 1853.06 2490.64 1858.57 2487.54C1865.86 2492.83 1873.92 2497.1 1882.51 2500.16C1882.18 2503.46 1881.6 2507.02 1880.64 2510.76C1878.57 2518.91 1875.48 2525.44 1872.67 2530.24C1867.14 2529.12 1861.68 2531.69 1859.81 2536.61C1857.7 2542.21 1861.02 2548.73 1867.24 2551.18C1873.44 2553.63 1880.19 2551.08 1882.33 2545.48C1884.17 2540.61 1881.91 2535.05 1877.19 2532.08C1878.52 2526.28 1880.63 2519.43 1883.97 2512.08C1885.61 2508.49 1887.34 2505.22 1889.12 2502.24C1895.75 2504.06 1902.65 2505.18 1909.78 2505.49C1910.93 2511.17 1911.88 2517.53 1912.33 2524.48C1913.02 2534.82 1912.47 2543.97 1911.5 2551.53C1906.09 2552.59 1902.04 2556.94 1902.04 2562.14C1902.04 2568.14 1907.44 2573 1914.12 2573C1920.78 2573 1926.17 2568.14 1926.17 2562.14C1926.17 2556.96 1922.15 2552.62 1916.77 2551.54C1915.87 2543.81 1915.39 2534.68 1915.9 2524.48C1916.25 2517.6 1917.01 2511.25 1917.98 2505.51C1925.43 2505.22 1932.66 2504.05 1939.56 2502.11C1940.15 2503.15 1940.73 2504.22 1941.29 2505.33C1945.04 2512.64 1947.06 2519.49 1948.15 2524.97C1943.35 2527.81 1940.9 2533.33 1942.64 2538.26C1944.6 2543.91 1951.3 2546.64 1957.58 2544.37C1963.85 2542.09 1967.34 2535.66 1965.37 2530C1963.62 2524.99 1958.14 2522.28 1952.55 2523.31C1949.98 2518.82 1946.99 2512.03 1945.96 2503.34C1945.82 2502.26 1945.73 2501.2 1945.68 2500.16C1953.36 2497.45 1960.59 2493.75 1967.25 2489.23C1971.54 2492.79 1976.06 2497.03 1980.55 2502.08C1987.47 2509.83 1992.5 2517.48 1996.13 2523.98C1992.44 2528.19 1991.81 2534.18 1994.92 2538.32C1998.52 2543.07 2005.7 2543.57 2010.99 2539.43C2016.26 2535.3 2017.63 2528.09 2014.06 2523.32C2010.95 2519.22 2005.15 2518.28 2000.23 2520.78C1994.93 2515.31 1989.05 2508.38 1983.39 2499.87C1979.73 2494.36 1976.71 2489.02 1974.22 2484C1976.89 2481.8 1979.45 2479.46 1981.9 2476.98C1985.88 2472.91 1989.52 2468.49 1992.75 2463.77C1998.71 2465.46 2005.58 2467.95 2012.87 2471.67C2019.91 2475.25 2025.77 2479.19 2030.49 2482.86C2028.7 2488.18 2030.4 2493.94 2034.84 2496.52C2039.95 2499.5 2046.77 2497.12 2050.08 2491.23C2053.38 2485.33 2051.9 2478.14 2046.79 2475.16C2042.33 2472.56 2036.53 2474.05 2032.95 2478.41C2027.68 2476.37 2021.28 2473.27 2014.65 2468.51C2007.76 2463.58 2002.56 2458.28 1998.79 2453.72C2001.33 2448.85 2003.48 2443.74 2005.21 2438.42C2008.06 2438.52 2011.08 2438.77 2014.2 2439.25C2022.26 2440.49 2028.97 2442.81 2034.14 2445.12C2033.69 2450.81 2036.84 2456.01 2041.83 2457.32C2047.53 2458.81 2053.51 2454.7 2055.17 2448.12C2056.83 2441.54 2053.56 2435 2047.84 2433.5C2042.84 2432.18 2037.61 2435.22 2035.28 2440.45C2029.81 2439.99 2022.77 2438.76 2015.09 2435.73C2012.19 2434.58 2009.5 2433.29 2007.05 2431.95C2008.27 2427.01 2009.13 2421.94 2009.58 2416.73C2014.54 2416.32 2019.81 2416.06 2025.37 2416.05C2035.16 2416.02 2044.06 2416.74 2051.88 2417.8C2052.82 2423.27 2056.95 2427.44 2061.99 2427.6C2067.88 2427.77 2072.82 2422.4 2072.99 2415.62C2073.18 2408.83 2068.57 2403.18 2062.69 2403.01Z" fill="#FF383D"/>
</g>
<g opacity="0.5" filter="url(#filter2_d)">
<path d="M1883.81 2164.27C1881.76 2164.21 1879.99 2165.8 1879.48 2167.99C1876.3 2168.24 1872.67 2168.33 1868.68 2168.07C1866.46 2167.93 1864.35 2167.69 1862.38 2167.4C1862.39 2167.02 1862.39 2166.63 1862.39 2166.25C1862.39 2164.36 1862.26 2162.51 1862 2160.7C1863.01 2159.93 1864.27 2159.11 1865.79 2158.41C1868.43 2157.18 1870.9 2156.75 1872.81 2156.62C1873.74 2158.77 1875.89 2160.02 1877.95 2159.48C1880.26 2158.86 1881.59 2156.21 1880.9 2153.56C1880.22 2150.9 1877.79 2149.24 1875.48 2149.85C1873.37 2150.41 1872.08 2152.66 1872.38 2155.07C1870.72 2156.03 1868.23 2157.07 1865.16 2157.14C1863.65 2157.19 1862.32 2156.98 1861.24 2156.71C1860.56 2153.9 1859.58 2151.21 1858.33 2148.67C1859.65 2147.46 1861.22 2146.18 1863.05 2144.94C1865.7 2143.15 1868.26 2141.86 1870.5 2140.94C1871.97 2142.67 1874.3 2143.25 1876.1 2142.19C1878.18 2140.98 1878.76 2138.07 1877.41 2135.69C1876.06 2133.31 1873.27 2132.37 1871.2 2133.58C1869.4 2134.63 1868.73 2136.97 1869.47 2139.12C1867.54 2140.64 1865.17 2142.24 1862.32 2143.67C1860.39 2144.64 1858.53 2145.38 1856.86 2145.95C1855.48 2143.62 1853.88 2141.45 1852.08 2139.47C1852.77 2136.93 1853.94 2133.95 1855.94 2130.97C1857.81 2128.18 1859.89 2126.14 1861.65 2124.71C1863.6 2125.93 1866.05 2125.75 1867.44 2124.14C1869.03 2122.32 1868.67 2119.37 1866.63 2117.56C1864.6 2115.74 1861.67 2115.74 1860.09 2117.56C1858.7 2119.17 1858.81 2121.65 1860.26 2123.46C1859.11 2125.37 1857.39 2127.74 1854.85 2130C1852.05 2132.49 1849.24 2133.98 1847.1 2134.87C1844.66 2132.98 1842.01 2131.37 1839.17 2130.1C1839.58 2128.95 1840.13 2127.78 1840.84 2126.64C1841.42 2125.73 1842.03 2124.93 1842.66 2124.23C1844.82 2125.12 1847.24 2124.48 1848.32 2122.62C1849.55 2120.53 1848.65 2117.7 1846.32 2116.3C1844 2114.9 1841.12 2115.45 1839.9 2117.54C1838.83 2119.37 1839.39 2121.78 1841.12 2123.29C1840.76 2124.26 1840.32 2125.26 1839.8 2126.29C1839.2 2127.46 1838.56 2128.55 1837.87 2129.55C1837.58 2129.43 1837.3 2129.32 1837.01 2129.22C1833.63 2127.93 1830.03 2127.12 1826.28 2126.85C1825.66 2125.16 1825.12 2123.3 1824.75 2121.25C1823.98 2117.06 1824.12 2113.42 1824.48 2110.69C1826.69 2110.26 1828.34 2108.5 1828.34 2106.39C1828.34 2103.97 1826.15 2102 1823.44 2102C1820.73 2102 1818.53 2103.97 1818.53 2106.39C1818.53 2108.54 1820.24 2110.32 1822.51 2110.71C1823 2113.4 1823.32 2117.17 1822.57 2121.55C1822.23 2123.47 1821.73 2125.23 1821.15 2126.82C1817.55 2127.02 1814.09 2127.73 1810.82 2128.86C1810.37 2128.13 1809.96 2127.36 1809.59 2126.45C1808.87 2124.66 1808.56 2122.97 1808.43 2121.57C1810.55 2120.45 1811.63 2118.11 1810.89 2116.04C1810.07 2113.76 1807.34 2112.68 1804.8 2113.62C1802.26 2114.56 1800.86 2117.17 1801.68 2119.45C1802.39 2121.42 1804.52 2122.49 1806.72 2122.14C1807.37 2123.49 1807.98 2125.03 1808.46 2126.79C1808.73 2127.72 1808.92 2128.63 1809.07 2129.52C1806.1 2130.71 1803.32 2132.27 1800.76 2134.13C1799.41 2133.14 1798.04 2131.99 1796.68 2130.65C1793.54 2127.56 1791.46 2124.39 1790.08 2121.85C1791.6 2120.15 1791.87 2117.71 1790.6 2116.02C1789.14 2114.1 1786.22 2113.9 1784.07 2115.57C1781.92 2117.24 1781.37 2120.16 1782.82 2122.08C1784.12 2123.78 1786.54 2124.14 1788.58 2123.04C1790.55 2124.84 1793.13 2127.68 1795.12 2131.76C1796.03 2133.63 1796.66 2135.44 1797.11 2137.13C1796.7 2137.52 1796.29 2137.91 1795.89 2138.31C1793.89 2140.34 1792.11 2142.59 1790.58 2145.02C1789.67 2144.76 1788.74 2144.44 1787.78 2144.05C1784.67 2142.78 1782.26 2141.16 1780.51 2139.75C1781.26 2137.56 1780.53 2135.19 1778.68 2134.17C1776.59 2133 1773.84 2134.01 1772.54 2136.41C1771.23 2138.82 1771.87 2141.72 1773.98 2142.88C1775.82 2143.91 1778.17 2143.26 1779.6 2141.45C1781.72 2142.19 1784.36 2143.38 1787.09 2145.34C1787.9 2145.93 1788.65 2146.53 1789.34 2147.13C1787.18 2151.08 1785.67 2155.44 1784.96 2160.07C1783.09 2160.23 1781.08 2160.31 1778.92 2160.24C1775.84 2160.14 1773.06 2159.78 1770.63 2159.3C1770.57 2156.88 1768.98 2154.85 1766.81 2154.62C1764.43 2154.37 1762.27 2156.38 1761.99 2159.11C1761.71 2161.84 1763.41 2164.26 1765.79 2164.51C1767.91 2164.74 1769.84 2163.17 1770.45 2160.9C1772.94 2160.95 1775.74 2161.17 1778.77 2161.7C1780.88 2162.07 1782.82 2162.54 1784.61 2163.06C1784.53 2164.11 1784.49 2165.17 1784.49 2166.25C1784.49 2168.8 1784.72 2171.3 1785.18 2173.72C1783.12 2175.1 1780.27 2176.67 1776.65 2177.78C1773.48 2178.74 1770.62 2179.07 1768.34 2179.14C1767.52 2176.99 1765.48 2175.65 1763.42 2176.05C1761.08 2176.51 1759.59 2179.07 1760.1 2181.77C1760.62 2184.46 1762.94 2186.27 1765.28 2185.81C1767.32 2185.42 1768.7 2183.45 1768.7 2181.18C1771.04 2180.41 1773.79 2179.69 1776.92 2179.22C1780.52 2178.68 1783.75 2178.6 1786.47 2178.72C1787.56 2182.07 1789.09 2185.2 1790.98 2188.08C1790.08 2188.79 1789.1 2189.5 1787.97 2190.15C1785.84 2191.42 1783.79 2192.2 1782.01 2192.71C1780.8 2190.76 1778.55 2189.84 1776.61 2190.64C1774.39 2191.55 1773.42 2194.35 1774.43 2196.9C1775.07 2198.49 1776.34 2199.61 1777.75 2200C1778.59 2200.23 1779.47 2200.2 1780.29 2199.86C1780.53 2199.76 1780.77 2199.63 1780.98 2199.48C1782.6 2198.4 1783.29 2196.14 1782.6 2193.99C1784.29 2193.11 1786.25 2192.24 1788.52 2191.52C1789.98 2191.06 1791.36 2190.72 1792.67 2190.47C1793.86 2192.03 1795.17 2193.5 1796.58 2194.85C1796.71 2194.98 1796.85 2195.11 1796.98 2195.23C1796.03 2197.38 1794.59 2200 1792.43 2202.65C1790.32 2205.25 1788.12 2207.14 1786.27 2208.47C1784.42 2207.14 1781.98 2207.17 1780.49 2208.66C1778.79 2210.37 1778.95 2213.33 1780.86 2215.29C1782.76 2217.24 1785.68 2217.44 1787.38 2215.74C1788.87 2214.26 1788.94 2211.82 1787.68 2209.93C1789.13 2208.01 1791.03 2205.84 1793.45 2203.7C1796.06 2201.4 1798.63 2199.7 1800.87 2198.45C1803.83 2200.58 1807.1 2202.31 1810.6 2203.55C1810.46 2204.89 1810.22 2206.32 1809.84 2207.84C1808.99 2211.13 1807.74 2213.77 1806.6 2215.71C1804.35 2215.26 1802.13 2216.3 1801.37 2218.29C1800.51 2220.55 1801.86 2223.19 1804.39 2224.18C1806.91 2225.17 1809.65 2224.14 1810.52 2221.87C1811.27 2219.9 1810.35 2217.66 1808.43 2216.45C1808.97 2214.11 1809.83 2211.34 1811.19 2208.37C1811.85 2206.92 1812.56 2205.59 1813.28 2204.39C1815.97 2205.13 1818.78 2205.58 1821.67 2205.7C1822.14 2208 1822.53 2210.57 1822.71 2213.38C1822.99 2217.56 1822.77 2221.26 1822.37 2224.32C1820.18 2224.75 1818.53 2226.51 1818.53 2228.61C1818.53 2231.03 1820.72 2233 1823.44 2233C1826.15 2233 1828.34 2231.03 1828.34 2228.61C1828.34 2226.52 1826.7 2224.76 1824.52 2224.32C1824.15 2221.2 1823.95 2217.51 1824.16 2213.38C1824.3 2210.6 1824.62 2208.03 1825.01 2205.71C1828.04 2205.6 1830.97 2205.12 1833.78 2204.34C1834.02 2204.76 1834.25 2205.19 1834.48 2205.64C1836.01 2208.59 1836.82 2211.36 1837.27 2213.58C1835.32 2214.73 1834.32 2216.96 1835.03 2218.95C1835.82 2221.24 1838.55 2222.34 1841.1 2221.42C1843.65 2220.5 1845.07 2217.9 1844.26 2215.62C1843.55 2213.59 1841.33 2212.49 1839.05 2212.91C1838.01 2211.09 1836.8 2208.35 1836.38 2204.83C1836.32 2204.4 1836.28 2203.97 1836.26 2203.55C1839.38 2202.46 1842.32 2200.96 1845.03 2199.13C1846.77 2200.57 1848.61 2202.29 1850.43 2204.33C1853.24 2207.46 1855.29 2210.55 1856.76 2213.18C1855.27 2214.88 1855.01 2217.3 1856.27 2218.98C1857.74 2220.9 1860.65 2221.1 1862.8 2219.43C1864.94 2217.76 1865.5 2214.84 1864.05 2212.92C1862.79 2211.25 1860.43 2210.88 1858.43 2211.89C1856.28 2209.67 1853.89 2206.87 1851.59 2203.43C1850.1 2201.21 1848.87 2199.05 1847.86 2197.02C1848.95 2196.13 1849.99 2195.18 1850.98 2194.18C1852.6 2192.53 1854.08 2190.75 1855.39 2188.84C1857.81 2189.52 1860.61 2190.52 1863.57 2192.03C1866.43 2193.48 1868.81 2195.07 1870.73 2196.55C1870 2198.71 1870.69 2201.04 1872.49 2202.08C1874.57 2203.28 1877.34 2202.32 1878.68 2199.94C1880.03 2197.55 1879.43 2194.65 1877.35 2193.44C1875.54 2192.39 1873.18 2192.99 1871.73 2194.76C1869.58 2193.93 1866.98 2192.68 1864.29 2190.75C1861.49 2188.76 1859.38 2186.62 1857.85 2184.77C1858.88 2182.81 1859.75 2180.74 1860.45 2178.58C1861.61 2178.63 1862.84 2178.73 1864.11 2178.92C1867.38 2179.42 1870.11 2180.36 1872.21 2181.3C1872.03 2183.6 1873.31 2185.7 1875.33 2186.23C1877.65 2186.83 1880.08 2185.17 1880.76 2182.51C1881.43 2179.85 1880.1 2177.2 1877.78 2176.6C1875.74 2176.07 1873.62 2177.29 1872.67 2179.41C1870.45 2179.22 1867.59 2178.73 1864.47 2177.5C1863.29 2177.03 1862.2 2176.51 1861.2 2175.97C1861.7 2173.97 1862.05 2171.92 1862.23 2169.82C1864.24 2169.65 1866.39 2169.55 1868.64 2169.54C1872.62 2169.53 1876.24 2169.82 1879.42 2170.25C1879.8 2172.46 1881.48 2174.15 1883.53 2174.21C1885.92 2174.28 1887.93 2172.11 1888 2169.37C1888.07 2166.62 1886.2 2164.34 1883.81 2164.27Z" fill="#128E5A"/>
</g>
</g>
<defs>
<filter id="filter0_d" x="-141" y="737" width="287" height="297" filterUnits="userSpaceOnUse" color-interpolation-filters="sRGB">
<feFlood flood-opacity="0" result="BackgroundImageFix"/>
<feColorMatrix in="SourceAlpha" type="matrix" values="0 0 0 0 0 0 0 0 0 0 0 0 0 0 0 0 0 0 127 0"/>
<feOffset dy="2"/>
<feGaussianBlur stdDeviation="2.5"/>
<feColorMatrix type="matrix" values="0 0 0 0 0 0 0 0 0 0 0 0 0 0 0 0 0 0 0.1 0"/>
<feBlend mode="normal" in2="BackgroundImageFix" result="effect1_dropShadow"/>
<feBlend mode="normal" in="SourceGraphic" in2="effect1_dropShadow" result="shape"/>
</filter>
<filter id="filter1_d" x="1754" y="2249" width="323" height="332" filterUnits="userSpaceOnUse" color-interpolation-filters="sRGB">
<feFlood flood-opacity="0" result="BackgroundImageFix"/>
<feColorMatrix in="SourceAlpha" type="matrix" values="0 0 0 0 0 0 0 0 0 0 0 0 0 0 0 0 0 0 127 0"/>
<feOffset dy="4"/>
<feGaussianBlur stdDeviation="2"/>
<feColorMatrix type="matrix" values="0 0 0 0 0 0 0 0 0 0 0 0 0 0 0 0 0 0 0.07 0"/>
<feBlend mode="normal" in2="BackgroundImageFix" result="effect1_dropShadow"/>
<feBlend mode="normal" in="SourceGraphic" in2="effect1_dropShadow" result="shape"/>
</filter>
<filter id="filter2_d" x="1756" y="2102" width="136" height="139" filterUnits="userSpaceOnUse" color-interpolation-filters="sRGB">
<feFlood flood-opacity="0" result="BackgroundImageFix"/>
<feColorMatrix in="SourceAlpha" type="matrix" values="0 0 0 0 0 0 0 0 0 0 0 0 0 0 0 0 0 0 127 0"/>
<feOffset dy="4"/>
<feGaussianBlur stdDeviation="2"/>
<feColorMatrix type="matrix" values="0 0 0 0 0 0 0 0 0 0 0 0 0 0 0 0 0 0 0.07 0"/>
<feBlend mode="normal" in2="BackgroundImageFix" result="effect1_dropShadow"/>
<feBlend mode="normal" in="SourceGraphic" in2="effect1_dropShadow" result="shape"/>
</filter>
</defs>
</svg>
