<svg xmlns="http://www.w3.org/2000/svg" width="1171" height="793" fill="none" viewBox="0 0 1171 793">
    <path fill="url(#prefix__paint0_linear)" d="M541.098 643.146c-35.174 20.334-72.047 33.559-114.029 33.386-46.794-.197-93.181-31.595-122.497-66.055-10.891-12.799-20.417-27.591-22.625-44.248-5.086-38.482 30.128-49.428 61.835-48.94 17.872.267 35.157 5.22 52.248 10.131 28.377 8.162 60.021 8.89 86.643 22.564 8.936 4.606 16.154 10.793 26.049 13.513 15.393 4.237 32.112 4.483 47.773 8.032 13.377 3.057 28.854 9.299 31.376 22.78 2.571 13.83-10.221 25.323-21.876 33.183-8.245 5.59-16.515 10.826-24.897 15.654z"/>
    <path fill="url(#prefix__paint1_linear)" d="M292.769 187.954C333.77 77.689 457.14 7.233 573.383 16.444c56.056 4.45 108.261 29.52 157.423 56.777 43.335 24.021 86.243 50.87 120.659 86.966 23.498 24.637 43.707 56.119 59.893 86.167 24.216 44.995 28.071 109.668-35.145 120.343-14.832 2.506-28.721.354-43.472-.893-11.933-1.016-22.19 3.859-34.08 4.847-29.925 2.494-60.275-1.316-89.561-7.311-59.687-12.243-116.988-34.702-177.428-43.437-49.526-7.135-99.959-4.729-148.581 7.088-20.511 4.988-41.718 11.703-62.305 7.027-50.744-11.546-45.353-77.512-36.872-115.954 2.234-10.234 5.193-20.296 8.855-30.11z"/>
    <path fill="url(#prefix__paint2_linear)" d="M792.529 81.936c12.062 6.523 56.827 21.433 50.558-7.394-1.571-7.18-6.504-13.316-12.19-17.463-6.508-4.764-12.992-6.51-18.639-12.535-6.882-7.259-14.306-13.847-22.175-19.679C773.93 12.671 755.979 2.145 736.846.183c-13.418-1.371-34.044 4.852-36.032 22.106-2.902 25.119 34.653 20.393 47.846 26.057 12.515 5.354 21.844 17.536 32.874 26.333 3.484 2.772 7.164 5.201 10.995 7.257z"/>
    <path fill="url(#prefix__paint3_linear)" d="M588.692 95.086c25.599 7.693 47.211 23.299 71.498 34.182 40.435 18.116 88.309 12.123 131.756 20.967 44.305 9.03 81.43 30.833 105.277 69.523 30.795 49.936 48.253 114.015 47.026 173.407-1.358 65.378-29.859 115.565-79.47 156.529-49.582 40.941-108.775 68.877-170.267 86.71-5.933 1.726-11.885 3.331-17.885 4.841-134.788 33.842-326.09 30.335-407.559-103.412-.746-1.222-1.474-2.448-2.208-3.692-8.692-14.996-15.557-30.977-20.449-47.604-17.492-58.91-23.174-127.269-15.961-188.276 4.843-41.07 29.836-73.091 56.182-103.572 37.017-42.823 87.197-71.551 140.687-88.702 39.61-12.698 84.684-24.833 126.572-18.751 11.78 1.743 23.413 4.367 34.801 7.85z"/>
    <path fill="url(#prefix__paint4_linear)" d="M902.29 512.153c-23.66 33.028-51.798 60.281-90.116 77.435-42.712 19.116-97.919 9.639-138.836-9.666-15.2-7.169-29.978-16.717-38.858-30.981-20.501-32.961 7.066-57.454 36.153-70.084 16.392-7.126 34.181-9.741 51.777-12.315 29.217-4.266 58.346-16.651 88.238-15.171 10.04.511 19.166 3.171 29.303 1.57 15.771-2.488 31.103-9.158 46.835-12.383 13.447-2.73 30.12-3.426 37.978 7.816 8.044 11.539 1.13 27.284-6.247 39.251-5.207 8.492-10.582 16.672-16.227 24.528z"/>
    <path fill="#000C3E" d="M506.422 332.586c-.34 0-.684-.108-.977-.334-.267-.21-6.596-5.209-11.43-15.408-4.432-9.352-8.369-25.03-1.96-46.646 4.347-14.663 8.703-25.087 12.544-34.29 6.975-16.696 12.015-28.759 12.423-54.333.012-.875.658-1.626 1.613-1.566.881.016 1.581.735 1.569 1.617-.417 26.185-5.824 39.126-12.668 55.511-3.812 9.126-8.13 19.468-12.429 33.968-11.688 39.407 12.053 58.448 12.295 58.633.691.541.815 1.54.277 2.234-.315.404-.783.614-1.257.614zM636.803 81.293c-.238 17.336-14.484 31.2-31.823 30.962-17.336-.239-31.197-14.485-30.962-31.824.239-17.336 14.488-31.197 31.824-30.962 17.336.24 31.2 14.488 30.961 31.824z"/>
    <path fill="#000C3E" d="M503.384 321.372s9.658 18.771 47.419 24.559c37.759 5.785 66.948-8.522 96.226 1.317 29.278 9.842 70.89-4.871 78.912-17.266 8.025-12.394 3.074-147.431-20.352-169.537-23.427-22.106-143.801-38.162-169.162-11.042-25.361 27.124-49.889 157.147-33.043 171.969z"/>
    <path fill="#000C3E" d="M717.951 209.651c-.783 57.134-47.735 102.816-104.872 102.033-57.134-.782-102.816-47.737-102.033-104.871.786-57.134 47.738-102.816 104.872-102.033 57.134.786 102.815 47.737 102.033 104.871z"/>
    <path fill="#FFCEB0" d="M529.959 206.357s7.232 125.447 92.244 128.852c85.009 3.405 80.723-173.483 49.606-189.581-31.118-16.095-159.231-9.893-141.85 60.729z"/>
    <path fill="#F5A473" d="M617.746 231.165s17.129 38.257 13.018 40.918c-4.111 2.657-16.33 2.491-19.687-.271-3.358-2.762-.064-44.813 6.669-40.647z"/>
    <path fill="#41294A" d="M592.633 244.701c-.112 4.404-3.771 7.885-8.175 7.774-4.404-.108-7.885-3.768-7.774-8.172.108-4.404 3.768-7.885 8.175-7.777 4.404.112 7.885 3.771 7.774 8.175zM661.017 239.319c-.112 4.404-3.771 7.886-8.175 7.774-4.404-.108-7.885-3.767-7.774-8.171.109-4.404 3.768-7.886 8.175-7.777 4.404.111 7.885 3.77 7.774 8.174zM595.201 137.817s-30.086 15.443-35.219 43.21c-5.136 27.766-.461 98.443-32.785 95.964 0 0-65.76-138.531 68.004-139.174zM611.257 138.037c-2.714 2.043 31.426 1.149 51.508 24.35 20.086 23.2 26.125 82.231 29.17 83.255 3.046 1.028 13.333-73.639-8.597-95.478-21.931-21.835-56.635-23.751-72.081-12.127z"/>
    <path fill="#FFCEB0" d="M684.734 250.859s7.379-31.623 21.819-20.772c14.44 10.851 2.396 43.998-11.545 47.311-13.937 3.312-17.628-10.154-10.274-26.539zM550.741 249.022s-6.51-31.814-21.243-21.365c-14.73 10.45-3.599 43.919 10.243 47.614 13.845 3.691 17.902-9.667 11-26.249z"/>
    <path fill="#41294A" d="M649.189 211.182s15.013-7.92 24.263 3.459c8.136 10.004-10.434 1.896-17.269 3.191-6.838 1.299-15.869.732-6.994-6.65zM589.526 214.065s-15.398-7.144-24.057 4.69c-7.614 10.409 10.517 1.362 17.413 2.31 6.892.945 15.885-.082 6.644-7zM643.737 295.46s-9.794-14.8-20.391-13.867c-10.599.935-18.723 14.577-20.149 15.149 0 0 16.541 7.768 40.54-1.282z"/>
    <path fill="#FFFCF6" d="M584.171 226.94c-13.26 0-24.197 10.794-24.381 24.057-.086 6.51 2.364 12.671 6.908 17.342 4.544 4.668 10.631 7.287 17.145 7.376l.341.003c13.259 0 24.196-10.79 24.377-24.053.185-13.444-10.602-24.534-24.05-24.721l-.34-.004zm.013 51.96l-.385-.003c-7.364-.098-14.246-3.064-19.382-8.34-5.136-5.279-7.908-12.241-7.809-19.605.207-14.994 12.572-27.194 27.563-27.194l.385.004c15.201.21 27.394 12.747 27.188 27.944-.204 14.994-12.57 27.194-27.56 27.194zM653.044 221.428c-13.263 0-24.2 10.794-24.381 24.056-.185 13.442 10.605 24.534 24.05 24.719l.34.003c13.263 0 24.2-10.79 24.381-24.053.089-6.514-2.364-12.674-6.905-17.346-4.544-4.665-10.631-7.287-17.145-7.376l-.34-.003zm.009 51.96l-.382-.003c-15.204-.21-27.397-12.748-27.19-27.945.206-14.994 12.569-27.194 27.563-27.194l.385.003c7.363.099 14.246 3.065 19.378 8.34 5.139 5.279 7.911 12.242 7.809 19.605-.207 14.994-12.572 27.194-27.563 27.194z"/>
    <path fill="#FFFCF6" d="M558.882 247.002c-.181 0-.369-.032-.547-.095l-10.205-3.749c-.824-.305-1.247-1.219-.945-2.046.302-.821 1.222-1.238 2.043-.942l10.202 3.745c.827.306 1.247 1.219.945 2.047-.236.642-.843 1.04-1.493 1.04zM677.882 239.771c-.678 0-1.308-.436-1.518-1.117-.264-.837.203-1.731 1.044-1.995l13.947-4.353c.833-.268 1.731.207 1.991 1.043.265.841-.203 1.732-1.043 1.996l-13.947 4.356c-.156.048-.318.07-.474.07z"/>
    <path fill="#000C3E" d="M610.76 167.209s.029 31.734 18.933 37.465c18.902 5.734 67.527 3.205 67.034-4.55-4.452-70.015-37.364-66.492-64.851-75.453-48.205-15.71-87.631 62.998-81.728 81.601 5.903 18.599 46.589 1.231 55.298-1.384 8.706-2.619 3.882-24.184 5.314-37.679z"/>
    <path fill="#DB5C5D" d="M562.011 274.39s42.885-24.744 61.707-21.285c18.822 3.462 51.855 4.003 53.35 10.755 1.499 6.749-41.879 3.707-55.221 5.006-13.343 1.298-64.565 16.658-59.836 5.524z" opacity=".21"/>
    <path fill="#DB5C5D" d="M586.011 257.832c-.627 0-1.222-.372-1.473-.993-.331-.811.06-1.74.875-2.071 4.312-1.757 5.11-3.141 5.117-3.154.283-.833 1.155-1.222 1.995-.926.83.283 1.247 1.251.964 2.085-.2.585-1.285 2.666-6.88 4.941-.197.08-.397.118-.598.118zM651.529 254.464c-1.282 0-3.446-.389-6.844-2.046-.793-.382-1.12-1.334-.735-2.126.381-.789 1.339-1.114 2.125-.732 4.191 2.04 5.75 1.699 5.769 1.699.812-.34 1.677.058 2.021.866.344.808-.096 1.763-.907 2.11-.21.089-.662.229-1.429.229z"/>
    <path fill="#FFFCF6" d="M610.129 251.816c-.805 0-1.499-.607-1.582-1.428-.089-.875.548-1.658 1.423-1.744l17.075-1.744c.856-.108 1.654.544 1.744 1.419.089.875-.548 1.658-1.423 1.744l-17.075 1.744c-.054.006-.108.009-.162.009z"/>
    <path fill="#000C3E" d="M586.486 111.826c-.232 0-.471-.05-.694-.162-9.027-4.388-14.488-10.647-16.238-18.605-3.882-17.67 11.904-37.221 12.579-38.045.56-.681 1.559-.78 2.237-.223.681.557.783 1.556.226 2.237-.156.191-15.487 19.197-11.933 35.356 1.531 6.956 6.415 12.48 14.52 16.423.789.382 1.12 1.336.735 2.125-.274.564-.84.894-1.432.894zM622.819 116.555c-.442 0-.881-.184-1.196-.54-.579-.662-.516-1.665.146-2.247.185-.162 18.431-16.388 17.578-32.912-.366-7.112-4.277-13.365-11.624-18.586-.716-.507-.885-1.5-.376-2.218.51-.713 1.502-.882 2.218-.373 8.181 5.81 12.544 12.884 12.961 21.024.923 18.065-17.858 34.755-18.66 35.458-.302.264-.674.394-1.047.394zM717.46 325.464c-.462 0-.92-.197-1.235-.589-.554-.677-.452-1.68.229-2.237.21-.171 21.139-17.651 15.077-45.303-2.336-10.66-6.431-22.389-10.768-34.805-7.52-21.533-15.297-43.801-15.93-65.388-.025-.882.668-1.611 1.547-1.639.824.028 1.61.665 1.635 1.543.621 21.097 8.312 43.13 15.751 64.434 4.369 12.512 8.497 24.327 10.874 35.171 6.488 29.609-15.949 48.272-16.178 48.457-.296.238-.649.356-1.002.356z"/>
    <path fill="#000C3E" d="M723.111 211.823c-.051 0-.105-.003-.159-.007-.872-.086-1.512-.865-1.426-1.74 2.75-27.84-3.109-50.436-17.406-67.17-23.022-26.937-60.424-29.409-60.796-29.431-.878-.051-1.55-.802-1.496-1.684.048-.875.802-1.568 1.677-1.492.392.022 39.143 2.581 63.034 30.538 14.882 17.419 20.992 40.82 18.153 69.551-.079.824-.773 1.435-1.581 1.435z"/>
    <path fill="#DB5C5D" d="M609.155 298.601s15.856-11.124 30.016-1.588c0 0-16.534 6.196-30.016 1.588zM619.647 310.022c-1.566 0-2.912-.016-3.742-.028-.879-.013-1.579-.735-1.566-1.617.013-.878.614-1.591 1.616-1.565 6.008.079 13.187-.067 14.304-.49.818-.312 1.74.095 2.055.913.315.821-.085 1.734-.903 2.052-1.591.618-7.497.735-11.764.735zM542.474 266.481c-.143 0-.286-.02-.429-.061-.847-.235-1.34-1.11-1.105-1.96 4.353-15.602-7.204-25.648-7.322-25.749-.668-.567-.751-1.572-.181-2.244.566-.668 1.572-.751 2.243-.178.541.458 13.222 11.484 8.325 29.03-.198.7-.834 1.162-1.531 1.162zM690.929 270.281c-.035 0-.066 0-.105-.004-.875-.057-1.54-.814-1.486-1.689 1.191-18.466 10.04-28.337 10.419-28.747.591-.649 1.597-.694 2.243-.102.649.592.694 1.598.105 2.247-.086.095-8.477 9.524-9.588 26.805-.057.844-.757 1.49-1.588 1.49z"/>
    <path fill="#FFCEB0" d="M658.979 322.224s5.059 56.599-1.655 65.55c-6.714 8.955-49.239 2.237-60.431 0-11.191-2.237-11.213-95.847-8.954-89.524 18.685 52.221 69.751 6.008 71.04 23.974z"/>
    <path fill="#F5A473" d="M591.985 327.822s30.17 14.501 64.466-3.051c0 0 2.666 21.084 0 25.946-2.663 4.862-56.991 8.337-67.686-15.627 0 0 .134-8.308 3.22-7.268z"/>
    <path fill="#FB4C47" d="M427.231 771.206h390.414s19.942-339.437-28.963-376.349c-48.909-36.915-264.204-18.475-314.891 13.056-50.687 31.531-46.56 363.293-46.56 363.293z"/>
    <path fill="#05BA6E" d="M622.155 381.067s-15.048 130.477-8.48 148.637c6.565 18.16-1.846 98.676-4.518 109.142-2.677 10.466-83.791 14.911-104.722 6.539-20.932-8.372 5.333-234.047 17.049-275.799 11.72-41.755 99.383-17.155 100.671 11.481z"/>
    <path fill="#FFCEB0" d="M383.947 221.205s32.632 62.499 55.501 63.078c22.873.579 100-93.346 128.438-94.313 28.441-.965 52.864 1.794 52.975-4.984.111-6.781-39.556-14.182-39.556-14.182s57.366 3.653 45.5-2.622c-11.863-6.275-40.291-11.917-40.291-11.917s41.23 1.664 41.529-2.746c.299-4.41-42.926-10.905-42.926-10.905s52.599-1.68 42.98-8.916c-9.623-7.236-27.732-4.095-76.713 3.386-48.985 7.481-159.804 72.875-167.437 84.121z"/>
    <path fill="#FB4C47" d="M441.197 218.211s52.202 31.095 29.473 66.333c-24.203 37.523-22.848 26.376-27.032 41.558-4.188 15.181 64.793 44.749 67.931 57.745 3.137 12.992-29.38 172.792-59.839 166.234-26.513-5.705-173.849-89.317-195.022-172.872-16.414-64.777 117.37-223.222 184.489-158.998z"/>
    <path fill="#fff" d="M577.843 582.708s-57.84 127.417-36.575 144.479c21.266 17.059 38.402 5.944 57.208 17.018 18.809 11.073 36.851 5.536 51.959-4.099 15.109-9.638-24.212-136.402-40.475-148.472-16.264-12.073-29.186-15.547-32.117-8.926z"/>
    <path fill="#FB4C47" d="M770.019 385.79s31.101 3.796 55.515 48.505c18.315 33.544 53.799 229.553 0 257.481-53.8 27.926-104.261 13.318-123.787-5.502-19.53-18.82 15.216-115.811 38.376-123.051 23.162-7.237 29.896-177.433 29.896-177.433z"/>
    <path fill="#05BA6E" d="M780.09 382.785s1.454-9.062-43.334-28.444c-35.741-15.468-66.355 10.638-120.874 13.447-54.518 2.813-49.599-18.796-88.162-8.754-59.511 15.494-12.13 54.503 7.045 58.881 19.175 4.379 83.418 112.375 245.325-35.13z"/>
    <path fill="#fff" d="M623.782 273.878s-.165 3.692 1.954 4.026c2.119.334 6.036-.85 5.028-5.824 0 0-5.314 1.709-6.982 1.798z"/>
    <path fill="#B31B1F" d="M844.54 579.628c-.15 0-.302-.009-.455-.032-1.47-.21-2.559-1.393-2.714-2.803-2.651-3.064-20.448-9.483-32.321-13.766-23.522-8.486-34.07-12.683-36.339-17.275-1.925-3.892-1.063-9.505.029-16.61 1.728-11.246 3.882-25.247-3.259-38.733-12.33-23.289-11.156-57.834-11.099-59.291.07-1.756 1.588-3.163 3.3-3.058 1.757.067 3.125 1.547 3.061 3.3-.016.344-1.161 34.309 10.364 56.071 8.124 15.35 5.696 31.143 3.924 42.675-.85 5.521-1.649 10.736-.614 12.827 1.928 2.975 20.502 9.676 32.791 14.109 27.696 9.992 37.313 14.011 36.476 19.856-.226 1.588-1.588 2.73-3.144 2.73zM761.517 553.466c-.277 0-.557-.035-.84-.112-10.513-2.867-26.847-5.851-27.009-5.883-1.731-.312-2.877-1.97-2.562-3.698.315-1.731 1.967-2.896 3.701-2.561.678.121 16.763 3.061 27.544 6.001 1.696.465 2.695 2.212 2.234 3.908-.385 1.416-1.668 2.345-3.068 2.345zM818.676 710.863c-.051 0-.098 0-.146-.003-58.9-2.67-117.584-27.76-120.756-51.626-.996-7.5-1.715-11.252-2.161-13.107-1.19-.592-1.912-1.858-1.699-3.242.404-2.622 2.18-3.551 3.589-3.551h.035c3.205.035 4.267 1.912 6.546 19.063 2.463 18.526 55.89 43.439 114.732 46.105 1.757.08 3.116 1.566 3.036 3.322-.076 1.709-1.486 3.039-3.176 3.039z"/>
    <path fill="#B31B1F" d="M713.089 654.543c-.232 0-.468-.025-.706-.076-1.712-.388-2.788-2.094-2.4-3.809.137-.614 14.055-61.964 27.064-106.096.496-1.687 2.278-2.654 3.952-2.151 1.686.496 2.651 2.265 2.151 3.952-12.951 43.935-26.822 105.088-26.958 105.702-.338 1.476-1.649 2.478-3.103 2.478zM436.984 521.298c-.156 0-.319-.013-.478-.035-1.737-.261-2.934-1.884-2.673-3.618.328-2.195 8.185-54.047 18.965-78.31 10.482-23.58 15.847-47.486 15.901-47.725.376-1.715 2.072-2.788 3.796-2.418 1.716.381 2.797 2.084 2.416 3.799-.22.999-5.559 24.769-16.296 48.931-10.431 23.474-18.411 76.137-18.491 76.665-.235 1.582-1.594 2.711-3.14 2.711zM388.475 340.262c-8.47 0-17.962-.515-28.412-1.846-1.744-.222-2.979-1.813-2.756-3.557.22-1.744 1.852-2.956 3.558-2.756 31.82 4.054 54.426.322 66.078-2.221-5.804-1.855-13.934-3.662-22.048-3.22-18.259.859-44.975-15.452-46.105-16.152-1.496-.923-1.957-2.883-1.034-4.379.923-1.495 2.886-1.963 4.378-1.034.261.159 26.195 16.003 42.433 15.207 15.468-.815 33.787 6.075 35.451 9.031.596 1.053.548 2.421-.13 3.424-.63.926-1.935 1.483-3.08 1.413-.503.057-1.992.413-3.44.757-6.959 1.667-22.297 5.33-44.893 5.333zM466.695 271.872c-1.184 0-2.32-.662-2.868-1.795-.079-.162-8.025-16.302-21.555-22.698-15.36-7.264-32.731-32.584-33.462-33.656-.99-1.455-.615-3.437.836-4.424 1.458-.986 3.434-.607 4.42.837.172.249 17.129 24.96 30.93 31.487 15.592 7.379 24.203 24.941 24.562 25.682.764 1.585.099 3.482-1.482 4.245-.446.22-.917.322-1.381.322z"/>
    <path fill="#08824F" d="M614.499 456.798c-.118 0-.239-.013-.357-.041-.856-.195-1.393-1.05-1.196-1.903.076-.338 7.666-33.514 9.887-50.366 3.459-26.274-8.309-35.439-8.427-35.528-.703-.528-.849-1.521-.327-2.224.522-.706 1.508-.856 2.214-.337.551.404 13.419 10.208 9.693 38.503-2.237 17.005-9.861 50.327-9.938 50.658-.168.742-.824 1.238-1.549 1.238zM520.655 408.949l-3.16-.366s2.469-21.482 3.758-32.043c1.301-10.654 4.34-17.928 4.471-18.234.34-.814 1.276-1.183 2.084-.849.808.343 1.187 1.279.846 2.087-.032.07-3 7.198-4.241 17.384-1.289 10.552-3.758 32.018-3.758 32.021z"/>
    <path fill="#B31B1F" d="M611.009 761.714c-18.147 0-28.126-.598-41.936-1.425-17.766-1.066-42.092-2.523-98.943-3.408-1.757-.026-3.16-1.47-3.131-3.23.028-1.756 1.575-3.22 3.229-3.134 56.991.884 81.401 2.351 99.224 3.421 13.702.817 23.598 1.412 41.557 1.412 22.482 0 42.65-2.463 62.156-4.843 17.122-2.094 33.294-4.066 50.626-4.451 36.973-.815 64.603-.004 64.876 0 1.757.057 3.138 1.524 3.084 3.277-.054 1.757-1.537 3.058-3.275 3.087-.273-.01-27.747-.824-64.542 0-17.017.375-33.039 2.332-49.999 4.404-19.694 2.405-40.056 4.89-62.926 4.89z"/>
    <path fill="#fff" d="M755.16 719.257c-1.582 0-3.167-.71-4.548-2.797-4.298-6.495-5.597-7.029-13.908-5.75-7.52 1.174-10.488-4.156-12.455-7.679-.655-1.177-1.279-2.287-1.823-2.717-1.464-1.155-5.12.232-6.667 1.085l-1.543-2.781c.675-.376 6.67-3.574 10.183-.802 1.04.824 1.775 2.142 2.628 3.663 1.9 3.395 3.866 6.892 9.19 6.087 9.514-1.47 12.057-.398 17.049 7.137 1.324 2.005 2.47 1.731 5.999-.328 2.679-1.571 6.742-3.942 9.772.29l-2.584 1.852c-1.181-1.639-2.25-1.343-5.585.605-1.594.932-3.65 2.135-5.708 2.135z"/>
    <path fill="#FFCEB0" d="M718.137 569.393s-76.007-27.483-108.983-13.425c-32.976 14.055-60.151 50.293-55.117 52.689 5.034 2.399 31.974-18.494 31.974-18.494s-27.471 27.76-22.376 30.538c5.094 2.778 31.566-12.044 31.566-12.044s-18.479 19.754-10.543 21.266c7.937 1.511 24.951-14.765 42.694-15.376 17.747-.614 40.11 13.409 62.296 17.358 22.182 3.946 28.489-62.512 28.489-62.512z"/>
    <path fill="#B31B1F" d="M832.842 555.147c-.197 0-.394-.019-.595-.057-.222-.038-22.605-4.271-49.363-9.712-1.722-.35-2.835-2.03-2.485-3.751.347-1.722 2.024-2.836 3.751-2.483 26.714 5.429 49.058 9.652 49.281 9.696 1.728.325 2.861 1.989 2.533 3.717-.286 1.527-1.623 2.59-3.122 2.59z"/>
    <path fill="#FFD310" fill-rule="evenodd" d="M620.412 55.025c-.831 0-1.734.096-2.713.29-2.385.478-3.931 1.637-4.859 3.649-4.137 8.954 4.586 30.281 10.819 42.881 3.851-13.977 8.467-37.341 1.944-44.704-1.255-1.415-2.965-2.116-5.191-2.116zm3.43 57.285c.1.019.201.033.303.041.332.128.686.194 1.043.194.332 0 .664-.055.987-.172 4.251-1.55 41.676-15.586 46.338-31.76 1.121-3.89.331-7.724-2.281-11.084-4.443-5.72-9.244-6.4-12.49-5.967-9.212 1.228-18.28 13.13-24.93 24.436 2.352-12.878 3.257-27.75-2.887-34.687-2.167-2.449-6.249-5.074-13.356-3.658-4.17.831-7.274 3.217-8.97 6.892-6.278 13.598 8.164 42.884 12.978 51.959-6.07 1.172-12.174 1.436-18.013 1.039-12.581-.855-23.732-4.767-30.39-9.047l-2.379 3.702c7.367 4.736 19.256 8.838 32.47 9.736 6.931.471 14.28.064 21.577-1.624zm35.491-43.083c-.273 0-.55.017-.827.059-9.756 1.298-21.545 21.99-27.778 35.082 12.957-5.456 33.507-15.876 36.237-25.35.613-2.135.201-4.02-1.29-5.944-2.007-2.583-4.086-3.847-6.342-3.847z" clip-rule="evenodd"/>
    <path stroke="#FFB2B1" stroke-linejoin="round" stroke-width="5" d="M197.228 164.016h113.257c7.27 0 14.149 3.296 18.705 8.961l33.244 41.342c4.715 5.864 11.906 9.177 19.426 8.951l212.99-6.401"/>
    <path fill="#FF383D" d="M209.32 164.532c0 5.036-4.082 9.119-9.119 9.119s-9.119-4.083-9.119-9.119c0-5.037 4.082-9.12 9.119-9.12s9.119 4.083 9.119 9.12z"/>
    <path fill="#FFE1E2" d="M10.94 164.633c0-39.014 31.627-70.642 70.64-70.642 39.015 0 70.64 31.628 70.64 70.642 0 39.013-31.625 70.641-70.64 70.641-39.013 0-70.64-31.628-70.64-70.641z"/>
    <path stroke="#FFD6D7" stroke-miterlimit="10" stroke-width="2.4" d="M81.276 76.748c48.778 0 88.32 39.542 88.32 88.319s-39.542 88.322-88.32 88.322v43.616"/>
    <path fill="#F2AEB0" d="M74.013 299.208c0-4.012 3.251-7.263 7.263-7.263 4.012 0 7.263 3.251 7.263 7.263 0 4.012-3.25 7.263-7.263 7.263-4.012 0-7.263-3.251-7.263-7.263z"/>
    <path fill="#FF383D" d="M53.101 162.514v3.75h5.415v2.234H53.1v5.77h-2.578v-14.106h9.024v2.352h-6.446zm11.237 0v3.524h5.791v2.246h-5.79v3.631h6.445v2.353H61.76v-14.106h9.024v2.352h-6.446zm10.68-2.352l2.04 5.221c.309.824.677 1.855 1.107 3.094.437 1.232.741 2.113.913 2.643.194-.53.505-1.418.935-2.664.437-1.247.81-2.278 1.117-3.095l2.02-5.199h2.75l-5.479 14.106h-2.653l-5.555-14.106h2.804zm15.255 2.352v3.524h5.79v2.246h-5.79v3.631h6.446v2.353h-9.024v-14.106h9.024v2.352h-6.446zm9.175-2.352h5.597c1.719 0 3.022.383 3.91 1.149.896.759 1.343 1.844 1.343 3.255 0 .982-.229 1.82-.687 2.514-.451.688-1.089 1.186-1.913 1.494l2.686 5.694h-2.879l-2.374-5.254h-3.105v5.254h-2.578v-14.106zm5.597 6.607c.838 0 1.472-.201 1.901-.602.43-.408.645-.934.645-1.579 0-.645-.218-1.164-.655-1.558-.43-.401-1.06-.601-1.891-.601h-3.019v4.34h3.019z"/>
    <path stroke="#FFB2B1" stroke-linejoin="round" stroke-width="5" d="M650.775 278.324h168.832c8.815 0 16.921 4.832 21.114 12.586l31.252 57.795c4.192 7.754 12.298 12.586 21.113 12.586h82.793"/>
    <path fill="#FF383D" d="M979.984 361.192c0 5.036-4.083 9.119-9.119 9.119-5.037 0-9.12-4.083-9.12-9.119 0-5.037 4.083-9.12 9.12-9.12 5.036 0 9.119 4.083 9.119 9.12z"/>
    <path fill="#FF383D" d="M1005.77 379.655c0-39.014 31.63-70.641 70.65-70.641 39.01 0 70.64 31.627 70.64 70.641 0 39.014-31.63 70.641-70.64 70.641-39.02 0-70.65-31.627-70.65-70.641z" opacity=".15"/>
    <path fill="#FF383D" d="M1042.77 360.183h5.59c1.72 0 3.03.383 3.91 1.149.9.759 1.35 1.844 1.35 3.255 0 .982-.23 1.819-.69 2.514-.45.688-1.09 1.186-1.91 1.494l2.68 5.694h-2.88l-2.37-5.254h-3.11v5.254h-2.57v-14.106zm5.59 6.607c.84 0 1.48-.201 1.9-.602.43-.408.65-.935.65-1.579 0-.645-.22-1.164-.66-1.558-.43-.401-1.06-.602-1.89-.602h-3.02v4.341h3.02zm7.62-6.607h2.58v8.916c0 1.089.31 1.881.92 2.375.62.494 1.4.741 2.36.741 1.01 0 1.81-.261 2.4-.784.6-.53.89-1.307.89-2.332v-8.916h2.58v9.024c0 1.16-.25 2.145-.76 2.954-.51.802-1.21 1.408-2.1 1.816-.88.401-1.88.602-3.01.602-1.15 0-2.16-.205-3.04-.613-.89-.415-1.58-1.024-2.08-1.826-.49-.809-.74-1.787-.74-2.933v-9.024zm26.25 0v14.106h-2.42l-6.49-9.659v9.659h-2.56v-14.106h2.43l6.49 9.679v-9.679h2.55zm14.63 0v14.106h-2.42l-6.49-9.659v9.659h-2.55v-14.106h2.42l6.49 9.679v-9.679h2.55zm4.78 0l1.68 2.857c.4.716.77 1.379 1.08 1.988.32.601.51.981.58 1.139.09-.165.28-.523.58-1.075l1.14-2.052 1.68-2.857h2.87l-4.99 8.455v5.651h-2.58v-5.651l-5.02-8.455h2.98zm-39.84 29.003v14.106h-2.41l-6.49-9.659v9.659h-2.56v-14.106h2.43l6.49 9.679v-9.679h2.54zm17.26 7.047c0 1.418-.33 2.686-.97 3.803-.64 1.118-1.54 1.988-2.67 2.611-1.14.623-2.41.935-3.82.935-1.41 0-2.68-.308-3.81-.924-1.13-.616-2.01-1.483-2.65-2.6-.63-1.118-.95-2.385-.95-3.803 0-1.426.32-2.693.95-3.803.64-1.118 1.52-1.988 2.65-2.611 1.13-.623 2.41-.935 3.83-.935 1.41 0 2.68.312 3.81.935s2.02 1.49 2.66 2.6c.64 1.103.97 2.367.97 3.792zm-2.73 0c0-.96-.2-1.812-.6-2.557-.4-.745-.97-1.325-1.69-1.74-.72-.423-1.52-.634-2.42-.634-.91 0-1.72.211-2.45.634-.71.415-1.28.995-1.68 1.74-.41.745-.62 1.605-.62 2.579 0 .952.21 1.805.62 2.557.4.744.97 1.325 1.68 1.74.73.415 1.54.623 2.45.623.9 0 1.7-.208 2.42-.623.72-.415 1.29-.996 1.69-1.74.4-.752.6-1.612.6-2.579zm4.57-3.04c0-.867.21-1.622.63-2.267.42-.645 1.01-1.142 1.77-1.493.77-.351 1.65-.527 2.64-.527.98 0 1.86.172 2.62.516.77.344 1.37.831 1.8 1.461.43.63.64 1.364.64 2.202h-2.65c-.01-.601-.25-1.085-.72-1.45-.46-.372-1.06-.559-1.82-.559-.68 0-1.23.172-1.65.516-.41.337-.61.774-.61 1.311 0 .53.18.92.53 1.171.37.25.85.447 1.46.591l2.31.569c1.05.251 1.9.713 2.55 1.386.65.666.98 1.525.98 2.578 0 .881-.22 1.651-.67 2.31-.43.659-1.06 1.171-1.87 1.536-.8.359-1.73.538-2.8.538-1.58 0-2.87-.384-3.87-1.15-.99-.773-1.52-1.823-1.61-3.148h2.65c.03.659.31 1.178.83 1.558.52.372 1.21.559 2.04.559.81 0 1.45-.172 1.9-.516.46-.344.69-.816.69-1.418 0-.516-.16-.906-.48-1.171-.32-.265-.75-.462-1.27-.591l-2.36-.569c-1.16-.28-2.06-.745-2.7-1.397-.64-.659-.96-1.508-.96-2.546zm15.4-1.655v3.524h5.79v2.246h-5.79v3.631h6.45v2.353h-9.03v-14.106h9.03v2.352h-6.45z"/>
    <path stroke="#FFD6D7" stroke-miterlimit="10" stroke-width="2.4" d="M1081.08 291.545c48.78 0 88.32 39.542 88.32 88.322 0 48.777-39.54 88.319-88.32 88.319v43.618"/>
    <path fill="#F2AEB0" d="M1073.82 514.007c0-4.012 3.25-7.263 7.26-7.263s7.26 3.251 7.26 7.263c0 4.012-3.25 7.263-7.26 7.263s-7.26-3.251-7.26-7.263z"/>
    <path fill="#FF383D" d="M10.94 650.683c0-39.014 31.627-70.641 70.64-70.641 39.015 0 70.64 31.627 70.64 70.641 0 39.014-31.625 70.642-70.64 70.642-39.013 0-70.64-31.628-70.64-70.642z" opacity=".15"/>
    <g filter="url(#prefix__filter0_d)">
        <path fill="#FF383D" d="M31.763 647.212c1.375 0 2.6.301 3.674.903 1.082.602 1.923 1.443 2.525 2.525.601 1.074.902 2.295.902 3.663 0 1.361-.297 2.575-.892 3.642-.594 1.06-1.432 1.887-2.514 2.482-1.074.594-2.306.891-3.695.891H26.52v-14.106h5.243zm-.226 11.754c.924 0 1.733-.194 2.428-.58.702-.394 1.243-.942 1.622-1.644.38-.702.57-1.515.57-2.439 0-.938-.19-1.762-.57-2.471-.38-.716-.92-1.271-1.622-1.665-.695-.401-1.504-.602-2.428-.602H29.1v9.401h2.438zm10.346-11.754l1.676 2.858c.408.716.77 1.379 1.085 1.988.315.601.509.981.58 1.139.086-.165.28-.523.58-1.075.308-.558.688-1.242 1.14-2.052l1.675-2.858h2.88l-4.996 8.455v5.651h-2.579v-5.651l-5.017-8.455h2.976zm17.2 0c1.483 0 2.647.419 3.492 1.257.852.838 1.278 1.959 1.278 3.363 0 .91-.193 1.715-.58 2.417-.387.695-.946 1.239-1.676 1.633-.723.394-1.576.591-2.557.591h-3.17v4.845h-2.578v-14.106h5.791zm-.526 7.048c.866 0 1.514-.233 1.944-.698.437-.473.656-1.064.656-1.773 0-.644-.219-1.189-.656-1.633-.43-.451-1.056-.677-1.88-.677h-2.75v4.781h2.686zm7.015-3.04c0-.867.208-1.622.623-2.267.423-.645 1.014-1.142 1.773-1.493.766-.351 1.647-.527 2.643-.527.98 0 1.855.172 2.621.516.766.344 1.364.831 1.794 1.461.43.63.645 1.364.645 2.202h-2.654c-.014-.601-.254-1.085-.72-1.45-.458-.372-1.063-.559-1.815-.559-.688 0-1.24.172-1.655.516-.408.337-.612.774-.612 1.311 0 .53.179.92.537 1.171.365.25.849.447 1.45.591l2.31.569c1.053.251 1.905.713 2.557 1.386.652.666.978 1.525.978 2.578 0 .881-.222 1.651-.666 2.31-.437.659-1.06 1.171-1.87 1.536-.802.358-1.736.538-2.804.538-1.582 0-2.872-.384-3.867-1.15-.989-.774-1.526-1.823-1.612-3.148h2.654c.028.659.304 1.178.827 1.558.523.372 1.203.559 2.041.559.81 0 1.444-.172 1.902-.516.458-.344.687-.817.687-1.418 0-.516-.16-.906-.483-1.171-.322-.265-.745-.462-1.268-.591l-2.363-.569c-1.16-.28-2.06-.745-2.697-1.397-.637-.659-.956-1.508-.956-2.546zm24.28-4.008v14.106h-2.417l-6.49-9.658v9.658H78.39v-14.106h2.428l6.489 9.68v-9.68h2.546zm17.254 7.048c0 1.418-.323 2.686-.967 3.803-.645 1.118-1.537 1.988-2.675 2.611-1.132.623-2.403.935-3.814.935s-2.682-.308-3.814-.924c-1.124-.616-2.005-1.483-2.643-2.6-.637-1.118-.956-2.385-.956-3.803 0-1.426.319-2.693.956-3.804.638-1.117 1.519-1.987 2.643-2.61 1.132-.623 2.41-.935 3.835-.935 1.411 0 2.679.312 3.803.935 1.132.623 2.02 1.49 2.665 2.6.644 1.103.967 2.367.967 3.792zm-2.729 0c0-.96-.201-1.812-.602-2.557-.401-.745-.963-1.325-1.686-1.74-.717-.423-1.522-.634-2.418-.634-.91 0-1.726.211-2.45.634-.715.415-1.278.995-1.686 1.74-.408.745-.612 1.605-.612 2.579 0 .952.204 1.804.612 2.556.408.745.97 1.326 1.687 1.741.723.415 1.54.623 2.45.623.895 0 1.7-.208 2.417-.623.723-.415 1.285-.996 1.686-1.741.401-.752.602-1.611.602-2.578zm7.681-4.695v3.524h5.791v2.245h-5.791v3.632h6.446v2.352h-9.024v-14.106h9.024v2.353h-6.446zm13.053-2.353h2.622l5.232 14.106h-2.729l-1.139-3.212h-5.393l-1.192 3.212h-2.665l5.264-14.106zm3.234 8.756l-.902-2.481c-.086-.237-.323-.935-.709-2.095l-.301-.881c-.057.193-.194.598-.408 1.214-.215.616-.434 1.203-.656 1.762l-.924 2.481h3.9z"/>
    </g>
    <path stroke="#FFD6D7" stroke-miterlimit="10" stroke-width="2.4" d="M81.278 562.95c48.778 0 88.32 39.542 88.32 88.32 0 48.78-39.542 88.321-88.32 88.321v43.616"/>
    <path fill="#F2AEB0" d="M74.015 785.411c0-4.012 3.251-7.263 7.263-7.263 4.012 0 7.263 3.251 7.263 7.263 0 4.01-3.25 7.263-7.263 7.263-4.012 0-7.263-3.253-7.263-7.263z"/>
    <path stroke="#FFB2B1" stroke-linejoin="round" stroke-width="5" d="M186.697 663.152h178.312c9.634 0 18.334-5.759 22.096-14.628l56.419-132.988c3.763-8.868 12.463-14.628 22.096-14.628h207.196"/>
    <path fill="#FF383D" d="M201.945 663.559c0 5.037-4.082 9.12-9.119 9.12s-9.119-4.083-9.119-9.12c0-5.036 4.082-9.119 9.119-9.119s9.119 4.083 9.119 9.119z"/>
    <path fill="#FF383D" d="M159.222 408.658c0-39.014-31.628-70.641-70.641-70.641-39.014 0-70.642 31.627-70.642 70.641 0 39.014 31.628 70.641 70.642 70.641 39.013 0 70.641-31.627 70.641-70.641z" opacity=".15"/>
    <path fill="#FF383D" d="M58.146 394.517h-4.265v11.775h-2.578v-11.775h-4.308v-2.331h11.151v2.331zm1.913-2.331h2.578v5.855l6.252.021v-5.876h2.59v14.106h-2.59v-6.006h-6.252v6.006h-2.578v-14.106zm14.46 0h5.597c1.72 0 3.023.383 3.91 1.149.896.76 1.344 1.845 1.344 3.256 0 .981-.23 1.819-.688 2.514-.451.687-1.088 1.185-1.912 1.493l2.686 5.694h-2.88l-2.374-5.254h-3.105v5.254H74.52v-14.106zm5.597 6.607c.838 0 1.472-.201 1.902-.602.43-.408.644-.934.644-1.579 0-.645-.218-1.164-.655-1.558-.43-.401-1.06-.601-1.89-.601h-3.02v4.34h3.02zm21.702.44c0 1.419-.323 2.686-.967 3.804-.645 1.117-1.536 1.987-2.675 2.61-1.132.623-2.403.935-3.814.935s-2.682-.308-3.814-.924c-1.124-.616-2.005-1.483-2.643-2.6-.637-1.117-.956-2.385-.956-3.803 0-1.425.319-2.693.956-3.803.638-1.118 1.519-1.988 2.643-2.611 1.132-.623 2.41-.935 3.835-.935 1.411 0 2.679.312 3.803.935 1.132.623 2.02 1.49 2.665 2.6.644 1.103.967 2.367.967 3.792zm-2.729 0c0-.959-.2-1.812-.602-2.556-.4-.745-.963-1.325-1.686-1.741-.717-.422-1.522-.634-2.418-.634-.91 0-1.726.212-2.45.634-.715.416-1.278.996-1.686 1.741-.408.744-.612 1.604-.612 2.578 0 .952.204 1.805.612 2.557.409.745.97 1.325 1.687 1.74.723.416 1.54.623 2.45.623.895 0 1.7-.207 2.417-.623.723-.415 1.285-.995 1.686-1.74.401-.752.602-1.612.602-2.579zm8.315-7.047h2.622l5.232 14.106h-2.729l-1.139-3.212h-5.393l-1.193 3.212h-2.664l5.264-14.106zm3.234 8.756l-.902-2.482c-.086-.236-.323-.935-.709-2.095l-.301-.881c-.058.193-.194.598-.409 1.214-.214.616-.433 1.203-.655 1.762l-.924 2.482h3.9zm15.019-6.425h-4.265v11.775h-2.578v-11.775h-4.308v-2.331h11.151v2.331zm-52.03 26.672c1.483 0 2.647.419 3.492 1.257.852.838 1.278 1.959 1.278 3.362 0 .91-.193 1.716-.58 2.418-.387.694-.945 1.239-1.676 1.633-.723.394-1.575.591-2.557.591h-3.169v4.845h-2.578v-14.106h5.79zm-.526 7.047c.867 0 1.515-.232 1.944-.698.437-.473.656-1.063.656-1.773 0-.644-.219-1.188-.656-1.632-.43-.452-1.056-.677-1.88-.677h-2.75v4.78h2.686zm10.217-7.047h2.621l5.232 14.106h-2.729l-1.138-3.212H81.91l-1.192 3.212h-2.664l5.264-14.106zm3.234 8.756l-.903-2.482c-.086-.236-.322-.935-.709-2.095l-.3-.881c-.058.193-.194.598-.409 1.214-.215.616-.433 1.203-.655 1.762l-.924 2.482h3.9zm6.424 5.35v-14.106h2.578v14.106h-2.578zm17.071-14.106v14.106h-2.417l-6.489-9.658v9.658h-2.557v-14.106h2.428l6.489 9.68v-9.68h2.546z"/>
    <path stroke="#FFD6D7" stroke-miterlimit="10" stroke-width="2.4" d="M89.92 320.308c-48.778 0-88.32 39.542-88.32 88.322 0 48.778 39.542 88.32 88.32 88.32v43.618"/>
    <path fill="#F2AEB0" d="M97.38 542.851c0-4.012-3.25-7.263-7.263-7.263-4.009 0-7.263 3.251-7.263 7.263 0 4.012 3.254 7.263 7.263 7.263 4.012 0 7.263-3.251 7.263-7.263z"/>
    <path stroke="#FFB2B1" stroke-linejoin="round" stroke-width="5" d="M190.469 423.364h203.332c7.421 0 14.425-3.433 18.972-9.299l42.74-55.149c4.546-5.866 11.55-9.3 18.972-9.3h157.24"/>
    <path fill="#FF383D" d="M200.719 423.88c0 5.036-4.083 9.119-9.119 9.119-5.037 0-9.12-4.083-9.12-9.119 0-5.037 4.083-9.12 9.12-9.12 5.036 0 9.119 4.083 9.119 9.12z"/>
    <path fill="#FF383D" d="M1160.06 620.68c0-39.014-31.63-70.641-70.64-70.641-39.01 0-70.64 31.627-70.64 70.641 0 39.014 31.63 70.642 70.64 70.642 39.01 0 70.64-31.628 70.64-70.642z" opacity=".13"/>
    <path fill="#FA5652" d="M1045.76 604.215c0-.867.21-1.623.63-2.267.42-.645 1.01-1.142 1.77-1.493.77-.351 1.65-.527 2.64-.527.98 0 1.86.172 2.62.516.77.344 1.37.831 1.8 1.461.43.63.64 1.364.64 2.202h-2.65c-.02-.601-.26-1.085-.72-1.45-.46-.372-1.07-.559-1.82-.559-.68 0-1.24.172-1.65.516-.41.337-.61.773-.61 1.311 0 .53.17.92.53 1.171.37.25.85.447 1.45.591l2.31.569c1.06.251 1.91.713 2.56 1.386.65.666.98 1.525.98 2.578 0 .881-.22 1.651-.67 2.31-.44.659-1.06 1.171-1.87 1.536-.8.358-1.73.538-2.8.538-1.58 0-2.87-.384-3.87-1.15-.99-.774-1.52-1.823-1.61-3.148h2.65c.03.659.31 1.178.83 1.558.52.372 1.2.559 2.04.559.81 0 1.44-.172 1.9-.516.46-.344.69-.817.69-1.418 0-.516-.16-.906-.48-1.171-.33-.265-.75-.462-1.27-.591l-2.36-.569c-1.16-.28-2.06-.745-2.7-1.397-.64-.659-.96-1.508-.96-2.546zm12.82-4.008h2.58v5.856l6.25.021v-5.877h2.59v14.106h-2.59v-6.005h-6.25v6.005h-2.58v-14.106zm18.34 0h2.62l5.23 14.106h-2.73l-1.14-3.212h-5.39l-1.19 3.212h-2.67l5.27-14.106zm3.23 8.756l-.9-2.481c-.09-.237-.32-.935-.71-2.095l-.3-.881c-.06.193-.19.598-.41 1.214-.21.616-.43 1.203-.65 1.762l-.93 2.481h3.9zm13.12-2.686l4.87 8.036h-3.11l-3.52-5.855-2.33 2.89v3.008h-2.6v-14.149h2.6v7.177l5.77-7.177h3.21l-4.89 6.07zm6.74 8.036v-14.106h2.57v14.106h-2.57zm17.07-14.106v14.106h-2.42l-6.49-9.658v9.658h-2.56v-14.106h2.43l6.49 9.68v-9.68h2.55zm16.6 6.446v1.343c0 1.304-.31 2.457-.91 3.46-.6.995-1.44 1.769-2.51 2.32-1.07.552-2.29.828-3.65.828-1.43 0-2.68-.301-3.75-.903-1.08-.602-1.91-1.447-2.51-2.535-.59-1.096-.89-2.364-.89-3.803 0-1.469.31-2.762.92-3.879.6-1.124 1.46-1.998 2.55-2.621 1.11-.623 2.37-.935 3.79-.935 1.15 0 2.19.201 3.12.602.94.401 1.72.967 2.33 1.697.62.724 1.02 1.554 1.22 2.493h-2.75c-.28-.76-.78-1.35-1.49-1.773-.71-.43-1.54-.645-2.5-.645-1.4 0-2.5.459-3.31 1.376-.81.916-1.21 2.13-1.21 3.642 0 1.511.4 2.703 1.22 3.577.82.867 1.93 1.3 3.32 1.3 1.16 0 2.12-.29 2.88-.87.77-.588 1.22-1.411 1.38-2.471h-4.47v-2.203h7.22zm-70.66 36.954c-1.41 0-2.67-.305-3.77-.914-1.1-.608-1.96-1.471-2.57-2.589-.62-1.117-.93-2.399-.93-3.846 0-1.439.31-2.714.92-3.825.61-1.117 1.46-1.98 2.55-2.589 1.11-.608 2.37-.913 3.8-.913 1.17 0 2.25.201 3.22.602.97.401 1.78.981 2.42 1.74.63.752 1.04 1.626 1.22 2.622h-2.87c-.22-.76-.69-1.379-1.41-1.859-.73-.487-1.59-.731-2.6-.731-.91 0-1.72.205-2.41.613-.69.408-1.22.992-1.59 1.751-.37.752-.56 1.622-.56 2.611 0 .995.19 1.869.57 2.621.38.745.91 1.314 1.6 1.708.69.394 1.49.591 2.39.591.98 0 1.83-.236 2.56-.709.74-.48 1.22-1.114 1.45-1.902h2.87c-.16.982-.56 1.855-1.19 2.622-.63.759-1.43 1.35-2.41 1.772-.97.416-2.06.624-3.26.624zm9.2-14.397h2.58v5.856l6.25.021v-5.877h2.59v14.106h-2.59v-6.005h-6.25v6.005h-2.58V629.21zm14.46 14.106V629.21h2.58v14.106h-2.58zm14.05-2.331v2.331h-8.44V629.21h2.6v11.775h5.84zm10.5 0v2.331h-8.43V629.21h2.6v11.775h5.83zm1.68-7.767c0-.867.21-1.622.62-2.267.42-.645 1.02-1.142 1.77-1.493.77-.351 1.65-.527 2.65-.527.98 0 1.85.172 2.62.516.76.344 1.36.831 1.79 1.461.43.63.65 1.364.65 2.202h-2.66c-.01-.601-.25-1.085-.72-1.45-.45-.372-1.06-.559-1.81-.559-.69 0-1.24.172-1.66.516-.4.337-.61.774-.61 1.311 0 .53.18.92.54 1.171.36.25.85.447 1.45.591l2.31.569c1.05.251 1.9.713 2.56 1.386.65.666.97 1.525.97 2.578 0 .881-.22 1.651-.66 2.31-.44.659-1.06 1.171-1.87 1.536-.8.358-1.74.538-2.81.538-1.58 0-2.87-.384-3.86-1.15-.99-.774-1.53-1.823-1.62-3.148h2.66c.03.659.3 1.178.83 1.558.52.372 1.2.559 2.04.559.81 0 1.44-.172 1.9-.516.46-.344.69-.817.69-1.418 0-.516-.17-.906-.49-1.171-.32-.265-.74-.462-1.27-.591l-2.36-.569c-1.16-.28-2.06-.745-2.7-1.397-.63-.659-.95-1.508-.95-2.546z"/>
    <path stroke="#FFD6D7" stroke-miterlimit="10" stroke-width="2.4" d="M1089.92 534.106c-48.78 0-88.32 39.542-88.32 88.32 0 48.78 39.54 88.321 88.32 88.321v43.616"/>
    <path fill="#F2AEB0" d="M1097.18 756.567c0-4.012-3.25-7.263-7.26-7.263-4.02 0-7.27 3.251-7.27 7.263 0 4.009 3.25 7.263 7.27 7.263 4.01 0 7.26-3.254 7.26-7.263z"/>
    <path stroke="#FFA6A6" stroke-linejoin="round" stroke-width="5" d="M725.751 674.72h91.118c7.279 0 14.165-3.303 18.72-8.98l25.534-31.819c4.556-5.677 11.442-8.98 18.721-8.98h94.19"/>
    <path fill="#FF383D" d="M979.983 624.227c0 5.037-4.083 9.119-9.12 9.119-5.036 0-9.119-4.082-9.119-9.119s4.083-9.119 9.119-9.119c5.037 0 9.12 4.082 9.12 9.119z"/>
    <path fill="#FF383D" d="M1160.06 134.629c0-39.013-31.63-70.641-70.64-70.641-39.02 0-70.64 31.628-70.64 70.641 0 39.014 31.62 70.642 70.64 70.642 39.01 0 70.64-31.628 70.64-70.642z" opacity=".15"/>
    <path fill="#FF383D" d="M1036.63 131.159h2.57v5.855l6.26.021v-5.876h2.59v14.106h-2.59v-6.006h-6.26v6.006h-2.57v-14.106zm17.03 2.352v3.524h5.8v2.246h-5.8v3.631h6.45v2.353h-9.02v-14.106h9.02v2.352h-6.45zm13.06-2.352h2.62l5.23 14.106h-2.73l-1.14-3.213h-5.39l-1.19 3.213h-2.67l5.27-14.106zm3.23 8.755l-.9-2.481c-.09-.237-.32-.935-.71-2.095l-.3-.881c-.06.193-.19.598-.41 1.214-.21.616-.43 1.203-.65 1.762l-.93 2.481h3.9zm11.67-8.755c1.37 0 2.6.3 3.67.902 1.08.602 1.93 1.443 2.53 2.525.6 1.074.9 2.295.9 3.663 0 1.361-.3 2.575-.89 3.642-.6 1.06-1.43 1.887-2.52 2.482-1.07.594-2.3.892-3.69.892h-5.24v-14.106h5.24zm-.23 11.753c.93 0 1.74-.194 2.43-.58.7-.394 1.24-.942 1.62-1.644.38-.702.57-1.515.57-2.439 0-.938-.19-1.762-.57-2.471-.38-.716-.92-1.271-1.62-1.665-.69-.401-1.5-.602-2.43-.602h-2.44v9.401h2.44zm12.92-11.753h2.62l5.23 14.106h-2.73l-1.14-3.213h-5.39l-1.19 3.213h-2.67l5.27-14.106zm3.23 8.755l-.9-2.481c-.09-.237-.32-.935-.71-2.095l-.3-.881c-.06.193-.2.598-.41 1.214-.21.616-.43 1.203-.66 1.762l-.92 2.481h3.9zm12.24 5.641c-1.41 0-2.67-.305-3.77-.914-1.1-.608-1.96-1.471-2.57-2.589-.62-1.117-.93-2.399-.93-3.846 0-1.439.31-2.714.92-3.824.61-1.118 1.46-1.981 2.55-2.59 1.11-.608 2.37-.913 3.8-.913 1.17 0 2.25.201 3.22.602.97.401 1.78.981 2.42 1.74.63.752 1.04 1.626 1.22 2.622h-2.87c-.22-.759-.69-1.379-1.41-1.859-.73-.487-1.59-.73-2.6-.73-.91 0-1.72.204-2.41.612-.69.408-1.22.992-1.59 1.751-.37.752-.56 1.622-.56 2.611 0 .995.19 1.869.57 2.621.38.745.91 1.314 1.6 1.708.7.394 1.49.591 2.39.591.98 0 1.83-.236 2.56-.709.74-.48 1.22-1.114 1.45-1.901h2.87c-.16.981-.56 1.855-1.19 2.621-.63.759-1.43 1.35-2.41 1.773-.97.415-2.06.623-3.26.623zm9.2-14.396h2.58v5.855l6.26.021v-5.876h2.58v14.106h-2.58v-6.006h-6.26v6.006h-2.58v-14.106zm17.04 2.352v3.524h5.79v2.246h-5.79v3.631h6.45v2.353h-9.03v-14.106h9.03v2.352h-6.45z"/>
    <path stroke="#FFD6D7" stroke-miterlimit="10" stroke-width="2.4" d="M1089.92 47.904c-48.78 0-88.32 39.542-88.32 88.319 0 48.778 39.54 88.322 88.32 88.322v43.616"/>
    <path fill="#F2AEB0" d="M1097.18 270.365c0-4.012-3.25-7.263-7.26-7.263s-7.26 3.251-7.26 7.263c0 4.012 3.25 7.263 7.26 7.263s7.26-3.251 7.26-7.263z"/>
    <path stroke="#FFB2B1" stroke-linejoin="round" stroke-width="5" d="M975.878 143.124H849.585c-6.118 0-12.005 2.336-16.458 6.531l-28.538 26.884c-4.454 4.195-10.341 6.531-16.459 6.531H674.128"/>
    <path fill="#FF383D" d="M979.981 142.41c0 5.036-4.083 9.119-9.12 9.119-5.036 0-9.119-4.083-9.119-9.119 0-5.037 4.083-9.119 9.119-9.119 5.037 0 9.12 4.082 9.12 9.119z"/>
    <defs>
        <linearGradient id="prefix__paint0_linear" x1="279.582" x2="343.839" y1="572.111" y2="700.497" gradientUnits="userSpaceOnUse">
            <stop stop-color="#FFC8C8"/>
            <stop offset="1" stop-color="#FFF2F5"/>
        </linearGradient>
        <linearGradient id="prefix__paint1_linear" x1="911.212" x2="389.489" y1="168.766" y2="-41.518" gradientUnits="userSpaceOnUse">
            <stop stop-color="#fff"/>
            <stop offset="1" stop-color="#FFD5D5"/>
        </linearGradient>
        <linearGradient id="prefix__paint2_linear" x1="843.971" x2="682.881" y1="73.793" y2="47.221" gradientUnits="userSpaceOnUse">
            <stop stop-color="#FFD3D3"/>
            <stop offset="1" stop-color="#FFF6F6"/>
        </linearGradient>
        <linearGradient id="prefix__paint3_linear" x1="205.39" x2="962.803" y1="348.311" y2="348.311" gradientUnits="userSpaceOnUse">
            <stop stop-color="#FFF8F5"/>
            <stop offset="1" stop-color="#FFDEDE"/>
        </linearGradient>
        <linearGradient id="prefix__paint4_linear" x1="893.04" x2="694.633" y1="529.839" y2="548.125" gradientUnits="userSpaceOnUse">
            <stop stop-color="#FFC2C2"/>
            <stop offset="1" stop-color="#fff"/>
        </linearGradient>
        <filter id="prefix__filter0_d" width="106.445" height="14.675" x="26.52" y="646.933" color-interpolation-filters="sRGB" filterUnits="userSpaceOnUse">
            <feFlood flood-opacity="0" result="BackgroundImageFix"/>
            <feColorMatrix in="SourceAlpha" values="0 0 0 0 0 0 0 0 0 0 0 0 0 0 0 0 0 0 127 0"/>
            <feOffset/>
            <feColorMatrix values="0 0 0 0 0 0 0 0 0 0 0 0 0 0 0 0 0 0 0.1 0"/>
            <feBlend in2="BackgroundImageFix" result="effect1_dropShadow"/>
            <feBlend in="SourceGraphic" in2="effect1_dropShadow" result="shape"/>
        </filter>
    </defs>
</svg>
