<svg width="1920" height="1146" viewBox="0 0 1920 1146" fill="none" xmlns="http://www.w3.org/2000/svg">
<mask id="mask0" mask-type="alpha" maskUnits="userSpaceOnUse" x="0" y="0" width="1920" height="1146">
<rect width="1920" height="1146" fill="#C4C4C4"/>
</mask>
<g mask="url(#mask0)">
<path d="M199.78 908.506C213.117 915.318 262.374 930.448 254.79 899.135C252.89 891.337 247.346 884.765 241.033 880.383C233.804 875.349 226.68 873.607 220.36 867.175C212.66 859.427 204.386 852.425 195.645 846.259C177.696 833.361 157.828 822.33 136.888 820.678C122.203 819.525 99.8437 826.849 98.1154 845.738C95.592 873.236 136.473 867.113 151.022 872.959C164.824 878.483 175.322 891.544 187.59 900.864C191.465 903.802 195.545 906.36 199.78 908.506Z" fill="url(#paint0_linear)"/>
<path d="M1816.16 980.124C1784.8 977.688 1754.63 980.779 1725.37 994.922C1692.76 1010.69 1670.85 1048.08 1661.9 1081.91C1658.57 1094.48 1656.86 1107.98 1660.88 1120.33C1670.19 1148.88 1698.44 1144.75 1720.42 1133.82C1732.81 1127.66 1743.22 1118.44 1753.52 1109.3C1770.61 1094.13 1792.46 1083.05 1806.49 1064.62C1811.19 1058.43 1814.16 1051.7 1820.16 1046.5C1829.5 1038.4 1841.09 1032.65 1850.84 1024.94C1859.16 1018.34 1867.88 1008.81 1865.14 998.568C1862.32 988.063 1849.54 984.318 1838.78 982.728C1831.15 981.583 1823.63 980.693 1816.16 980.124Z" fill="url(#paint1_linear)"/>
</g>
<defs>
<linearGradient id="paint0_linear" x1="255.736" y1="898.295" x2="79.1771" y2="873.419" gradientUnits="userSpaceOnUse">
<stop stop-color="#FFE1E2"/>
<stop offset="1" stop-color="#FFF8F8"/>
</linearGradient>
<linearGradient id="paint1_linear" x1="1801.07" y1="976.796" x2="1691.45" y2="1085.25" gradientUnits="userSpaceOnUse">
<stop stop-color="#FFD3D2"/>
<stop offset="1" stop-color="#FFFAFA"/>
</linearGradient>
</defs>
</svg>
