<svg width="1173" height="805" viewBox="0 0 1173 805" fill="none" xmlns="http://www.w3.org/2000/svg">
<mask id="mask0" mask-type="alpha" maskUnits="userSpaceOnUse" x="0" y="0" width="1173" height="805">
<rect width="1173" height="805" fill="#C4C4C4"/>
</mask>
<g mask="url(#mask0)">
<path d="M542.104 656.386C506.933 676.642 470.065 689.816 428.087 689.644C381.298 689.448 334.915 658.17 305.603 623.842C294.712 611.092 285.188 596.356 282.98 579.763C277.894 541.428 313.105 530.524 344.809 531.01C362.679 531.276 379.962 536.21 397.052 541.102C425.425 549.233 457.066 549.958 483.685 563.58C492.62 568.168 499.837 574.331 509.731 577.041C525.123 581.262 541.84 581.507 557.5 585.043C570.875 588.088 586.35 594.306 588.873 607.736C591.443 621.513 578.653 632.962 566.999 640.792C558.754 646.36 550.485 651.576 542.104 656.386Z" fill="url(#paint0_linear)"/>
<path d="M293.8 202.934C334.798 93.091 458.155 22.9037 574.386 32.08C630.435 36.5138 682.635 61.4873 731.793 88.6394C775.122 112.569 818.026 139.315 852.439 175.273C875.934 199.816 896.142 231.178 912.325 261.11C936.538 305.934 940.394 370.359 877.184 380.993C862.354 383.49 848.466 381.346 833.717 380.104C821.784 379.092 811.529 383.948 799.64 384.932C769.718 387.417 739.371 383.622 710.089 377.65C650.407 365.454 593.113 343.08 532.679 334.378C483.158 327.271 432.73 329.668 384.114 341.439C363.604 346.408 342.399 353.098 321.815 348.44C271.076 336.938 276.467 271.224 284.946 232.929C287.181 222.734 290.14 212.711 293.8 202.934V202.934Z" fill="url(#paint1_linear)"/>
<path d="M793.509 97.3213C805.569 103.82 850.33 118.672 844.062 89.9554C842.491 82.8038 837.558 76.6911 831.873 72.5599C825.365 67.8141 818.882 66.0736 813.235 60.0721C806.354 52.8414 798.931 46.2786 791.063 40.469C774.912 28.3217 756.963 17.8364 737.832 15.8813C724.415 14.5154 703.791 20.7145 701.803 37.9024C698.901 62.9251 736.452 58.2177 749.644 63.8599C762.158 69.1937 771.486 81.3293 782.515 90.0918C785.998 92.8533 789.679 95.2735 793.509 97.3213V97.3213Z" fill="url(#paint2_linear)"/>
<path d="M589.693 110.421C615.29 118.084 636.899 133.631 661.184 144.473C701.615 162.519 749.483 156.549 792.926 165.359C837.226 174.354 874.347 196.075 898.191 234.617C928.983 284.362 946.44 348.196 945.213 407.36C943.855 472.488 915.357 522.483 865.751 563.291C816.174 604.075 756.988 631.904 695.502 649.669C689.57 651.389 683.619 652.987 677.619 654.492C542.845 688.205 351.563 684.71 270.103 551.475C269.357 550.258 268.629 549.037 267.895 547.797C259.204 532.859 252.339 516.939 247.447 500.375C229.958 441.691 224.276 373.593 231.489 312.819C236.331 271.907 261.321 240.008 287.665 209.643C324.678 166.984 374.853 138.366 428.337 121.281C467.943 108.631 513.012 96.5428 554.895 102.601C566.674 104.338 578.306 106.952 589.693 110.421Z" fill="url(#paint3_linear)"/>
<path d="M903.258 525.893C879.601 558.796 851.466 585.944 813.152 603.032C770.445 622.075 715.243 612.635 674.331 593.404C659.132 586.262 644.356 576.75 635.477 562.541C614.977 529.706 642.541 505.307 671.626 492.725C688.016 485.626 705.803 483.021 723.397 480.457C752.612 476.207 781.737 463.87 811.625 465.344C821.665 465.853 830.79 468.503 840.926 466.907C856.695 464.429 872.026 457.785 887.756 454.573C901.202 451.852 917.873 451.159 925.73 462.358C933.774 473.853 926.86 489.538 919.484 501.459C914.278 509.919 908.903 518.068 903.258 525.893Z" fill="url(#paint4_linear)"/>
<path d="M507.432 347.013C507.091 347.013 506.748 346.905 506.455 346.68C506.188 346.471 499.859 341.491 495.026 331.332C490.594 322.015 486.658 306.397 493.066 284.864C497.412 270.257 501.768 259.872 505.609 250.705C512.583 234.073 517.623 222.056 518.03 196.579C518.043 195.707 518.689 194.959 519.643 195.02C520.525 195.035 521.225 195.752 521.212 196.63C520.795 222.715 515.389 235.607 508.545 251.929C504.734 261.02 500.416 271.322 496.117 285.767C484.431 325.023 508.17 343.992 508.412 344.176C509.102 344.715 509.226 345.71 508.689 346.401C508.374 346.804 507.906 347.013 507.432 347.013Z" fill="#000C3E"/>
<path d="M637.799 96.6812C637.561 113.951 623.316 127.762 605.979 127.524C588.645 127.287 574.785 113.095 575.021 95.8222C575.259 78.5526 589.507 64.7445 606.841 64.9791C624.175 65.2168 638.038 79.4116 637.799 96.6812Z" fill="#000C3E"/>
<path d="M504.394 335.842C504.394 335.842 514.051 354.541 551.808 360.307C589.563 366.07 618.749 351.818 648.024 361.619C677.299 371.424 718.907 356.766 726.928 344.419C734.952 332.073 730.001 197.552 706.577 175.53C683.153 153.509 562.792 137.514 537.433 164.531C512.075 191.551 487.55 321.076 504.394 335.842Z" fill="#000C3E"/>
<path d="M718.938 224.549C718.155 281.464 671.209 326.971 614.078 326.191C556.95 325.412 511.273 278.637 512.055 221.721C512.841 164.805 559.788 119.298 616.916 120.078C674.044 120.861 719.721 167.633 718.938 224.549Z" fill="#000C3E"/>
<path d="M530.966 221.267C530.966 221.267 538.198 346.234 623.201 349.626C708.201 353.018 703.915 176.806 672.801 160.77C641.687 144.736 513.587 150.914 530.966 221.267Z" fill="#FFCEB0"/>
<path d="M618.744 245.979C618.744 245.979 635.871 284.091 631.761 286.741C627.65 289.388 615.432 289.223 612.075 286.472C608.719 283.72 612.012 241.83 618.744 245.979Z" fill="#F5A473"/>
<path d="M593.633 259.464C593.522 263.851 589.863 267.319 585.46 267.208C581.056 267.1 577.575 263.455 577.687 259.068C577.795 254.681 581.454 251.213 585.86 251.321C590.264 251.432 593.745 255.077 593.633 259.464Z" fill="#41294A"/>
<path d="M662.01 254.103C661.899 258.49 658.24 261.958 653.836 261.847C649.433 261.739 645.952 258.094 646.064 253.707C646.172 249.32 649.831 245.852 654.237 245.96C658.641 246.07 662.122 249.716 662.01 254.103Z" fill="#41294A"/>
<path d="M596.202 152.989C596.202 152.989 566.118 168.373 560.986 196.033C555.851 223.694 560.525 294.1 528.205 291.631C528.205 291.631 462.451 153.63 596.202 152.989" fill="#41294A"/>
<path d="M612.256 153.208C609.542 155.243 643.679 154.353 663.759 177.464C683.842 200.576 689.881 259.381 692.926 260.402C695.971 261.426 706.257 187.044 684.329 165.289C662.4 143.537 627.7 141.629 612.256 153.208Z" fill="#41294A"/>
<path d="M685.725 265.599C685.725 265.599 693.103 234.096 707.542 244.906C721.98 255.715 709.938 288.736 695.998 292.036C682.062 295.336 678.372 281.921 685.725 265.599Z" fill="#FFCEB0"/>
<path d="M551.746 263.768C551.746 263.768 545.236 232.076 530.505 242.486C515.777 252.896 526.906 286.237 540.747 289.917C554.591 293.594 558.647 280.287 551.746 263.768Z" fill="#FFCEB0"/>
<path d="M650.183 226.073C650.183 226.073 665.195 218.183 674.444 229.519C682.58 239.485 664.011 231.408 657.177 232.698C650.339 233.992 641.31 233.427 650.183 226.073Z" fill="#41294A"/>
<path d="M590.527 228.945C590.527 228.945 575.13 221.829 566.473 233.618C558.859 243.986 576.989 234.974 583.883 235.919C590.775 236.86 599.767 235.836 590.527 228.945Z" fill="#41294A"/>
<path d="M644.732 310.029C644.732 310.029 634.939 295.286 624.344 296.215C613.745 297.147 605.622 310.736 604.197 311.307C604.197 311.307 620.736 319.044 644.732 310.029" fill="#41294A"/>
<path d="M585.172 241.771C571.914 241.771 560.979 252.524 560.794 265.736C560.708 272.221 563.158 278.358 567.702 283.012C572.245 287.662 578.332 290.271 584.845 290.36L585.185 290.363C598.443 290.363 609.379 279.614 609.56 266.402C609.745 253.009 598.959 241.962 585.513 241.775L585.172 241.771ZM585.185 293.533L584.8 293.53C577.438 293.431 570.556 290.477 565.42 285.221C560.285 279.962 557.514 273.027 557.612 265.691C557.819 250.755 570.183 238.602 585.172 238.602L585.557 238.605C600.757 238.814 612.949 251.303 612.742 266.443C612.539 281.379 600.174 293.533 585.185 293.533Z" fill="#FFFCF6"/>
<path d="M654.038 236.28C640.777 236.28 629.841 247.032 629.66 260.245C629.475 273.634 640.264 284.685 653.707 284.868L654.048 284.872C667.309 284.872 678.245 274.122 678.426 260.91C678.515 254.421 676.062 248.285 671.522 243.631C666.978 238.984 660.891 236.372 654.378 236.283L654.038 236.28ZM654.048 288.041L653.666 288.038C638.463 287.829 626.271 275.34 626.478 260.2C626.685 245.264 639.046 233.11 654.038 233.11L654.423 233.113C661.786 233.212 668.668 236.166 673.8 241.422C678.938 246.681 681.71 253.616 681.608 260.951C681.401 275.888 669.037 288.041 654.048 288.041Z" fill="#FFFCF6"/>
<path d="M559.887 261.756C559.705 261.756 559.517 261.725 559.339 261.661L549.135 257.927C548.311 257.623 547.888 256.713 548.191 255.889C548.493 255.071 549.412 254.656 550.233 254.951L560.434 258.682C561.261 258.986 561.681 259.896 561.379 260.72C561.143 261.36 560.536 261.756 559.887 261.756Z" fill="#FFFCF6"/>
<path d="M678.873 254.553C678.196 254.553 677.566 254.119 677.356 253.44C677.092 252.607 677.559 251.716 678.399 251.453L692.345 247.116C693.178 246.85 694.076 247.322 694.337 248.156C694.601 248.993 694.133 249.88 693.293 250.144L679.347 254.483C679.192 254.531 679.029 254.553 678.873 254.553Z" fill="#FFFCF6"/>
<path d="M611.759 182.268C611.759 182.268 611.788 213.882 630.69 219.591C649.59 225.303 698.21 222.783 697.717 215.058C693.265 145.31 660.357 148.819 632.873 139.893C584.673 124.243 545.251 202.651 551.153 221.182C557.055 239.71 597.737 222.409 606.445 219.803C615.151 217.194 610.327 195.712 611.759 182.268" fill="#000C3E"/>
<g opacity="0.210007">
<g opacity="0.210007">
<path opacity="0.210007" d="M563.015 289.039C563.015 289.039 605.895 264.39 624.715 267.836C643.535 271.285 676.565 271.823 678.06 278.55C679.559 285.273 636.185 282.243 622.844 283.536C609.503 284.83 558.287 300.131 563.015 289.039Z" fill="#DB5C5D"/>
</g>
</g>
<path d="M587.013 272.545C586.386 272.545 585.791 272.174 585.539 271.556C585.209 270.748 585.6 269.822 586.414 269.492C590.726 267.743 591.524 266.364 591.531 266.351C591.814 265.52 592.686 265.134 593.526 265.428C594.356 265.711 594.773 266.674 594.49 267.505C594.289 268.088 593.204 270.161 587.611 272.428C587.413 272.507 587.213 272.545 587.013 272.545Z" fill="#DB5C5D"/>
<path d="M652.524 269.189C651.242 269.189 649.078 268.803 645.68 267.151C644.888 266.771 644.56 265.823 644.945 265.034C645.327 264.248 646.284 263.924 647.07 264.305C651.261 266.336 652.82 265.997 652.839 265.997C653.65 265.658 654.516 266.054 654.859 266.86C655.203 267.665 654.764 268.616 653.952 268.961C653.742 269.05 653.291 269.189 652.524 269.189Z" fill="#DB5C5D"/>
<path d="M611.128 266.552C610.323 266.552 609.629 265.947 609.546 265.129C609.457 264.257 610.094 263.477 610.969 263.392L628.042 261.655C628.898 261.547 629.696 262.197 629.785 263.069C629.875 263.94 629.238 264.72 628.363 264.806L611.29 266.543C611.236 266.549 611.182 266.552 611.128 266.552Z" fill="#FFFCF6"/>
<path d="M587.487 127.098C587.255 127.098 587.016 127.047 586.794 126.936C577.767 122.565 572.307 116.33 570.557 108.402C566.676 90.7991 582.46 71.3233 583.135 70.5023C583.695 69.8239 584.694 69.7257 585.371 70.2804C586.052 70.8351 586.154 71.8305 585.597 72.5088C585.441 72.699 570.112 91.6328 573.666 107.73C575.196 114.659 580.08 120.162 588.184 124.089C588.973 124.47 589.304 125.421 588.919 126.207C588.645 126.768 588.079 127.098 587.487 127.098Z" fill="#000C3E"/>
<path d="M623.817 131.809C623.375 131.809 622.936 131.625 622.621 131.27C622.041 130.61 622.105 129.612 622.767 129.032C622.951 128.87 641.196 112.707 640.343 96.2455C639.977 89.1608 636.067 82.9319 628.72 77.7301C628.004 77.2261 627.835 76.2371 628.345 75.5207C628.854 74.8106 629.846 74.6426 630.562 75.1498C638.742 80.9381 643.105 87.9847 643.521 96.0933C644.444 114.089 625.665 130.715 624.864 131.416C624.561 131.679 624.189 131.809 623.817 131.809Z" fill="#000C3E"/>
<path d="M718.447 339.918C717.986 339.918 717.528 339.722 717.213 339.332C716.659 338.657 716.761 337.658 717.442 337.104C717.652 336.932 738.578 319.52 732.517 291.974C730.181 281.355 726.087 269.67 721.75 257.301C714.231 235.851 706.455 213.668 705.822 192.163C705.797 191.285 706.49 190.559 707.368 190.531C708.192 190.559 708.978 191.193 709.004 192.068C709.624 213.084 717.315 235.033 724.753 256.255C729.122 268.719 733.249 280.489 735.625 291.292C742.113 320.788 719.679 339.38 719.449 339.563C719.154 339.801 718.8 339.918 718.447 339.918Z" fill="#000C3E"/>
<path d="M724.098 226.712C724.047 226.712 723.993 226.708 723.939 226.705C723.067 226.62 722.428 225.843 722.513 224.971C725.262 197.238 719.405 174.728 705.109 158.058C682.09 131.225 644.691 128.762 644.319 128.739C643.441 128.689 642.77 127.941 642.824 127.063C642.871 126.191 643.626 125.5 644.501 125.576C644.892 125.598 683.639 128.147 707.527 155.997C722.408 173.349 728.517 196.661 725.679 225.282C725.6 226.103 724.906 226.712 724.098 226.712Z" fill="#000C3E"/>
<path d="M610.154 313.158C610.154 313.158 626.008 302.076 640.167 311.576C640.167 311.576 623.635 317.748 610.154 313.158Z" fill="#DB5C5D"/>
<path d="M620.644 324.536C619.079 324.536 617.733 324.52 616.903 324.507C616.025 324.494 615.325 323.775 615.337 322.897C615.35 322.022 615.951 321.312 616.954 321.337C622.961 321.416 630.139 321.271 631.256 320.849C632.073 320.538 632.996 320.944 633.311 321.759C633.626 322.577 633.225 323.486 632.407 323.803C630.816 324.418 624.911 324.536 620.644 324.536Z" fill="#DB5C5D"/>
<path d="M543.48 281.16C543.337 281.16 543.194 281.141 543.051 281.1C542.204 280.866 541.711 279.994 541.946 279.147C546.299 263.605 534.743 253.598 534.625 253.497C533.957 252.932 533.874 251.931 534.444 251.262C535.01 250.596 536.016 250.514 536.687 251.084C537.228 251.541 549.907 262.525 545.01 280.003C544.813 280.701 544.177 281.16 543.48 281.16Z" fill="#DB5C5D"/>
<path d="M691.92 284.946C691.885 284.946 691.853 284.946 691.815 284.943C690.94 284.886 690.275 284.131 690.329 283.259C691.519 264.865 700.367 255.032 700.746 254.623C701.338 253.976 702.343 253.932 702.989 254.521C703.638 255.111 703.683 256.112 703.094 256.759C703.008 256.854 694.618 266.247 693.508 283.462C693.45 284.302 692.75 284.946 691.92 284.946Z" fill="#DB5C5D"/>
<path d="M659.972 336.691C659.972 336.691 665.031 393.074 658.318 401.99C651.604 410.911 609.084 404.219 597.893 401.99C586.703 399.762 586.681 306.51 588.94 312.809C607.623 364.83 658.684 318.793 659.972 336.691Z" fill="#FFCEB0"/>
<path d="M592.986 342.268C592.986 342.268 623.152 356.713 657.445 339.228C657.445 339.228 660.111 360.231 657.445 365.075C654.782 369.919 600.46 373.38 589.766 349.508C589.766 349.508 589.9 341.231 592.986 342.268" fill="#F5A473"/>
<path d="M428.249 783.956H818.622C818.622 783.956 838.562 445.817 789.662 409.046C740.759 372.272 525.486 390.641 474.804 422.052C424.122 453.462 428.249 783.956 428.249 783.956Z" fill="#FB4C47"/>
<path d="M623.153 395.308C623.153 395.308 608.106 525.287 614.674 543.378C621.237 561.468 612.828 641.676 610.155 652.102C607.48 662.528 526.374 666.956 505.445 658.616C484.515 650.276 510.777 425.464 522.492 383.871C534.211 342.276 621.864 366.782 623.153 395.308Z" fill="#05BA6E"/>
<path d="M384.969 236.058C384.969 236.058 417.598 298.318 440.465 298.895C463.335 299.471 540.454 205.906 568.889 204.942C597.328 203.981 621.747 206.73 621.859 199.978C621.97 193.223 582.307 185.85 582.307 185.85C582.307 185.85 639.667 189.489 627.802 183.238C615.941 176.987 587.515 171.366 587.515 171.366C587.515 171.366 628.741 173.024 629.04 168.631C629.339 164.237 586.118 157.767 586.118 157.767C586.118 157.767 638.712 156.094 629.094 148.885C619.472 141.677 601.365 144.806 552.389 152.258C503.409 159.711 392.602 224.855 384.969 236.058Z" fill="#FFCEB0"/>
<path d="M442.214 233.075C442.214 233.075 494.41 264.051 471.683 299.155C447.483 336.534 448.838 325.43 444.654 340.554C440.467 355.677 509.441 385.132 512.578 398.078C515.715 411.02 483.201 570.21 452.745 563.676C426.235 557.993 278.915 474.701 257.743 391.465C241.332 326.936 375.102 169.097 442.214 233.075Z" fill="#FB4C47"/>
<path d="M578.845 596.179C578.845 596.179 521.011 723.108 542.274 740.105C563.538 757.099 580.672 746.027 599.476 757.058C618.283 768.089 636.323 762.574 651.43 752.975C666.537 743.373 627.22 617.094 610.958 605.071C594.697 593.044 581.776 589.583 578.845 596.179Z" fill="white"/>
<path d="M771.001 400.013C771.001 400.013 802.099 403.795 826.51 448.333C844.824 481.749 880.304 677.008 826.51 704.83C772.716 732.649 722.261 718.097 702.736 699.349C683.209 680.601 717.95 583.981 741.108 576.769C764.268 569.559 771.001 400.013 771.001 400.013Z" fill="#FB4C47"/>
<path d="M781.071 397.02C781.071 397.02 782.525 387.993 737.742 368.685C702.005 353.276 671.393 379.282 616.88 382.081C562.368 384.883 567.287 363.356 528.727 373.36C469.223 388.795 516.599 427.654 535.772 432.016C554.945 436.378 619.181 543.961 781.071 397.02Z" fill="#05BA6E"/>
<path d="M624.78 288.53C624.78 288.53 624.614 292.207 626.733 292.54C628.852 292.873 632.769 291.693 631.76 286.739C631.76 286.739 626.447 288.441 624.78 288.53Z" fill="white"/>
<path d="M845.514 593.111C845.365 593.111 845.212 593.101 845.059 593.079C843.589 592.87 842.501 591.691 842.345 590.286C839.695 587.234 821.899 580.84 810.028 576.573C786.509 568.119 775.962 563.938 773.693 559.364C771.768 555.487 772.63 549.895 773.722 542.817C775.449 531.615 777.603 517.667 770.463 504.233C758.134 481.033 759.308 446.62 759.366 445.168C759.436 443.419 760.953 442.017 762.665 442.122C764.421 442.189 765.79 443.663 765.726 445.409C765.71 445.752 764.565 479.587 776.089 501.266C784.212 516.558 781.784 532.29 780.012 543.778C779.162 549.277 778.364 554.473 779.398 556.555C781.326 559.519 799.898 566.195 812.186 570.611C839.879 580.564 849.495 584.568 848.658 590.391C848.432 591.973 847.07 593.111 845.514 593.111Z" fill="#B31B1F"/>
<path d="M762.5 567.048C762.223 567.048 761.943 567.013 761.66 566.937C751.148 564.081 734.816 561.108 734.654 561.076C732.923 560.766 731.777 559.114 732.092 557.393C732.407 555.668 734.059 554.508 735.793 554.841C736.47 554.961 752.554 557.89 763.334 560.819C765.03 561.282 766.029 563.023 765.567 564.712C765.182 566.123 763.9 567.048 762.5 567.048Z" fill="#B31B1F"/>
<path d="M819.653 723.844C819.603 723.844 819.555 723.844 819.507 723.841C760.613 721.181 701.936 696.187 698.763 672.412C697.768 664.941 697.048 661.204 696.603 659.356C695.413 658.766 694.691 657.504 694.904 656.125C695.308 653.513 697.083 652.588 698.493 652.588H698.528C701.732 652.623 702.795 654.493 705.073 671.579C707.535 690.034 760.957 714.851 819.793 717.507C821.55 717.587 822.908 719.067 822.829 720.817C822.752 722.519 821.343 723.844 819.653 723.844Z" fill="#B31B1F"/>
<path d="M714.077 667.74C713.845 667.74 713.609 667.714 713.371 667.663C711.659 667.277 710.584 665.578 710.972 663.869C711.109 663.257 725.025 602.142 738.032 558.178C738.529 556.498 740.31 555.535 741.984 556.035C743.67 556.53 744.634 558.292 744.135 559.972C731.185 603.739 717.316 664.658 717.179 665.27C716.842 666.741 715.531 667.74 714.077 667.74Z" fill="#B31B1F"/>
<path d="M438 535.004C437.845 535.004 437.682 534.991 437.523 534.969C435.786 534.709 434.59 533.092 434.851 531.365C435.178 529.177 443.034 477.524 453.814 453.353C464.294 429.865 469.659 406.049 469.713 405.811C470.088 404.103 471.784 403.035 473.509 403.402C475.224 403.783 476.305 405.478 475.924 407.187C475.704 408.182 470.365 431.862 459.63 455.931C449.2 479.315 441.22 531.777 441.141 532.303C440.905 533.878 439.547 535.004 438 535.004Z" fill="#B31B1F"/>
<path d="M389.497 354.66C381.028 354.66 371.536 354.146 361.088 352.821C359.344 352.599 358.11 351.014 358.332 349.277C358.552 347.54 360.184 346.332 361.889 346.532C393.707 350.571 416.31 346.852 427.961 344.32C422.158 342.471 414.028 340.671 405.915 341.112C387.658 341.967 360.944 325.719 359.815 325.021C358.32 324.102 357.858 322.149 358.781 320.659C359.704 319.17 361.667 318.704 363.159 319.629C363.42 319.788 389.351 335.571 405.587 334.778C421.054 333.967 439.371 340.829 441.035 343.774C441.63 344.824 441.582 346.187 440.905 347.185C440.275 348.108 438.97 348.662 437.825 348.593C437.322 348.65 435.833 349.005 434.385 349.347C427.427 351.008 412.091 354.657 389.497 354.66Z" fill="#B31B1F"/>
<path d="M467.708 286.531C466.525 286.531 465.389 285.871 464.842 284.743C464.762 284.581 456.817 268.504 443.289 262.132C427.93 254.895 410.561 229.672 409.829 228.604C408.84 227.155 409.215 225.181 410.666 224.198C412.123 223.215 414.099 223.592 415.086 225.032C415.257 225.279 432.213 249.896 446.012 256.398C461.603 263.749 470.212 281.243 470.572 281.982C471.335 283.561 470.671 285.45 469.089 286.211C468.644 286.429 468.173 286.531 467.708 286.531Z" fill="#B31B1F"/>
<path d="M615.497 470.75C615.379 470.75 615.259 470.737 615.141 470.709C614.285 470.516 613.747 469.663 613.944 468.813C614.021 468.477 621.609 435.428 623.83 418.64C627.289 392.466 615.523 383.337 615.405 383.248C614.702 382.722 614.555 381.733 615.077 381.032C615.599 380.329 616.585 380.18 617.292 380.696C617.842 381.099 630.709 390.865 626.983 419.052C624.746 435.992 617.123 469.187 617.047 469.517C616.878 470.256 616.223 470.75 615.497 470.75Z" fill="#08824F"/>
<path d="M521.663 423.084L518.503 422.72C518.503 422.72 520.972 401.32 522.261 390.799C523.562 380.186 526.601 372.939 526.731 372.635C527.072 371.824 528.007 371.456 528.815 371.789C529.623 372.131 530.002 373.063 529.662 373.868C529.63 373.938 526.661 381.039 525.42 391.185C524.132 401.697 521.663 423.081 521.663 423.084Z" fill="#08824F"/>
<path d="M612.008 774.501C593.863 774.501 583.885 773.905 570.076 773.081C552.312 772.019 527.988 770.567 471.143 769.686C469.387 769.66 467.984 768.221 468.012 766.468C468.041 764.718 469.587 763.26 471.242 763.346C528.227 764.227 552.634 765.688 570.455 766.754C584.155 767.568 594.05 768.161 612.008 768.161C634.487 768.161 654.653 765.707 674.157 763.336C691.278 761.251 707.447 759.285 724.778 758.902C761.747 758.09 789.374 758.899 789.647 758.902C791.404 758.959 792.785 760.42 792.731 762.167C792.676 763.916 791.194 765.213 789.457 765.241C789.183 765.232 761.712 764.42 724.921 765.241C707.906 765.616 691.886 767.565 674.927 769.629C655.235 772.025 634.875 774.501 612.008 774.501Z" fill="#B31B1F"/>
<path d="M756.143 732.205C754.562 732.205 752.978 731.499 751.597 729.419C747.298 722.949 746 722.417 737.689 723.691C730.171 724.861 727.202 719.551 725.236 716.042C724.581 714.869 723.957 713.763 723.413 713.335C721.949 712.184 718.293 713.566 716.747 714.416L715.204 711.645C715.879 711.271 721.873 708.086 725.386 710.847C726.426 711.668 727.161 712.98 728.014 714.495C729.913 717.877 731.879 721.361 737.202 720.559C746.716 719.095 749.258 720.163 754.25 727.669C755.574 729.666 756.719 729.394 760.248 727.343C762.927 725.777 766.99 723.415 770.019 727.631L767.435 729.476C766.255 727.844 765.186 728.138 761.851 730.078C760.257 731.007 758.202 732.205 756.143 732.205Z" fill="white"/>
<path d="M719.124 582.915C719.124 582.915 643.125 555.537 610.153 569.541C577.181 583.543 550.009 619.641 555.042 622.028C560.076 624.418 587.012 603.605 587.012 603.605C587.012 603.605 559.544 631.259 564.638 634.026C569.732 636.794 596.201 622.028 596.201 622.028C596.201 622.028 577.725 641.707 585.66 643.213C593.595 644.718 610.608 628.504 628.349 627.896C646.094 627.284 668.455 641.254 690.638 645.188C712.818 649.118 719.124 582.915 719.124 582.915Z" fill="#FFCEB0"/>
<path d="M833.818 568.723C833.621 568.723 833.423 568.704 833.223 568.666C833 568.628 810.62 564.412 783.865 558.992C782.143 558.643 781.03 556.969 781.38 555.254C781.727 553.539 783.403 552.43 785.131 552.782C811.842 558.19 834.184 562.396 834.407 562.44C836.134 562.764 837.267 564.422 836.939 566.143C836.653 567.664 835.317 568.723 833.818 568.723Z" fill="#B31B1F"/>
<path fill-rule="evenodd" clip-rule="evenodd" d="M621.41 70.5129C620.579 70.5129 619.676 70.6091 618.697 70.8016C616.312 71.2785 614.767 72.4333 613.839 74.4373C609.702 83.3573 618.424 104.603 624.656 117.154C628.507 103.23 633.122 79.9558 626.601 72.6216C625.345 71.2116 623.636 70.5129 621.41 70.5129ZM624.858 127.583C624.952 127.6 625.047 127.613 625.142 127.621C625.474 127.748 625.828 127.813 626.186 127.813C626.517 127.813 626.849 127.759 627.172 127.642C631.422 126.098 668.844 112.116 673.505 96.0036C674.626 92.1293 673.837 88.3095 671.225 84.9624C666.782 79.2641 661.982 78.5863 658.736 79.0172C649.524 80.2411 640.458 92.0973 633.808 103.361C636.16 90.5313 637.066 75.7162 630.922 68.8059C628.755 66.3667 624.673 63.7518 617.568 65.1618C613.398 65.9902 610.294 68.3666 608.598 72.0275C602.322 85.5703 616.754 114.732 621.571 123.781C615.503 124.947 609.4 125.211 603.563 124.815C590.982 123.963 579.831 120.066 573.174 115.802L570.801 119.507C578.167 124.225 590.054 128.311 603.266 129.205C610.201 129.675 617.556 129.268 624.858 127.583ZM660.327 84.6612C660.054 84.6612 659.777 84.6779 659.5 84.7198C649.744 86.0126 637.957 106.626 631.725 119.667C644.68 114.233 665.228 103.852 667.958 94.4137C668.571 92.2883 668.159 90.4098 666.668 88.4936C664.661 85.9205 662.582 84.6612 660.327 84.6612Z" fill="#FFD310"/>
<path d="M198.27 179.088H311.542C318.796 179.088 325.661 182.369 330.217 188.014L363.46 229.2C368.174 235.041 375.351 238.34 382.854 238.116L595.85 231.738" stroke="#FFB2B1" stroke-width="5" stroke-linejoin="round"/>
<path d="M210.361 179.601C210.361 184.619 206.279 188.686 201.243 188.686C196.207 188.686 192.124 184.619 192.124 179.601C192.124 174.584 196.207 170.517 201.243 170.517C206.279 170.517 210.361 174.584 210.361 179.601Z" fill="#FF383D"/>
<path d="M12.0007 179.702C12.0007 140.837 43.625 109.33 82.6348 109.33C121.645 109.33 153.266 140.837 153.266 179.702C153.266 218.566 121.645 250.073 82.6348 250.073C43.625 250.073 12.0007 218.566 12.0007 179.702Z" fill="#FFE1E2"/>
<path d="M82.3303 92.1531C131.103 92.1531 170.64 131.544 170.64 180.135C170.64 228.725 131.103 268.119 82.3303 268.119V311.568" stroke="#FFD6D7" stroke-width="2.4" stroke-miterlimit="10"/>
<path d="M75.0679 313.763C75.0679 309.766 78.3185 306.528 82.3301 306.528C86.3418 306.528 89.5924 309.766 89.5924 313.763C89.5924 317.76 86.3418 320.998 82.3301 320.998C78.3185 320.998 75.0679 317.76 75.0679 313.763Z" fill="#F2AEB0"/>
<path d="M54.158 177.626V181.375H59.572V183.61H54.158V189.378H51.5798V175.274H60.6033V177.626H54.158ZM65.3943 177.626V181.15H71.1843V183.395H65.3943V187.026H71.8396V189.378H62.8162V175.274H71.8396V177.626H65.3943ZM76.072 175.274L78.113 180.494C78.421 181.318 78.7898 182.349 79.2195 183.588C79.6563 184.82 79.9607 185.701 80.1326 186.231C80.3259 185.701 80.6375 184.813 81.0671 183.567C81.504 182.321 81.8764 181.289 82.1843 180.473L84.2039 175.274H86.9539L81.4753 189.378H78.822L73.2683 175.274H76.072ZM91.3259 177.626V181.15H97.116V183.395H91.3259V187.026H97.7712V189.378H88.7478V175.274H97.7712V177.626H91.3259ZM100.5 175.274H106.096C107.815 175.274 109.119 175.657 110.007 176.423C110.902 177.182 111.349 178.267 111.349 179.678C111.349 180.659 111.12 181.497 110.662 182.192C110.211 182.879 109.573 183.377 108.75 183.685L111.435 189.378H108.556L106.182 184.125H103.078V189.378H100.5V175.274ZM106.096 181.88C106.934 181.88 107.568 181.68 107.998 181.279C108.427 180.87 108.642 180.344 108.642 179.699C108.642 179.055 108.424 178.536 107.987 178.142C107.557 177.741 106.927 177.54 106.096 177.54H103.078V181.88H106.096Z" fill="#FF383D"/>
<path d="M651.77 292.959H820.609C829.41 292.959 837.505 297.775 841.703 305.51L872.936 363.056C877.135 370.791 885.229 375.608 894.03 375.608H976.84" stroke="#FFB2B1" stroke-width="5" stroke-linejoin="round"/>
<path d="M980.944 375.509C980.944 380.527 976.862 384.594 971.826 384.594C966.79 384.594 962.708 380.527 962.708 375.509C962.708 370.492 966.79 366.425 971.826 366.425C976.862 366.425 980.944 370.492 980.944 375.509Z" fill="#FF383D"/>
<path opacity="0.15" d="M1006.73 393.902C1006.73 355.037 1038.36 323.531 1077.37 323.531C1116.38 323.531 1148 355.037 1148 393.902C1148 432.767 1116.38 464.273 1077.37 464.273C1038.36 464.273 1006.73 432.767 1006.73 393.902Z" fill="#FF383D"/>
<path d="M1043.72 374.496H1049.32C1051.04 374.496 1052.34 374.879 1053.23 375.646C1054.12 376.405 1054.57 377.49 1054.57 378.901C1054.57 379.882 1054.34 380.72 1053.88 381.414C1053.43 382.102 1052.79 382.599 1051.97 382.907L1054.66 388.601H1051.78L1049.4 383.348H1046.3V388.601H1043.72V374.496ZM1049.32 381.103C1050.15 381.103 1050.79 380.902 1051.22 380.501C1051.65 380.093 1051.86 379.567 1051.86 378.922C1051.86 378.278 1051.64 377.758 1051.21 377.364C1050.78 376.963 1050.15 376.763 1049.32 376.763H1046.3V381.103H1049.32ZM1056.93 374.496H1059.51V383.412C1059.51 384.501 1059.82 385.292 1060.43 385.786C1061.05 386.28 1061.83 386.528 1062.79 386.528C1063.8 386.528 1064.6 386.266 1065.19 385.743C1065.79 385.213 1066.09 384.436 1066.09 383.412V374.496H1068.66V383.52C1068.66 384.68 1068.41 385.665 1067.9 386.474C1067.39 387.276 1066.69 387.881 1065.81 388.289C1064.92 388.69 1063.92 388.891 1062.79 388.891C1061.64 388.891 1060.63 388.687 1059.75 388.279C1058.87 387.863 1058.18 387.254 1057.67 386.452C1057.18 385.643 1056.93 384.666 1056.93 383.52V374.496ZM1083.18 374.496V388.601H1080.76L1074.27 378.944V388.601H1071.71V374.496H1074.14L1080.63 384.175V374.496H1083.18ZM1097.81 374.496V388.601H1095.39L1088.9 378.944V388.601H1086.34V374.496H1088.77L1095.26 384.175V374.496H1097.81ZM1102.59 374.496L1104.26 377.354C1104.67 378.07 1105.03 378.732 1105.35 379.341C1105.66 379.943 1105.86 380.322 1105.93 380.48C1106.01 380.315 1106.21 379.957 1106.51 379.405C1106.82 378.847 1107.2 378.163 1107.65 377.354L1109.32 374.496H1112.2L1107.21 382.95V388.601H1104.63V382.95L1099.61 374.496H1102.59ZM1062.75 403.496V417.601H1060.34L1053.85 407.944V417.601H1051.29V403.496H1053.72L1060.21 413.175V403.496H1062.75ZM1080.01 410.543C1080.01 411.961 1079.68 413.229 1079.04 414.346C1078.4 415.463 1077.5 416.333 1076.37 416.956C1075.23 417.579 1073.96 417.891 1072.55 417.891C1071.14 417.891 1069.87 417.583 1068.74 416.967C1067.61 416.351 1066.73 415.485 1066.1 414.367C1065.46 413.25 1065.14 411.983 1065.14 410.565C1065.14 409.14 1065.46 407.872 1066.1 406.762C1066.73 405.645 1067.61 404.775 1068.74 404.152C1069.87 403.529 1071.15 403.217 1072.57 403.217C1073.98 403.217 1075.25 403.529 1076.38 404.152C1077.51 404.775 1078.4 405.641 1079.04 406.751C1079.68 407.854 1080.01 409.118 1080.01 410.543ZM1077.28 410.543C1077.28 409.584 1077.08 408.731 1076.68 407.987C1076.28 407.242 1075.71 406.662 1074.99 406.246C1074.27 405.824 1073.47 405.612 1072.57 405.612C1071.66 405.612 1070.85 405.824 1070.12 406.246C1069.41 406.662 1068.85 407.242 1068.44 407.987C1068.03 408.731 1067.83 409.591 1067.83 410.565C1067.83 411.517 1068.03 412.369 1068.44 413.121C1068.85 413.866 1069.41 414.446 1070.12 414.862C1070.85 415.277 1071.66 415.485 1072.57 415.485C1073.47 415.485 1074.27 415.277 1074.99 414.862C1075.71 414.446 1076.28 413.866 1076.68 413.121C1077.08 412.369 1077.28 411.51 1077.28 410.543ZM1081.85 407.503C1081.85 406.637 1082.06 405.881 1082.48 405.237C1082.9 404.592 1083.49 404.094 1084.25 403.743C1085.02 403.392 1085.9 403.217 1086.89 403.217C1087.87 403.217 1088.75 403.389 1089.51 403.733C1090.28 404.076 1090.88 404.563 1091.31 405.194C1091.74 405.824 1091.95 406.558 1091.95 407.396H1089.3C1089.28 406.794 1089.04 406.311 1088.58 405.945C1088.12 405.573 1087.52 405.387 1086.76 405.387C1086.08 405.387 1085.52 405.559 1085.11 405.903C1084.7 406.239 1084.5 406.676 1084.5 407.213C1084.5 407.743 1084.68 408.133 1085.03 408.384C1085.4 408.635 1085.88 408.832 1086.48 408.975L1088.79 409.544C1089.85 409.795 1090.7 410.257 1091.35 410.93C1092 411.596 1092.33 412.455 1092.33 413.508C1092.33 414.389 1092.11 415.159 1091.66 415.818C1091.23 416.476 1090.6 416.988 1089.79 417.354C1088.99 417.712 1088.06 417.891 1086.99 417.891C1085.41 417.891 1084.12 417.508 1083.12 416.741C1082.13 415.968 1081.6 414.919 1081.51 413.594H1084.16C1084.19 414.253 1084.47 414.772 1084.99 415.152C1085.51 415.524 1086.19 415.71 1087.03 415.71C1087.84 415.71 1088.48 415.538 1088.93 415.195C1089.39 414.851 1089.62 414.378 1089.62 413.777C1089.62 413.261 1089.46 412.871 1089.14 412.606C1088.82 412.341 1088.39 412.144 1087.87 412.015L1085.51 411.445C1084.35 411.166 1083.45 410.701 1082.81 410.049C1082.17 409.39 1081.85 408.542 1081.85 407.503ZM1097.25 405.849V409.372H1103.04V411.617H1097.25V415.248H1103.69V417.601H1094.67V403.496H1103.69V405.849H1097.25Z" fill="#FF383D"/>
<path d="M1082.03 306.129C1130.8 306.129 1170.34 345.52 1170.34 394.113C1170.34 442.704 1130.8 482.095 1082.03 482.095V525.546" stroke="#FFD6D7" stroke-width="2.4" stroke-miterlimit="10"/>
<path d="M1074.77 527.741C1074.77 523.744 1078.02 520.505 1082.03 520.505C1086.04 520.505 1089.29 523.744 1089.29 527.741C1089.29 531.737 1086.04 534.976 1082.03 534.976C1078.02 534.976 1074.77 531.737 1074.77 527.741Z" fill="#F2AEB0"/>
<path opacity="0.15" d="M12.0007 663.894C12.0007 625.029 43.625 593.523 82.6348 593.523C121.645 593.523 153.266 625.029 153.266 663.894C153.266 702.759 121.645 734.265 82.6348 734.265C43.625 734.265 12.0007 702.759 12.0007 663.894Z" fill="#FF383D"/>
<g filter="url(#filter0_d)">
<path d="M32.822 660.462C34.197 660.462 35.4216 660.763 36.4958 661.365C37.5772 661.966 38.4187 662.808 39.0203 663.889C39.6218 664.963 39.9226 666.184 39.9226 667.552C39.9226 668.913 39.6254 670.127 39.031 671.194C38.4366 672.254 37.5987 673.081 36.5173 673.675C35.4431 674.27 34.2113 674.567 32.822 674.567H27.5798V660.462H32.822ZM32.5964 672.214C33.5203 672.214 34.3295 672.021 35.0242 671.634C35.726 671.24 36.2667 670.692 36.6462 669.991C37.0258 669.289 37.2156 668.476 37.2156 667.552C37.2156 666.614 37.0258 665.79 36.6462 665.081C36.2667 664.365 35.726 663.81 35.0242 663.416C34.3295 663.015 33.5203 662.815 32.5964 662.815H30.158V672.214H32.5964ZM42.9412 660.462L44.6169 663.32C45.0251 664.036 45.3868 664.698 45.7019 665.307C46.017 665.909 46.2104 666.288 46.282 666.446C46.3679 666.281 46.5613 665.923 46.8621 665.371C47.17 664.813 47.5496 664.129 48.0007 663.32L49.6765 660.462H52.5554L47.5603 668.916V674.567H44.9822V668.916L39.9656 660.462H42.9412ZM60.1394 660.462C61.6218 660.462 62.7856 660.881 63.6306 661.719C64.4828 662.557 64.9089 663.678 64.9089 665.081C64.9089 665.991 64.7156 666.797 64.3289 667.498C63.9421 668.193 63.3835 668.737 62.6531 669.131C61.9298 669.525 61.0776 669.722 60.0964 669.722H56.9275V674.567H54.3494V660.462H60.1394ZM59.613 667.509C60.4796 667.509 61.1277 667.276 61.5574 666.811C61.9942 666.338 62.2126 665.747 62.2126 665.038C62.2126 664.394 61.9942 663.85 61.5574 663.406C61.1277 662.954 60.5011 662.729 59.6775 662.729H56.9275V667.509H59.613ZM66.6277 664.469C66.6277 663.603 66.8354 662.847 67.2507 662.202C67.6733 661.558 68.2641 661.06 69.0232 660.709C69.7895 660.358 70.6703 660.183 71.6658 660.183C72.6469 660.183 73.5206 660.355 74.2869 660.699C75.0531 661.042 75.6511 661.529 76.0808 662.159C76.5105 662.79 76.7253 663.524 76.7253 664.362H74.072C74.0577 663.76 73.8178 663.277 73.3523 662.911C72.894 662.539 72.2888 662.353 71.5369 662.353C70.8494 662.353 70.2979 662.525 69.8826 662.868C69.4744 663.205 69.2703 663.642 69.2703 664.179C69.2703 664.709 69.4493 665.099 69.8074 665.35C70.1726 665.601 70.656 665.798 71.2576 665.941L73.5671 666.51C74.6199 666.761 75.4721 667.223 76.1238 667.896C76.7755 668.562 77.1013 669.421 77.1013 670.474C77.1013 671.355 76.8793 672.125 76.4353 672.784C75.9985 673.442 75.3754 673.954 74.5662 674.32C73.7641 674.678 72.8295 674.857 71.7625 674.857C70.1798 674.857 68.8907 674.474 67.8953 673.707C66.907 672.934 66.3699 671.885 66.2839 670.56H68.9373C68.9659 671.219 69.2416 671.738 69.7644 672.117C70.2872 672.49 70.9675 672.676 71.8054 672.676C72.6147 672.676 73.2485 672.504 73.7068 672.16C74.1651 671.817 74.3943 671.344 74.3943 670.742C74.3943 670.227 74.2332 669.837 73.9109 669.572C73.5886 669.307 73.1661 669.11 72.6433 668.981L70.28 668.411C69.1199 668.132 68.2211 667.667 67.5837 667.015C66.9464 666.356 66.6277 665.507 66.6277 664.469ZM90.905 660.462V674.567H88.488L81.9998 664.909V674.567H79.4431V660.462H81.8708L88.3591 670.141V660.462H90.905ZM108.157 667.509C108.157 668.927 107.835 670.195 107.19 671.312C106.546 672.429 105.654 673.299 104.515 673.922C103.384 674.545 102.113 674.857 100.702 674.857C99.2911 674.857 98.0199 674.549 96.8884 673.933C95.7641 673.317 94.8832 672.451 94.2458 671.333C93.6085 670.216 93.2898 668.949 93.2898 667.531C93.2898 666.105 93.6085 664.838 94.2458 663.728C94.8832 662.611 95.7641 661.741 96.8884 661.117C98.0199 660.494 99.2983 660.183 100.723 660.183C102.134 660.183 103.402 660.494 104.526 661.117C105.658 661.741 106.546 662.607 107.19 663.717C107.835 664.82 108.157 666.084 108.157 667.509ZM105.428 667.509C105.428 666.549 105.228 665.697 104.827 664.952C104.426 664.208 103.864 663.628 103.14 663.212C102.424 662.79 101.619 662.578 100.723 662.578C99.8139 662.578 98.9975 662.79 98.2742 663.212C97.558 663.628 96.9958 664.208 96.5876 664.952C96.1794 665.697 95.9753 666.557 95.9753 667.531C95.9753 668.483 96.1794 669.335 96.5876 670.087C96.9958 670.832 97.558 671.412 98.2742 671.827C98.9975 672.243 99.8139 672.451 100.723 672.451C101.619 672.451 102.424 672.243 103.14 671.827C103.864 671.412 104.426 670.832 104.827 670.087C105.228 669.335 105.428 668.476 105.428 667.509ZM113.109 662.815V666.338H118.899V668.583H113.109V672.214H119.554V674.567H110.531V660.462H119.554V662.815H113.109ZM126.161 660.462H128.782L134.013 674.567H131.285L130.146 671.355H124.754L123.561 674.567H120.897L126.161 660.462ZM129.394 669.217L128.492 666.736C128.406 666.499 128.17 665.801 127.783 664.641L127.482 663.76C127.425 663.953 127.289 664.358 127.074 664.974C126.859 665.59 126.641 666.177 126.419 666.736L125.495 669.217H129.394Z" fill="#FF383D"/>
</g>
<path d="M82.3325 576.497C131.105 576.497 170.643 615.887 170.643 664.478C170.643 713.072 131.105 752.462 82.3325 752.462V795.911" stroke="#FFD6D7" stroke-width="2.4" stroke-miterlimit="10"/>
<path d="M75.0701 798.107C75.0701 794.11 78.3207 790.872 82.3323 790.872C86.344 790.872 89.5946 794.11 89.5946 798.107C89.5946 802.101 86.344 805.342 82.3323 805.342C78.3207 805.342 75.0701 802.101 75.0701 798.107Z" fill="#F2AEB0"/>
<path d="M187.74 676.316H366.056C375.677 676.316 384.368 670.57 388.138 661.718L444.53 529.289C448.299 520.437 456.99 514.691 466.611 514.691H673.809" stroke="#FFB2B1" stroke-width="5" stroke-linejoin="round"/>
<path d="M202.987 676.721C202.987 681.738 198.904 685.805 193.868 685.805C188.832 685.805 184.75 681.738 184.75 676.721C184.75 671.703 188.832 667.636 193.868 667.636C198.904 667.636 202.987 671.703 202.987 676.721Z" fill="#FF383D"/>
<path opacity="0.15" d="M160.268 422.794C160.268 383.93 128.644 352.423 89.6338 352.423C50.624 352.423 18.9998 383.93 18.9998 422.794C18.9998 461.659 50.624 493.166 89.6338 493.166C128.644 493.166 160.268 461.659 160.268 422.794Z" fill="#FF383D"/>
<path d="M59.2026 408.708H54.938V420.482H52.3599V408.708H48.0522V406.377H59.2026V408.708ZM61.1147 406.377H63.6929V412.232L69.9448 412.253V406.377H72.5337V420.482H69.9448V414.477H63.6929V420.482H61.1147V406.377ZM75.5737 406.377H81.1704C82.8892 406.377 84.1925 406.76 85.0806 407.527C85.9757 408.286 86.4233 409.371 86.4233 410.781C86.4233 411.763 86.1942 412.601 85.7358 413.295C85.2847 413.983 84.6473 414.48 83.8237 414.788L86.5093 420.482H83.6304L81.2563 415.229H78.1519V420.482H75.5737V406.377ZM81.1704 412.984C82.0083 412.984 82.6421 412.783 83.0718 412.382C83.5015 411.974 83.7163 411.448 83.7163 410.803C83.7163 410.158 83.4979 409.639 83.061 409.245C82.6313 408.844 82.0011 408.644 81.1704 408.644H78.1519V412.984H81.1704ZM102.87 413.424C102.87 414.842 102.547 416.11 101.903 417.227C101.258 418.344 100.367 419.214 99.228 419.837C98.0965 420.46 96.8254 420.772 95.4146 420.772C94.0037 420.772 92.7326 420.464 91.6011 419.848C90.4767 419.232 89.5959 418.365 88.9585 417.248C88.3211 416.131 88.0024 414.864 88.0024 413.446C88.0024 412.02 88.3211 410.753 88.9585 409.643C89.5959 408.526 90.4767 407.656 91.6011 407.032C92.7326 406.409 94.0109 406.098 95.436 406.098C96.8468 406.098 98.1144 406.409 99.2388 407.032C100.37 407.656 101.258 408.522 101.903 409.632C102.547 410.735 102.87 411.999 102.87 413.424ZM100.141 413.424C100.141 412.464 99.9406 411.612 99.5396 410.867C99.1385 410.123 98.5763 409.543 97.853 409.127C97.1369 408.705 96.3312 408.493 95.436 408.493C94.5265 408.493 93.7101 408.705 92.9868 409.127C92.2707 409.543 91.7085 410.123 91.3003 410.867C90.8921 411.612 90.688 412.472 90.688 413.446C90.688 414.398 90.8921 415.25 91.3003 416.002C91.7085 416.747 92.2707 417.327 92.9868 417.742C93.7101 418.158 94.5265 418.365 95.436 418.365C96.3312 418.365 97.1369 418.158 97.853 417.742C98.5763 417.327 99.1385 416.747 99.5396 416.002C99.9406 415.25 100.141 414.391 100.141 413.424ZM108.456 406.377H111.077L116.308 420.482H113.58L112.441 417.27H107.048L105.856 420.482H103.192L108.456 406.377ZM111.689 415.132L110.787 412.651C110.701 412.414 110.464 411.716 110.078 410.556L109.777 409.675C109.72 409.868 109.583 410.273 109.369 410.889C109.154 411.505 108.935 412.092 108.713 412.651L107.79 415.132H111.689ZM126.707 408.708H122.442V420.482H119.864V408.708H115.556V406.377H126.707V408.708ZM74.6821 435.377C76.1646 435.377 77.3283 435.796 78.1733 436.634C79.0256 437.472 79.4517 438.593 79.4517 439.996C79.4517 440.906 79.2583 441.712 78.8716 442.413C78.4849 443.108 77.9263 443.652 77.1958 444.046C76.4725 444.44 75.6203 444.637 74.6392 444.637H71.4702V449.482H68.8921V435.377H74.6821ZM74.1558 442.424C75.0223 442.424 75.6704 442.191 76.1001 441.726C76.5369 441.253 76.7554 440.662 76.7554 439.953C76.7554 439.309 76.5369 438.765 76.1001 438.321C75.6704 437.869 75.0438 437.644 74.2202 437.644H71.4702V442.424H74.1558ZM84.3716 435.377H86.9927L92.2241 449.482H89.4956L88.3569 446.27H82.9644L81.772 449.482H79.1079L84.3716 435.377ZM87.605 444.132L86.7026 441.651C86.6167 441.414 86.3804 440.716 85.9937 439.556L85.6929 438.675C85.6356 438.868 85.4995 439.273 85.2847 439.889C85.0698 440.505 84.8514 441.092 84.6294 441.651L83.7056 444.132H87.605ZM94.0288 449.482V435.377H96.6069V449.482H94.0288ZM111.098 435.377V449.482H108.681L102.193 439.824V449.482H99.6362V435.377H102.064L108.552 445.056V435.377H111.098Z" fill="#FF383D"/>
<path d="M90.9726 334.782C42.2003 334.782 2.6626 374.173 2.6626 422.767C2.6626 471.358 42.2003 510.748 90.9726 510.748V554.2" stroke="#FFD6D7" stroke-width="2.4" stroke-miterlimit="10"/>
<path d="M98.4327 556.474C98.4327 552.477 95.1821 549.239 91.1705 549.239C87.1615 549.239 83.9082 552.477 83.9082 556.474C83.9082 560.471 87.1615 563.709 91.1705 563.709C95.1821 563.709 98.4327 560.471 98.4327 556.474Z" fill="#F2AEB0"/>
<path d="M191.511 437.444H394.849C402.255 437.444 409.245 434.025 413.792 428.18L456.528 373.242C461.075 367.397 468.066 363.978 475.471 363.978H632.721" stroke="#FFB2B1" stroke-width="5" stroke-linejoin="round"/>
<path d="M201.761 437.958C201.761 442.975 197.678 447.042 192.642 447.042C187.606 447.042 183.524 442.975 183.524 437.958C183.524 432.94 187.606 428.873 192.642 428.873C197.678 428.873 201.761 432.94 201.761 437.958Z" fill="#FF383D"/>
<path opacity="0.13" d="M1161 634.006C1161 595.141 1129.38 563.634 1090.37 563.634C1051.36 563.634 1019.74 595.141 1019.74 634.006C1019.74 672.87 1051.36 704.377 1090.37 704.377C1129.38 704.377 1161 672.87 1161 634.006Z" fill="#FF383D"/>
<path d="M1046.72 617.61C1046.72 616.744 1046.92 615.988 1047.34 615.344C1047.76 614.699 1048.35 614.201 1049.11 613.851C1049.88 613.5 1050.76 613.324 1051.75 613.324C1052.74 613.324 1053.61 613.496 1054.38 613.84C1055.14 614.184 1055.74 614.671 1056.17 615.301C1056.6 615.931 1056.81 616.665 1056.81 617.503H1054.16C1054.15 616.901 1053.91 616.418 1053.44 616.053C1052.98 615.68 1052.38 615.494 1051.63 615.494C1050.94 615.494 1050.39 615.666 1049.97 616.01C1049.56 616.346 1049.36 616.783 1049.36 617.32C1049.36 617.85 1049.54 618.24 1049.9 618.491C1050.26 618.742 1050.74 618.939 1051.35 619.082L1053.66 619.651C1054.71 619.902 1055.56 620.364 1056.21 621.037C1056.86 621.703 1057.19 622.562 1057.19 623.615C1057.19 624.496 1056.97 625.266 1056.52 625.925C1056.09 626.584 1055.46 627.096 1054.65 627.461C1053.85 627.819 1052.92 627.998 1051.85 627.998C1050.27 627.998 1048.98 627.615 1047.98 626.849C1047 626.075 1046.46 625.026 1046.37 623.701H1049.03C1049.05 624.36 1049.33 624.879 1049.85 625.259C1050.38 625.631 1051.06 625.817 1051.89 625.817C1052.7 625.817 1053.34 625.645 1053.8 625.302C1054.25 624.958 1054.48 624.485 1054.48 623.884C1054.48 623.368 1054.32 622.978 1054 622.713C1053.68 622.448 1053.25 622.251 1052.73 622.122L1050.37 621.553C1049.21 621.273 1048.31 620.808 1047.67 620.156C1047.03 619.497 1046.72 618.649 1046.72 617.61ZM1059.53 613.603H1062.11V619.458L1068.36 619.479V613.603H1070.95V627.708H1068.36V621.703H1062.11V627.708H1059.53V613.603ZM1077.87 613.603H1080.49L1085.72 627.708H1082.99L1081.85 624.496H1076.46L1075.27 627.708H1072.6L1077.87 613.603ZM1081.1 622.358L1080.2 619.877C1080.11 619.641 1079.88 618.942 1079.49 617.782L1079.19 616.901C1079.13 617.095 1079 617.499 1078.78 618.115C1078.57 618.731 1078.35 619.318 1078.13 619.877L1077.2 622.358H1081.1ZM1094.22 619.673L1099.08 627.708H1095.98L1092.46 621.853L1090.13 624.743V627.751H1087.53V613.603H1090.13V620.779L1095.89 613.603H1099.11L1094.22 619.673ZM1100.95 627.708V613.603H1103.53V627.708H1100.95ZM1118.02 613.603V627.708H1115.61L1109.12 618.051V627.708H1106.56V613.603H1108.99L1115.48 623.282V613.603H1118.02ZM1134.62 620.049V621.392C1134.62 622.695 1134.32 623.848 1133.72 624.851C1133.12 625.846 1132.28 626.619 1131.2 627.171C1130.14 627.722 1128.92 627.998 1127.55 627.998C1126.13 627.998 1124.88 627.697 1123.8 627.096C1122.73 626.494 1121.89 625.649 1121.3 624.56C1120.7 623.465 1120.41 622.197 1120.41 620.758C1120.41 619.29 1120.71 617.997 1121.32 616.88C1121.93 615.755 1122.78 614.882 1123.88 614.259C1124.98 613.636 1126.24 613.324 1127.67 613.324C1128.82 613.324 1129.85 613.525 1130.78 613.926C1131.72 614.327 1132.5 614.893 1133.12 615.623C1133.73 616.346 1134.14 617.177 1134.33 618.115H1131.58C1131.3 617.356 1130.81 616.765 1130.1 616.343C1129.39 615.913 1128.55 615.698 1127.59 615.698C1126.2 615.698 1125.09 616.157 1124.29 617.073C1123.48 617.99 1123.07 619.204 1123.07 620.715C1123.07 622.226 1123.48 623.418 1124.3 624.292C1125.12 625.158 1126.23 625.592 1127.62 625.592C1128.78 625.592 1129.74 625.302 1130.49 624.722C1131.26 624.134 1131.72 623.311 1131.87 622.251H1127.4V620.049H1134.62ZM1063.97 656.998C1062.56 656.998 1061.3 656.694 1060.2 656.085C1059.1 655.476 1058.25 654.613 1057.63 653.496C1057.01 652.379 1056.71 651.097 1056.71 649.65C1056.71 648.211 1057.01 646.936 1057.62 645.826C1058.23 644.709 1059.08 643.846 1060.18 643.237C1061.28 642.629 1062.54 642.324 1063.97 642.324C1065.14 642.324 1066.22 642.525 1067.19 642.926C1068.16 643.327 1068.97 643.907 1069.61 644.666C1070.25 645.418 1070.65 646.292 1070.83 647.287H1067.96C1067.74 646.528 1067.27 645.908 1066.55 645.429C1065.82 644.942 1064.96 644.698 1063.95 644.698C1063.04 644.698 1062.24 644.902 1061.54 645.31C1060.85 645.719 1060.32 646.302 1059.95 647.061C1059.58 647.813 1059.39 648.684 1059.39 649.672C1059.39 650.667 1059.58 651.541 1059.96 652.293C1060.34 653.038 1060.87 653.607 1061.56 654.001C1062.26 654.395 1063.05 654.592 1063.95 654.592C1064.93 654.592 1065.78 654.355 1066.51 653.883C1067.25 653.403 1067.74 652.769 1067.96 651.981H1070.83C1070.67 652.963 1070.27 653.836 1069.64 654.602C1069.01 655.362 1068.21 655.952 1067.23 656.375C1066.26 656.79 1065.17 656.998 1063.97 656.998ZM1073.17 642.603H1075.75V648.458L1082 648.479V642.603H1084.59V656.708H1082V650.703H1075.75V656.708H1073.17V642.603ZM1087.63 656.708V642.603H1090.21V656.708H1087.63ZM1101.67 654.377V656.708H1093.24V642.603H1095.84V654.377H1101.67ZM1112.18 654.377V656.708H1103.75V642.603H1106.35V654.377H1112.18ZM1113.85 646.61C1113.85 645.744 1114.06 644.988 1114.48 644.344C1114.9 643.699 1115.49 643.201 1116.25 642.851C1117.02 642.5 1117.9 642.324 1118.89 642.324C1119.87 642.324 1120.75 642.496 1121.51 642.84C1122.28 643.184 1122.88 643.671 1123.31 644.301C1123.74 644.931 1123.95 645.665 1123.95 646.503H1121.3C1121.28 645.901 1121.05 645.418 1120.58 645.053C1120.12 644.68 1119.52 644.494 1118.76 644.494C1118.08 644.494 1117.53 644.666 1117.11 645.01C1116.7 645.346 1116.5 645.783 1116.5 646.32C1116.5 646.85 1116.68 647.24 1117.03 647.491C1117.4 647.742 1117.88 647.939 1118.48 648.082L1120.79 648.651C1121.85 648.902 1122.7 649.364 1123.35 650.037C1124 650.703 1124.33 651.562 1124.33 652.615C1124.33 653.496 1124.11 654.266 1123.66 654.925C1123.23 655.584 1122.6 656.096 1121.79 656.461C1120.99 656.819 1120.06 656.998 1118.99 656.998C1117.41 656.998 1116.12 656.615 1115.12 655.849C1114.13 655.075 1113.6 654.026 1113.51 652.701H1116.16C1116.19 653.36 1116.47 653.879 1116.99 654.259C1117.51 654.631 1118.19 654.817 1119.03 654.817C1119.84 654.817 1120.48 654.645 1120.93 654.302C1121.39 653.958 1121.62 653.485 1121.62 652.884C1121.62 652.368 1121.46 651.978 1121.14 651.713C1120.82 651.448 1120.39 651.251 1119.87 651.122L1117.51 650.553C1116.35 650.273 1115.45 649.808 1114.81 649.156C1114.17 648.497 1113.85 647.649 1113.85 646.61Z" fill="#FA5652"/>
<path d="M1090.87 547.763C1042.1 547.763 1002.56 587.154 1002.56 635.744C1002.56 684.338 1042.1 723.729 1090.87 723.729V767.177" stroke="#FFD6D7" stroke-width="2.4" stroke-miterlimit="10"/>
<path d="M1098.13 769.373C1098.13 765.376 1094.88 762.138 1090.86 762.138C1086.85 762.138 1083.6 765.376 1083.6 769.373C1083.6 773.367 1086.85 776.608 1090.86 776.608C1094.88 776.608 1098.13 773.367 1098.13 769.373Z" fill="#F2AEB0"/>
<path d="M726.738 687.839H817.873C825.136 687.839 832.008 684.55 836.564 678.894L862.096 647.195C866.652 641.539 873.524 638.25 880.787 638.25H974.995" stroke="#FFA6A6" stroke-width="5" stroke-linejoin="round"/>
<path d="M980.943 637.539C980.943 642.556 976.861 646.624 971.825 646.624C966.789 646.624 962.706 642.556 962.706 637.539C962.706 632.522 966.789 628.455 971.825 628.455C976.861 628.455 980.943 632.522 980.943 637.539Z" fill="#FF383D"/>
<path opacity="0.15" d="M1161 149.813C1161 110.949 1129.38 79.4421 1090.37 79.4421C1051.36 79.4421 1019.74 110.949 1019.74 149.813C1019.74 188.678 1051.36 220.185 1090.37 220.185C1129.38 220.185 1161 188.678 1161 149.813Z" fill="#FF383D"/>
<path d="M1037.58 146.382H1040.16V152.236L1046.41 152.258V146.382H1049V160.486H1046.41V154.481H1040.16V160.486H1037.58V146.382ZM1054.62 148.734V152.258H1060.41V154.503H1054.62V158.133H1061.06V160.486H1052.04V146.382H1061.06V148.734H1054.62ZM1067.67 146.382H1070.29L1075.52 160.486H1072.79L1071.65 157.274H1066.26L1065.07 160.486H1062.41L1067.67 146.382ZM1070.9 155.136L1070 152.655C1069.91 152.419 1069.68 151.72 1069.29 150.56L1068.99 149.679C1068.93 149.873 1068.8 150.277 1068.58 150.893C1068.37 151.509 1068.15 152.096 1067.93 152.655L1067 155.136H1070.9ZM1082.57 146.382C1083.94 146.382 1085.17 146.682 1086.24 147.284C1087.32 147.885 1088.17 148.727 1088.77 149.808C1089.37 150.883 1089.67 152.104 1089.67 153.471C1089.67 154.832 1089.37 156.046 1088.78 157.113C1088.18 158.173 1087.35 159 1086.26 159.594C1085.19 160.189 1083.96 160.486 1082.57 160.486H1077.33V146.382H1082.57ZM1082.34 158.133C1083.27 158.133 1084.08 157.94 1084.77 157.553C1085.47 157.16 1086.01 156.612 1086.39 155.91C1086.77 155.208 1086.96 154.395 1086.96 153.471C1086.96 152.533 1086.77 151.71 1086.39 151.001C1086.01 150.285 1085.47 149.73 1084.77 149.336C1084.08 148.935 1083.27 148.734 1082.34 148.734H1079.9V158.133H1082.34ZM1095.26 146.382H1097.88L1103.11 160.486H1100.38L1099.24 157.274H1093.85L1092.66 160.486H1089.99L1095.26 146.382ZM1098.49 155.136L1097.59 152.655C1097.5 152.419 1097.26 151.72 1096.88 150.56L1096.58 149.679C1096.52 149.873 1096.38 150.277 1096.17 150.893C1095.95 151.509 1095.73 152.096 1095.51 152.655L1094.59 155.136H1098.49ZM1110.72 160.776C1109.31 160.776 1108.06 160.472 1106.95 159.863C1105.86 159.254 1105 158.391 1104.39 157.274C1103.77 156.157 1103.46 154.875 1103.46 153.428C1103.46 151.989 1103.77 150.714 1104.38 149.604C1104.98 148.487 1105.84 147.624 1106.93 147.015C1108.03 146.407 1109.3 146.102 1110.72 146.102C1111.9 146.102 1112.97 146.303 1113.95 146.704C1114.92 147.105 1115.73 147.685 1116.36 148.444C1117 149.196 1117.41 150.07 1117.59 151.065H1114.72C1114.5 150.306 1114.03 149.687 1113.3 149.207C1112.58 148.72 1111.71 148.476 1110.7 148.476C1109.79 148.476 1108.99 148.68 1108.3 149.089C1107.61 149.497 1107.08 150.08 1106.71 150.84C1106.33 151.591 1106.15 152.462 1106.15 153.45C1106.15 154.445 1106.34 155.319 1106.72 156.071C1107.1 156.816 1107.63 157.385 1108.32 157.779C1109.01 158.173 1109.81 158.37 1110.7 158.37C1111.68 158.37 1112.54 158.133 1113.27 157.661C1114.01 157.181 1114.49 156.547 1114.72 155.759H1117.59C1117.42 156.741 1117.03 157.614 1116.4 158.381C1115.77 159.14 1114.96 159.73 1113.99 160.153C1113.02 160.568 1111.93 160.776 1110.72 160.776ZM1119.93 146.382H1122.51V152.236L1128.76 152.258V146.382H1131.35V160.486H1128.76V154.481H1122.51V160.486H1119.93V146.382ZM1136.97 148.734V152.258H1142.76V154.503H1136.97V158.133H1143.41V160.486H1134.39V146.382H1143.41V148.734H1136.97Z" fill="#FF383D"/>
<path d="M1090.87 63.4197C1042.1 63.4197 1002.56 102.81 1002.56 151.401C1002.56 199.992 1042.1 239.385 1090.87 239.385V282.834" stroke="#FFD6D7" stroke-width="2.4" stroke-miterlimit="10"/>
<path d="M1098.13 285.03C1098.13 281.033 1094.88 277.794 1090.87 277.794C1086.86 277.794 1083.61 281.033 1083.61 285.03C1083.61 289.026 1086.86 292.265 1090.87 292.265C1094.88 292.265 1098.13 289.026 1098.13 285.03Z" fill="#F2AEB0"/>
<path d="M976.839 158.275H850.533C844.431 158.275 838.558 160.599 834.109 164.775L805.56 191.569C801.111 195.745 795.238 198.069 789.136 198.069H675.12" stroke="#FFB2B1" stroke-width="5" stroke-linejoin="round"/>
<path d="M980.941 157.564C980.941 162.581 976.859 166.649 971.822 166.649C966.786 166.649 962.704 162.581 962.704 157.564C962.704 152.547 966.786 148.48 971.822 148.48C976.859 148.48 980.941 152.547 980.941 157.564Z" fill="#FF383D"/>
</g>
<defs>
<filter id="filter0_d" x="27.5798" y="660.183" width="106.434" height="14.6738" filterUnits="userSpaceOnUse" color-interpolation-filters="sRGB">
<feFlood flood-opacity="0" result="BackgroundImageFix"/>
<feColorMatrix in="SourceAlpha" type="matrix" values="0 0 0 0 0 0 0 0 0 0 0 0 0 0 0 0 0 0 127 0"/>
<feOffset/>
<feColorMatrix type="matrix" values="0 0 0 0 0 0 0 0 0 0 0 0 0 0 0 0 0 0 0.1 0"/>
<feBlend mode="normal" in2="BackgroundImageFix" result="effect1_dropShadow"/>
<feBlend mode="normal" in="SourceGraphic" in2="effect1_dropShadow" result="shape"/>
</filter>
<linearGradient id="paint0_linear" x1="280.615" y1="585.622" x2="344.484" y2="713.708" gradientUnits="userSpaceOnUse">
<stop stop-color="#FFC8C8"/>
<stop offset="1" stop-color="#FFF2F5"/>
</linearGradient>
<linearGradient id="paint1_linear" x1="912.18" y1="183.82" x2="391.056" y2="-27.0069" gradientUnits="userSpaceOnUse">
<stop stop-color="white"/>
<stop offset="1" stop-color="#FFD5D5"/>
</linearGradient>
<linearGradient id="paint2_linear" x1="844.946" y1="89.2094" x2="683.905" y2="62.5469" gradientUnits="userSpaceOnUse">
<stop stop-color="#FFD3D3"/>
<stop offset="1" stop-color="#FFF6F6"/>
</linearGradient>
<linearGradient id="paint3_linear" x1="206.431" y1="362.678" x2="963.765" y2="362.678" gradientUnits="userSpaceOnUse">
<stop stop-color="#FFF8F5"/>
<stop offset="1" stop-color="#FFDEDE"/>
</linearGradient>
<linearGradient id="paint4_linear" x1="894.009" y1="543.512" x2="695.636" y2="561.863" gradientUnits="userSpaceOnUse">
<stop stop-color="#FFC2C2"/>
<stop offset="1" stop-color="white"/>
</linearGradient>
</defs>
</svg>
