<svg xmlns="http://www.w3.org/2000/svg" width="540" height="553" viewBox="0 0 540 553"><defs><linearGradient id="n7n2a" x1="1.15" x2="61.71" y1="445.63" y2="547.46" gradientUnits="userSpaceOnUse"><stop offset="0" stop-color="#ffcbcb"/><stop offset="1" stop-color="#fff1f1"/></linearGradient><linearGradient id="n7n2b" x1="472.5" x2="111.5" y1="186" y2="104.5" gradientUnits="userSpaceOnUse"><stop offset="0" stop-color="#fff"/><stop offset="1" stop-color="#fdd"/></linearGradient><linearGradient id="n7n2c" x1="518.29" x2="429" y1="155.01" y2="80" gradientUnits="userSpaceOnUse"><stop offset="0" stop-color="#fdd"/><stop offset="1" stop-color="#fffbfc"/></linearGradient><linearGradient id="n7n2d" x1="490.8" x2="1.16" y1="498.07" y2="214.52" gradientUnits="userSpaceOnUse"><stop offset="0" stop-color="#ffe5e5"/><stop offset="1" stop-color="#fff5f5"/></linearGradient></defs><g><g><g><g><g><g><path fill="url(#n7n2a)" d="M196.05 539.51c-30.572 10.832-61.44 15.837-94.365 9.581-36.7-6.975-68.53-38.382-86.516-69.702-6.683-11.633-12.003-24.632-11.308-38.027 1.618-30.945 30.852-34.403 55.667-29.398 13.989 2.815 26.833 9.222 39.532 15.568 21.082 10.542 45.813 15.727 64.714 30.34 6.342 4.918 11.106 10.826 18.475 14.403 11.465 5.57 24.55 8.2 36.326 13.269 10.053 4.349 21.291 11.504 21.305 22.453.002 11.23-11.713 18.385-22.007 22.856-7.286 3.185-14.54 6.09-21.824 8.657z"/></g><g><path fill="url(#n7n2b)" d="M83.521 140.359c50.082-73.805 153.64-103.44 237.582-75.69 40.477 13.387 74.4 41.264 105.688 70.203 27.58 25.506 54.334 53.016 73.168 85.805 12.86 22.381 22.065 49.21 28.566 74.256 9.716 37.503.892 85.824-47.587 82.284-11.374-.83-21.214-4.92-31.852-8.498-8.605-2.9-17.037-1.161-25.97-2.578-22.488-3.56-44.151-11.84-64.636-21.537-41.747-19.78-79.893-46.654-122.825-63.988a297.419 297.419 0 0 0-110.696-21.579c-16.004-.026-32.832 1.094-47.149-6.062-35.287-17.655-19.418-65.26-6.24-92.04a167.622 167.622 0 0 1 11.951-20.576z"/></g><g><path fill="url(#n7n2c)" d="M476.186 151.498c8.245 7.468 40.639 27.854 41.262 3.93.148-5.96-2.555-11.746-6.234-16.11-4.21-5.01-8.981-7.638-12.268-13.475a138.243 138.243 0 0 0-13.675-19.784c-10.374-12.725-22.486-24.482-37.183-29.72-10.308-3.67-27.76-2.748-32.656 10.463-7.134 19.232 23.368 22.756 32.67 29.764 8.828 6.634 13.828 18.033 20.821 27.092a59.596 59.596 0 0 0 7.263 7.84z"/></g><g><path fill="url(#n7n2d)" d="M323.721 128.107c17.464 10.282 30.564 25.673 46.487 38.068 26.51 20.633 62.845 24.854 93.244 39.203 30.998 14.64 54.405 37.393 64.988 70.186 13.671 42.327 14.971 92.664 3.356 136.18-12.792 47.9-42.833 79.717-86.755 100.937-43.897 21.205-92.525 31.102-141.025 33.143-4.68.201-9.353.31-14.044.34-105.363.611-245.607-36.474-281.48-149.66a217.113 217.113 0 0 1-.96-3.118 164.64 164.64 0 0 1-6.473-38.744c-2.256-46.537 5.889-97.902 22.204-141.527 10.974-29.37 34.603-54.205 59.503-71.9 34.984-24.858 77.668-31.203 120.152-34.185 31.46-2.207 66.841-3.014 96.59 9.02a180.678 180.678 0 0 1 24.213 12.057z"/></g></g><g><path fill="#fb4c47" d="M397.103 536.123c-135.051 39.268-247.594 1.402-286.984-22.44l-36.576-28.048 12.66-21.037 78.78-7.012 130.83-7.012 105.51 21.037 109.729-36.464h11.254c-16.881 57.22-90.503 91.159-125.203 100.976z"/></g></g></g><g><g><g><path fill="#fb4c47" d="M103.602 504.644h333.356s11.672-191.67-30.797-219.716c-42.464-28.042-231.88-18.432-273.244 9.852-104.889 71.716-29.315 209.864-29.315 209.864z"/></g></g><g><g><path fill="#000c3e" d="M159.098 244.542c-.481 0-.968-.156-1.367-.492-.921-.747-22.295-18.738-10.6-54.999 4.083-12.68 8.086-21.651 11.62-29.581 6.365-14.267 10.964-24.583 11.833-46.629.046-1.199 1.066-2.097 2.259-2.09a2.178 2.178 0 0 1 2.085 2.258c-.903 22.88-5.89 34.07-12.21 48.233-3.487 7.826-7.438 16.694-11.463 29.142-10.74 33.329 8.41 49.629 9.227 50.306a2.17 2.17 0 0 1 .295 3.053c-.428.527-1.054.8-1.68.8z"/></g></g><g><g><path fill="#000c3e" d="M277.432 28.286c-.562 15.049-13.218 26.784-28.267 26.222-15.043-.562-26.784-13.218-26.222-28.26.568-15.05 13.218-26.79 28.267-26.229 15.043.568 26.784 13.219 26.222 28.267z"/></g></g><g><g><path fill="#000c3e" d="M156.66 233.954s7.998 16.496 40.656 22.295c32.663 5.804 58.294-6.013 83.509 3.133 25.213 9.14 61.643-2.774 68.865-13.369 7.218-10.594 5.706-127.918-14.174-147.595-19.886-19.67-124.055-36.092-146.628-13.073-22.573 23.024-46.548 135.396-32.229 148.609z"/></g></g><g><g><path fill="#000c3e" d="M345.234 141.39c-1.86 49.583-43.559 88.276-93.142 86.417-49.583-1.86-88.276-43.559-86.416-93.147 1.859-49.583 43.558-88.27 93.141-86.411 49.582 1.854 88.276 43.558 86.417 93.141z"/></g></g><g><g><path fill="#ffceb0" d="M292.307 216.508s5.833 69.966 0 77.739c-5.833 7.773-42.76 1.946-52.473 0-9.72-1.94-13.607-77.74-7.78-77.74 5.833 0 59.135-15.598 60.253 0z"/></g></g><g><g><path fill="#ffceb0" d="M182.101 134.656s3.696 109.053 77.42 113.762c73.733 4.704 73.657-148.945 46.977-163.56-26.685-14.613-138.026-11.874-124.397 49.798z"/></g></g><g><g><path fill="#ee9b68" d="M257.803 158s14.082 33.566 10.456 35.79c-3.62 2.225-14.227 1.825-17.082-.643-2.856-2.467.869-38.901 6.626-35.148z"/></g></g><g><g><path fill="#000c3e" d="M240.153 76.5s-26.436 12.784-31.464 36.781c-5.034 24.004-2.427 85.455-30.44 82.634 0 0-54.233-121.616 61.904-119.415"/></g></g><g><g><path fill="#000c3e" d="M254.088 77.02c-2.398 1.721 27.259 1.646 44.213 22.203 16.96 20.551 20.986 71.924 23.604 72.874 2.624.955 13.097-63.653-5.497-83.063-18.587-19.41-48.673-21.785-62.32-12.013z"/></g></g><g><g><path fill="#ee9b68" d="M233.08 238.473s28.69 16.31 58.47 1.065c0 0 2.316 18.31 0 22.533-2.318 4.222-49.491 7.24-58.776-13.572 0 0-2.375-10.93.307-10.026"/></g></g><g><g><path fill="#ffceb0" d="M315.545 176.478s7.061-27.3 19.37-17.585c12.315 9.72 1.176 38.247-10.994 40.836-12.17 2.59-15.1-9.175-8.376-23.25z"/></g></g><g><g><path fill="#ffceb0" d="M199.264 172.122s-4.999-27.752-18.003-18.982c-13.004 8.764-4.031 38.05 7.913 41.543 11.944 3.487 15.738-8.023 10.09-22.561z"/></g></g><g><g><path fill="#41294a" d="M285.148 142.656s12.24-8.213 21.27.765c7.94 7.895-8.84 2.595-14.62 4.338-5.787 1.744-13.636 2.086-6.65-5.103z"/></g></g><g><g><path fill="#41294a" d="M234.13 144.597s-11.73-8.926-21.275-.492c-8.393 7.408 8.665 3.11 14.336 5.196 5.67 2.085 13.49 2.884 6.94-4.704z"/></g></g><g><g><path fill="#fffcf6" d="M229.033 153.72c11.626.429 20.743 10.247 20.308 21.884-.434 11.393-9.69 20.32-21.078 20.32l-.811-.018c-11.631-.429-20.742-10.247-20.308-21.878.434-11.4 9.69-20.325 21.078-20.325zm-.77 45.1a23.928 23.928 0 0 0 23.975-23.1c.486-13.236-9.87-24.404-23.095-24.896l-.92-.017a23.933 23.933 0 0 0-23.975 23.105c-.493 13.23 9.864 24.398 23.094 24.89z"/></g></g><g><g><path fill="#fffcf6" d="M288.935 150.355c5.636.208 10.85 2.6 14.684 6.73a20.997 20.997 0 0 1 5.624 15.148c-.434 11.4-9.69 20.325-21.078 20.325l-.811-.017a20.958 20.958 0 0 1-14.69-6.737 20.945 20.945 0 0 1-5.618-15.14c.428-11.4 9.685-20.326 21.078-20.326zm-.77 45.1a23.933 23.933 0 0 0 23.974-23.106 23.873 23.873 0 0 0-6.394-17.233c-4.362-4.697-10.293-7.42-16.7-7.657l-.92-.018a23.925 23.925 0 0 0-23.975 23.106c-.244 6.412 2.033 12.53 6.394 17.233 4.362 4.697 10.293 7.42 16.7 7.657z"/></g></g><g><g><path fill="#fffcf6" d="M206.406 170.605c-.174 0-.36-.034-.533-.104l-8.776-3.464a1.444 1.444 0 0 1-.816-1.876 1.445 1.445 0 0 1 1.876-.817l8.782 3.47a1.44 1.44 0 0 1 .81 1.876 1.444 1.444 0 0 1-1.343.915z"/></g></g><g><g><path fill="#fffcf6" d="M309.856 166.774c-.625 0-1.21-.41-1.39-1.054a1.443 1.443 0 0 1 .996-1.784l12.199-3.493a1.444 1.444 0 0 1 1.79.997c.22.77-.226 1.57-.996 1.79l-12.205 3.487c-.127.04-.266.057-.394.057z"/></g></g><g><g><path fill="#000c3e" d="M249.094 70.773s3.325 59.111 19.62 64.475c16.293 5.37 56.353 3.898 58.288-2.566 1.934-6.47-31.065-58.497-54.744-66.838-41.525-14.632-77.369 52.884-72.63 69.15 4.738 16.27 40.419 2.032 48.03-.059 7.617-2.09-.087-52.479 1.436-64.162z"/></g></g><g><g><path fill="#fffcf6" d="M250.797 175.837a1.447 1.447 0 0 1-.116-2.89l14.863-1.16c.892-.138 1.495.54 1.553 1.327.063.8-.527 1.495-1.327 1.558l-14.857 1.159c-.04.006-.081.006-.116.006z"/></g></g><g><g><path fill="#000c3e" d="M233.162 54.548a2.18 2.18 0 0 1-.996-.244c-7.97-4.112-12.726-9.847-14.128-17.04-3.076-15.79 11.266-32.716 11.88-33.429a2.153 2.153 0 0 1 3.064-.231c.91.782 1.014 2.149.232 3.058-.139.162-13.589 16.062-10.907 29.779 1.135 5.821 5.126 10.53 11.851 14.006a2.17 2.17 0 0 1 .933 2.925 2.162 2.162 0 0 1-1.93 1.176z"/></g></g><g><g><path fill="#000c3e" d="M264.601 59.401a2.164 2.164 0 0 1-1.662-.782 2.163 2.163 0 0 1 .272-3.052c.157-.14 16.045-13.618 15.651-27.59-.162-5.925-3.325-11.225-9.39-15.755a2.172 2.172 0 1 1 2.602-3.481c7.182 5.37 10.936 11.805 11.132 19.132.44 16.08-16.49 30.422-17.214 31.024a2.142 2.142 0 0 1-1.39.504z"/></g></g><g><g><path fill="#000c3e" d="M342.459 242.71c-.65 0-1.292-.29-1.72-.84a2.168 2.168 0 0 1 .382-3.047c.747-.585 18.333-14.614 13.733-38.247-1.801-9.256-5.103-19.503-8.607-30.352-6.1-18.9-12.407-38.45-12.517-57.321a2.173 2.173 0 0 1 2.16-2.184h.012c1.193 0 2.166.967 2.172 2.16.104 18.2 6.308 37.425 12.303 56.013 3.545 10.976 6.893 21.339 8.74 30.856 5.121 26.309-14.498 41.861-15.332 42.51-.4.307-.863.452-1.326.452z"/></g></g><g><g><path fill="#000c3e" d="M349.7 143.634a2.172 2.172 0 0 1-2.155-2.439c2.931-23.864-1.616-43.39-13.525-58.034-19.184-23.592-51.332-26.529-51.656-26.546a2.187 2.187 0 0 1-1.987-2.352 2.177 2.177 0 0 1 2.346-1.98c1.39.11 34.268 3.08 54.64 28.104 12.696 15.593 17.574 36.237 14.492 61.341a2.175 2.175 0 0 1-2.155 1.906z"/></g></g><g><g><path fill="#ee9b68" d="M261.213 228.392c-4.072 0-7.217-1.292-7.42-1.373a2.165 2.165 0 0 1-1.158-2.838c.457-1.106 1.749-1.604 2.832-1.176.058.023 5.984 2.427 11.15-.15a2.176 2.176 0 0 1 2.914.979 2.185 2.185 0 0 1-.98 2.913c-2.496 1.245-5.062 1.645-7.338 1.645z"/></g></g><g><g><path fill="#ee9b68" d="M191.758 187.897c-.208 0-.423-.029-.631-.098a2.157 2.157 0 0 1-1.443-2.705c3.95-12.981-5.508-21.6-5.6-21.687a2.178 2.178 0 0 1-.175-3.07 2.167 2.167 0 0 1 3.07-.174c.475.423 11.614 10.589 6.853 26.193a2.16 2.16 0 0 1-2.074 1.541z"/></g></g><g><g><path fill="#ee9b68" d="M320.56 194.261c-.064 0-.122 0-.191-.006a2.179 2.179 0 0 1-1.975-2.357c1.43-16.283 9.51-24.867 9.853-25.226a2.179 2.179 0 0 1 3.064-.058c.869.823.898 2.195.075 3.064-.075.081-7.374 7.93-8.66 22.602a2.181 2.181 0 0 1-2.166 1.981z"/></g></g><g><g><path fill="#ffceb0" d="M193.996 291.175s49.322 58.967 87.36 43.188c38.033-15.778 73.668-58.55 54.547-64.226-19.12-5.67-171.807-2.687-141.907 21.038z"/></g></g><g><g><path fill="#fff" d="M326.352 211.727s14.88 107.842.967 120.03c-13.907 12.187-31.499 1.517-55.108 9.598-23.61 8.074-24.421-24.71-22.8-41.532 1.623-16.82 9.32-123.66 76.94-88.096z"/></g></g><g><g><path fill="#128e5a" d="M62.505 378.64l-29.188 86.178 212.708 72.045s32.535-82.588 28.44-83.972c-4.089-1.39-211.96-74.252-211.96-74.252z"/></g></g><g><g><path fill="#ffc6a6" d="M104.543 482.883s36.37-25.127 35.096-18.738c-1.268 6.394-15.338 18.738-15.338 18.738s25.55-19.775 27.218-9.888c1.669 9.888-7.298 19.272-7.298 19.272s17.974-14.325 20.876-6.916c2.902 7.408-20.291 40.176-40.796 39.226-20.5-.95-29.784-34.998-19.758-41.694z"/></g></g><g><g><path fill="#fff" d="M117.998 434.436l79.634 32.438s13.86-42.146 11.254-47.017c-2.612-4.877-31.32-6.69-39.191-14.429-7.866-7.733-5.028-17.186-18.176-15.547-13.15 1.64-33.52 44.555-33.52 44.555z"/></g></g><g><g><path fill="#ee9b68" d="M263.145 221.294c-.243 0-.498-.04-.741-.127-6.285-2.276-9.401-5.08-9.517-8.567-.185-5.566 7.785-9.355 9.384-10.061a2.171 2.171 0 0 1 2.861 1.112 2.163 2.163 0 0 1-1.112 2.861c-2.89 1.28-6.852 4.055-6.789 5.943.018.521.55 2.416 6.656 4.622a2.183 2.183 0 0 1 1.303 2.787 2.185 2.185 0 0 1-2.045 1.43z"/></g></g><g><g><path fill="#41294a" d="M236.978 179.82a2.15 2.15 0 0 1-1.437-.545c-9.094-8.028-15.471-5.88-15.732-5.792-1.094.393-2.369-.163-2.78-1.275a2.157 2.157 0 0 1 1.234-2.786c.353-.139 8.92-3.325 20.151 6.598a2.172 2.172 0 0 1-1.436 3.8z"/></g></g><g><g><path fill="#41294a" d="M281.62 180.312a2.172 2.172 0 0 1-1.437-3.8c11.209-9.905 19.793-6.742 20.146-6.597a2.164 2.164 0 0 1 1.24 2.809c-.429 1.118-1.686 1.68-2.786 1.245-.319-.11-6.685-2.19-15.727 5.798a2.15 2.15 0 0 1-1.436.545z"/></g></g><g><g><path fill="#d9423d" d="M422.564 472.554s26.696 33.975 67.95 9.707c43.613-36.823 53.388-84.936 35.526-121.375-22.99-38.651-79.787-81.331-94.322-81.258-14.542.079-65.228 138.046-9.154 192.926z"/></g></g><g><g><path fill="#ffc6a6" d="M369.79 223.92s-56.417-24.148-77.27-18.552c-20.852 5.594 19.625 10.906 27.874 14.902 8.248 3.992-30.225-2.612-35.039.442-4.807 3.046 34.98 14.324 34.98 14.324s-35.27-1.03-37.673 4.31c-2.404 5.34 32.466 11.387 32.466 11.387s-26.57 4.413-25.84 10.09c.725 5.671 49.751 3.905 65.773 24.2 16.016 20.303 38.734 130.984 106 120.836 67.26-10.149 66.625-51.61 18.113-104.83-48.51-53.216-89.816-67.765-109.383-77.11z"/></g></g></g><g><g><path fill="#ffd310" d="M264.409 10.291c5.122 5.782 1.497 24.132-1.528 35.109-4.894-9.895-11.745-26.645-8.496-33.677.729-1.58 1.942-2.49 3.816-2.867a11.046 11.046 0 0 1 2.13-.227c1.749 0 3.091.55 4.078 1.662zm-.74 43.358a2.27 2.27 0 0 0 1.94-1.547c1.161-3.529 11.093-34.772 2.194-44.819-1.702-1.923-4.908-3.985-10.49-2.873-3.275.653-5.712 2.527-7.045 5.413-5.541 12.003 9.473 39.568 11.205 42.672a2.262 2.262 0 0 0 2.197 1.154z"/></g><g><path fill="#ffd310" d="M295.878 22.804c1.17 1.51 1.494 2.992 1.012 4.667-2.144 7.442-18.283 15.625-28.459 19.91 4.895-10.282 14.154-26.533 21.816-27.552.218-.033.436-.046.65-.046 1.771 0 3.404.992 4.98 3.021zm-31.022 30.864c3.338-1.218 32.73-12.241 36.392-24.943.88-3.055.26-6.066-1.791-8.705-3.49-4.492-7.26-5.027-9.81-4.687-13.306 1.774-26.23 31.903-27.66 35.33a2.27 2.27 0 0 0 2.869 3.005z"/></g><g/></g></g></g></svg>