<svg xmlns="http://www.w3.org/2000/svg" width="533" height="572" viewBox="0 0 533 572"><defs><linearGradient id="nbtla" x1="1.35" x2="61.03" y1="465.29" y2="565.64" gradientUnits="userSpaceOnUse"><stop offset="0" stop-color="#ffcece"/><stop offset="1" stop-color="#fff2f2"/></linearGradient><linearGradient id="nbtlb" x1="63.5" x2="541" y1="97.5" y2="320.5" gradientUnits="userSpaceOnUse"><stop offset="0" stop-color="#ffdada"/><stop offset="1" stop-color="#fff"/></linearGradient><linearGradient id="nbtlc" x1="510.98" x2="393.78" y1="178.89" y2="120.99" gradientUnits="userSpaceOnUse"><stop offset="0" stop-color="#ffdfdf"/><stop offset="1" stop-color="#fff5f5"/></linearGradient><linearGradient id="nbtld" x1="483.89" x2="1.36" y1="516.97" y2="237.54" gradientUnits="userSpaceOnUse"><stop offset="0" stop-color="#ffe0e0"/><stop offset="1" stop-color="#fff4f4"/></linearGradient></defs><g><g><g><g><g><path fill="url(#nbtla)" d="M193.42 557.802c-30.127 10.675-60.547 15.607-92.994 9.442-36.166-6.875-67.535-37.824-85.26-68.69C8.581 487.09 3.338 474.28 4.023 461.08c1.594-30.496 30.404-33.904 54.859-28.971 13.785 2.774 26.443 9.088 38.957 15.341 20.777 10.39 45.147 15.499 63.775 29.9 6.25 4.846 10.944 10.668 18.206 14.194 11.299 5.489 24.194 8.08 35.798 13.076 9.907 4.286 20.982 11.337 20.996 22.127.002 11.066-11.543 18.118-21.687 22.524-7.181 3.138-14.33 6-21.507 8.53z"/></g><g><path fill="url(#nbtlb)" d="M82.525 164.448c49.354-72.733 151.408-101.937 234.13-74.59 39.889 13.193 73.32 40.665 104.153 69.183 27.179 25.135 53.546 52.246 72.107 84.558 12.673 22.057 21.744 48.496 28.15 73.179 9.575 36.957.88 84.577-46.895 81.088-11.21-.818-20.907-4.848-31.39-8.375-8.48-2.858-16.79-1.143-25.594-2.54-22.16-3.509-43.509-11.668-63.696-21.224-41.14-19.493-78.732-45.977-121.042-63.059a293.117 293.117 0 0 0-109.087-21.265c-15.772-.025-32.356 1.078-46.465-5.974-34.774-17.399-19.136-64.312-6.15-90.704a165.187 165.187 0 0 1 11.779-20.277z"/></g><g><path fill="url(#nbtlc)" d="M469.489 175.426c8.125 7.36 40.049 27.449 40.663 3.874.145-5.874-2.518-11.576-6.144-15.878-4.148-4.936-8.85-7.526-12.09-13.278a136.244 136.244 0 0 0-13.475-19.497c-10.224-12.54-22.16-24.126-36.643-29.289-10.159-3.616-27.357-2.707-32.183 10.312-7.03 18.952 23.03 22.425 32.196 29.332 8.7 6.537 13.627 17.77 20.519 26.698a58.734 58.734 0 0 0 7.157 7.726z"/></g><g><path fill="url(#nbtld)" d="M319.238 152.375c17.21 10.133 30.12 25.3 45.812 37.515 26.124 20.333 61.932 24.493 91.89 38.633 30.547 14.428 53.614 36.85 64.044 69.167 13.472 41.712 14.753 91.318 3.306 134.202-12.605 47.204-42.21 78.56-85.494 99.47-43.26 20.899-91.181 30.652-138.977 32.664-4.612.198-9.217.305-13.84.334-103.832.603-242.04-35.945-277.39-147.487-.325-1.02-.635-2.039-.946-3.072a162.25 162.25 0 0 1-6.38-38.182c-2.223-45.86 5.803-96.479 21.881-139.471 10.814-28.944 34.1-53.417 58.639-70.855 34.475-24.498 76.54-30.75 118.407-33.69 31.002-2.174 65.87-2.97 95.187 8.89a178.066 178.066 0 0 1 23.86 11.882z"/></g></g><g><path fill="#fb4c47" d="M391.553 554.465c-133.09 38.698-243.997 1.382-282.815-22.113L72.693 504.71l12.477-20.73 77.635-6.911 128.93-6.91 103.977 20.73 108.135-35.933h11.09c-16.635 56.388-89.187 89.834-123.384 99.509z"/></g><g><g><g><path fill="#fb4c47" d="M117.119 479.7h316.88s11.095-182.196-29.275-208.856c-40.366-26.654-229.147-21.088-270.988 1.68C91.896 295.295 117.12 479.7 117.12 479.7z"/></g></g><g><g><path fill="#000c3e" d="M169.878 232.455c-.463 0-.925-.149-1.305-.468-.876-.71-21.193-17.812-10.07-52.28 3.88-12.053 7.686-20.587 11.044-28.125 6.051-13.567 10.423-23.368 11.25-44.318.049-1.14.935-1.994 2.147-1.988a2.07 2.07 0 0 1 1.982 2.147c-.865 21.75-5.6 32.381-11.602 45.838-3.32 7.445-7.075 15.874-10.902 27.712-10.257 31.814 8.568 47.666 8.76 47.82a2.058 2.058 0 0 1 .292 2.902 2.055 2.055 0 0 1-1.596.76z"/></g></g><g><g><path fill="#000c3e" d="M282.359 26.888c-.534 14.305-12.565 25.46-26.87 24.926-14.3-.534-25.46-12.565-24.926-26.864.54-14.305 12.565-25.466 26.87-24.932 14.3.54 25.46 12.565 24.926 26.87z"/></g></g><g><g><path fill="#000c3e" d="M167.556 222.389s7.604 15.681 38.647 21.193c31.049 5.517 55.413-5.716 79.381 2.978 23.969 8.689 58.596-2.637 65.462-12.708 6.86-10.07 5.423-121.596-13.473-140.3-18.903-18.698-117.924-34.308-139.381-12.428-21.457 21.887-44.247 128.705-30.636 141.265z"/></g></g><g><g><path fill="#000c3e" d="M346.807 134.4c-1.768 47.132-41.405 83.912-88.537 82.145-47.132-1.767-83.913-41.406-82.145-88.543 1.767-47.132 41.405-83.907 88.537-82.14 47.132 1.763 83.912 41.406 82.145 88.538z"/></g></g><g><g><path fill="#ffceb0" d="M296.497 205.807s5.544 66.508 0 73.897c-5.545 7.39-40.646 1.85-49.88 0-9.239-1.845-12.934-73.897-7.394-73.897 5.544 0 56.211-14.828 57.274 0z"/></g></g><g><g><path fill="#ffceb0" d="M191.738 128s3.513 103.663 73.594 108.14c70.088 4.47 70.016-141.584 44.655-155.476C284.62 66.774 178.782 69.377 191.738 128z"/></g></g><g><g><path fill="#ee9b68" d="M263.697 150.19s13.385 31.908 9.939 34.022c-3.442 2.114-13.523 1.734-16.238-.611-2.714-2.346.826-36.979 6.3-33.411z"/></g></g><g><g><path fill="#41294a" d="M242.71 171.497a6.583 6.583 0 0 1-6.9 6.255 6.587 6.587 0 0 1-6.255-6.9 6.587 6.587 0 0 1 6.9-6.254 6.587 6.587 0 0 1 6.254 6.899z"/></g></g><g><g><path fill="#41294a" d="M299.244 168.396a6.583 6.583 0 0 1-6.9 6.255 6.587 6.587 0 0 1-6.254-6.9 6.587 6.587 0 0 1 6.899-6.254 6.587 6.587 0 0 1 6.255 6.899z"/></g></g><g><g><path fill="#000c3e" d="M246.922 72.716s-25.13 12.152-29.91 34.964c-4.784 22.817-2.306 81.231-28.934 78.55 0 0-51.553-115.606 58.844-113.514"/></g></g><g><g><path fill="#000c3e" d="M260.167 73.213c-2.28 1.636 25.911 1.564 42.028 21.105 16.121 19.536 19.948 68.369 22.437 69.272 2.494.908 12.449-60.506-5.225-78.957-17.67-18.45-46.268-20.708-59.24-11.42z"/></g></g><g><g><path fill="#ee9b68" d="M240.198 226.686s27.266 15.505 55.578 1.013c0 0 2.202 17.404 0 21.418-2.202 4.014-47.044 6.883-55.87-12.9 0 0-2.258-10.39.292-9.531"/></g></g><g><g><path fill="#ffceb0" d="M318.59 167.755s6.712-25.95 18.412-16.716c11.706 9.24 1.118 36.357-10.45 38.818-11.568 2.461-14.355-8.722-7.962-22.102z"/></g></g><g><g><path fill="#ffceb0" d="M208.053 163.613s-4.752-26.38-17.113-18.044c-12.361 8.331-3.832 36.17 7.521 39.49 11.354 3.315 14.96-7.626 9.592-21.446z"/></g></g><g><g><path fill="#41294a" d="M290.035 134.317s12.543-6.244 19.954 3.33c6.52 8.414-8.644 1.36-14.316 2.297-5.665.936-13.104.292-5.638-5.627z"/></g></g><g><g><path fill="#41294a" d="M240.743 135.525s-12.564-6.2-19.943 3.402c-6.486 8.436 8.65 1.327 14.322 2.241 5.671.92 13.11.248 5.621-5.643z"/></g></g><g><g><path fill="#fffcf6" d="M236.35 146.12a19.923 19.923 0 0 1 13.963 6.404 19.923 19.923 0 0 1 5.34 14.398 19.995 19.995 0 0 1-20.036 19.315l-.771-.016a19.927 19.927 0 0 1-13.958-6.398 19.96 19.96 0 0 1-5.346-14.399c.413-10.836 9.211-19.32 20.036-19.32zm-.733 42.87a22.738 22.738 0 0 0 22.79-21.958c.225-6.1-1.933-11.91-6.08-16.386-4.145-4.465-9.783-7.053-15.873-7.279l-.876-.017a22.75 22.75 0 0 0-22.79 21.964 22.693 22.693 0 0 0 6.08 16.38c4.146 4.466 9.784 7.054 15.873 7.28z"/></g></g><g><g><path fill="#fffcf6" d="M293.293 142.923a19.927 19.927 0 0 1 13.958 6.398 19.959 19.959 0 0 1 5.346 14.398c-.412 10.836-9.211 19.32-20.036 19.32l-.771-.016c-11.056-.407-19.717-9.74-19.304-20.796.413-10.836 9.211-19.32 20.036-19.32zm-.732 42.87a22.75 22.75 0 0 0 22.79-21.964 22.693 22.693 0 0 0-6.08-16.38c-4.145-4.466-9.784-7.054-15.873-7.28l-.876-.016a22.75 22.75 0 0 0-22.79 21.964c-.467 12.576 9.377 23.191 21.953 23.66z"/></g></g><g><g><path fill="#fffcf6" d="M214.84 162.172c-.165 0-.341-.033-.506-.1l-8.342-3.292a1.373 1.373 0 0 1-.776-1.784 1.373 1.373 0 0 1 1.784-.776l8.347 3.298c.71.275 1.051 1.08.77 1.784-.214.54-.726.87-1.277.87z"/></g></g><g><g><path fill="#fffcf6" d="M313.183 158.53c-.595 0-1.151-.39-1.322-1.002a1.372 1.372 0 0 1 .947-1.696l11.596-3.32a1.372 1.372 0 0 1 1.701.947 1.375 1.375 0 0 1-.947 1.702l-11.6 3.314a1.259 1.259 0 0 1-.375.055z"/></g></g><g><g><path fill="#000c3e" d="M255.423 67.275s3.16 56.19 18.65 61.288c15.488 5.104 53.568 3.706 55.407-2.44 1.839-6.15-29.53-55.605-52.038-63.534-39.473-13.908-73.545 50.27-69.04 65.732 4.503 15.466 38.42 1.932 45.656-.055 7.24-1.988-.083-49.885 1.365-60.99z"/></g></g><g><g><path fill="#fffcf6" d="M257.038 167.145a1.376 1.376 0 0 1-.11-2.748l14.129-1.1c.826-.133 1.426.512 1.475 1.26.06.76-.5 1.421-1.26 1.482l-14.124 1.1c-.038.006-.077.006-.11.006z"/></g></g><g><g><path fill="#000c3e" d="M240.274 51.851c-.324 0-.644-.077-.947-.231-7.576-3.91-12.096-9.36-13.429-16.199-2.924-15.01 10.71-31.098 11.293-31.775a2.047 2.047 0 0 1 2.913-.22 2.06 2.06 0 0 1 .22 2.907c-.132.154-12.917 15.268-10.368 28.306 1.08 5.534 4.873 10.01 11.265 13.314a2.063 2.063 0 0 1-.947 3.898z"/></g></g><g><g><path fill="#41294a" d="M270.159 56.464a2.057 2.057 0 0 1-1.58-.743 2.056 2.056 0 0 1 .258-2.902c.149-.132 15.252-12.945 14.878-26.225-.155-5.633-3.16-10.671-8.926-14.977a2.065 2.065 0 1 1 2.472-3.309c6.828 5.104 10.396 11.221 10.583 18.186.419 15.285-15.676 28.918-16.364 29.491a2.036 2.036 0 0 1-1.321.48z"/></g></g><g><g><path fill="#000c3e" d="M344.168 230.712a2.07 2.07 0 0 1-1.636-.798c-.699-.903-.54-2.197.364-2.896.71-.556 17.427-13.892 13.055-36.357-1.713-8.798-4.851-18.539-8.182-28.851-5.798-17.967-11.794-36.55-11.899-54.489a2.066 2.066 0 0 1 2.054-2.075h.01c1.135 0 2.06.92 2.066 2.053.099 17.3 5.996 35.575 11.695 53.244 3.37 10.434 6.552 20.284 8.308 29.33 4.868 25.01-13.782 39.793-14.574 40.41-.38.292-.82.43-1.261.43z"/></g></g><g><g><path fill="#000c3e" d="M351.051 136.534a2.064 2.064 0 0 1-2.048-2.318c2.786-22.685-1.536-41.246-12.857-55.166-18.236-22.426-48.794-25.218-49.103-25.234a2.08 2.08 0 0 1-1.888-2.236c.099-1.128 1.117-1.982 2.23-1.883 1.321.105 32.574 2.93 51.938 26.716 12.07 14.822 16.706 34.446 13.776 58.31a2.067 2.067 0 0 1-2.048 1.81z"/></g></g><g><g><path fill="#ee9b68" d="M267.245 216.102c-2.324 0-4.79-.077-6.64-.143a2.07 2.07 0 0 1-1.983-2.147c.039-1.14.914-2.06 2.142-1.982 4.752.187 10.511.209 11.557-.094 1.074-.303 2.236.275 2.583 1.338.341 1.057-.166 2.18-1.206 2.555-1.002.358-3.618.473-6.453.473z"/></g></g><g><g><path fill="#ee9b68" d="M200.92 178.609c-.198 0-.401-.028-.6-.094a2.05 2.05 0 0 1-1.37-2.57c3.754-12.34-5.237-20.533-5.325-20.616a2.07 2.07 0 0 1-.165-2.918 2.06 2.06 0 0 1 2.918-.165c.451.402 11.04 10.065 6.514 24.898a2.053 2.053 0 0 1-1.972 1.465z"/></g></g><g><g><path fill="#ee9b68" d="M323.354 184.66c-.061 0-.116 0-.182-.006a2.071 2.071 0 0 1-1.878-2.241c1.36-15.478 9.041-23.638 9.366-23.979a2.07 2.07 0 0 1 2.913-.055c.826.782.853 2.087.071 2.913-.071.077-7.009 7.537-8.231 21.484a2.074 2.074 0 0 1-2.06 1.883z"/></g></g><g><g><path fill="#ffceb0" d="M203.043 276.78s46.884 56.052 83.043 41.054c36.152-14.999 70.026-55.656 51.85-61.052-18.175-5.39-163.315-2.554-134.893 19.998z"/></g></g><g><g><path fill="#fff" d="M326.871 350.85s-27.32-24.535-55.886-10.665c-28.565 13.865-19.871 42.666-45.954 37.332-26.082-5.336-73.34 2.725-62.097 30.932 11.244 28.208-60.677 50.276-33.356 86.545C156.9 531.257 230.642 503.38 253.3 510.85c22.651 7.467 76.055 10.666 82.266-10.67 6.21-21.33 45.953-24.53 39.743-52.264-6.21-27.734-12.422-66.134-48.438-97.067z"/></g></g><g><g><path fill="#ffc6a6" d="M236.621 415.381s27.894 33.494 27.823 65.732c-.044 20.526-15.153-14.068-20.34-21.072-5.181-6.998 11.172 23.153 5.753 32.805-2.648 4.724-19.534-30.151-19.534-30.151s7.168 32.767 2.598 35.949c-4.564 3.188-16.348-28.323-16.348-28.323s.55 25.598-4.877 25.917c-5.424.32-3.475-25.989-25.252-37.38-21.782-11.393-120.996 67.454-123.352 2.835-2.357-64.62 26.754-87.007 94.187-75.274 53.216 9.261 61.613 15.13 79.342 28.962z"/></g></g><g><g><path fill="#ffc6a6" d="M298.657 415.381s-27.893 33.494-27.822 65.732c.044 20.526 15.153-14.068 20.34-21.072 5.18-6.998-11.172 23.153-5.754 32.805 2.648 4.724 19.535-30.151 19.535-30.151s-7.169 32.767-2.599 35.949c4.565 3.188 16.348-28.323 16.348-28.323s-.55 25.598 4.878 25.917c5.424.32 3.475-25.989 25.251-37.38 21.782-11.393 133.582 75.201 135.94 10.582 2.35-64.62-39.342-94.754-106.774-83.02-53.216 9.26-61.613 15.13-79.343 28.961z"/></g></g><g><g><path fill="#fff" d="M329.706 471.703s.595-56.69 31.577-56.321c30.983.374 45.712 28.064 16.552 44.395-29.16 16.337-48.95 22.993-48.129 11.926z"/></g></g><g><g><path fill="#fff" d="M353.084 436.401s4.95 11.524 16.64 12.68c11.683 1.157 38.25 0 40.563 16.75 2.307 16.75-11.58 39.848-28.604 37.54-17.02-2.312-34.496-5.786-48.85 3.833-14.355 9.619.01-77.707 20.251-70.803z"/></g></g><g><g><path fill="#fff" d="M382.564 346.58c0 7.654-6.206 13.86-13.86 13.86-7.658 0-13.864-6.206-13.864-13.86 0-7.653 6.206-13.858 13.865-13.858 7.653 0 13.859 6.205 13.859 13.858z"/></g></g><g><g><path fill="#fff" d="M221.859 346.58c0 7.654-6.206 13.86-13.859 13.86-7.659 0-13.864-6.206-13.864-13.86 0-7.653 6.205-13.858 13.864-13.858 7.653 0 13.859 6.205 13.859 13.858z"/></g></g><g><g><path fill="#ee9b68" d="M265.96 202.745c-10.584 0-19.894-7.317-20.324-7.67a2.053 2.053 0 0 1-.33-2.896 2.063 2.063 0 0 1 2.896-.33c.11.082 10.577 8.27 20.763 6.513 4.912-.864 9.047-3.975 12.296-9.25.6-.974 1.883-1.283 2.84-.677.975.6 1.272 1.872.678 2.841-3.898 6.332-8.986 10.087-15.12 11.155a21.708 21.708 0 0 1-3.7.314z"/></g></g><g><g><path fill="#d9423d" d="M182.277 261.038s-39.153 55.155-40.295 87.568c-1.142 32.413-36.184 46.083-26.253 92.783 3.916 18.389 14.918 44.45 4.369 54.732-27.482 26.787-54.012 7.375-58.59 0-33.105-53.355 6.975-179.51 41.85-207.58 26.307-27.503 78.92-27.503 78.92-27.503z"/></g></g><g><g><path fill="#d9423d" d="M364.031 258.648s43.536 55.908 44.736 87.358c1.2 31.45 38.024 44.715 27.588 90.027-4.115 17.843-23.262 43.978-3.314 53.107 23.614 10.803 61.299 3.856 66.11-3.3 47.83-55.004-15.964-166.474-52.613-193.711-32.285-26.307-82.507-33.481-82.507-33.481z"/></g></g></g><g><g><path fill="#ffd310" d="M271.133 10.355c5.049 5.698 1.476 23.781-1.504 34.599-4.824-9.752-11.576-26.258-8.374-33.188.718-1.557 1.915-2.454 3.76-2.825a10.88 10.88 0 0 1 2.1-.224c1.724 0 3.047.543 4.018 1.638zm-.728 42.728a2.238 2.238 0 0 0 1.912-1.524c1.144-3.478 10.931-34.267 2.161-44.168-1.677-1.895-4.837-3.927-10.336-2.832-3.228.644-5.63 2.49-6.944 5.335-5.46 11.828 9.336 38.993 11.042 42.052a2.23 2.23 0 0 0 2.165 1.138z"/></g><g><path fill="#ffd310" d="M302.148 22.686c1.154 1.488 1.473 2.948.998 4.6-2.113 7.332-18.017 15.397-28.045 19.62 4.823-10.133 13.948-26.148 21.499-27.152.214-.033.429-.046.64-.046 1.746 0 3.355.979 4.908 2.978zM271.577 53.1c3.29-1.2 32.255-12.063 35.863-24.58.868-3.01.257-5.978-1.765-8.579-3.439-4.427-7.154-4.954-9.667-4.619-13.113 1.749-25.848 31.44-27.259 34.817a2.236 2.236 0 0 0 2.828 2.961z"/></g><g/></g></g></g></g></svg>