<svg xmlns="http://www.w3.org/2000/svg" width="523" height="562" viewBox="0 0 523 562"><defs><linearGradient id="e2y1a" x1="20" x2="149.5" y1="428.02" y2="559.52" gradientUnits="userSpaceOnUse"><stop offset="0" stop-color="#ffc5c6"/><stop offset="1" stop-color="#fff6f6"/></linearGradient><linearGradient id="e2y1b" x1="519" x2="110" y1="252.02" y2="96.02" gradientUnits="userSpaceOnUse"><stop offset="0" stop-color="#fff"/><stop offset="1" stop-color="#ffd7d7"/></linearGradient><linearGradient id="e2y1c" x1="502.29" x2="387" y1="175.63" y2="118.68" gradientUnits="userSpaceOnUse"><stop offset="0" stop-color="#ffbebf"/><stop offset="1" stop-color="#fffbfc"/></linearGradient><linearGradient id="e2y1d" x1="534" x2="22" y1="429.02" y2="225.02" gradientUnits="userSpaceOnUse"><stop offset="0" stop-color="#ffd7d7"/><stop offset="1" stop-color="#fff8f8"/></linearGradient><linearGradient id="e2y1e" x1="429" x2="384.32" y1="329" y2="195.78" gradientUnits="userSpaceOnUse"><stop offset="0" stop-color="#ffc4a0"/><stop offset="1" stop-color="#ffceb0"/></linearGradient></defs><g><g><g><g><g><path fill="url(#e2y1a)" d="M189.917 548.352c-29.635 10.5-59.558 15.35-91.475 9.288-35.575-6.763-66.431-37.207-83.866-67.567C8.098 478.795 2.94 466.195 3.614 453.21c1.568-29.997 29.907-33.35 53.963-28.498 13.56 2.729 26.01 8.94 38.32 15.091 20.437 10.22 44.41 15.246 62.732 29.411 6.148 4.767 10.766 10.494 17.91 13.963 11.114 5.398 23.798 7.948 35.212 12.861 9.746 4.217 20.64 11.152 20.654 21.766.002 10.885-11.356 17.822-21.333 22.156-7.064 3.087-14.096 5.902-21.155 8.392z"/></g><g><path fill="url(#e2y1b)" d="M80.834 161.426c48.547-71.544 148.934-100.27 230.304-73.371 39.237 12.977 72.12 40 102.45 68.053 26.735 24.724 52.671 51.392 70.929 83.176 12.466 21.696 21.388 47.704 27.69 71.982 9.419 36.354.864 83.196-46.13 79.763-11.025-.803-20.565-4.769-30.876-8.237-8.34-2.813-16.515-1.125-25.176-2.499-21.797-3.452-42.797-11.477-62.655-20.877-40.468-19.175-77.445-45.226-119.064-62.029a288.313 288.313 0 0 0-107.303-20.917c-15.515-.025-31.828 1.06-45.706-5.877-34.205-17.114-18.823-63.261-6.049-89.22a162.487 162.487 0 0 1 11.586-19.947z"/></g><g><path fill="url(#e2y1c)" d="M461.473 172.225c7.992 7.239 39.394 27 39.999 3.81.143-5.777-2.478-11.387-6.044-15.618-4.08-4.856-8.706-7.403-11.892-13.061a134.026 134.026 0 0 0-13.255-19.178c-10.057-12.335-21.798-23.733-36.045-28.81-9.992-3.558-26.91-2.664-31.656 10.143-6.915 18.642 22.653 22.058 31.67 28.852 8.557 6.43 13.404 17.48 20.183 26.262a57.774 57.774 0 0 0 7.04 7.6z"/></g><g><path fill="url(#e2y1d)" d="M313.678 149.55c16.929 9.967 29.628 24.886 45.062 36.902 25.698 20 60.92 24.093 90.39 38.003 30.048 14.19 52.738 36.246 62.996 68.035 13.253 41.03 14.513 89.827 3.253 132.009-12.4 46.432-41.52 77.276-84.097 97.845-42.553 20.557-89.691 30.15-136.706 32.129-4.536.195-9.066.3-13.614.329-102.135.593-238.084-35.358-272.857-145.077a209.026 209.026 0 0 1-.93-3.021 159.6 159.6 0 0 1-6.276-37.558c-2.187-45.11 5.709-94.903 21.524-137.192 10.637-28.47 33.543-52.544 57.68-69.697 33.912-24.097 75.289-30.247 116.472-33.139 30.496-2.14 64.794-2.921 93.632 8.744a175.103 175.103 0 0 1 23.471 11.688z"/></g></g><g><path fill="#fb4c47" d="M384.81 545.07c-130.913 38.064-240.009 1.359-278.192-21.752l-35.456-27.19 12.273-20.392 76.367-6.798 126.823-6.797 102.277 20.392 106.368-35.347h10.91c-16.365 55.467-87.731 88.367-121.37 97.883z"/></g><g><g><g><path fill="#fb4c47" d="M116.98 492.896h325.585s11.399-187.2-30.08-214.593c-41.475-27.387-235.44-21.667-278.43 1.725-42.99 23.399-17.074 212.868-17.074 212.868z"/></g></g><g><g><path fill="#000c3e" d="M171.187 238.86c-.47 0-.945-.152-1.34-.48-.895-.73-21.77-18.302-10.354-53.717 3.994-12.384 7.91-21.152 11.355-28.897 6.217-13.934 10.709-24.01 11.563-45.536.045-1.171 1.216-2.048 2.2-2.042a2.128 2.128 0 0 1 2.037 2.206c-.882 22.347-5.759 33.27-11.925 47.103-3.406 7.643-7.27 16.304-11.19 28.467-10.495 32.553 8.203 48.472 9.006 49.134.9.747 1.03 2.082.289 2.982-.419.514-1.03.78-1.641.78z"/></g></g><g><g><path fill="#000c3e" d="M286.764 27.648c-.549 14.698-12.91 26.16-27.607 25.611-14.692-.549-26.16-12.91-25.611-27.602C234.1 10.96 246.456-.508 261.154.041c14.692.554 26.16 12.91 25.61 27.607z"/></g></g><g><g><path fill="#000c3e" d="M168.805 228.519s7.813 16.112 39.709 21.775c31.901 5.668 56.935-5.873 81.56 3.06 24.627 8.927 60.205-2.71 67.26-13.057 7.05-10.347 5.573-124.936-13.843-144.154-19.42-19.212-121.162-35.25-143.209-12.768-22.046 22.487-45.462 132.24-31.477 145.144z"/></g></g><g><g><path fill="#000c3e" d="M352.98 138.113c-1.816 48.426-42.542 86.217-90.969 84.401-48.426-1.816-86.217-42.543-84.401-90.975 1.816-48.426 42.543-86.211 90.97-84.395 48.426 1.81 86.216 42.542 84.4 90.969z"/></g></g><g><g><path fill="#ffceb0" d="M301.287 211.48s5.697 68.335 0 75.927c-5.697 7.593-41.762 1.901-51.25 0-9.493-1.895-13.289-75.926-7.597-75.926 5.697 0 57.755-15.235 58.847 0z"/></g></g><g><g><path fill="#ffceb0" d="M193.65 131.538s3.61 106.51 75.616 111.11c72.012 4.593 71.939-145.472 45.881-159.747-26.063-14.273-134.808-11.597-121.496 48.637z"/></g></g><g><g><path fill="#ee9b68" d="M267.587 154.337s13.753 32.784 10.212 34.957c-3.536 2.172-13.895 1.782-16.684-.628-2.789-2.41.849-37.995 6.472-34.329z"/></g></g><g><g><path fill="#41294a" d="M246.021 165.31a6.764 6.764 0 0 1-7.088 6.426 6.768 6.768 0 0 1-6.427-7.088 6.768 6.768 0 0 1 7.089-6.427 6.768 6.768 0 0 1 6.426 7.089z"/></g></g><g><g><path fill="#41294a" d="M304.108 162.122a6.764 6.764 0 0 1-7.089 6.427 6.768 6.768 0 0 1-6.426-7.089 6.768 6.768 0 0 1 7.088-6.427 6.768 6.768 0 0 1 6.427 7.089z"/></g></g><g><g><path fill="#000c3e" d="M250.35 74.736s-25.82 12.486-30.73 35.924c-4.917 23.444-2.371 83.462-29.73 80.707 0 0-52.97-118.78 60.46-116.63"/></g></g><g><g><path fill="#000c3e" d="M263.96 75.247c-2.342 1.68 26.623 1.606 43.182 21.684 16.565 20.072 20.496 70.247 23.054 71.175 2.562.933 12.79-62.169-5.37-81.126-18.154-18.958-47.538-21.277-60.866-11.733z"/></g></g><g><g><path fill="#ee9b68" d="M243.442 232.933s28.015 15.93 57.105 1.04c0 0 2.263 17.884 0 22.008-2.263 4.124-48.336 7.071-57.405-13.255 0 0-2.32-10.676.3-9.793"/></g></g><g><g><path fill="#ffceb0" d="M323.988 172.384s6.896-26.663 18.918-17.176c12.028 9.493 1.149 37.355-10.737 39.884-11.886 2.53-14.749-8.96-8.18-22.708z"/></g></g><g><g><path fill="#ffceb0" d="M210.417 168.128s-4.882-27.104-17.583-18.54c-12.7 8.56-3.938 37.164 7.728 40.575 11.665 3.406 15.37-7.836 9.855-22.035z"/></g></g><g><g><path fill="#41294a" d="M294.647 138.027s12.887-6.415 20.502 3.423c6.698 8.644-8.882 1.397-14.709 2.359-5.821.961-13.464.3-5.793-5.782z"/></g></g><g><g><path fill="#41294a" d="M244.004 139.269s-12.91-6.37-20.491 3.496c-6.664 8.667 8.888 1.364 14.715 2.303 5.827.944 13.47.254 5.776-5.799z"/></g></g><g><g><path fill="#fffcf6" d="M239.491 150.158a20.457 20.457 0 0 1 14.342 6.58 20.471 20.471 0 0 1 5.487 14.793 20.535 20.535 0 0 1-20.581 19.846l-.792-.017a20.457 20.457 0 0 1-14.342-6.58c-3.75-4.033-5.696-9.289-5.493-14.788.419-11.133 9.46-19.851 20.587-19.851zm-.752 44.048a23.353 23.353 0 0 0 23.41-22.562c.237-6.268-1.986-12.242-6.24-16.836-4.26-4.588-10.053-7.247-16.31-7.479l-.9-.017a23.367 23.367 0 0 0-23.415 22.567 23.316 23.316 0 0 0 6.245 16.83c4.26 4.589 10.053 7.248 16.31 7.48z"/></g></g><g><g><path fill="#fffcf6" d="M297.991 146.87a20.47 20.47 0 0 1 14.347 6.58 20.457 20.457 0 0 1 5.488 14.788c-.419 11.133-9.454 19.851-20.587 19.851l-.792-.017a20.467 20.467 0 0 1-14.341-6.58 20.457 20.457 0 0 1-5.488-14.787c.419-11.134 9.46-19.852 20.581-19.852zm-.752 44.048a23.367 23.367 0 0 0 23.415-22.567 23.316 23.316 0 0 0-6.245-16.83c-4.26-4.589-10.053-7.248-16.31-7.48l-.9-.017a23.366 23.366 0 0 0-23.41 22.568c-.237 6.262 1.98 12.236 6.24 16.83a23.296 23.296 0 0 0 16.316 7.479z"/></g></g><g><g><path fill="#fffcf6" d="M217.39 166.647c-.176 0-.351-.034-.521-.102l-8.577-3.383a1.42 1.42 0 0 1-.797-1.833 1.421 1.421 0 0 1 1.838-.797l8.577 3.388a1.41 1.41 0 0 1 .792 1.833 1.405 1.405 0 0 1-1.313.894z"/></g></g><g><g><path fill="#fffcf6" d="M318.43 162.906a1.412 1.412 0 0 1-.385-2.772l11.909-3.411c.724-.232 1.533.215 1.748.973a1.416 1.416 0 0 1-.973 1.748l-11.915 3.406c-.124.04-.26.056-.384.056z"/></g></g><g><g><path fill="#000c3e" d="M259.086 69.144s3.247 57.732 19.161 62.971c15.914 5.244 55.04 3.807 56.93-2.506 1.889-6.32-30.34-57.133-53.468-65.28-40.557-14.29-75.564 51.651-70.937 67.537 4.628 15.891 39.477 1.986 46.91-.056 7.44-2.043-.084-51.256 1.404-62.666z"/></g></g><g><g><g opacity=".21"><g opacity=".04"><g opacity=".01"><path fill="#db5c5d" d="M219.46 189.866s36.857-20.118 52.748-16.803c15.886 3.316 43.884 4.436 45.015 10.19 1.137 5.753-35.579 2.302-46.916 3.133-11.343.832-55.085 12.825-50.848 3.48z"/></g></g></g></g></g><g><g><path fill="#ee9b68" d="M240.174 177.083c-.855 0-1.664-.52-1.986-1.369a2.126 2.126 0 0 1 1.233-2.738c3.293-1.245 4.023-2.257 4.028-2.263.408-1.098 1.567-1.544 2.665-1.126 1.103.402 1.6 1.748 1.193 2.851-.333.906-1.606 2.693-6.381 4.51-.249.09-.503.135-.752.135z"/></g></g><g><g><path fill="#ee9b68" d="M295.87 175.553c-1.25 0-3.22-.413-6.229-1.969a2.118 2.118 0 0 1-.91-2.857 2.125 2.125 0 0 1 2.856-.91c3.146 1.623 4.385 1.493 4.379 1.482 1.092-.408 2.19.141 2.62 1.233.43 1.086-.238 2.365-1.325 2.795-.305.119-.752.226-1.391.226z"/></g></g><g><g><path fill="#fffcf6" d="M260.744 171.757c-.73 0-1.352-.566-1.409-1.301-.056-.781.52-1.46 1.301-1.522l14.511-1.132c.804-.124 1.466.52 1.522 1.296.062.78-.52 1.46-1.3 1.522l-14.512 1.131c-.04.006-.074.006-.113.006z"/></g></g><g><g><path fill="#000c3e" d="M243.517 53.297c-.328 0-.662-.08-.967-.238-7.79-4.016-12.43-9.617-13.798-16.644-3.01-15.421 11.003-31.952 11.597-32.648.77-.888 2.11-.996 2.993-.226.888.764.995 2.099.232 2.987-.136.158-13.278 15.688-10.659 29.084 1.115 5.686 5.007 10.285 11.575 13.68a2.115 2.115 0 0 1 .91 2.856 2.112 2.112 0 0 1-1.883 1.149z"/></g></g><g><g><path fill="#000c3e" d="M274.23 58.037c-.605 0-1.21-.26-1.629-.763a2.112 2.112 0 0 1 .266-2.982c.159-.135 15.671-13.3 15.286-26.94-.158-5.787-3.247-10.97-9.17-15.393a2.122 2.122 0 0 1-.43-2.97 2.138 2.138 0 0 1 2.97-.43c7.02 5.244 10.68 11.53 10.873 18.686.436 15.704-16.106 29.712-16.808 30.3a2.103 2.103 0 0 1-1.357.492z"/></g></g><g><g><path fill="#000c3e" d="M350.272 237.072a2.126 2.126 0 0 1-1.68-.82 2.118 2.118 0 0 1 .373-2.977c.73-.57 17.905-14.273 13.413-37.355-1.76-9.034-4.99-19.042-8.406-29.627-5.963-18.465-12.124-37.565-12.232-56.002a2.122 2.122 0 0 1 2.11-2.133h.012c1.165 0 2.116.945 2.121 2.11.102 17.782 6.161 36.558 12.022 54.724 3.463 10.709 6.732 20.83 8.537 30.12 5.001 25.695-14.16 40.885-14.975 41.518-.39.3-.843.441-1.295.441z"/></g></g><g><g><path fill="#000c3e" d="M357.342 140.305a2.121 2.121 0 0 1-2.105-2.382c2.863-23.325-1.59-42.407-13.238-56.709-18.765-23.059-50.106-25.882-50.423-25.899a2.127 2.127 0 0 1-1.94-2.291c.096-1.171 1.114-2.02 2.29-1.94 1.353.107 33.47 3.01 53.366 27.449 12.4 15.23 17.164 35.392 14.155 59.91a2.124 2.124 0 0 1-2.105 1.862z"/></g></g><g><g><path fill="#db5c5d" d="M271.189 222.768c-2.218 0-4.634-.068-6.812-.147a2.84 2.84 0 0 1-2.715-2.942c.062-1.562 1.437-2.636 2.936-2.716 4.724.187 10.528.215 11.67-.073 1.483-.52 3.05.243 3.576 1.714.532 1.465-.277 3.106-1.742 3.632-1.098.402-3.808.532-6.913.532z"/></g></g><g><g><path fill="#ee9b68" d="M203.084 183.537c-.204 0-.413-.029-.617-.096a2.114 2.114 0 0 1-1.414-2.642c3.864-12.678-5.369-21.097-5.465-21.181a2.12 2.12 0 1 1 2.823-3.168c.47.412 11.349 10.341 6.704 25.582a2.121 2.121 0 0 1-2.031 1.505z"/></g></g><g><g><path fill="#ee9b68" d="M328.88 189.752c-.062 0-.118 0-.186-.006a2.128 2.128 0 0 1-1.93-2.302c1.404-15.903 9.296-24.287 9.63-24.638a2.128 2.128 0 0 1 2.992-.056c.849.803.877 2.144.074 2.992-.074.08-7.202 7.745-8.464 22.075a2.126 2.126 0 0 1-2.115 1.935z"/></g></g><g><g><path fill="#fffcf6" d="M211.052 169.884s18.437 15.4 19.886 17.742c1.448 2.342.87 32.32-2.026 31.952-2.896-.362-20.462-28.92-22.386-28.864-1.923.057-1.069 3.14-1.069 3.14s15.06 24.875 24.106 31.89c9.046 7.021 65.517 7.344 77.019.843 11.506-6.506 21.254-30.849 20.377-31.352-.882-.51-3.072-2.495-3.44-1.658-.31.713-15.925 28.535-17.877 27.664-1.957-.871.215-31.76 0-34.68-.215-2.924 22.613-25.067 22.613-25.067l1.646-2.777-2.308-.634s-22.38 22.34-27.987 22.21c-5.606-.13-64.386 4.12-67.107 3.135-2.721-.985-20.91-20.695-23.178-19.886-2.274.804 1.098 4.583 1.731 6.342z"/></g></g><g><g><path fill="#ffceb0" d="M203.686 284.324s48.172 57.59 85.323 42.18c37.146-15.41 71.95-57.184 53.275-62.728-18.675-5.538-167.801-2.625-138.598 20.548z"/></g></g><g><g><path fill="url(#e2y1e)" d="M415.202 250.202s-6.529-50.836-8.718-54.129c-2.19-3.292-18.749 21.707-14.28 35.879 4.476 14.171-57.41 14.522-52.584 35.222 4.826 20.695 1.867 48.665 27.534 50.096 25.662 1.437 54.95-5.527 60.952-15.06 6.008-9.527-12.904-52.008-12.904-52.008z"/></g></g><g><g><path fill="#d9423d" d="M453.775 295.98s71.562 83.595 57.599 138.575c-13.963 54.98-82.037 63.88-96 56.762-13.963-7.118-8.729-242.969 38.401-195.337z"/></g></g><g><g><path fill="#d9423d" d="M122.66 285.523s-86.811 93.244-81.177 176.474c4.65 68.714 110.12 58.259 123.098 51.77 12.983-6.489 1.883-271.67-41.921-228.244z"/></g></g><g><g><path fill="#ffceb0" d="M420.156 262.287s87.14 172.362 63.204 201.87c-23.937 29.509-66.485 32.88-83.463 8.407-9.917-14.285 3.932-140.505-10.709-155.978-14.641-15.472 26.323-62.416 30.968-54.299z"/></g></g><g><g><path fill="#ffceb0" d="M286.09 439.982s59.249 22.352 68.725 41.19c9.476 18.84-25.684-4.135-33.962-7.552-8.27-3.411 21.55 20.338 22.455 25.831.9 5.488-33.18-16.191-33.18-16.191s23.676 25.045 21.345 30.267c-2.332 5.227-29.406-16.27-29.406-16.27s14.046 22.244 9.441 25.4c-4.605 3.157-35.183-33.734-60.392-32.224-25.208 1.517-120.67 56.89-156.984 1.256-36.32-55.634-5.675-82.116 64.651-81.34 70.326.78 107.778 21.44 127.306 29.633z"/></g></g></g><g><g><path fill="#ffd310" d="M272.295 10.82c4.966 5.604 1.452 23.392-1.48 34.033-4.745-9.593-11.386-25.83-8.237-32.646.707-1.532 1.884-2.414 3.7-2.779.745-.147 1.432-.22 2.065-.22 1.695 0 2.996.534 3.952 1.611zm-.716 42.03a2.201 2.201 0 0 0 1.88-1.5c1.126-3.421 10.753-33.707 2.126-43.447-1.65-1.864-4.757-3.862-10.167-2.785-3.175.633-5.538 2.45-6.83 5.247-5.372 11.636 9.183 38.356 10.862 41.365a2.193 2.193 0 0 0 2.129 1.12z"/></g><g><path fill="#ffd310" d="M302.802 22.95c1.135 1.464 1.449 2.9.982 4.523-2.078 7.214-17.724 15.147-27.588 19.3 4.745-9.966 13.72-25.72 21.148-26.708a4.2 4.2 0 0 1 .63-.045c1.717 0 3.3.963 4.828 2.93zM272.73 52.866c3.236-1.18 31.728-11.865 35.278-24.178.853-2.961.252-5.88-1.737-8.438-3.383-4.355-7.037-4.873-9.509-4.544-12.898 1.72-25.426 30.925-26.813 34.248a2.2 2.2 0 0 0 2.781 2.912z"/></g><g/></g></g></g></g></svg>